<svg id="Layer_1" data-name="Layer 1" xmlns="http://www.w3.org/2000/svg" width="378.48" height="124.21" viewBox="0 0 378.48 124.21"><defs><style>.cls-1{fill:#fff;}.cls-2{fill:#5fba46;}.cls-3{fill:#d19f2a;}.cls-4{fill:#c22033;}.cls-5{fill:#2d9a47;}.cls-6{fill:#48773c;}.cls-7{fill:#fdb714;}.cls-8{fill:#ef412a;}.cls-9{fill:#f99d25;}.cls-10{fill:#007dbb;}.cls-11{fill:#8f1838;}.cls-12{fill:#00add8;}.cls-13{fill:#f36e24;}.cls-14{fill:#ea1c2d;}.cls-15{fill:#e01a83;}.cls-16{fill:#1a3668;}.cls-17{fill:#cd8b2a;}.cls-18{fill:#00558a;}</style></defs><title>sdg-un-w</title><path class="cls-1" d="M96.56,58.63a36.76,36.76,0,0,1,2.49,26,37.8,37.8,0,0,1-20.63,24c-10.89,5.35-26.44,4.09-36.18-3-13.54-9.29-19.06-25.27-15-41A37.71,37.71,0,0,1,46.32,41.46a39,39,0,0,1,16.87-4A37.19,37.19,0,0,1,96.56,58.63ZM63.92,39.29a24.25,24.25,0,0,1,0,5.11A.86.86,0,0,1,64.1,44c.26-.15.48.08.59.25s.13.71-.1.86c.23,0,.34-.13.55-.13a27.51,27.51,0,0,1,11.68,3.55v-.08c.72-.36,1.64-.82,2.39-.19.89-.33,1.05.76,1.77.88a3.94,3.94,0,0,1,2,2.51c.16.34.68.57.75.92a14.42,14.42,0,0,1,2.8-3.24l.63-.26a34.55,34.55,0,0,0-19.61-9.29A31.5,31.5,0,0,1,63.92,39.29Zm-2.06.19a36,36,0,0,0-20,7.05c-1.13.77-2.14,2-3.28,2.63h.16a31.74,31.74,0,0,1,4.09,3.94l.09-.25a29.42,29.42,0,0,1,18.93-8l-.17-.45V40Zm6.35,2.79-2.72,1.15c-.23-.09-.65-.2-.8.09s0,.23,0,.32c1,1.26,2.72.55,3.9.32A2.37,2.37,0,0,0,71,43.51v-.13A3.76,3.76,0,0,0,68.21,42.27ZM63.9,46.84l.17.36A49.07,49.07,0,0,1,64,52.37a5.93,5.93,0,0,1,2.14.07,21.68,21.68,0,0,1,10,4,2.66,2.66,0,0,1-.86-1.36.19.19,0,0,1,.22-.07c0-.58-.57-.87-.66-1.36a.38.38,0,0,1,.4-.18,12.51,12.51,0,0,1,1.64,1.92c.41-.18.75.08,1,.31.55.32.21,1,.61,1.37.09,1.1,1.37,1.71,1.37,2.8,0,.26.34,0,.45.18l1.1,1.36c-.21.26,0,.57.19.76.5.22.77-.41,1.28-.31.72.41-.11.88,0,1.36.28,0,.62-.23.86,0s-.34.67-.51.93.33.31.63.4a.59.59,0,0,1,.45.67c.92,1-.29,2,.16,3A1.74,1.74,0,0,1,84,70.05c0,.82-.72,1.37-1,2l-.94.17c-.5.51.43,1.12-.08,1.43H84l-.22-.23a3.05,3.05,0,0,1,.29-2.63,5.79,5.79,0,0,1,1-2c.12,0,.37-.28.48,0a3.59,3.59,0,0,1-.32,1.91,5.65,5.65,0,0,1,.58,3c1.83-.12,3.63-.15,5.44-.13L91,73.21a26.71,26.71,0,0,0-2.39-9.53c-.4,0-.67.34-1.12.23a.34.34,0,0,1-.22-.38,28.81,28.81,0,0,0-2-2.24c-.94.08-1.36-1-2.22-1.12-.76-.31-.24-1.54-1.36-1.21a1.74,1.74,0,0,1-1.17-1.24,3,3,0,0,0-1-2.63c-.67-.24-1,.66-1.62.51-.37-.19-.2-.67-.31-1s-.45-.49-.38-.86c.87-1.15-1.06-1.13-.64-2.26-.11-.82-.94-1.13-1.36-1.77a30,30,0,0,0-9-2.59A5.83,5.83,0,0,1,63.9,46.84Zm16.76,0c-.4.37-.73-.32-1.08.1a.72.72,0,0,0,.12.53c.78.28.87,1.36,1.88,1.16.3-.35-.19-.7-.09-1.12a1.12,1.12,0,0,0-.83-.63Zm-33.25,5c-1.16.8-2.21,1.83-3.39,2.53a30.69,30.69,0,0,1,3.74,3.47l.13.35A22.18,22.18,0,0,1,59,52.59a9.56,9.56,0,0,1,2.92-.22,36.61,36.61,0,0,1,0-5.34A28.45,28.45,0,0,0,47.41,51.87Zm41.16-1.69a42.22,42.22,0,0,1-3.69,4l-.63.13c.38.1.49.56.76.83,1.36.72,1.7,2.17,2.89,3,.67,1.37,2.2,2.47,2.26,4.09A29.38,29.38,0,0,1,93,73.7l-.13.22a.67.67,0,0,0,.43-.16l5.34-.1c-.35-.52-.2-1.28-.3-1.9A36.57,36.57,0,0,0,88.57,50.18Zm-50.95.13a36.51,36.51,0,0,0-9.53,20.22c-.2,1.12-.08,2.26-.3,3.39a39,39,0,0,1,5.72,0l-.07-.69A30.2,30.2,0,0,1,39,57.35a15.49,15.49,0,0,1,2.47-2.83c-1.19-1.13-2.46-2.44-3.71-3.69ZM62,54.17l-.32.19a21.51,21.51,0,0,0-12.34,5.25,49,49,0,0,1,3.94,3.68l.28-.4A16.71,16.71,0,0,1,59.19,60,8.21,8.21,0,0,1,62,59.61,23.57,23.57,0,0,1,62,54.17Zm1.94,0,.2.4v5l.47-.08a16.27,16.27,0,0,1,8.32,3.39l.14.38c.83-1.17,2.09-2.16,3.07-3.28l.93-.53-.45-.19a21.92,21.92,0,0,0-6.71-3.74A32.08,32.08,0,0,0,63.92,54.17ZM42.69,55.53v.35l-2,2.62a29.55,29.55,0,0,0-5.29,15.37l5.08-.09.47.18c-.2-.12-.15-.35-.22-.53a22.41,22.41,0,0,1,5.91-13.91,36.91,36.91,0,0,1-3.9-3.91Zm35.39,5.14-.08.22c-1.71,1.79-3.58,3.62-5.21,5.45a1.22,1.22,0,0,0,.5.53c0-.44.31-.83.36-1.29.44-.62,1.1-.22,1.68-.1a12.22,12.22,0,0,1,2.63.19c.67.34.72,1.18,1.36,1.53a.49.49,0,0,1-.18.68h0c.19,1.36.86-.37,1.55,0,.3.11.67.07.9.38.11.57.82.46.85,1,0,.27-.34.36-.53.51.16.55-.58.89-.32,1.49,1.08.21,1.11-1,1.61-1.59a9.65,9.65,0,0,0-1-2.8c-.61-.13-1-.85-1.59-1-1.18-.47.18-1.2,0-1.91a22.86,22.86,0,0,0-2.45-3.25ZM48,61a21.83,21.83,0,0,0-5,10.26A15.92,15.92,0,0,1,42.55,74a4.76,4.76,0,0,1,2.31-.1c-.42-.22-.06-.75-.31-1a1.12,1.12,0,0,1,.31-1.36c0-.76.77-1.15.85-1.83s1.09-.26,1.51-.67c.27-.15,0-.41,0-.61.37-.49.94-.48,1.36-.77a4.13,4.13,0,0,1,1.24-1.29c1.12,0,1.13-1.51,2.19-1.55A43.22,43.22,0,0,1,48,61Zm16,.62a32.53,32.53,0,0,1,.26,3.82l1.36.45c.39-.65,1.24-.77,1.62-1.36.23-.2.52,0,.69.22a3.65,3.65,0,0,1-.17,1.43c-.51,1-1.69,1.13-2.36,1.85.44.24.67-.21,1-.3a2.26,2.26,0,0,1,1.24.83,1,1,0,0,0,1-.16c.21-1.54,2.13-1.37,2.73-2.73l-.36.13c-.13-.21-.51-.11-.49-.45a4.15,4.15,0,0,1,1.11-.89A19.49,19.49,0,0,0,66.31,62,16.55,16.55,0,0,1,64,61.56ZM54,65.45h.41c.45.45,1.17.36,1.51.94.17.34-.32.3-.3.57s.22.1.3.24c.34.12.28-.21.4-.36.46-.46.54.45,1,.45a.68.68,0,0,1,1,.09l0,0c.29-.26.93,0,1-.5.58-.6.27-1.55,1.12-1.93.3.16,0,.43.09.69.57.25,1.23-.48,1.69.1a11.74,11.74,0,0,1-.29-4.09A12.69,12.69,0,0,0,54,65.43Zm9,3.08c-.3-.34-.94-.14-1.36,0,.36.37.23,1,.45,1.5a3.52,3.52,0,0,1-2.36,1.36c-.24.3-.18.94-.76.88-.18.41-.82.66-.57,1.24a11.06,11.06,0,0,0-.32,2.14c-1.09.68-.77-.91-1.36-1.24l-.19.31a.74.74,0,0,1-.52-.21.54.54,0,0,0-.53.08c-.24.41-.61.75-.51,1.36-.11.33-.67.22-.6.57a12,12,0,0,0,1.88-.26c.42.11.77-.2,1.19-.23a.41.41,0,0,1,.26.45h.15a.74.74,0,0,0,.3-.88c0-.4.46-.4.72-.51.23.11.1.36.13.53.84.33-.21.93-.32,1.36s0,1.15-.69,1a.25.25,0,0,1-.19-.31h-.1a1,1,0,0,0,.51.83c.51-.43.53-1.15,1.28-1.24.38-.41-.18-1,.4-1.36,1,0,2-.44,2.73.34,0,.34-.18.49.09.76a3.54,3.54,0,0,1-.66,1.24.66.66,0,0,1-.18.71c-.26,1.13-1.57.59-2.32,1a5.92,5.92,0,0,0,4.09,1.11c.8,0,.45-1,.86-1.47.25-1.29,1.44-.41,2.16-.76a5.23,5.23,0,0,0,.63-1.72,1.25,1.25,0,0,1-.51-1.36c-.31-.42-.27-1.21-1-1.28A.37.37,0,0,1,65.9,74c0-.41.39-.53.5-.84-.42-.29-.31-.9-.27-1.24-.74.2-.8-.75-1.36-.95-.14-.42-.6-.49-1-.57-.88.42-1-.67-1.7-.93-.08-.2-.23-.5,0-.67s.78,0,1.16,0ZM46.91,73.08c-1.5.47.24,1.6-.14,2.53-.2.54-.75,0-1.14.26l-.15,1c-.22.58-.94.15-1.28.54s0,.76.23,1c-.52,1.19,1.16,1.57,1.14,2.64.52.66,0,1.62.67,2.22.16,1.2-.16,2.83.88,3.77l.19,1.13c.22.79-1,.59-.8,1.3.23-.11.29.19.3.25h0a48.43,48.43,0,0,1,4.77-4.84l-.71-.71A18.43,18.43,0,0,1,48,77.84l-.54-.27c0,.6-.3,1.06-.26,1.65l-.19.21c-.38,0-.63-.32-1-.53-.09-.2-.29-.53,0-.7a.61.61,0,0,1,.45.13c.16-.2.09-.5.19-.76s-.34-.86,0-1.24c.34,0,.61.38.74.63.36.11.64-.18.93-.32,0-.31.45-.73,0-.92a4.51,4.51,0,0,0,0-2.19C48.09,72.91,47.41,73,46.91,73.08Zm34.67.62c-.15.08-.35,0-.54,0A1.23,1.23,0,0,1,81.58,73.7Zm-1.15,1.81.58.59c.57.38.18,1.21.79,1.55a4.87,4.87,0,0,1,1.36,1.84,1.78,1.78,0,0,0,.18-.55c.26-1,.22-2.16.53-3.17A7.56,7.56,0,0,1,80.43,75.51Zm12.67.26-.31-.22.17.51A29.66,29.66,0,0,1,87.1,92.5a12.37,12.37,0,0,1-2.18,2.39A41.35,41.35,0,0,1,89,99l.15-.27A35.7,35.7,0,0,0,98.4,76.09l.21-.45-.27.13Zm-7.43-.12A19.68,19.68,0,0,1,85.44,79l.61.66a.68.68,0,0,1-.12.85.75.75,0,0,1-.86,0,24.31,24.31,0,0,1-3.24,7.08c-.62.77-1.2,1.85-2,2.26l1.68,1.48c.1-.1,0-.24,0-.37s.11-.49.4-.45c.8,0,.83.85,1.36,1.36-.09.71.52,1.27.31,1.91A27.39,27.39,0,0,0,91,76.07l.28-.3c-1.68.17-3.44,0-5.16,0Zm-43.22,0,.29.45A14.66,14.66,0,0,1,43,79.72c.2-.35.26-.83.71-1,0-.34-.45-.42-.4-.76.36-.68,0-1.8.93-2.1a2.12,2.12,0,0,1-1.79-.11Zm-8.91,0-.51.19H27.89a37.71,37.71,0,0,0,4.53,16.34,61.93,61.93,0,0,0,4.93,6.91L41,95.27l.43-.18a11.51,11.51,0,0,1-1.71-1.78,2.48,2.48,0,0,1-1.55-1.19c-.19-.2,0-.57-.23-.72l-.22.27c-.66.33-.89-.34-1.36-.62s-.3-1.36-1.08-1.2c-.3,0-.39-.35-.57-.54-.72.08-.91-.73-1.29-1.11-.09.17,0,.38-.24.49-.73.18-1-.73-1.49-1.1-.13,0-.22.2-.41.16a2.17,2.17,0,0,1-.76-1.55c-.6-.69-.33-1.78-.22-2.61.11-.22.42-.36.37-.63.16-.39.57-.43,1-.45a.81.81,0,0,1,.37.36c.24-.15.78,0,.57-.52a2.55,2.55,0,0,1,1.21-.45A7.23,7.23,0,0,0,34.65,83l-.26-.39A28.3,28.3,0,0,1,33.51,77c0-.11-.25-.16-.1-.27h0a4.53,4.53,0,0,1,.13-1Zm7.24,0-.41.19a44.45,44.45,0,0,1-5.16-.12l.23.31.41,3.4a26.85,26.85,0,0,1,.7,3.87c.2-.27.08-.83.58-.88-.2-.41.38-.77,0-1.12a3.74,3.74,0,0,1,1-2.44c1,0,1-1.28,2-1.36.49,0,.79.63,1,.85a3.52,3.52,0,0,1-.35-2.58Zm9.53,2.29c.52,1,.79,2,1.36,3,.33.84,1.08,1.51,1.36,2.34a12.9,12.9,0,0,1,1.57-1.81,1,1,0,0,0-.18-.72c-.16-.4,0-.94-.31-1.28-.48.16.16.65,0,.92a.28.28,0,0,1-.4-.09.56.56,0,0,1,0-.12,1.25,1.25,0,0,1-.91-.71c.34-.23-.09-.33-.19-.5s-.2-.09-.35.09a.45.45,0,0,1-.28,0c0-1.1-1.19-.41-1.64-1Zm5.81,1.45a2.69,2.69,0,0,1-.76,1.22h0c.45-.32.76-.89,1.36-.93Zm14.64,1.53a1.34,1.34,0,0,0,.3.88c.72-.11.41.89,1.07.81.37-.13,0-.44.13-.67-.11-.56-.66-.61-1-1a.4.4,0,0,1,.09-.3c-.29,0-.42.15-.58.35Zm10.48,0c-.54,0-1.18.27-1.65-.1-.16-.15-.28,0-.25.22-.19.27-.37.63-.81.5s-.32-.5-.43-.76a2.13,2.13,0,0,1-.1.57,7.08,7.08,0,0,0-.8,1.24c-.38.44-1,.29-1.36.64-.08.89-1.06.7-1.62,1,0,.11.09.13.15.22a.75.75,0,0,0,.8-.19c.78.2.61-.78,1-1.1.39,0,.76-.4,1.17-.14a2.56,2.56,0,0,1,.43,1.88c-.43.44-.21,1.16-.53,1.68.07.61-.66.89-.57,1.51a1.34,1.34,0,0,1-1,.31,17.12,17.12,0,0,0-4.63-1.06.32.32,0,0,0-.22.35c.67.36,1.47.37,2.18.67s1.06.94,1.85.71,1.79.21,2.22-.49c0-.68.53-1.19.82-1.77h.23c.37.38.34.95.52,1.36.52-.56.92-1.17,1.36-1.74a16.58,16.58,0,0,0,2.72-5.74,6.22,6.22,0,0,0-1.52.41Zm-23.33,0a29.81,29.81,0,0,1-3.43,3.67,14.06,14.06,0,0,0,6.67,3.08c.12-.5-.08-1.13.17-1.55a.89.89,0,0,1,1.07-.31.32.32,0,0,0,.27-.35.35.35,0,0,0-.06-.14c-.53-.11-.28-.7-.47-1,0-.18.32-.15.26-.38-.37-.3.19-.64-.14-1,.14-.1.23-.3.41-.3-1.16.61-2.43-.12-3.46-.59-.49-.12-1.2-.39-1.31-1Zm10.75,3.24c0,.14-.26.41,0,.49.45-.46,1.36-.44,1.36-1.1a2.58,2.58,0,0,0-1.37.77Zm2.1,1.36c-.57,0-.87.44-1.36.79s-.78-.56-1.21-.35c0,.09.1.13.19.17a.41.41,0,0,1,0,.53c-.63.58-.93-.27-1.53-.21v.39c0,.14,0,.33-.22.26-.36-.61-1.13-.4-1.49-.93a.52.52,0,0,0-.64.19c-.18.2-.73,0-.58.44-.46.18-.51.67-.84,1-.57-.1-.83.55-1.36.53,0,.12,0,.3.16.32a2.09,2.09,0,0,0,1.08.13c.56-.89,1.48-.15,2.26-.48.49.1.15.61.5.79.76-.23,1.36.65,2,.1,0-.88.94-.79,1.48-1,.83-.49,1.77-1.15,1.68-2.27ZM52.88,86a25.79,25.79,0,0,1-3.69,3.77c.58,0,.9.67,1.37,1A22.93,22.93,0,0,0,60,95l-.89-.41c-.66-.76-1.6-1.64-1.65-2.72.67-.22.59-.95.82-1.46a3.65,3.65,0,0,1,1.93-.83c-1.86.78-3.49-.61-5-1.36-.79-.61-1.83-1.09-2.31-2Zm25.75,5.35L78.49,91a2.9,2.9,0,0,1-.83,1.07c0,.3-.09.73.26.94.74.24,1.7.72,1.87,1.59-.29.82-1.86,1.56-.89,2.45.31.45-.45.61-.31,1l.26-.35A26,26,0,0,0,82.14,95h.14c-.23-.08-.51.14-.77,0-.51-.23-.61-.69-.61-1.24Zm-29.79.71L48.77,92l.07.23Zm.6.79a.79.79,0,0,1-.45-.58Zm.12.15c.11.44.71.72.55,1.28a1.63,1.63,0,0,1-1.49.5c-1.06-.16-1.84.63-2.83.73s-1.23-.83-2.06-.73a29.16,29.16,0,0,0,17.93,7.69l.52.34-.23-.62V97.34l-.44.19a21.62,21.62,0,0,1-12-4.49Zm34.2,3.47-.09-.45a10,10,0,0,1-2.54,2.45c-1.2,1.2-3.16,1.46-3.77,3.2-.65.6-.87,1.52-1.78,1.85-.33.88-1.28.83-1.81,1.48-1.57,1.36-2.56-.88-4-1.17l-2.83.51a9.34,9.34,0,0,1-2.89,0,40.24,40.24,0,0,1,0,5.81l.36-.22a36,36,0,0,0,23.24-9.79Zm-41.11,0v.21l-3.87,3.74a37.47,37.47,0,0,0,19.74,9.23,32.6,32.6,0,0,1,3.69.45l-.29-.45v-5l.19-.29-.57.15a29.1,29.1,0,0,1-18.89-8.14ZM63.8,97.73l.27.41a35,35,0,0,1,0,4.58,28,28,0,0,1,4.46-.63,1.65,1.65,0,0,1-.82-.49c-.87,0-1.28-.95-1.55-1.65s.19-.9.39-1.36c-.37-.76-1.51-.2-2.18-.48C64.18,98,64.06,97.73,63.8,97.73Z" transform="translate(-10.86 -25.96)"/><path class="cls-1" d="M97.87,44.5a16.43,16.43,0,0,1,4.73,8.84l.45,1A39.14,39.14,0,0,1,93,43.7l-3.07-3.15C92.64,41.74,95.55,42.42,97.87,44.5Z" transform="translate(-10.86 -25.96)"/><path class="cls-1" d="M29,49.33A60.08,60.08,0,0,1,22.81,55c1.12-2.3,1.14-5,2.72-7.16,2.25-3.91,6.39-5.27,10.09-6.71A46.37,46.37,0,0,0,29,49.33Z" transform="translate(-10.86 -25.96)"/><path class="cls-1" d="M107.49,53.42c.87,3.89-.39,7.69.41,11.61h0c-2.11-4.17-6.6-6.13-9.71-9.53a13.25,13.25,0,0,1-3-6.78c1.77,4.28,6.55,5.21,9.3,8.81a11.94,11.94,0,0,1,1.81,2.93l.1-.1c-1.58-3.47-2.11-7.21-3.22-10.81a8.32,8.32,0,0,0-3.1-4.08C103.62,46.22,106.76,50,107.49,53.42Z" transform="translate(-10.86 -25.96)"/><path class="cls-1" d="M25.63,46.15c-3.68,2.57-3.43,7-4.6,10.74-.37,1.36-1,2.72-1.37,4.08l.1.09a12.85,12.85,0,0,1,3-4.4c2.61-2.4,6.47-3.91,7.75-7.46,0,4.94-4.2,8.83-8.17,11.61A16.61,16.61,0,0,0,18.3,65.7c-.09-1.24.18-2.49.1-3.83-.44-4.31-.75-9.24,2.31-12.46A9.1,9.1,0,0,1,25.63,46.15Z" transform="translate(-10.86 -25.96)"/><path class="cls-1" d="M109.8,54.28a17.32,17.32,0,0,1,1.63,16.6,28.34,28.34,0,0,0-1.88,6.81c-.17-.41-.21-1-.36-1.36-1.29-5-6.06-8.55-8-13.26a24.92,24.92,0,0,1-1.36-4.79c2.08,3.82,7.18,5.81,8.57,10a18.22,18.22,0,0,1,.83,3.56s.15,0,.15-.13a48.23,48.23,0,0,1,.17-13.2,10.89,10.89,0,0,0-1.57-6.4C108.87,52.63,109.23,53.55,109.8,54.28Z" transform="translate(-10.86 -25.96)"/><path class="cls-1" d="M17.79,52.89c-2.81,4.27-.43,9.66-.62,14.54l-.37,5s0,.18.2.12a16.76,16.76,0,0,0,.36-1.71c.67-4,4.16-6.88,7.21-9.66a7.56,7.56,0,0,0,1.55-2.31,20.39,20.39,0,0,1-1.7,5.87c-2.37,4.63-6.81,8.42-7.56,13.72-.44-5.06-3.91-8.86-3.58-14.25A17.13,17.13,0,0,1,17.54,53S17.7,52.87,17.79,52.89Z" transform="translate(-10.86 -25.96)"/><path class="cls-1" d="M112.88,83.11c-1.95,2.72-4.3,5.34-6.1,8.17a15.56,15.56,0,0,0-.41-7.08,62.36,62.36,0,0,1-3.24-14.15v-1.9c1.13,5.09,6.14,8.59,5.83,14.29a12.15,12.15,0,0,1-.58,3.79l.09.09.23-.26A54.78,54.78,0,0,1,111,77.71c1.65-3.76,3.68-7.56,2.85-12.09C116.37,71,115.6,78.11,112.88,83.11Z" transform="translate(-10.86 -25.96)"/><path class="cls-1" d="M16.37,81.4a48.36,48.36,0,0,0,1.36,5.65c.08,0,.14,0,.19-.1-1.9-5.34.83-10.28,3.6-14.45a14.3,14.3,0,0,0,1.36-3.68,30.9,30.9,0,0,1-.67,7.67c-.67,3.19-1.67,6.21-2.53,9.3a14.29,14.29,0,0,0-.14,6.14l-.27-.23c-1.91-3.77-6-6.68-7.13-10.75a22.58,22.58,0,0,1-1-10.54,19.44,19.44,0,0,1,1.15-4.09C11.2,72.15,15.09,76.32,16.37,81.4Z" transform="translate(-10.86 -25.96)"/><path class="cls-1" d="M105.23,91.88A13.26,13.26,0,0,1,103,98.6h.16a85.59,85.59,0,0,1,5.25-7c3.22-3.12,6.5-6.31,6.93-10.62,1.1,7.2-3,13.51-8.92,17.59-2.47,1.62-5,3.11-7.34,4.95v-.23c3.62-6,1.85-14.31,4.08-20.94L104,80C103.57,84.23,105.37,87.73,105.23,91.88Z" transform="translate(-10.86 -25.96)"/><path class="cls-1" d="M25.7,100.06c.39,1.36,1.18,2.59,1.7,3.91-5.52-3.76-13-7.34-15.48-14.23a17.16,17.16,0,0,1-.93-8c.45,6.12,7,9.37,10.09,14.44a16.87,16.87,0,0,0,2.33,3c-.15-.64-.76-1.2-1-1.86a13.32,13.32,0,0,1-1.19-7.25c.3-3.13,1.6-6,1.11-9.33C25,86.56,24.17,93.78,25.7,100.06Z" transform="translate(-10.86 -25.96)"/><path class="cls-1" d="M97,104.63a18.37,18.37,0,0,1-3.79,4.54c.49,0,.91-.44,1.36-.72,4-4,9.18-5.07,13.47-8.29A12.83,12.83,0,0,0,112.13,95c-.8,6.57-7.35,12.74-13.52,14.7-3.18.86-6.59,1.13-9.68,2.19,5.25-4.5,4.95-11.46,8.44-16.76,1.12-1.49,2-3.07,3.34-4.5C98.53,95,99.46,100.46,97,104.63Z" transform="translate(-10.86 -25.96)"/><path class="cls-1" d="M30.87,99.09c1.85,4.56,2.56,9.71,6.81,13.16-4.63-1.53-10.07-1.09-14.14-4-4.46-2.73-8.45-7.4-9.28-12.5,3.1,6.94,10.81,7.51,16,11.76a12.86,12.86,0,0,0,3,2.06h0a17.86,17.86,0,0,1-3.33-3.72c-3-4.21-2-10.09-4.22-14.61A34.44,34.44,0,0,1,30.87,99.09Z" transform="translate(-10.86 -25.96)"/><path class="cls-1" d="M85.8,112.71a31.12,31.12,0,0,1-3.71,1.36,39.69,39.69,0,0,0,4.83-.74c6.11-1,13.11,0,17.38-5.17a16.4,16.4,0,0,1-9.2,7.94c-6.25,2.35-12.52-.53-18.5-1.5l-1.16-.15h0a16.57,16.57,0,0,0,7.91-3.55c3.36-3.23,6.35-6.54,10.06-9.07C90.65,105.32,90.36,110.35,85.8,112.71Z" transform="translate(-10.86 -25.96)"/><path class="cls-1" d="M43,111a17.29,17.29,0,0,0,8.17,3.65c-.72.26-1.66.19-2.44.4-5.45,1.36-11.4,3.49-17.11,1.55a16.63,16.63,0,0,1-9.44-7.79c4.93,5.62,13,3.74,19.57,5.21a9.59,9.59,0,0,0,2.72.36c-.78-.51-1.87-.45-2.72-.9-5.15-1.81-5.91-7.39-8.7-11.15A79.67,79.67,0,0,1,43,111Z" transform="translate(-10.86 -25.96)"/><path class="cls-1" d="M83.19,118.55a14.29,14.29,0,0,0,12.62-1.36,15,15,0,0,1-6.67,4.67c-5.56,2.07-11.36-.1-15.7-3.39-1.76-1.12-3.31-2.73-5.58-2.58a7.88,7.88,0,0,0-2.32.22,43,43,0,0,1,11.73,8.17,17.76,17.76,0,0,1-2.14,1.93,41.57,41.57,0,0,0-11.56-9.42,7.62,7.62,0,0,0-2.38,1,35.82,35.82,0,0,0-9.53,8.5l-2.23-1.83a40.79,40.79,0,0,1,11.79-8.4c-4.24-1.36-7,2.21-10.2,4a14.91,14.91,0,0,1-20.16-2.44,14.49,14.49,0,0,0,12.89,1.1c5.44-2.34,11-5.32,17.59-3.9,1,0,2,1,3,.17a20.86,20.86,0,0,1,14.55,1.77Z" transform="translate(-10.86 -25.96)"/><path class="cls-1" d="M157.86,63.24h8.25c7.42,0,12.2,5.11,12.2,12.6v.33c0,7.48-4.78,12.63-12.2,12.63h-8.25ZM163.15,68V84h2.92c4,0,6.76-2.81,6.76-7.89V76c0-5.08-2.74-7.93-6.76-7.93Z" transform="translate(-10.86 -25.96)"/><path class="cls-1" d="M181.08,63.24h16.47V68H186.34V73.5h9.86v4.78h-9.86V84H197.7V88.8H181.08Z" transform="translate(-10.86 -25.96)"/><path class="cls-1" d="M198.57,63.24h5.74l5.4,17.6,5.41-17.6h5.59L212.09,89H207.2Z" transform="translate(-10.86 -25.96)"/><path class="cls-1" d="M222.53,63.24H239V68H227.79V73.5h9.87v4.78h-9.87V84h11.36V88.8H222.53Z" transform="translate(-10.86 -25.96)"/><path class="cls-1" d="M242,63.24h5.3V84H257.6V88.8H242Z" transform="translate(-10.86 -25.96)"/><path class="cls-1" d="M257.56,76.28v-.44c0-7.67,4.82-13,11.58-13s11.54,5.33,11.54,13v.44c0,7.64-4.82,13-11.58,13S257.56,83.91,257.56,76.28Zm17.64-.11v-.26c0-5-2.55-8.22-6.1-8.22s-6.1,3.14-6.1,8.18v.26c0,5,2.6,8.22,6.14,8.22S275.2,81.21,275.2,76.17Z" transform="translate(-10.86 -25.96)"/><path class="cls-1" d="M283.53,63.24H292c5.73,0,9.35,3.32,9.35,8.76v.08c0,5.88-4.2,8.83-9.57,8.94h-3V88.8h-5.29Zm8.25,13a3.91,3.91,0,0,0,4.27-3.52,3.62,3.62,0,0,0,0-.57h0c0-2.67-1.54-4.13-4.35-4.13h-2.85v8.26Z" transform="translate(-10.86 -25.96)"/><path class="cls-1" d="M303.51,63.24h5.55l5.7,10.37,5.62-10.37H326V88.8h-5.19V72.5l-6,10.55h-.11l-6-10.48V88.8h-5.15Z" transform="translate(-10.86 -25.96)"/><path class="cls-1" d="M329.73,63.24H346.2V68H335V73.5h9.87v4.78H335V84h11.36V88.8H329.73Z" transform="translate(-10.86 -25.96)"/><path class="cls-1" d="M349.16,63.24H354l9.84,14.9V63.24H369V88.8h-4.58L354.34,73.35V88.8h-5.18Z" transform="translate(-10.86 -25.96)"/><path class="cls-1" d="M377.65,68.13h-6.43V63.24h18.12v4.89h-6.43V88.8h-5.26Z" transform="translate(-10.86 -25.96)"/><path class="cls-1" d="M155.71,50.55l3.45-4.28c1.88,1.64,4.16,3.16,7,3.16,2.24,0,3.6-1.12,3.6-2.76h0c0-1.41-.8-2.29-4.81-3.81-5-1.92-8-3.8-8-8.61v-.08c0-4.89,3.77-8.21,9.18-8.21a13.33,13.33,0,0,1,9,3.44l-3.27,4.37a9.82,9.82,0,0,0-6-2.61c-2,0-3.25,1-3.25,2.45h0c0,1.6,1,2.36,5.33,4.16,4.89,1.93,7.53,4,7.53,8.38v.08c0,5.2-4,8.41-9.41,8.41A15,15,0,0,1,155.71,50.55Z" transform="translate(-10.86 -25.96)"/><path class="cls-1" d="M177.94,43.42V26.28h5.81V43.5c0,4,1.88,5.93,4.89,5.93s4.88-1.92,4.88-5.81V26.28h5.77v17c0,7.73-4.24,11.46-10.73,11.46S177.94,51,177.94,43.42Z" transform="translate(-10.86 -25.96)"/><path class="cls-1" d="M201,50.55l3.45-4.28c1.88,1.64,4.16,3.16,7,3.16,2.24,0,3.6-1.12,3.6-2.76h0c0-1.41-.8-2.29-4.8-3.81-5-1.92-8.06-3.8-8.06-8.61v-.08c0-4.89,3.77-8.21,9.18-8.21a13.33,13.33,0,0,1,9,3.44l-3.24,4.41a9.82,9.82,0,0,0-6-2.61c-2,0-3.25,1-3.25,2.45h0c0,1.6,1,2.36,5.33,4.16,4.89,1.93,7.53,4,7.53,8.38v.08c0,5.2-4,8.41-9.41,8.41A15,15,0,0,1,201,50.55Z" transform="translate(-10.86 -25.96)"/><path class="cls-1" d="M228.37,31.64h-7V26.28h19.87v5.36h-7.05V54.32h-5.77Z" transform="translate(-10.86 -25.96)"/><path class="cls-1" d="M248.68,26.12h5.53l10,28.2h-6l-2.08-6.09h-9.65l-2,6.09h-5.85Zm5.73,17-3-9.13-3.08,9.13Z" transform="translate(-10.86 -25.96)"/><path class="cls-1" d="M266.46,26.28h5.81v28h-5.81Z" transform="translate(-10.86 -25.96)"/><path class="cls-1" d="M276.6,26.28h5.32l10.74,16.34V26.28h5.69v28h-5l-11.1-17v17h-5.68Z" transform="translate(-10.86 -25.96)"/><path class="cls-1" d="M310.4,26.12h5.53L326,54.32h-6l-2.13-6.09h-9.65l-2,6.09h-5.85Zm5.73,17-3-9.13L310,43.12Z" transform="translate(-10.86 -25.96)"/><path class="cls-1" d="M328,26.28H338.4c3.13,0,5.73.84,7.33,2.44a6.47,6.47,0,0,1,1.89,4.78v.12a6.58,6.58,0,0,1-3.76,6.12c3,1.16,5,3,5,6.69v.2c0,5-4,7.69-10.14,7.69H328Zm13.87,8.22c0-2-1.45-3.13-3.93-3.13H333.6V37.7h4c2.56,0,4.21-1,4.21-3.16Zm-3.17,8.09H333.6v6.57h5.26c2.61,0,4.25-1.12,4.25-3.29h0c0-2-1.5-3.25-4.39-3.25Z" transform="translate(-10.86 -25.96)"/><path class="cls-1" d="M351.54,26.28h5.81V49h11.33v5.33H351.54Z" transform="translate(-10.86 -25.96)"/><path class="cls-1" d="M371.09,26.28h18.06V31.5H376.86v6h10.82V42.8H376.86v6.25h12.46V54.3H371.09Z" transform="translate(-10.86 -25.96)"/><path class="cls-1" d="M183.59,119.93h25c-.44,20.13-11.54,30.24-26.51,30.24-16.09,0-26.4-13.57-26.4-28.15s10.35-28.14,26.44-28.14c17.82,0,22.72,11.11,24.74,16.89l-11.33.71c-1.94-4.76-5.84-8-13.41-8-8.51,0-15.15,6.93-15.15,18.47,0,9.73,6.13,18.48,15.9,18.48,8.72,0,12.77-6.19,13.7-11.33h-13Z" transform="translate(-10.86 -25.96)"/><path class="cls-1" d="M315.57,95h10.78v44.05h20.83v10.08H315.57Z" transform="translate(-10.86 -25.96)"/><path class="cls-1" d="M377.42,109.27c0-3.74-3.59-6-7.95-6-5.4,0-8.63,2.38-8.63,6,0,3.75,3.59,5.55,6.25,6.41l9.93,3.17c7.2,2.3,12.3,6.48,12.3,14.82,0,6.63-4.74,16.56-19.71,16.56-18.77,0-20.5-12.17-20.5-17L359.9,133c0,5.75,4.53,7.95,9.78,7.95,3.67,0,8.84-1.77,8.84-6,0-2.89-1.23-4.42-6.55-6.34l-11.8-4.25c-6-2.15-10.15-7.4-10.15-13.53,0-6.9,4.76-16.79,18.78-16.79,16.7,0,19.36,11.08,19.36,15Z" transform="translate(-10.86 -25.96)"/><path class="cls-2" d="M225.86,115.36a15.87,15.87,0,0,1,2.4-3.07l-7.85-8.61a26.85,26.85,0,0,0-5,6.48Z" transform="translate(-10.86 -25.96)"/><path class="cls-3" d="M245.1,109.27a15.19,15.19,0,0,1,3.29,2.07l7.87-8.6a26.83,26.83,0,0,0-7-4.35Z" transform="translate(-10.86 -25.96)"/><path class="cls-4" d="M263.12,111.87l-10.42,5.21a15.24,15.24,0,0,1,1,3.69l11.6-1.1a26.8,26.8,0,0,0-2.22-7.8" transform="translate(-10.86 -25.96)"/><path class="cls-5" d="M251.94,115.57l10.42-5.2a26.54,26.54,0,0,0-4.87-6.48l-7.87,8.6a15.17,15.17,0,0,1,2.32,3.08" transform="translate(-10.86 -25.96)"/><path class="cls-6" d="M223.8,123v-.7l-11.6-1c0,.58-.07,1.16-.07,1.77a26.93,26.93,0,0,0,.79,6.45l11.21-3.21a15.38,15.38,0,0,1-.35-3.24" transform="translate(-10.86 -25.96)"/><path class="cls-7" d="M250.49,132.52a15.51,15.51,0,0,1-2.84,2.65l6.13,9.92a26.92,26.92,0,0,0,6-5.57Z" transform="translate(-10.86 -25.96)"/><path class="cls-8" d="M253.9,123a14.94,14.94,0,0,1-.35,3.2l11.21,3.23a26.75,26.75,0,0,0,.78-6.43c0-.54,0-1.09-.05-1.64l-11.6,1.1V123" transform="translate(-10.86 -25.96)"/><path class="cls-9" d="M227.4,132.74l-9.28,7.08a26.79,26.79,0,0,0,6.06,5.48l6.13-9.9a15.32,15.32,0,0,1-2.91-2.66" transform="translate(-10.86 -25.96)"/><path class="cls-10" d="M224,120.61a15.22,15.22,0,0,1,1.12-3.74l-10.45-5.2a26.51,26.51,0,0,0-2.3,7.89Z" transform="translate(-10.86 -25.96)"/><path class="cls-11" d="M252.35,146l-6.11-9.91a15,15,0,0,1-3.54,1.45L244.86,149a26.54,26.54,0,0,0,7.53-3" transform="translate(-10.86 -25.96)"/><path class="cls-12" d="M253.11,127.84a15,15,0,0,1-1.63,3.35l9.3,7.07a26.68,26.68,0,0,0,3.53-7.16Z" transform="translate(-10.86 -25.96)"/><path class="cls-13" d="M241,137.89a14.57,14.57,0,0,1-3.94.05L235,149.41a28.59,28.59,0,0,0,3.92.28,26.13,26.13,0,0,0,4.32-.35Z" transform="translate(-10.86 -25.96)"/><path class="cls-14" d="M239.81,108a14.75,14.75,0,0,1,3.72.71l4.19-10.89a26.64,26.64,0,0,0-7.95-1.5Z" transform="translate(-10.86 -25.96)"/><path class="cls-15" d="M235.43,137.65a14.71,14.71,0,0,1-3.69-1.4l-6.12,9.92a26.6,26.6,0,0,0,7.66,2.94Z" transform="translate(-10.86 -25.96)"/><path class="cls-16" d="M234.33,108.62a14.87,14.87,0,0,1,3.8-.68V96.28a26.72,26.72,0,0,0-8,1.5Z" transform="translate(-10.86 -25.96)"/><path class="cls-17" d="M226.38,131.37a14.6,14.6,0,0,1-1.77-3.53l-11.2,3.22a27.07,27.07,0,0,0,3.69,7.39Z" transform="translate(-10.86 -25.96)"/><path class="cls-18" d="M229.52,111.17a15.38,15.38,0,0,1,3.23-2l-4.21-10.86a26.23,26.23,0,0,0-6.87,4.21Z" transform="translate(-10.86 -25.96)"/><path class="cls-1" d="M297.87,137.69H277.81l-3.53,11.5H262.43l20-54.94h11.48l19.72,54.9h-12ZM288,107.51h-.14l-6.92,21.28H295Z" transform="translate(-10.86 -25.96)"/></svg>