<svg xmlns="http://www.w3.org/2000/svg" width="846.92" height="248.62" viewBox="0 0 846.92 248.62"><defs><style>.cls-1{fill:#00adee;}.cls-2{fill:#3a8dde;}.cls-3{fill:#5fba46;}.cls-4{fill:#e4b634;}.cls-5{fill:#c4202e;}.cls-6{fill:#4d9f46;}.cls-7{fill:#3f7f44;}.cls-8{fill:#f9c213;}.cls-9{fill:#ee402b;}.cls-10{fill:#f89e28;}.cls-11{fill:#1896d3;}.cls-12{fill:#a11c44;}.cls-13{fill:#25bde2;}.cls-14{fill:#f16a2b;}.cls-15{fill:#e7223c;}.cls-16{fill:#dc1768;}.cls-17{fill:#17486a;}.cls-18{fill:#c7982e;}.cls-19{fill:#03699c;}</style></defs><title>Asset 1ES</title><g id="Layer_2" data-name="Layer 2"><g id="OUTLINES"><path class="cls-1" d="M292.69,105.58H312.9c16.29,0,25.86,9.57,25.86,26.85s-11.86,26.86-25.57,26.86h-20.5Zm19.78,44.57c11,0,15.14-9.43,15.14-17.79,0-9-3.85-17.64-16-17.64H303.4v35.43Z"/><path class="cls-1" d="M344.18,105.58h34.28v9.57H354.89v12.21h22.93v9.57H354.89v12.79h23.57v9.57H344.18Z"/><path class="cls-1" d="M399.53,105.58h20.21c16.29,0,25.86,9.57,25.86,26.85S433.74,159.29,420,159.29h-20.5Zm19.79,44.57c11,0,15.14-9.43,15.14-17.79,0-9-3.86-17.64-16-17.64h-8.22v35.43Z"/><path class="cls-1" d="M451,105.58h34.29v9.57H461.74v12.21h22.93v9.57H461.74v12.79h23.57v9.57H451Z"/><path class="cls-1" d="M516.59,119.72c0-3.71-3.57-6-7.86-6-5.35,0-8.57,2.36-8.57,5.93s3.57,5.5,6.22,6.36l9.85,3.14c7.15,2.28,12.22,6.43,12.22,14.71,0,6.57-4.72,16.43-19.57,16.43-18.65,0-20.36-12.07-20.36-16.85l10.71-.22c0,5.72,4.5,7.93,9.72,7.93,3.64,0,8.78-1.79,8.78-5.93,0-2.86-1.21-4.36-6.5-6.28l-11.71-4.22c-5.93-2.14-10.07-7.36-10.07-13.43,0-6.85,4.71-16.71,18.64-16.71,16.57,0,19.21,11,19.21,14.93Z"/><path class="cls-1" d="M563.66,148.08H544l-3.5,11.21H528.94l19.57-53.71H559.8l19.28,53.71H567.3Zm-9.72-29.57h-.14L547,139.36H560.8Z"/><path class="cls-1" d="M598.65,138.08h-6.29v21.21H581.65V105.58h20.07c11.29,0,17.71,7.07,17.71,16,0,5.64-3.07,13-10,15.07l12.5,22.64H609.15Zm.86-8.72c7.35,0,9.21-3.92,9.21-7.35,0-3.86-1.86-7.29-9.57-7.29h-6.79v14.64Z"/><path class="cls-1" d="M642.22,138.08h-6.29v21.21H625.22V105.58h20.07c11.28,0,17.71,7.07,17.71,16,0,5.64-3.07,13-10,15.07l12.5,22.64H652.72Zm.85-8.72c7.36,0,9.22-3.92,9.22-7.35,0-3.86-1.86-7.29-9.57-7.29h-6.79v14.64Z"/><path class="cls-1" d="M692.57,104.58c16.71,0,26.14,13.43,26.14,27.85s-9.43,27.86-26.14,27.86-26.15-13.43-26.15-27.86S675.85,104.58,692.57,104.58Zm0,9.57c-10,0-15,8.64-15,18.28s5,18.29,15,18.29,15-8.64,15-18.29S702.57,114.15,692.57,114.15Z"/><path class="cls-1" d="M724.13,105.58h10.71v43.71h20.65v10H724.13Z"/><path class="cls-1" d="M759.77,105.58h10.71v43.71h20.65v10H759.77Z"/><path class="cls-1" d="M819.19,104.58c16.72,0,26.15,13.43,26.15,27.85s-9.43,27.86-26.15,27.86-26.14-13.43-26.14-27.86S802.48,104.58,819.19,104.58Zm0,9.57c-10,0-15,8.64-15,18.28s5,18.29,15,18.29,15-8.64,15-18.29S829.19,114.15,819.19,114.15Z"/><path class="cls-1" d="M328.76,193.49c0-5.05-4.85-8.15-10.68-8.15-7.28,0-11.64,3.2-11.64,8,0,5.05,4.85,7.48,8.44,8.64l13.39,4.27c9.71,3.11,16.6,8.74,16.6,20,0,8.94-6.41,22.33-26.59,22.33-25.34,0-27.66-16.4-27.66-22.91l14.55-.29c0,7.77,6.12,10.77,13.2,10.77,4.95,0,11.94-2.42,11.94-8.05,0-3.88-1.65-5.92-8.83-8.54l-15.92-5.73c-8.05-2.91-13.68-10-13.68-18.24,0-9.32,6.4-22.72,25.33-22.72,22.52,0,26.11,15,26.11,20.29Z"/><path class="cls-1" d="M385,172.91c22.71,0,35.52,18.25,35.52,37.86S407.66,248.62,385,248.62s-35.52-18.25-35.52-37.85S362.24,172.91,385,172.91Zm0,13c-13.59,0-20.38,11.74-20.38,24.85s6.79,24.84,20.38,24.84,20.38-11.74,20.38-24.84S398.54,185.92,385,185.92Z"/><path class="cls-1" d="M463.17,193.49c0-5.05-4.85-8.15-10.68-8.15-7.28,0-11.64,3.2-11.64,8,0,5.05,4.85,7.48,8.44,8.64l13.39,4.27c9.71,3.11,16.6,8.74,16.6,20,0,8.94-6.41,22.33-26.59,22.33-25.34,0-27.67-16.4-27.67-22.91l14.56-.29c0,7.77,6.12,10.77,13.2,10.77,5,0,11.94-2.42,11.94-8.05,0-3.88-1.65-5.92-8.83-8.54L440,213.87c-8.05-2.91-13.68-10-13.68-18.24,0-9.32,6.4-22.72,25.33-22.72,22.51,0,26.11,15,26.11,20.29Z"/><path class="cls-1" d="M501.3,187.28H482.09v-13h53v13H515.86v60H501.3Z"/><path class="cls-1" d="M540.7,174.27h46.59v13h-32v16.6h31.16v13H555.26v17.37h32v13H540.7Z"/><path class="cls-1" d="M608.64,197.47h-.2v49.79h-14v-73h15.62l29.61,49h.19v-49h14v73h-15Z"/><path class="cls-1" d="M665.21,174.27h14.56v73H665.21Z"/><path class="cls-1" d="M691.12,174.27H717c15.53,0,23.58,8,23.58,19.8,0,8.06-4.56,12.62-9.8,15.05v.19c6.5,1.55,12.13,7.47,12.13,16.6,0,13.39-10.29,21.35-25.33,21.35h-26.5Zm23.4,30c6.89,0,11.54-3.1,11.54-8.93,0-6-4.46-8.63-10.28-8.63h-10.1v17.56Zm.77,30.58c9.22,0,12.52-4.08,12.52-9.22,0-4.66-2.91-9.52-11.35-9.52H705.68v18.74Z"/><path class="cls-1" d="M750.32,174.27h14.56v59.4h28v13.59H750.32Z"/><path class="cls-1" d="M798.75,174.27h46.59v13h-32v16.6h31.15v13H813.31v17.37h32v13H798.75Z"/><path class="cls-2" d="M173,80.21c7.78,15,10,35.65,4.94,52.59-5.13,20-22,40.24-41.56,48.47-22.06,10.81-53.41,8.12-73.08-6C36,156.55,24.77,124.27,33,92.4c5-18.92,20.09-38,38.53-46.82a78.86,78.86,0,0,1,34-8.08C133.79,37.54,160.72,54.1,173,80.21Zm-65.9-39a52.88,52.88,0,0,1,.11,10.33,1.54,1.54,0,0,1,.34-.9c.52-.3,1,.15,1.19.52,0,.53.27,1.42-.18,1.72.45.08.67-.26,1.08-.26a55.88,55.88,0,0,1,23.6,7.18v-.18c1.46-.72,3.33-1.65,4.83-.38,1.79-.67,2.13,1.53,3.59,1.8,1.76,1,3.74,3,4,5.05.34.67,1.39,1.15,1.53,1.86,1.2-2.54,3.6-4.33,5.65-6.54l1.27-.52c-11.29-10.78-24.72-16.72-39.68-18.78C112,41.65,109.37,41.87,107.09,41.16Zm-4.19.38c-15,.59-28.39,5.72-40.25,14.25-2.28,1.57-4.3,4-6.62,5.31h.34a64.73,64.73,0,0,1,8.27,8l.18-.52c10.93-10,23.64-15.41,38.23-16.08l-.34-.9-.11-9Zm12.83,5.65-5.39,2.31c-.45-.18-1.31-.41-1.61.19-.22.19,0,.45.08.64,2,2.54,5.42,1.12,7.89.63,1.8.75,3.52-.15,4.86-1.27v-.26C120.29,47.63,117.9,47.37,115.73,47.19ZM107,56.42l.38.71c-.08,3.48.15,7.18-.19,10.44,1.42-.49,2.88.11,4.3.15,7.33,1.2,14.25,3.55,20.12,8.08a5.34,5.34,0,0,1-1.72-2.7.43.43,0,0,1,.45-.14c.08-1.17-1.16-1.76-1.35-2.81a.78.78,0,0,1,.83-.34,24.14,24.14,0,0,1,3.29,3.86c.82-.34,1.5.18,2.09.63,1.09.64.42,2,1.24,2.77.15,2.21,2.84,3.44,2.69,5.65,0,.52.67.11.9.37l2.24,2.77a1.11,1.11,0,0,0,.38,1.53c1,.45,1.57-.82,2.58-.63,1.46.82-.23,1.79-.08,2.69.56,0,1.28-.45,1.72.11.19.82-.67,1.35-1,1.87,0,.82.68.64,1.27.82a1,1,0,0,1,.9,1.35c1.87,2-.56,4,.34,6.1.6,1.34-.15,2.65-1,3.66,0,1.65-1.46,2.66-2.06,4l-1.91.38c-1,1,.86,2.24-.15,2.88l4.19.07-.45-.45a6.2,6.2,0,0,1,.56-5.31c.64-1.35.79-3,2-4.11.26-.08.75-.56,1,0a7.53,7.53,0,0,1-.64,3.85c1.2,1.72,1.05,4,1.16,6.1,3.71-.23,7.33-.3,11-.27l-.34-.71a53.72,53.72,0,0,0-4.86-19.37c-.78,0-1.34.67-2.24.45a.7.7,0,0,1-.45-.75c-1.5-1.42-2.43-3.29-4.11-4.56-1.91.18-2.77-2-4.49-2.25-1.54-.63-.49-3.1-2.7-2.43a3.6,3.6,0,0,1-2.35-2.5c0-2-.38-4-2.14-5.32-1.34-.48-1.9,1.31-3.25,1-.75-.37-.41-1.34-.63-2s-.9-1-.79-1.72c1.76-2.32-2.13-2.28-1.27-4.56-.22-1.65-1.91-2.28-2.77-3.59a60.45,60.45,0,0,0-18.14-5.2C109.89,56.84,108.4,57.17,107,56.42Zm33.85.08c-.78.75-1.46-.68-2.17.18a1.59,1.59,0,0,0,.26,1.09c1.57.56,1.76,2.84,3.78,2.32.6-.67-.37-1.39-.19-2.25A2.21,2.21,0,0,0,140.86,56.5ZM73.73,66.56c-2.32,1.61-4.46,3.7-6.85,5.12,2.77,1.76,5.05,4.68,7.56,7l.26.71A44.83,44.83,0,0,1,97.14,68c2-.19,4-.86,5.91-.45A74.51,74.51,0,0,1,103,56.8,57.32,57.32,0,0,0,73.73,66.56Zm83.1-3.4a87.26,87.26,0,0,1-7.44,8l-1.27.26c.78.19,1,1.12,1.53,1.68,2.73,1.46,3.44,4.38,5.84,6,1.34,2.8,4.45,5,4.56,8.19a59.29,59.29,0,0,1,5.68,23.22l-.29.45a1.59,1.59,0,0,0,.89-.33l10.77-.19c-.71-1-.41-2.58-.59-3.85C175.09,90,168,75.72,156.83,63.16ZM54,63.42C43.32,75.27,36.73,88.81,34.83,104.26c-.41,2.25-.15,4.56-.6,6.84a76.91,76.91,0,0,1,11.56,0l-.27-1.45A60.86,60.86,0,0,1,56.74,77.59c1.69-1.91,2.92-4.3,5-5.72-2.44-2.28-5-4.94-7.52-7.44Zm49.18,7.81-.63.38c-9.51.67-17.73,4.64-25,10.58,2.84,2,5.38,5.16,8,7.45.19-.27.38-.53.57-.83,3.55-2.54,7.21-4.86,11.4-5.91,1.87-.18,3.7-1.08,5.65-.63A49.7,49.7,0,0,1,103.16,71.23Zm3.93.08.37.82-.07,10.14,1-.19c6.21.86,11.89,2.84,16.79,6.85l.27.78c1.68-2.36,4.22-4.38,6.2-6.62L133.49,82l-.89-.38a43.72,43.72,0,0,0-13.47-7.78A67.16,67.16,0,0,0,107.09,71.31Zm-42.9,2.8-.08.71-4,5.13c-6.62,9.09-9.76,19.6-10.69,31l10.24-.18,1,.37c-.42-.26-.3-.71-.45-1.08C61,99.44,64.71,89.94,72.08,82A74.48,74.48,0,0,1,64.19,74.11Zm71.55,10.4-.19.45c-3.44,3.59-7.22,7.29-10.51,11a2.58,2.58,0,0,0,1,1.08c.15-.89.64-1.68.71-2.61.9-1.24,2.24-.45,3.41-.19,1.79-.41,3.47.41,5.31.37,1.34.68,1.46,2.4,2.69,3.07a1.07,1.07,0,0,1-.37,1.42c.37,2.81,1.71-.75,3.14-.07.59.22,1.34.15,1.79.78.23,1.16,1.65.94,1.72,2.06-.11.56-.71.71-1.08,1,.34,1.12-1.16,1.83-.64,3,2.17.41,2.24-2.1,3.26-3.22a20.56,20.56,0,0,0-2.1-5.65c-1.23-.26-2-1.72-3.21-2-2.4-.93.37-2.43.07-3.85A45,45,0,0,0,135.74,84.51Zm-60.86.38a44.09,44.09,0,0,0-10.06,20.72c-.41,1.79-.18,3.89-.89,5.57,1.31-.6,3.21-.37,4.67-.19-.86-.45-.15-1.53-.63-2.13-.12-.93-.27-2.09.63-2.69-.11-1.54,1.53-2.32,1.68-3.71.42-1.57,2.21-.52,3.07-1.34.56-.3.08-.82.08-1.24.74-1,1.9-1,2.8-1.53a8.05,8.05,0,0,1,2.51-2.62c2.24.08,2.28-3.06,4.41-3.14A91.34,91.34,0,0,1,74.88,84.89Zm32.32,1.23c.71,2.13.07,5.27.52,7.74l2.7.9c.78-1.31,2.5-1.57,3.25-2.8.49-.42,1,0,1.42.44a7.56,7.56,0,0,1-.45,3c-1,2-3.4,2.28-4.75,3.74.86.48,1.35-.42,2.06-.6a4.52,4.52,0,0,1,2.51,1.68c.67.3,1.3-.11,1.9-.34.41-3.1,4.31-2.65,5.46-5.57l-.71.26c-.29-.41-1-.22-1-.9a7.9,7.9,0,0,1,2.25-1.79A38,38,0,0,0,111.69,87,36.4,36.4,0,0,1,107.2,86.12ZM87.08,93.94h.82c.9.9,2.36.71,3,1.91.34.67-.64.59-.6,1.15.19.15.45.19.6.45.71.27.56-.41.82-.71.94-.93,1.09.9,2,.9a1.38,1.38,0,0,1,2,.26c.6-.52,1.87,0,2-1,1.16-1.23.53-3.14,2.25-3.92.6.33,0,.89.18,1.42,1.16.48,2.48-1,3.41.18-.86-2.43-.64-5.46-.56-8.15C97,87.21,91.49,89.26,87.08,93.94Zm18.14,6.21c-.6-.68-1.91-.27-2.69,0,.74.74.44,2.09.89,3-1.12,1.86-3,2.28-4.75,2.8-.48.6-.37,1.91-1.53,1.8-.38.82-1.65,1.3-1.16,2.5-.6,1.27-.3,2.92-.64,4.3-2.2,1.39-1.57-1.83-2.69-2.5l-.37.63c-.45.12-.75-.15-1-.45-.34-.11-.9-.22-1.2.08-.48.82-1.23,1.5-1,2.62-.23.67-1.35.45-1.2,1.16a21,21,0,0,0,3.78-.53c.86.23,1.57-.41,2.43-.45a.81.81,0,0,1,.52.9h.3a1.51,1.51,0,0,0,.6-1.79c.07-.79.93-.79,1.46-1,.48.22.18.71.26,1.08,1.68.64-.41,1.87-.64,2.77-.45.71,0,2.32-1.42,2.09a.51.51,0,0,1-.37-.63h-.19a1.91,1.91,0,0,0,1,1.68c1-.86,1.08-2.32,2.58-2.51.79-.82-.34-2.09.82-2.76,1.95,0,4-.86,5.58.71-.12.67-.38,1,.18,1.53a7.35,7.35,0,0,1-1.34,2.51,1.3,1.3,0,0,1-.38,1.42c-.52,2.28-3.14,1.2-4.67,2a11.85,11.85,0,0,0,8.26,2.25c1.61-.08.9-2.06,1.72-3,.53-2.62,2.92-.82,4.38-1.53a10.56,10.56,0,0,0,1.27-3.48,2.49,2.49,0,0,1-1-2.81c-.63-.86-.56-2.43-1.94-2.58a.73.73,0,0,1,.15-.9c0-.82.78-1.08,1-1.72-.86-.56-.64-1.79-.56-2.5-1.46.41-1.61-1.5-2.7-1.91-.26-.86-1.19-1-1.94-1.16-1.8.86-2.1-1.35-3.44-1.87-.15-.41-.45-1,0-1.35.67-.56,1.57-.07,2.35-.11Zm-32.51,9.23c-3,1,.49,3.26-.26,5.13-.41,1.08-1.53.07-2.32.52l-.29,2c-.46,1.16-1.91.3-2.59,1.09-.48.75,0,1.53.45,2.13-1,2.39,2.36,3.14,2.32,5.31,1,1.35-.15,3.29,1.35,4.49.34,2.43-.34,5.72,1.79,7.63l.38,2.32c.45,1.61-1.91,1.2-1.61,2.62.45-.23.56.37.6.52v-.07a98.65,98.65,0,0,1,9.61-9.8l-1.42-1.42A37.46,37.46,0,0,1,75,119l-1.09-.56c0,1.19-.59,2.13-.52,3.32l-.37.45c-.79,0-1.27-.67-2-1.08-.15-.41-.56-1.09.08-1.42a1.22,1.22,0,0,1,.9.26c.33-.41.18-1,.37-1.53.11-.9-.67-1.73-.11-2.51.71-.07,1.23.78,1.53,1.27.71.23,1.27-.37,1.87-.63,0-.64.9-1.5-.07-1.87a8.82,8.82,0,0,0-.08-4.42C75.11,109.05,73.73,109.27,72.71,109.38Zm70,1.28c-.3.15-.71,0-1.08.07A2.64,2.64,0,0,1,142.73,110.66Zm-2.32,3.66,1.16,1.16c1.16.79.38,2.47,1.61,3.14,1.46.75,2,2.43,2.62,3.71a4.57,4.57,0,0,0,.34-1.09c.52-2.06.44-4.38,1.08-6.4C145,115,142.4,115.18,140.41,114.32Zm25.59.52-.64-.44.37,1a60.22,60.22,0,0,1-11.85,33.21c-1.39,1.65-2.7,3.66-4.42,4.82a78,78,0,0,1,8.35,8.2l.3-.57c11.44-13,17.95-28.16,18.66-45.66l.45-.9-.56.26Zm-15-.26c.22,2.28-.38,4.49-.53,6.74l1.24,1.34a1.37,1.37,0,0,1-.26,1.72,1.46,1.46,0,0,1-1.72-.11c-1.57,5-3.41,9.91-6.55,14.29-1.23,1.57-2.43,3.74-4,4.56l3.4,3c.19-.18.08-.48.12-.74,0-.45.22-1,.78-.9,1.65,0,1.69,1.72,2.62,2.62-.19,1.42,1.05,2.54.64,3.85,9.42-9.95,14.14-22.14,15-35.65l.53-.59c-3.37.33-6.92.11-10.4.14Zm-87.26.12.56.89c.07,2.47,1,4.83.52,7.33.42-.71.53-1.68,1.42-2.13.12-.67-.89-.86-.78-1.53.71-1.39,0-3.63,1.87-4.23C66,115.26,64.86,115.52,63.74,114.7Zm-18,.14-1,.38-10.4-.08A76.22,76.22,0,0,0,43.47,148c2.65,4.94,6.54,9.39,10,14l7.44-7.7.9-.38a22,22,0,0,1-3.48-3.59,5.12,5.12,0,0,1-3.14-2.39c-.38-.41,0-1.16-.45-1.46l-.45.56c-1.31.64-1.8-.71-2.69-1.27-1.16-.64-.6-2.84-2.17-2.43-.6,0-.79-.71-1.16-1.09-1.46.15-1.84-1.46-2.62-2.24-.15.34,0,.78-.45,1-1.5.34-2-1.5-3-2.25-.26.12-.45.42-.82.34a4.38,4.38,0,0,1-1.54-3.14c-1.23-1.38-.67-3.59-.45-5.27.23-.45.87-.71.75-1.27.34-.79,1.16-.87,1.95-.9a2,2,0,0,1,.75.71c.48-.3,1.57,0,1.16-1.05a4.91,4.91,0,0,1,2.43-.9A15.45,15.45,0,0,0,48,129.58l-.52-.82a59.3,59.3,0,0,1-1.8-11.37c0-.23-.49-.34-.19-.56l.08.11A11.92,11.92,0,0,1,45.71,114.84Zm14.63,0-.83.38c-3.48-.08-7.1.22-10.4-.26l.45.63.83,6.89c.33,2.65,1.49,5.19,1.42,7.81.41-.56.15-1.68,1.16-1.79-.41-.83.78-1.54.11-2.25.34-1.79.56-3.63,2.13-4.93,1.91-.08,2.06-2.58,4-2.7,1,0,1.57,1.27,2,1.72C60,118.88,60,116.49,60.34,114.84Zm19.22,4.61c1,1.94,1.61,4.15,2.69,6.09.68,1.72,2.17,3.07,2.84,4.75.72-1.34,2.14-2.43,3.15-3.66a2,2,0,0,0-.34-1.46c-.34-.79,0-1.91-.64-2.58-1,.33.34,1.31-.07,1.87a.6.6,0,0,1-.9-.45,2.47,2.47,0,0,1-1.79-1.68c.71-.45-.19-.64-.38-1-.37-.19-.41-.15-.71.18a1,1,0,0,1-.56-.07C82.85,119.3,80.46,120.57,79.56,119.45Zm11.74,3a5.39,5.39,0,0,1-1.53,2.43l.11.08c.9-.64,1.54-1.8,2.7-1.87Zm29.55,3.07a2.71,2.71,0,0,0,.6,1.79c1.46-.22.82,1.8,2.17,1.61.75-.22,0-.86.26-1.35-.22-1.12-1.31-1.23-2.06-1.9-.07-.23.08-.41.19-.6C121.45,124.72,121.19,125.06,120.85,125.47Zm21.17.07c-1.08-.07-2.39.56-3.33-.18-.34-.3-.56.14-.52.44-.37.57-.75,1.28-1.61,1-.67-.3-.67-1-.9-1.53a4,4,0,0,1-.18,1.16,12.56,12.56,0,0,0-1.61,2.51c-.79.86-2.06.56-2.88,1.27-.15,1.79-2.13,1.42-3.26,2-.07.22.19.26.3.45a1.44,1.44,0,0,0,1.61-.38c1.57.42,1.24-1.57,2.13-2.24.79-.11,1.54-.79,2.36-.26a5.35,5.35,0,0,1,.9,3.78c-.9.89-.45,2.35-1.09,3.4.15,1.23-1.34,1.79-1.16,3a2.62,2.62,0,0,1-2.05.64,34.89,34.89,0,0,0-9.36-2.14.67.67,0,0,0-.44.71c1.34.71,3,.75,4.41,1.35,1.27.34,2.13,1.91,3.74,1.42,1.35-.75,3.59.45,4.49-1-.15-1.38,1.05-2.39,1.64-3.59l.45-.11c.75.78.71,1.94,1.05,2.8,1-1.12,1.87-2.35,2.8-3.51A33.31,33.31,0,0,0,145,125,11.27,11.27,0,0,0,142,125.54Zm-47.12,0c-1.61,2.62-4.68,5-6.92,7.45a28.5,28.5,0,0,0,13.46,6.2c.26-1-.15-2.28.37-3.14s1.39-.78,2.14-.63a.64.64,0,0,0,.44-1c-1.08-.22-.59-1.42-1-2.09,0-.37.68-.3.53-.79-.75-.59.37-1.27-.27-1.9.27-.19.45-.6.83-.6-2.36,1.23-4.9-.26-7-1.2C96.54,127.3,95.12,126.74,94.9,125.54Zm21.73,6.55c-.12.3-.53.82,0,1,.89-.94,2.8-.9,2.87-2.25C118.19,130.67,117.52,131.38,116.63,132.09Zm4.22,2.8c-1.16,0-1.76.9-2.62,1.61-1,.6-1.57-1.12-2.43-.71,0,.19.23.26.38.34a.85.85,0,0,1,0,1.08c-1.27,1.16-1.87-.56-3.07-.45v.45c0,.26-.07.67-.45.53-.75-1.24-2.28-.79-3-1.88-.49-.26-.93.08-1.27.38-.26.56-1.46-.07-1.16.9-.94.33-1,1.34-1.72,1.94-1.16-.19-1.68,1.12-2.77,1.09.12.22,0,.59.34.63a3.73,3.73,0,0,0,2.17.26c1.12-1.79,3-.3,4.56-1,1,.19.3,1.24,1,1.61,1.53-.49,2.69,1.31,3.93.19-.08-1.76,1.91-1.61,3-2.06,1.68-1,3.59-2.36,3.4-4.6Zm-36.09,1.05a56,56,0,0,1-7.44,7.63c1.16.07,1.79,1.35,2.76,1.91,5.61,4.67,12.61,6.92,19.12,8.53l-1.8-.83c-1.35-1.53-3.25-3.33-3.33-5.46,1.35-.45,1.2-1.94,1.65-2.95a7.44,7.44,0,0,1,3.92-2.17c-3.77,1.57-7.06-1.24-10.21-2.7C87.83,138.71,85.73,137.74,84.76,135.94Zm52,10.44-.26-.72a6.22,6.22,0,0,1-1.69,2.14c0,.59-.18,1.49.53,1.9,1.5.49,3.44,1.46,3.78,3.22-.6,1.64-3.74,3.14-1.8,4.94.64.9-.9,1.23-.63,2l.52-.71a53,53,0,0,0,6.66-5.57h.26c-.45-.15-1,.3-1.54.07a2.38,2.38,0,0,1-1.23-2.5ZM76.57,147.8l-.15-.27.15.45Zm1.2,1.6a1.61,1.61,0,0,1-.9-1.15Zm.26.3c.22.9,1.42,1.46,1.08,2.58-.63,1-1.94,1.05-3,1-2.13-.34-3.7,1.26-5.72,1.49-1.84.56-2.47-1.68-4.16-1.49,10.4,9.08,22.3,14.77,36.21,15.51l1,.72-.45-1.27v-9.88l-.9.38A43.25,43.25,0,0,1,78,149.7Zm69.11,7-.18-.9c-1.05,2.06-3.37,3.37-5.13,4.94-2.43,2.43-6.39,2.95-7.63,6.47-1.31,1.19-1.75,3.07-3.59,3.74-.67,1.79-2.58,1.68-3.66,3-3.14,2.81-5.16-1.79-8-2.36l-5.72,1c-2,0-4,.72-5.83.08a88.45,88.45,0,0,1,0,11.74l.71-.45c18-.78,33.59-7.63,46.94-19.74Zm-83-.11L64,157l-7.7,7.74c11.67,10.1,24.83,16.6,39.87,18.66,2.39.41,5.12.19,7.44.9l-.56-.9V173.31l.37-.57-1.16.3C87.67,172,74.77,166.87,64.11,156.59Zm42.72,2.62.56.82c0,3.06.37,6.21,0,9.24,2.76-.94,6-.79,9-1.28a3.07,3.07,0,0,1-1.64-1c-1.76-.11-2.58-1.94-3.14-3.33-.27-1,.41-1.83.82-2.69-.75-1.53-3.07-.41-4.41-1C107.61,159.73,107.35,159.28,106.83,159.21Z"/><path class="cls-2" d="M175.61,51.67c5.5,4.9,8,11.26,9.57,17.84l.9,2.1a78.66,78.66,0,0,1-20.27-21.55l-6.21-6.28C165.06,46.1,170.93,47.48,175.61,51.67Z"/><path class="cls-2" d="M36.55,61.43C32.88,66,28.21,69,24.05,72.84c2.25-4.64,2.32-10.17,5.5-14.43,4.53-7.9,12.91-10.66,20.39-13.58C44.44,49.65,40.62,55.75,36.55,61.43Z"/><path class="cls-2" d="M195.06,69.7c1.75,7.86-.79,15.52.82,23.45l-.07.08c-4.27-8.42-13.36-12.38-19.6-19.12-3.63-4-5.2-8.86-6.1-14,3.59,8.64,13.24,10.55,18.77,17.8,1.88,1.68,2.48,4,3.67,5.91l.19-.19c-3.18-6.8-4.26-14.47-6.47-21.73A17,17,0,0,0,180,53.65C187.24,55.15,193.56,62.74,195.06,69.7Z"/><path class="cls-2" d="M29.74,55c-7.41,5.09-6.92,14.21-9.28,21.81-.74,2.8-2.05,5.38-2.69,8.26l.19.15a25.64,25.64,0,0,1,6.09-9c5.28-4.87,13.06-7.9,15.64-15.08-.11,10-8.45,17.84-16.42,23.45C20,87.5,16.8,90.8,15,94.5c-.18-2.51.38-5,.19-7.74C14.33,78,13.7,68.09,19.87,61.62A18.55,18.55,0,0,1,29.74,55Z"/><path class="cls-2" d="M199.73,71.42c6.62,9,8.08,23.26,3.26,33.55a59,59,0,0,0-3.78,13.84c-.34-.82-.41-2-.71-2.88-2.62-10.06-12.16-17.24-16.08-26.74a49.69,49.69,0,0,1-2.89-9.69c4.2,7.74,14.52,11.75,17.32,20.27,1.16,2.17,1.09,4.86,1.8,7.18a.29.29,0,0,0,.3-.26A98,98,0,0,1,199.28,80c-.07-4.71-.52-9.27-3.14-12.9C197.83,68.09,198.57,70,199.73,71.42Z"/><path class="cls-2" d="M13.92,68.62C8.23,77.26,13,88.14,12.68,98L11.94,108c.11.07.11.37.37.26.34-1.12.41-2.32.64-3.48,1.34-8.11,8.38-13.88,14.55-19.49a15.8,15.8,0,0,0,3.14-4.67A41.67,41.67,0,0,1,27.2,92.52c-4.79,9.35-13.65,17-15.26,27.71-.79-10.25-7.78-17.91-7.07-28.8-.23-8.83,3.44-16,8.6-22.63C13.62,68.73,13.73,68.58,13.92,68.62Z"/><path class="cls-2" d="M205.94,129.66c-3.93,5.57-8.68,10.77-12.3,16.45.41-4.48.93-10-.83-14.28-3-9.17-5.68-18.48-6.54-28.54l.11-3.85c2.28,10.28,12.38,17.35,11.75,28.87.22,2.81-.64,5.16-1.16,7.63l.18.19.45-.53c1.5-5.64,2.25-11.59,4.56-16.86,3.33-7.6,7.45-15.27,5.76-24.43C213,105.12,211.44,119.56,205.94,129.66Z"/><path class="cls-2" d="M11,126.07c1.08,3.77,1.35,7.85,2.88,11.4.15.08.26-.07.37-.18-3.85-10.78,1.69-20.76,7.26-29.18a28,28,0,0,0,2.8-7.44c.6,4.86-.63,10.47-1.34,15.52-1.35,6.43-3.37,12.53-5.13,18.78-1.16,3.89-.86,8.3-.26,12.38l-.56-.45C13,139.38,4.91,133.51,2.51,125.28.53,118.74-.78,111.14.57,104a39.27,39.27,0,0,1,2.32-8.15C.6,107.51,8.46,115.93,11,126.07Z"/><path class="cls-2" d="M190.49,147.35a26.76,26.76,0,0,1-4.56,13.57h.45c3.59-4.71,6.4-9.72,10.59-14.21,6.5-6.28,13.12-12.71,14-21.43,2.21,14.55-5.94,27.3-18,35.53-5,3.26-10,6.28-14.82,10v-.45c7.33-12.19,3.74-28.91,8.27-42.3l1.68-4.49C187.13,131.9,190.76,139,190.49,147.35Z"/><path class="cls-2" d="M29.89,163.88c.79,2.77,2.39,5.24,3.44,7.89C22.18,164.18,7,157,2.06,143.05,0,138.26-.26,132.31.19,126.81c.9,12.38,14.22,18.93,20.39,29.18,1.46,2.09,2.73,4.41,4.67,6.17-.3-1.31-1.53-2.43-2-3.78a26.65,26.65,0,0,1-2.43-14.62c.6-6.32,3.25-12.2,2.24-18.85C28.51,136.61,26.86,151.2,29.89,163.88Z"/><path class="cls-2" d="M173.89,173.12a37.13,37.13,0,0,1-7.63,9.16c1,0,1.83-.9,2.69-1.46,8-8,18.52-10.25,27.19-16.75,3.48-2.77,6.66-6.4,8.19-10.33-1.64,13.28-14.85,25.74-27.3,29.7-6.43,1.72-13.32,2.28-19.56,4.41,10.58-9.08,10-23.15,17.05-33.84,2.25-3,4.12-6.21,6.74-9.09C177,153.56,178.82,164.74,173.89,173.12Z"/><path class="cls-2" d="M40.33,161.9c3.73,9.2,5.16,19.6,13.8,26.55-9.35-3.06-20.31-2.2-28.54-8-9-5.54-17.06-14.93-18.74-25.25,6.21,14.06,21.77,15.22,32.2,23.79a26,26,0,0,0,6.1,4.15l.11-.11c-2.39-2.17-5.16-4.64-6.84-7.45-6.1-8.49-4-20.38-8.53-29.51C34,151.09,37.82,156.25,40.33,161.9Z"/><path class="cls-2" d="M151.26,189.28c-2.28,1.49-5.16,1.75-7.52,2.88,3.37.07,6.43-1.13,9.76-1.46,12.35-1.95,26.48,0,35.12-10.48-3.21,7.33-11.25,13.47-18.58,16.05-12.61,4.75-25.29-1.08-37.37-3l-2.32-.3v-.07c5.76-1.31,11.37-3,16-7.18,6.77-6.51,12.79-13.21,20.31-18.33C161.06,174.5,160.46,184.67,151.26,189.28Z"/><path class="cls-2" d="M64.75,185.87c4.79,4.19,10.55,6.14,16.61,7.37-1.46.52-3.37.37-4.94.78-10.89,2.7-23,7.08-34.56,3.15-7.52-2.36-15.26-8.31-19-15.71C32.77,192.79,49,189,62.32,192c1.87.26,3.59,1,5.57.71-1.57-1-3.78-.9-5.5-1.8C52,187.22,50.46,176,44.81,168.37,52,173.16,58.09,179.63,64.75,185.87Z"/><path class="cls-2" d="M146,201.21c8.07,3,18.55,2.17,25.47-2.77A30.25,30.25,0,0,1,158,207.86c-11.22,4.19-22.92-.18-31.68-6.84-3.55-2.24-6.69-5.5-11.29-5.2a15.75,15.75,0,0,0-4.68.45A86.49,86.49,0,0,1,134,212.69a37.26,37.26,0,0,1-4.3,3.89c-7-7.52-14.7-14.74-23.34-19a15.13,15.13,0,0,0-4.83,2,72.15,72.15,0,0,0-19.22,17.17l-4.49-3.7a82.06,82.06,0,0,1,23.79-16.95c-8.53-2.69-14.1,4.46-20.57,8.08-7.56,5.28-18.41,7.75-27.53,4.12-4.9-1.87-9.65-4.6-13.2-9,7.18,4.93,17.87,5.46,26,2.24,11-4.75,22.33-10.77,35.53-7.89,2.06,0,4.08,2.09,6,.33a42.2,42.2,0,0,1,29.36,3.71Z"/><path class="cls-3" d="M716.57,33a25.32,25.32,0,0,1,3.94-5.08L707.59,13.74a44.08,44.08,0,0,0-8.21,10.68Z"/><path class="cls-4" d="M748.27,23a25,25,0,0,1,5.42,3.4l13-14.16A44.39,44.39,0,0,0,755.16,5Z"/><path class="cls-5" d="M778,27.23,760.77,35.8a24.32,24.32,0,0,1,1.72,6.07l19.12-1.8A44,44,0,0,0,778,27.23"/><path class="cls-6" d="M759.54,33.32l17.18-8.57a44.17,44.17,0,0,0-8-10.66l-13,14.15a25,25,0,0,1,3.81,5.08"/><path class="cls-7" d="M713.16,45.53c0-.39,0-.78,0-1.16l-19.12-1.71c-.06,1-.1,1.9-.1,2.87a44.33,44.33,0,0,0,1.3,10.63l18.47-5.3a24.66,24.66,0,0,1-.58-5.33"/><path class="cls-8" d="M757.13,61.24a24.87,24.87,0,0,1-4.66,4.39L762.57,82a44.43,44.43,0,0,0,9.88-9.18Z"/><path class="cls-9" d="M762.76,45.53a24.11,24.11,0,0,1-.57,5.27l18.47,5.31A44,44,0,0,0,782,45.53q0-1.37-.09-2.7l-19.12,1.8c0,.3,0,.6,0,.9"/><path class="cls-10" d="M719.09,61.61,703.81,73.22a44.28,44.28,0,0,0,10,9l10.09-16.32a25.58,25.58,0,0,1-4.79-4.33"/><path class="cls-11" d="M713.47,41.61a24.63,24.63,0,0,1,1.83-6.16L698.12,26.9a43.48,43.48,0,0,0-3.79,13Z"/><path class="cls-12" d="M760.22,83.45,750.14,67.13a25.1,25.1,0,0,1-5.89,2.39l3.56,18.88a43.62,43.62,0,0,0,12.41-5"/><path class="cls-13" d="M761.46,53.48A25,25,0,0,1,758.77,59L774.1,70.57a44.06,44.06,0,0,0,5.81-11.79Z"/><path class="cls-14" d="M741.54,70.07a24.72,24.72,0,0,1-6.47.09L731.52,89a44.23,44.23,0,0,0,13.57-.11Z"/><path class="cls-15" d="M739.54,20.77A24.84,24.84,0,0,1,745.68,22L752.58,4a43.7,43.7,0,0,0-13-2.47Z"/><path class="cls-16" d="M732.34,69.69a24.71,24.71,0,0,1-6.09-2.31l-10.1,16.34a43.91,43.91,0,0,0,12.64,4.83Z"/><path class="cls-17" d="M730.5,21.87a24.61,24.61,0,0,1,6.27-1.11V1.56A43.82,43.82,0,0,0,723.56,4Z"/><path class="cls-18" d="M717.41,59.4a24.5,24.5,0,0,1-2.92-5.86L696,58.83A44,44,0,0,0,702.13,71Z"/><path class="cls-19" d="M722.59,26.07a24.94,24.94,0,0,1,5.32-3.21L721,5a44.16,44.16,0,0,0-11.32,6.94Z"/><path class="cls-2" d="M371.91,1.56H401.6c17.78,0,27,9.11,27,22.68,0,9.22-5.22,14.45-11.23,17.23v.22c7.45,1.78,13.9,8.56,13.9,19,0,15.34-11.78,24.46-29,24.46H371.91Zm26.8,34.35c7.89,0,13.23-3.56,13.23-10.23,0-6.89-5.12-9.89-11.79-9.89H388.59V35.91Zm.89,35c10.56,0,14.34-4.67,14.34-10.56,0-5.34-3.34-10.9-13-10.9H388.59V70.93Z"/><path class="cls-2" d="M432.83,1.56h38.24V56.7c0,26.46-15.78,29.13-32.68,29.13h-5.34V71.6h8.56c8.12,0,12.79-2.45,12.79-11.12v-44H432.83Z"/><path class="cls-2" d="M482.08,1.56h53.36V16.45H498.75v19h35.69v14.9H498.75v19.9h36.69v14.9H482.08Z"/><path class="cls-2" d="M559.67,16.45h-22V1.56h60.7V16.45h-22V85.16H559.67Z"/><path class="cls-2" d="M605.35,1.56H622v83.6H605.35Z"/><path class="cls-2" d="M680.5,1.56h18l-27.12,83.6H653.82L626.58,1.56h18.35L662.83,63h.22Z"/><path class="cls-2" d="M324.48,0c26,0,40.69,20.9,40.69,43.36s-14.68,43.36-40.69,43.36-40.69-20.9-40.69-43.36S298.46,0,324.48,0Zm0,14.9c-15.57,0-23.35,13.45-23.35,28.46s7.78,28.46,23.35,28.46,23.34-13.45,23.34-28.46S340,14.9,324.48,14.9Z"/><path class="cls-2" d="M828.46,23.57c0-5.78-5.56-9.34-12.23-9.34-8.34,0-13.34,3.67-13.34,9.23,0,5.78,5.56,8.56,9.67,9.89l15.34,4.89c11.12,3.56,19,10,19,22.91,0,10.23-7.35,25.57-30.47,25.57-29,0-31.68-18.79-31.68-26.24l16.67-.33c0,8.89,7,12.34,15.12,12.34,5.67,0,13.68-2.78,13.68-9.23,0-4.45-1.89-6.78-10.12-9.79l-18.23-6.55c-9.23-3.34-15.68-11.46-15.68-20.9,0-10.68,7.34-26,29-26,25.79,0,29.9,17.12,29.9,23.24Z"/></g></g></svg>