<?xml version="1.0" encoding="utf-8"?>
<!-- Generator: Adobe Illustrator 24.1.1, SVG Export Plug-In . SVG Version: 6.00 Build 0)  -->
<svg version="1.1" xmlns="http://www.w3.org/2000/svg" xmlns:xlink="http://www.w3.org/1999/xlink" x="0px" y="0px" width="938.4px"
	 height="82.7px" viewBox="0 0 938.4 82.7" style="enable-background:new 0 0 938.4 82.7;" xml:space="preserve">
<style type="text/css">
	.st0{stroke:#FFFFFF;stroke-miterlimit:10;}
	.st1{fill:#5FBA46;}
	.st2{fill:#D19F2A;}
	.st3{fill:#C22033;}
	.st4{fill:#2D9A47;}
	.st5{fill:#48773C;}
	.st6{fill:#FDB714;}
	.st7{fill:#EF412A;}
	.st8{fill:#F99D25;}
	.st9{fill:#007DBB;}
	.st10{fill:#8F1838;}
	.st11{fill:#00ADD8;}
	.st12{fill:#F36E24;}
	.st13{fill:#EA1D2D;}
	.st14{fill:#E01A83;}
	.st15{fill:#1B3668;}
	.st16{fill:#CD8B2A;}
	.st17{fill:#00558A;}
	.st18{fill:#FFFFFF;}
</style>
<g id="Layer_2">
	<rect x="120.4" y="-565.3" class="st0" width="1058" height="328"/>
	<g>
		<path class="st1" d="M747.3,28.7c0.8-1.3,1.7-2.5,2.7-3.5l-8.9-9.8c-2.2,2.2-4.2,4.7-5.7,7.4L747.3,28.7z"/>
		<path class="st2" d="M769.2,21.8c1.4,0.6,2.6,1.4,3.7,2.4l8.9-9.8c-2.4-2-5-3.7-7.9-5L769.2,21.8z"/>
		<path class="st3" d="M789.6,24.8l-11.8,5.9c0.6,1.3,1,2.7,1.2,4.2l13.2-1.3C791.7,30.5,790.9,27.5,789.6,24.8"/>
		<path class="st4" d="M776.9,29l11.8-5.9c-1.5-2.7-3.3-5.2-5.5-7.4l-8.9,9.8C775.3,26.5,776.2,27.7,776.9,29"/>
		<path class="st5" d="M745,37.4c0-0.3,0-0.5,0-0.8l-13.2-1.2c0,0.7-0.1,1.3-0.1,2c0,2.5,0.3,5,0.9,7.4l12.7-3.7
			C745.1,39.9,745,38.7,745,37.4"/>
		<path class="st6" d="M775.3,48.3c-0.9,1.1-2,2.2-3.2,3l7,11.3c2.6-1.8,4.9-3.9,6.8-6.4L775.3,48.3z"/>
		<path class="st7" d="M779.1,37.4c0,1.3-0.1,2.5-0.4,3.7l12.7,3.7c0.6-2.4,0.9-4.8,0.9-7.3c0-0.6,0-1.3-0.1-1.9l-13.2,1.3
			C779.1,37,779.1,37.2,779.1,37.4"/>
		<path class="st8" d="M749.1,48.6l-10.5,8.1c2,2.4,4.3,4.5,6.9,6.3l7-11.3C751.1,50.7,750,49.7,749.1,48.6"/>
		<path class="st9" d="M745.2,34.7c0.2-1.5,0.7-2.9,1.3-4.3l-11.8-5.9c-1.3,2.8-2.2,5.8-2.6,9L745.2,34.7z"/>
		<path class="st10" d="M777.4,63.7l-6.9-11.3c-1.3,0.7-2.6,1.3-4.1,1.7l2.5,13.1C771.9,66.5,774.8,65.3,777.4,63.7"/>
		<path class="st11" d="M778.3,42.9c-0.5,1.4-1.1,2.6-1.8,3.8l10.6,8c1.7-2.5,3.1-5.2,4-8.2L778.3,42.9z"/>
		<path class="st12" d="M764.5,54.5c-0.8,0.1-1.6,0.2-2.5,0.2c-0.7,0-1.3,0-2-0.1l-2.4,13.1c1.5,0.2,2.9,0.3,4.4,0.3
			c1.7,0,3.3-0.1,4.9-0.4L764.5,54.5z"/>
		<path class="st13" d="M763.2,20.3c1.5,0.1,2.9,0.4,4.2,0.8l4.8-12.4c-2.8-1-5.8-1.6-9-1.7V20.3z"/>
		<path class="st14" d="M758.2,54.2c-1.5-0.3-2.9-0.9-4.2-1.6l-7,11.3c2.7,1.5,5.6,2.7,8.7,3.3L758.2,54.2z"/>
		<path class="st15" d="M756.9,21c1.4-0.4,2.8-0.7,4.3-0.8V7c-3.2,0.1-6.2,0.7-9.1,1.7L756.9,21z"/>
		<path class="st16" d="M747.9,47.1c-0.8-1.2-1.5-2.6-2-4.1l-12.7,3.7c1,3.1,2.4,5.9,4.2,8.4L747.9,47.1z"/>
		<path class="st17" d="M751.5,24c1.1-0.9,2.3-1.6,3.7-2.2l-4.8-12.4c-2.8,1.2-5.5,2.8-7.8,4.8L751.5,24z"/>
		<path class="st18" d="M470.1,18.5c2.8,5.4,3.6,12.9,1.8,19.1c-1.8,7.3-7.9,14.6-15,17.6c-7.9,3.9-19.2,2.9-26.3-2.2
			c-9.9-6.8-13.9-18.5-10.9-30c1.8-6.9,7.2-13.8,13.9-17c3.7-1.9,7.8-2.8,12.3-2.9C456,3,465.7,9,470.1,18.5 M446.4,4.3
			c0.2,1.1,0.1,2.5,0,3.7c0-0.1,0.1-0.2,0.1-0.3c0.2-0.1,0.4,0.1,0.4,0.2c0,0.2,0.1,0.5-0.1,0.6c0.2,0,0.2-0.1,0.4-0.1
			c3.1,0.2,5.9,1.1,8.5,2.6V11c0.5-0.3,1.2-0.6,1.7-0.1c0.6-0.2,0.8,0.6,1.3,0.6c0.6,0.4,1.3,1.1,1.4,1.8c0.1,0.2,0.5,0.4,0.6,0.7
			c0.4-0.9,1.3-1.6,2-2.4l0.5-0.2c-4.1-3.9-8.9-6.1-14.3-6.8C448.1,4.5,447.2,4.6,446.4,4.3 M444.9,4.4c-5.4,0.2-10.2,2.1-14.5,5.2
			c-0.8,0.6-1.6,1.4-2.4,1.9h0.1c1.1,0.8,2.1,1.9,3,2.9l0.1-0.2c3.9-3.6,8.5-5.6,13.8-5.8l-0.1-0.3l0-3.3L444.9,4.4z M449.5,6.5
			l-1.9,0.8c-0.2-0.1-0.5-0.1-0.6,0.1c-0.1,0.1,0,0.2,0,0.2c0.7,0.9,2,0.4,2.8,0.2c0.6,0.3,1.3-0.1,1.8-0.5V7.3
			C451.1,6.7,450.3,6.6,449.5,6.5 M446.3,9.8l0.1,0.3c0,1.3,0.1,2.6-0.1,3.8c0.5-0.2,1,0,1.6,0.1c2.6,0.4,5.1,1.3,7.2,2.9
			c-0.3-0.3-0.6-0.6-0.6-1c0-0.1,0.1-0.1,0.2-0.1c0-0.4-0.4-0.6-0.5-1c0.1-0.1,0.2-0.2,0.3-0.1c0.5,0.4,0.9,0.9,1.2,1.4
			c0.3-0.1,0.5,0.1,0.8,0.2c0.4,0.2,0.1,0.7,0.4,1c0.1,0.8,1,1.2,1,2c0,0.2,0.2,0,0.3,0.1l0.8,1c-0.1,0.2,0,0.4,0.1,0.6
			c0.4,0.2,0.6-0.3,0.9-0.2c0.5,0.3-0.1,0.7,0,1c0.2,0,0.5-0.2,0.6,0c0.1,0.3-0.2,0.5-0.4,0.7c0,0.3,0.2,0.2,0.5,0.3
			c0.2,0,0.4,0.3,0.3,0.5c0.7,0.7-0.2,1.5,0.1,2.2c0.2,0.5-0.1,1-0.3,1.3c0,0.6-0.5,1-0.7,1.5l-0.7,0.1c-0.4,0.4,0.3,0.8-0.1,1
			l1.5,0l-0.2-0.2c-0.2-0.6-0.2-1.4,0.2-1.9c0.2-0.5,0.3-1.1,0.7-1.5c0.1,0,0.3-0.2,0.4,0c0,0.5,0,1-0.2,1.4
			c0.4,0.6,0.4,1.4,0.4,2.2c1.3-0.1,2.6-0.1,3.9-0.1l-0.1-0.3c-0.2-2.5-0.7-4.9-1.8-7c-0.3,0-0.5,0.2-0.8,0.2
			c-0.1,0-0.2-0.1-0.2-0.3c-0.5-0.5-0.9-1.2-1.5-1.7c-0.7,0.1-1-0.7-1.6-0.8c-0.6-0.2-0.2-1.1-1-0.9c-0.4-0.2-0.8-0.5-0.8-0.9
			c0-0.7-0.1-1.5-0.8-1.9c-0.5-0.2-0.7,0.5-1.2,0.4c-0.3-0.1-0.1-0.5-0.2-0.7c-0.1-0.2-0.3-0.4-0.3-0.6c0.6-0.8-0.8-0.8-0.5-1.7
			c-0.1-0.6-0.7-0.8-1-1.3c-2.1-1-4.2-1.6-6.5-1.9C447.4,10,446.8,10.1,446.3,9.8 M458.5,9.9c-0.3,0.3-0.5-0.2-0.8,0.1
			c0,0.1,0,0.3,0.1,0.4c0.6,0.2,0.6,1,1.4,0.8c0.2-0.2-0.1-0.5-0.1-0.8C459,10.1,458.8,10,458.5,9.9 M434.3,13.5
			c-0.8,0.6-1.6,1.3-2.5,1.9c1,0.6,1.8,1.7,2.7,2.5l0.1,0.3c2.3-2.2,5.1-3.5,8.1-4.1c0.7-0.1,1.4-0.3,2.1-0.2
			c-0.1-1.3-0.2-2.6,0-3.9C441,10.2,437.5,11.4,434.3,13.5 M464.3,12.3c-0.7,1-1.8,1.9-2.7,2.9l-0.5,0.1c0.3,0.1,0.4,0.4,0.6,0.6
			c1,0.5,1.2,1.6,2.1,2.2c0.5,1,1.6,1.8,1.6,3c1.2,2.6,2,5.4,2,8.4l-0.1,0.2c0.1,0,0.2-0.1,0.3-0.1l3.9-0.1
			c-0.3-0.4-0.1-0.9-0.2-1.4C470.9,22,468.3,16.8,464.3,12.3 M427.2,12.4c-3.8,4.3-6.2,9.2-6.9,14.8c-0.1,0.8-0.1,1.7-0.2,2.5
			c1.3-0.1,2.8-0.1,4.2,0l-0.1-0.5c0.3-4.3,1.6-8.2,4-11.6c0.6-0.7,1.1-1.6,1.8-2.1c-0.9-0.8-1.8-1.8-2.7-2.7L427.2,12.4z M445,15.2
			l-0.2,0.1c-3.4,0.2-6.4,1.7-9,3.8c1,0.7,1.9,1.9,2.9,2.7c0.1-0.1,0.1-0.2,0.2-0.3c1.3-0.9,2.6-1.8,4.1-2.1c0.7-0.1,1.3-0.4,2-0.2
			C444.8,17.9,444.8,16.5,445,15.2 M446.4,15.2l0.1,0.3l0,3.7l0.4-0.1c2.2,0.3,4.3,1,6.1,2.5l0.1,0.3c0.6-0.9,1.5-1.6,2.2-2.4
			l0.7-0.4l-0.3-0.1c-1.5-1.2-3.1-2.2-4.9-2.8C449.3,15.7,447.9,15.5,446.4,15.2 M430.9,16.3l0,0.3l-1.5,1.9
			c-2.4,3.3-3.5,7.1-3.9,11.3l3.7-0.1l0.4,0.1c-0.1-0.1-0.1-0.3-0.2-0.4c0.3-3.9,1.6-7.3,4.3-10.2C432.7,18.2,431.8,17.3,430.9,16.3
			 M456.7,20l-0.1,0.2c-1.2,1.3-2.6,2.6-3.8,4c0.1,0.2,0.2,0.3,0.4,0.4c0.1-0.3,0.2-0.6,0.3-0.9c0.3-0.4,0.8-0.2,1.2-0.1
			c0.6-0.2,1.3,0.1,1.9,0.1c0.5,0.2,0.5,0.9,1,1.1c0.1,0.2,0,0.4-0.1,0.5c0.1,1,0.6-0.3,1.1,0c0.2,0.1,0.5,0.1,0.6,0.3
			c0.1,0.4,0.6,0.3,0.6,0.7c0,0.2-0.3,0.3-0.4,0.4c0.1,0.4-0.4,0.7-0.2,1.1c0.8,0.1,0.8-0.8,1.2-1.2c-0.2-0.7-0.3-1.4-0.8-2
			c-0.4-0.1-0.7-0.6-1.2-0.7c-0.9-0.3,0.1-0.9,0-1.4C458,21.6,457.3,20.8,456.7,20 M434.8,20.2c-1.9,2.2-3.1,4.7-3.6,7.5
			c-0.1,0.7-0.1,1.4-0.3,2c0.5-0.2,1.2-0.1,1.7-0.1c-0.3-0.2-0.1-0.6-0.2-0.8c0-0.3-0.1-0.8,0.2-1c0-0.6,0.6-0.8,0.6-1.3
			c0.1-0.6,0.8-0.2,1.1-0.5c0.2-0.1,0-0.3,0-0.4c0.3-0.4,0.7-0.4,1-0.6c0.2-0.4,0.5-0.7,0.9-0.9c0.8,0,0.8-1.1,1.6-1.1
			C436.7,22.2,435.7,21.1,434.8,20.2 M446.4,20.6c0.3,0.8,0,1.9,0.2,2.8l1,0.3c0.3-0.5,0.9-0.6,1.2-1c0.2-0.1,0.4,0,0.5,0.2
			c0,0.4-0.1,0.7-0.2,1.1c-0.4,0.7-1.2,0.8-1.7,1.4c0.3,0.2,0.5-0.2,0.7-0.2c0.4,0,0.7,0.4,0.9,0.6c0.2,0.1,0.5,0,0.7-0.1
			c0.1-1.1,1.6-1,2-2l-0.3,0.1c-0.1-0.1-0.4-0.1-0.4-0.3c0.2-0.2,0.5-0.6,0.8-0.6c-1.2-0.8-2.5-1.4-3.8-1.8
			C447.5,20.8,446.9,20.8,446.4,20.6 M439.2,23.4h0.3c0.3,0.3,0.8,0.3,1.1,0.7c0.1,0.2-0.2,0.2-0.2,0.4c0.1,0.1,0.2,0.1,0.2,0.2
			c0.3,0.1,0.2-0.1,0.3-0.3c0.3-0.3,0.4,0.3,0.7,0.3c0.2-0.1,0.6-0.2,0.7,0.1c0.2-0.2,0.7,0,0.7-0.4c0.4-0.4,0.2-1.1,0.8-1.4
			c0.2,0.1,0,0.3,0.1,0.5c0.4,0.2,0.9-0.4,1.2,0.1c-0.3-0.9-0.2-2-0.2-3C442.7,21,440.7,21.7,439.2,23.4 M445.7,25.7
			c-0.2-0.2-0.7-0.1-1,0c0.3,0.3,0.2,0.8,0.3,1.1c-0.4,0.7-1.1,0.8-1.7,1c-0.2,0.2-0.1,0.7-0.6,0.7c-0.1,0.3-0.6,0.5-0.4,0.9
			c-0.2,0.5-0.1,1.1-0.2,1.6c-0.8,0.5-0.6-0.7-1-0.9l-0.1,0.2c-0.2,0-0.3-0.1-0.4-0.2c-0.1,0-0.3-0.1-0.4,0c-0.2,0.3-0.4,0.5-0.4,1
			c-0.1,0.2-0.5,0.2-0.4,0.4c0.4,0,0.9-0.1,1.4-0.2c0.3,0.1,0.6-0.1,0.9-0.2c0.1,0.1,0.2,0.2,0.2,0.3h0.1c0.2-0.2,0.3-0.4,0.2-0.7
			c0-0.3,0.3-0.3,0.5-0.4c0.2,0.1,0.1,0.3,0.1,0.4c0.6,0.2-0.1,0.7-0.2,1c-0.2,0.3,0,0.8-0.5,0.8c-0.1,0-0.2-0.1-0.1-0.2h-0.1
			c0,0.2,0.1,0.5,0.4,0.6c0.4-0.3,0.4-0.8,0.9-0.9c0.3-0.3-0.1-0.8,0.3-1c0.7,0,1.5-0.3,2,0.3c0,0.2-0.1,0.4,0.1,0.6
			c-0.1,0.3-0.2,0.7-0.5,0.9c0.1,0.2,0,0.4-0.1,0.5c-0.2,0.8-1.1,0.4-1.7,0.7c0.8,0.7,1.9,0.9,3,0.8c0.6,0,0.3-0.7,0.6-1.1
			c0.2-1,1.1-0.3,1.6-0.6c0.2-0.4,0.4-0.8,0.5-1.3c-0.3-0.2-0.5-0.6-0.4-1c-0.2-0.3-0.2-0.9-0.7-0.9c-0.1-0.1,0-0.2,0.1-0.3
			c0-0.3,0.3-0.4,0.4-0.6c-0.3-0.2-0.2-0.7-0.2-0.9c-0.5,0.1-0.6-0.5-1-0.7c-0.1-0.3-0.4-0.4-0.7-0.4c-0.6,0.3-0.8-0.5-1.2-0.7
			c-0.1-0.1-0.2-0.4,0-0.5c0.2-0.2,0.6,0,0.8,0L445.7,25.7z M434,29c-1.1,0.4,0.2,1.2-0.1,1.9c-0.1,0.4-0.6,0-0.8,0.2l-0.1,0.7
			c-0.2,0.4-0.7,0.1-0.9,0.4c-0.2,0.3,0,0.6,0.2,0.8c-0.4,0.9,0.8,1.1,0.8,1.9c0.4,0.5-0.1,1.2,0.5,1.6c0.1,0.9-0.1,2.1,0.6,2.8
			l0.1,0.8c0.2,0.6-0.7,0.4-0.6,0.9c0.2-0.1,0.2,0.1,0.2,0.2v0c1-1.2,2.2-2.5,3.5-3.6l-0.5-0.5c-1-1.4-1.7-3-2.1-4.7l-0.4-0.2
			c0,0.4-0.2,0.8-0.2,1.2l-0.1,0.2c-0.3,0-0.5-0.2-0.7-0.4c-0.1-0.1-0.2-0.4,0-0.5c0.1,0,0.2,0,0.3,0.1c0.1-0.1,0.1-0.4,0.1-0.6
			c0-0.3-0.2-0.6,0-0.9c0.3,0,0.4,0.3,0.6,0.5c0.3,0.1,0.5-0.1,0.7-0.2c0-0.2,0.3-0.5,0-0.7c0.2-0.5,0.1-1.1,0-1.6
			C434.8,28.9,434.3,29,434,29 M459.2,29.5c-0.1,0.1-0.3,0-0.4,0C458.9,29.5,459.1,29.5,459.2,29.5 M458.4,30.8l0.4,0.4
			c0.4,0.3,0.1,0.9,0.6,1.1c0.5,0.3,0.7,0.9,0.9,1.3c0.1-0.1,0.1-0.3,0.1-0.4c0.2-0.7,0.2-1.6,0.4-2.3
			C460,31.1,459.1,31.1,458.4,30.8 M467.6,31l-0.2-0.2l0.1,0.4c-0.2,4.5-1.7,8.5-4.3,12c-0.5,0.6-1,1.3-1.6,1.7c1,0.8,2.2,2,3,3
			l0.1-0.2c4.1-4.7,6.5-10.2,6.7-16.6l0.2-0.3l-0.2,0.1L467.6,31z M462.2,30.9c0.1,0.8-0.1,1.6-0.2,2.4l0.4,0.5
			c0.1,0.2,0.1,0.5-0.1,0.6c-0.2,0.1-0.4,0.1-0.6,0c-0.6,1.8-1.2,3.6-2.4,5.2c-0.4,0.6-0.9,1.4-1.5,1.7l1.2,1.1c0.1-0.1,0-0.2,0-0.3
			c0-0.2,0.1-0.4,0.3-0.3c0.6,0,0.6,0.6,0.9,0.9c-0.1,0.5,0.4,0.9,0.2,1.4c3.4-3.6,5.1-8,5.4-12.9l0.2-0.2c-1.2,0.1-2.5,0-3.7,0.1
			L462.2,30.9z M430.8,31l0.2,0.3c0,0.9,0.4,1.7,0.2,2.7c0.1-0.3,0.2-0.6,0.5-0.8c0-0.2-0.3-0.3-0.3-0.6c0.3-0.5,0-1.3,0.7-1.5
			C431.6,31.2,431.2,31.3,430.8,31 M424.3,31l-0.4,0.1l-3.7,0c0.2,4.3,1.4,8.3,3.3,11.9c1,1.8,2.4,3.4,3.6,5.1l2.7-2.8l0.3-0.1
			c-0.5-0.3-0.9-0.9-1.3-1.3c-0.4-0.1-0.9-0.4-1.1-0.9c-0.1-0.1,0-0.4-0.2-0.5l-0.2,0.2c-0.5,0.2-0.6-0.3-1-0.5
			c-0.4-0.2-0.2-1-0.8-0.9c-0.2,0-0.3-0.3-0.4-0.4c-0.5,0.1-0.7-0.5-0.9-0.8c-0.1,0.1,0,0.3-0.2,0.4c-0.5,0.1-0.7-0.5-1.1-0.8
			c-0.1,0-0.2,0.1-0.3,0.1c-0.3-0.3-0.5-0.7-0.6-1.1c-0.4-0.5-0.2-1.3-0.2-1.9c0.1-0.2,0.3-0.3,0.3-0.5c0.1-0.3,0.4-0.3,0.7-0.3
			c0.1,0.1,0.2,0.2,0.3,0.3c0.2-0.1,0.6,0,0.4-0.4c0.2-0.2,0.6-0.3,0.9-0.3c0.2,0.3,0.3,0.6,0.6,0.8l-0.2-0.3
			c-0.3-1.3-0.6-2.7-0.6-4.1c0-0.1-0.2-0.1-0.1-0.2l0,0C424.2,31.5,424.2,31.2,424.3,31 M429.5,31l-0.3,0.1c-1.3,0-2.6,0.1-3.7-0.1
			l0.2,0.2l0.3,2.5c0.1,1,0.5,1.9,0.5,2.8c0.1-0.2,0.1-0.6,0.4-0.7c-0.1-0.3,0.3-0.6,0-0.8c0.1-0.7,0.2-1.3,0.8-1.8
			c0.7,0,0.7-0.9,1.4-1c0.4,0,0.6,0.5,0.7,0.6C429.4,32.5,429.4,31.6,429.5,31 M436.5,32.7c0.4,0.7,0.6,1.5,1,2.2
			c0.2,0.6,0.8,1.1,1,1.7c0.3-0.5,0.8-0.9,1.1-1.3c0-0.2,0-0.4-0.1-0.5c-0.1-0.3,0-0.7-0.2-0.9c-0.4,0.1,0.1,0.5,0,0.7
			c-0.1,0.1-0.3,0-0.3-0.2c-0.3-0.1-0.6-0.3-0.6-0.6c0.3-0.2-0.1-0.2-0.1-0.4c-0.1-0.1-0.1-0.1-0.3,0.1c-0.1,0-0.1,0-0.2,0
			C437.6,32.6,436.8,33.1,436.5,32.7 M440.7,33.8c-0.1,0.3-0.3,0.6-0.6,0.9l0,0c0.3-0.2,0.6-0.7,1-0.7L440.7,33.8z M451.3,34.9
			c0,0.2,0,0.5,0.2,0.7c0.5-0.1,0.3,0.7,0.8,0.6c0.3-0.1,0-0.3,0.1-0.5c-0.1-0.4-0.5-0.4-0.7-0.7c0-0.1,0-0.1,0.1-0.2
			C451.5,34.6,451.4,34.7,451.3,34.9 M459,34.9c-0.4,0-0.9,0.2-1.2-0.1c-0.1-0.1-0.2,0.1-0.2,0.2c-0.1,0.2-0.3,0.5-0.6,0.4
			c-0.2-0.1-0.2-0.4-0.3-0.6c0,0.1,0,0.3-0.1,0.4c-0.3,0.3-0.4,0.6-0.6,0.9c-0.3,0.3-0.7,0.2-1,0.5c-0.1,0.6-0.8,0.5-1.2,0.7
			c0,0.1,0.1,0.1,0.1,0.2c0.2,0.1,0.4,0.1,0.6-0.1c0.6,0.1,0.4-0.6,0.8-0.8c0.3,0,0.6-0.3,0.8-0.1c0.3,0.4,0.4,0.9,0.3,1.4
			c-0.3,0.3-0.2,0.9-0.4,1.2c0.1,0.4-0.5,0.7-0.4,1.1c-0.2,0.2-0.5,0.2-0.7,0.2c-1.1-0.4-2.2-0.7-3.4-0.8c-0.1,0-0.2,0.1-0.2,0.3
			c0.5,0.3,1.1,0.3,1.6,0.5c0.5,0.1,0.8,0.7,1.3,0.5c0.5-0.3,1.3,0.2,1.6-0.4c-0.1-0.5,0.4-0.9,0.6-1.3l0.2,0c0.3,0.3,0.3,0.7,0.4,1
			c0.4-0.4,0.7-0.9,1-1.3c0.9-1.3,1.6-2.7,2-4.2C459.7,34.7,459.3,34.8,459,34.9 M442,34.9c-0.6,0.9-1.7,1.8-2.5,2.7
			c1.4,1.2,3.1,1.9,4.9,2.3c0.1-0.4-0.1-0.8,0.1-1.1c0.1-0.3,0.5-0.3,0.8-0.2c0.2,0,0.3-0.2,0.2-0.4c-0.4-0.1-0.2-0.5-0.3-0.8
			c0-0.1,0.2-0.1,0.2-0.3c-0.3-0.2,0.1-0.5-0.1-0.7c0.1-0.1,0.2-0.2,0.3-0.2c-0.9,0.4-1.8-0.1-2.5-0.4
			C442.6,35.5,442.1,35.3,442,34.9 M449.8,37.3c0,0.1-0.2,0.3,0,0.4c0.3-0.3,1-0.3,1-0.8C450.4,36.8,450.1,37,449.8,37.3
			 M451.3,38.3c-0.4,0-0.6,0.3-0.9,0.6c-0.4,0.2-0.6-0.4-0.9-0.3c0,0.1,0.1,0.1,0.1,0.1c0.1,0.1,0.1,0.3,0,0.4
			c-0.5,0.4-0.7-0.2-1.1-0.2v0.2c0,0.1,0,0.2-0.2,0.2c-0.3-0.4-0.8-0.3-1.1-0.7c-0.2-0.1-0.3,0-0.5,0.1c-0.1,0.2-0.5,0-0.4,0.3
			c-0.3,0.1-0.4,0.5-0.6,0.7c-0.4-0.1-0.6,0.4-1,0.4c0,0.1,0,0.2,0.1,0.2c0.2,0.1,0.5,0.1,0.8,0.1c0.4-0.7,1.1-0.1,1.6-0.4
			c0.4,0.1,0.1,0.4,0.4,0.6c0.6-0.2,1,0.5,1.4,0.1c0-0.6,0.7-0.6,1.1-0.7c0.6-0.4,1.3-0.9,1.2-1.7L451.3,38.3z M438.3,38.7
			c-0.8,1-1.7,2-2.7,2.8c0.4,0,0.6,0.5,1,0.7c2,1.7,4.5,2.5,6.9,3.1l-0.6-0.3c-0.5-0.6-1.2-1.2-1.2-2c0.5-0.2,0.4-0.7,0.6-1.1
			c0.4-0.4,0.9-0.7,1.4-0.8c-1.4,0.6-2.5-0.4-3.7-1C439.4,39.7,438.7,39.3,438.3,38.7 M457,42.5l-0.1-0.3c-0.1,0.3-0.4,0.5-0.6,0.8
			c0,0.2-0.1,0.5,0.2,0.7c0.5,0.2,1.2,0.5,1.4,1.2c-0.2,0.6-1.3,1.1-0.6,1.8c0.2,0.3-0.3,0.4-0.2,0.7l0.2-0.3c0.8-0.6,1.7-1.2,2.4-2
			h0.1c-0.2-0.1-0.4,0.1-0.6,0c-0.4-0.2-0.4-0.5-0.4-0.9L457,42.5z M435.4,43L435.4,43L435.4,43L435.4,43z M435.8,43.6
			c-0.2-0.1-0.3-0.2-0.3-0.4L435.8,43.6z M435.9,43.7c0.1,0.3,0.5,0.5,0.4,0.9c-0.2,0.4-0.7,0.4-1.1,0.4c-0.8-0.1-1.3,0.5-2.1,0.5
			c-0.7,0.2-0.9-0.6-1.5-0.5c3.7,3.3,8,5.4,13,5.6l0.4,0.3l-0.2-0.5v-3.6l-0.3,0.1C441.3,46.8,438.4,45.6,435.9,43.7 M460.8,46.2
			l-0.1-0.3c-0.4,0.7-1.2,1.2-1.8,1.8c-0.9,0.9-2.3,1.1-2.8,2.3c-0.5,0.4-0.6,1.1-1.3,1.4c-0.2,0.7-0.9,0.6-1.3,1.1
			c-1.1,1-1.9-0.7-2.9-0.9l-2.1,0.4c-0.7,0-1.4,0.3-2.1,0c0.1,1.4,0.1,2.9,0,4.3l0.3-0.2c6.5-0.3,12.1-2.8,16.9-7.2L460.8,46.2z
			 M430.9,46.2l0,0.2l-2.8,2.8c4.2,3.7,8.9,6,14.4,6.8c0.9,0.1,1.8,0.1,2.7,0.3l-0.2-0.3v-3.7L445,52l-0.4,0.1
			C439.4,51.8,434.7,49.9,430.9,46.2 M446.3,47.1l0.2,0.3c0,1.1,0.1,2.3,0,3.3c1-0.3,2.2-0.3,3.2-0.5c-0.2-0.1-0.4-0.1-0.6-0.4
			c-0.6,0-0.9-0.7-1.1-1.2c-0.1-0.4,0.1-0.7,0.3-1c-0.3-0.6-1.1-0.1-1.6-0.4C446.6,47.3,446.5,47.1,446.3,47.1"/>
		<path class="st18" d="M471.1,8.1c2,1.8,2.9,4.1,3.4,6.5l0.3,0.8c-2.9-2.1-5.5-4.9-7.3-7.8l-2.2-2.3C467.3,6.1,469.4,6.6,471.1,8.1
			"/>
		<path class="st18" d="M421,11.7c-1.3,1.6-3,2.7-4.5,4.1c0.8-1.7,0.8-3.7,2-5.2c1.6-2.9,4.6-3.9,7.3-4.9
			C423.8,7.4,422.4,9.6,421,11.7"/>
		<path class="st18" d="M478.1,14.7c0.6,2.8-0.3,5.6,0.3,8.5l0,0c-1.5-3.1-4.8-4.5-7.1-6.9c-1.3-1.5-1.9-3.2-2.2-5.1
			c1.3,3.1,4.8,3.8,6.8,6.5c0.7,0.6,0.9,1.5,1.3,2.1l0.1-0.1c-1.1-2.5-1.5-5.2-2.3-7.9c-0.4-1.1-1.2-2.3-2.3-3
			C475.2,9.4,477.5,12.1,478.1,14.7"/>
		<path class="st18" d="M418.5,9.3c-2.7,1.8-2.5,5.2-3.3,7.9c-0.3,1-0.7,2-1,3l0.1,0.1c0.4-1.2,1.2-2.3,2.2-3.3
			c1.9-1.8,4.7-2.9,5.6-5.5c0,3.6-3,6.5-5.9,8.5c-1.2,1-2.3,2.2-3,3.6c-0.1-0.9,0.1-1.8,0.1-2.8c-0.3-3.2-0.5-6.8,1.7-9.1
			C415.9,10.5,417.1,9.7,418.5,9.3"/>
		<path class="st18" d="M479.7,15.3c2.4,3.3,2.9,8.4,1.2,12.2c-0.6,1.6-1.1,3.3-1.4,5c-0.1-0.3-0.1-0.7-0.3-1
			c-0.9-3.6-4.4-6.3-5.8-9.7c-0.4-1.1-0.8-2.3-1-3.5c1.5,2.8,5.2,4.3,6.2,7.4c0.4,0.8,0.4,1.8,0.6,2.6c0.1,0,0.1,0,0.1-0.1
			c-0.4-3.2-0.3-6.5,0.1-9.7c0-1.7-0.2-3.4-1.1-4.7C479.1,14.1,479.3,14.8,479.7,15.3"/>
		<path class="st18" d="M412.8,14.3c-2,3.1-0.3,7.1-0.4,10.6l-0.3,3.6c0,0,0,0.1,0.1,0.1c0.1-0.4,0.1-0.8,0.2-1.3
			c0.5-2.9,3-5,5.2-7.1c0.5-0.5,0.9-1.1,1.1-1.7c-0.2,1.5-0.6,2.9-1.2,4.3c-1.7,3.4-4.9,6.2-5.5,10c-0.3-3.7-2.8-6.5-2.5-10.4
			c-0.1-3.2,1.2-5.8,3.1-8.2C412.7,14.3,412.7,14.3,412.8,14.3"/>
		<path class="st18" d="M482,36.4c-1.4,2-3.1,3.9-4.4,6c0.1-1.6,0.3-3.6-0.3-5.2c-1.1-3.3-2-6.7-2.4-10.3l0-1.4
			c0.8,3.7,4.5,6.3,4.2,10.5c0.1,1-0.2,1.9-0.4,2.8l0.1,0.1l0.2-0.2c0.5-2,0.8-4.2,1.6-6.1c1.2-2.8,2.7-5.5,2.1-8.9
			C484.5,27.5,484,32.7,482,36.4"/>
		<path class="st18" d="M411.8,35.1c0.4,1.4,0.5,2.8,1,4.1c0.1,0,0.1,0,0.1-0.1c-1.4-3.9,0.6-7.5,2.6-10.6c0.5-0.8,0.8-1.7,1-2.7
			c0.2,1.8-0.2,3.8-0.5,5.6c-0.5,2.3-1.2,4.5-1.8,6.8c-0.4,1.4-0.3,3-0.1,4.5l-0.2-0.2c-1.5-2.7-4.4-4.9-5.2-7.8
			c-0.7-2.4-1.2-5.1-0.7-7.7c0.2-1,0.4-2,0.8-3C408,28.4,410.8,31.4,411.8,35.1"/>
		<path class="st18" d="M476.4,42.8c-0.1,1.8-0.7,3.5-1.6,4.9h0.2c1.3-1.7,2.3-3.5,3.8-5.2c2.3-2.3,4.7-4.6,5-7.8
			c0.8,5.3-2.1,9.9-6.5,12.9c-1.8,1.2-3.6,2.3-5.3,3.6v-0.2c2.6-4.4,1.3-10.5,3-15.3l0.6-1.6C475.2,37.2,476.5,39.8,476.4,42.8"/>
		<path class="st18" d="M418.6,48.8c0.3,1,0.9,1.9,1.2,2.9c-4-2.8-9.5-5.4-11.3-10.4c-0.8-1.7-0.8-3.9-0.7-5.9
			c0.3,4.5,5.1,6.9,7.3,10.6c0.5,0.8,1,1.6,1.7,2.2c-0.1-0.5-0.6-0.9-0.7-1.4c-0.8-1.6-1.1-3.4-0.9-5.3c0.2-2.3,1.2-4.4,0.8-6.8
			C418.1,38.9,417.5,44.2,418.6,48.8"/>
		<path class="st18" d="M470.4,52.2c-0.7,1.2-1.7,2.4-2.8,3.3c0.4,0,0.7-0.3,1-0.5c2.9-2.9,6.7-3.7,9.8-6.1c1.3-1,2.4-2.3,3-3.7
			c-0.6,4.8-5.4,9.3-9.8,10.8c-2.3,0.6-4.8,0.8-7,1.6c3.8-3.3,3.6-8.4,6.1-12.3c0.8-1.1,1.5-2.3,2.4-3.3
			C471.5,45.1,472.2,49.1,470.4,52.2"/>
		<path class="st18" d="M422.3,48.1c1.3,3.3,1.9,7.1,5,9.6c-3.4-1.1-7.3-0.8-10.3-2.9c-3.2-2-6.1-5.4-6.8-9.2
			c2.2,5.1,7.8,5.5,11.6,8.6c0.7,0.6,1.4,1.1,2.2,1.5l0,0c-0.9-0.8-1.9-1.7-2.5-2.7c-2.2-3.1-1.4-7.4-3.1-10.7
			C420.1,44.2,421.4,46,422.3,48.1"/>
		<path class="st18" d="M462.3,58c-0.8,0.5-1.9,0.6-2.7,1c1.2,0,2.3-0.4,3.5-0.5c4.4-0.7,9.5,0,12.7-3.8c-1.2,2.7-4.1,4.9-6.7,5.8
			c-4.5,1.7-9.1-0.4-13.5-1.1l-0.8-0.1v0c2.1-0.5,4.1-1.1,5.8-2.6c2.4-2.4,4.6-4.8,7.3-6.6C465.8,52.7,465.6,56.3,462.3,58"/>
		<path class="st18" d="M431.1,56.8c1.7,1.5,3.8,2.2,6,2.7c-0.5,0.2-1.2,0.1-1.8,0.3c-3.9,1-8.3,2.6-12.5,1.1
			c-2.7-0.9-5.5-3-6.9-5.7c3.6,4.1,9.4,2.7,14.2,3.8c0.7,0.1,1.3,0.4,2,0.3c-0.6-0.4-1.4-0.3-2-0.7c-3.7-1.3-4.3-5.4-6.3-8.2
			C426.5,52.2,428.7,54.5,431.1,56.8"/>
		<path class="st18" d="M460.4,62.3c2.9,1.1,6.7,0.8,9.2-1c-1.3,1.6-3,2.8-4.8,3.4c-4,1.5-8.3-0.1-11.4-2.5c-1.3-0.8-2.4-2-4.1-1.9
			c-0.6,0-1.2,0-1.7,0.2c3.1,1.4,5.9,3.4,8.5,6c-0.4,0.5-1,1-1.5,1.4c-2.5-2.7-5.3-5.3-8.4-6.9c-0.6,0.1-1.2,0.4-1.7,0.7
			c-2.5,1.6-5,3.7-6.9,6.2l-1.6-1.3c2.6-2.6,5.4-4.7,8.6-6.1c-3.1-1-5.1,1.6-7.4,2.9c-2.7,1.9-6.6,2.8-9.9,1.5
			c-1.8-0.7-3.5-1.7-4.8-3.3c2.6,1.8,6.4,2,9.4,0.8c3.9-1.7,8-3.9,12.8-2.9c0.7,0,1.5,0.8,2.2,0.1c3.5-0.9,7.5-0.3,10.6,1.3
			L460.4,62.3z"/>
		<path class="st18" d="M800.1,24.1V7.4h6c2.1,0,3.8,0.4,4.9,1.2c1.1,0.8,1.7,1.9,1.7,3.4c0,0.9-0.2,1.6-0.6,2.2
			c-0.4,0.6-1,1.1-1.7,1.4c0.9,0.2,1.5,0.7,2,1.3c0.5,0.6,0.7,1.4,0.7,2.3c0,1.6-0.5,2.9-1.5,3.7c-1,0.8-2.6,1.2-4.6,1.3H800.1z
			 M804.1,14.3h2.1c0.9,0,1.5-0.2,1.9-0.5c0.4-0.3,0.6-0.8,0.6-1.4c0-0.7-0.2-1.2-0.6-1.5c-0.4-0.3-1.1-0.5-2-0.5h-2V14.3z
			 M804.1,17v4h2.6c0.7,0,1.3-0.2,1.7-0.5c0.4-0.3,0.6-0.8,0.6-1.4c0-1.4-0.7-2.1-2.1-2.1H804.1z"/>
		<path class="st18" d="M835.8,16.1c0,1.6-0.3,3.1-0.9,4.3c-0.6,1.3-1.5,2.2-2.6,2.9c-1.1,0.7-2.4,1-3.8,1s-2.7-0.3-3.8-1
			c-1.1-0.7-1.9-1.6-2.6-2.8c-0.6-1.2-0.9-2.6-1-4.2v-0.9c0-1.6,0.3-3.1,0.9-4.3c0.6-1.3,1.5-2.2,2.6-2.9c1.1-0.7,2.4-1,3.8-1
			c1.4,0,2.7,0.3,3.8,1c1.1,0.7,2,1.6,2.6,2.9c0.6,1.2,0.9,2.7,0.9,4.3V16.1z M831.8,15.4c0-1.7-0.3-2.9-0.8-3.8
			c-0.6-0.9-1.3-1.3-2.4-1.3c-2,0-3.1,1.5-3.2,4.5l0,1.2c0,1.6,0.3,2.9,0.8,3.8s1.3,1.3,2.4,1.3c1,0,1.8-0.4,2.3-1.3
			c0.5-0.9,0.8-2.1,0.8-3.7V15.4z"/>
		<path class="st18" d="M850,10.5h-7.2v2.7h2.1c1.3,0,2.5,0.2,3.5,0.7c1,0.5,1.8,1.1,2.3,1.9c0.5,0.8,0.8,1.8,0.8,2.8
			c0,1.6-0.6,3-1.8,4c-1.2,1-2.8,1.5-4.9,1.5h-6V7.4H850V10.5z M842.8,16.2V21h2.1c0.8,0,1.5-0.2,1.9-0.7c0.5-0.5,0.7-1.1,0.7-1.8
			c0-0.7-0.2-1.2-0.7-1.7c-0.5-0.4-1.1-0.6-2-0.6H842.8z"/>
		<path class="st18" d="M868.1,7.4v16.7h-4V10.5h-3.7l-0.3,5.6c-0.1,1.9-0.4,3.5-0.8,4.6c-0.4,1.2-1,2-1.8,2.5
			c-0.8,0.5-1.8,0.8-3.2,0.8h-1.1V21l0.6-0.1c0.8-0.1,1.4-0.6,1.7-1.5c0.4-0.9,0.6-2.3,0.7-4.4l0.3-7.7H868.1z"/>
		<path class="st18" d="M881.1,21h-5.5l-1,3.1h-4.3l6.1-16.7h3.8l6.1,16.7H882L881.1,21z M876.5,17.9h3.6l-1.8-5.8L876.5,17.9z"/>
		<path class="st18" d="M901.6,18.4c-0.1,1.2-0.4,2.2-0.9,3.1c-0.6,0.9-1.4,1.6-2.4,2.1c-1,0.5-2.2,0.7-3.5,0.7
			c-2.2,0-3.9-0.7-5.2-2.1c-1.3-1.4-1.9-3.5-1.9-6.1v-0.8c0-1.6,0.3-3.1,0.9-4.3c0.6-1.2,1.4-2.2,2.4-2.8c1.1-0.7,2.3-1,3.7-1
			c2,0,3.6,0.5,4.9,1.6c1.2,1.1,1.9,2.5,2.1,4.4h-4c0-1-0.3-1.7-0.8-2.2c-0.5-0.4-1.2-0.7-2.2-0.7c-1,0-1.7,0.4-2.2,1.1
			c-0.5,0.8-0.7,1.9-0.7,3.6v1.2c0,1.8,0.2,3.1,0.7,3.8c0.4,0.8,1.2,1.1,2.3,1.1c0.9,0,1.6-0.2,2.1-0.7c0.5-0.4,0.7-1.1,0.8-2.1
			H901.6z"/>
		<polygon class="st18" points="917,10.5 912,10.5 912,24.1 908,24.1 908,10.5 903.1,10.5 903.1,7.4 917,7.4 		"/>
		<polygon class="st18" points="929.3,7.4 933.3,7.4 933.3,24.1 929.3,24.1 929.3,13.5 923.3,24.1 919.3,24.1 919.3,7.4 923.3,7.4 
			923.3,17.9 		"/>
		<path class="st18" d="M805.7,35.6L805.7,35.6l2.1-5.5h3.2l-4.2,10.1c-0.5,1-1,1.7-1.5,2.1c-0.6,0.4-1.2,0.6-2,0.7h-0.6l-0.5,0
			l-0.1-2.4c0.1,0,0.3,0,0.6,0c0.5,0,0.8-0.1,1-0.2c0.2-0.2,0.4-0.5,0.6-0.9l0.1-0.4l-4.6-8.9h3.2L805.7,35.6z"/>
		<path class="st18" d="M822.6,38.5c0,0.9-0.3,1.7-0.7,2.3c-0.4,0.7-1,1.2-1.8,1.6c-0.8,0.4-1.7,0.6-2.7,0.6c-1.7,0-3-0.5-3.9-1.6
			c-1-1.1-1.4-2.6-1.4-4.6v-0.6c0-1.2,0.2-2.3,0.6-3.3c0.4-0.9,1-1.7,1.9-2.2c0.8-0.5,1.7-0.8,2.8-0.8c1.5,0,2.8,0.4,3.7,1.2
			c0.9,0.8,1.5,1.9,1.6,3.3h-3c0-0.8-0.2-1.3-0.6-1.7c-0.4-0.3-0.9-0.5-1.7-0.5c-0.8,0-1.3,0.3-1.7,0.9c-0.4,0.6-0.5,1.5-0.6,2.7
			v0.9c0,1.4,0.2,2.3,0.5,2.9c0.3,0.6,0.9,0.9,1.7,0.9c0.7,0,1.2-0.2,1.6-0.5c0.4-0.3,0.6-0.9,0.6-1.6H822.6z"/>
		<polygon class="st18" points="834.3,32.4 830.5,32.4 830.5,42.8 827.5,42.8 827.5,32.4 823.8,32.4 823.8,30.1 834.3,30.1 		"/>
		<path class="st18" d="M846.6,36.7c0,1.2-0.2,2.3-0.7,3.3c-0.5,1-1.1,1.7-1.9,2.2c-0.8,0.5-1.8,0.8-2.9,0.8c-1.1,0-2-0.2-2.9-0.7
			c-0.8-0.5-1.5-1.2-1.9-2.1c-0.5-0.9-0.7-2-0.7-3.2v-0.7c0-1.2,0.2-2.3,0.7-3.3c0.5-1,1.1-1.7,1.9-2.2c0.8-0.5,1.8-0.8,2.9-0.8
			c1.1,0,2,0.3,2.9,0.8c0.8,0.5,1.5,1.2,1.9,2.2c0.5,0.9,0.7,2,0.7,3.2V36.7z M843.5,36.2c0-1.3-0.2-2.2-0.6-2.9c-0.4-0.7-1-1-1.8-1
			c-1.5,0-2.3,1.2-2.4,3.4l0,0.9c0,1.2,0.2,2.2,0.6,2.9c0.4,0.7,1,1,1.8,1c0.8,0,1.4-0.3,1.8-1c0.4-0.7,0.6-1.6,0.6-2.8V36.2z"/>
		<path class="st18" d="M856.2,30.1h3v12.7h-3v-8l-4.5,8h-3V30.1h3v8L856.2,30.1z M857.2,26.7c0,0.8-0.3,1.4-0.9,1.9
			c-0.6,0.5-1.4,0.7-2.3,0.7c-1,0-1.7-0.2-2.3-0.7c-0.6-0.5-0.9-1.1-0.9-1.9h2c0,0.3,0.1,0.6,0.3,0.8c0.2,0.2,0.5,0.3,0.9,0.3
			c0.4,0,0.7-0.1,0.9-0.3c0.2-0.2,0.3-0.5,0.3-0.8H857.2z"/>
		<path class="st18" d="M872.2,30.1v12.7h-3v-4.7l-0.9,0.1l-1.1,0.1c-1.7,0-3-0.4-3.9-1.1c-0.9-0.7-1.4-1.8-1.4-3.1v-3.9h3V34
			c0,0.7,0.2,1.2,0.5,1.5c0.3,0.3,0.9,0.5,1.7,0.5l0.3,0c0.7,0,1.3-0.1,1.7-0.2v-5.7H872.2z"/>
		<polygon class="st18" points="882.1,30.1 885.2,30.1 885.2,42.8 882.1,42.8 882.1,34.8 877.6,42.8 874.6,42.8 874.6,30.1 
			877.6,30.1 877.6,38.1 		"/>
		<path class="st18" d="M887.6,42.8V30.1h4.5c1.6,0,2.9,0.3,3.7,0.9c0.8,0.6,1.3,1.5,1.3,2.6c0,0.7-0.2,1.2-0.4,1.7
			c-0.3,0.5-0.7,0.8-1.3,1c0.7,0.2,1.2,0.5,1.5,1c0.4,0.5,0.5,1.1,0.5,1.7c0,1.2-0.4,2.2-1.2,2.8c-0.8,0.6-1.9,0.9-3.5,1H887.6z
			 M890.7,35.4h1.6c0.7,0,1.1-0.1,1.4-0.4c0.3-0.2,0.4-0.6,0.4-1.1c0-0.5-0.2-0.9-0.5-1.2c-0.3-0.2-0.8-0.4-1.5-0.4h-1.5V35.4z
			 M890.7,37.4v3h2c0.5,0,1-0.1,1.3-0.4c0.3-0.3,0.4-0.6,0.4-1.1c0-1.1-0.5-1.6-1.6-1.6H890.7z"/>
		<path class="st18" d="M910.4,36.7c0,1.2-0.2,2.3-0.7,3.3c-0.5,1-1.1,1.7-1.9,2.2c-0.8,0.5-1.8,0.8-2.9,0.8c-1.1,0-2-0.2-2.9-0.7
			s-1.5-1.2-1.9-2.1c-0.5-0.9-0.7-2-0.7-3.2v-0.7c0-1.2,0.2-2.3,0.7-3.3c0.5-1,1.1-1.7,1.9-2.2c0.8-0.5,1.8-0.8,2.9-0.8
			c1.1,0,2,0.3,2.9,0.8c0.8,0.5,1.5,1.2,1.9,2.2c0.5,0.9,0.7,2,0.7,3.2V36.7z M907.3,36.2c0-1.3-0.2-2.2-0.6-2.9c-0.4-0.7-1-1-1.8-1
			c-1.5,0-2.3,1.2-2.4,3.4l0,0.9c0,1.2,0.2,2.2,0.6,2.9c0.4,0.7,1,1,1.8,1c0.8,0,1.4-0.3,1.8-1c0.4-0.7,0.6-1.6,0.6-2.8V36.2z"/>
		<polygon class="st18" points="921.1,32.4 915.6,32.4 915.6,42.8 912.5,42.8 912.5,30.1 921.1,30.1 		"/>
		<path class="st18" d="M933.2,36.7c0,1.2-0.2,2.3-0.7,3.3c-0.5,1-1.1,1.7-1.9,2.2c-0.8,0.5-1.8,0.8-2.9,0.8c-1.1,0-2-0.2-2.9-0.7
			c-0.8-0.5-1.5-1.2-1.9-2.1c-0.5-0.9-0.7-2-0.7-3.2v-0.7c0-1.2,0.2-2.3,0.7-3.3c0.5-1,1.1-1.7,1.9-2.2c0.8-0.5,1.8-0.8,2.9-0.8
			c1.1,0,2,0.3,2.9,0.8c0.8,0.5,1.5,1.2,1.9,2.2c0.5,0.9,0.7,2,0.7,3.2V36.7z M930.1,36.2c0-1.3-0.2-2.2-0.6-2.9c-0.4-0.7-1-1-1.8-1
			c-1.5,0-2.3,1.2-2.4,3.4l0,0.9c0,1.2,0.2,2.2,0.6,2.9c0.4,0.7,1,1,1.8,1c0.8,0,1.4-0.3,1.8-1c0.4-0.7,0.6-1.6,0.6-2.8V36.2z"/>
		<path class="st18" d="M804.5,60.3v6.4h-3.7V48.5h7c1.4,0,2.5,0.2,3.6,0.7c1,0.5,1.8,1.2,2.4,2.1c0.6,0.9,0.8,2,0.8,3.1
			c0,1.8-0.6,3.2-1.8,4.2c-1.2,1-2.9,1.5-5,1.5H804.5z M804.5,57.2h3.3c1,0,1.7-0.2,2.2-0.7c0.5-0.5,0.8-1.1,0.8-2
			c0-0.9-0.3-1.6-0.8-2.2c-0.5-0.5-1.2-0.8-2.2-0.8h-3.4V57.2z"/>
		<path class="st18" d="M826,62.9h-6.5l-1.2,3.7h-4l6.7-18.1h3.4l6.7,18.1h-3.9L826,62.9z M820.5,59.9h4.5l-2.3-6.8L820.5,59.9z"/>
		<path class="st18" d="M842.7,53.5c0-0.7-0.3-1.2-0.8-1.6c-0.5-0.4-1.2-0.6-2.1-0.6c-0.8,0-1.5,0.2-2,0.6c-0.5,0.4-0.8,0.9-0.8,1.5
			h-3.7c0-1,0.3-1.9,0.8-2.6c0.5-0.8,1.3-1.4,2.3-1.8c1-0.4,2.1-0.7,3.3-0.7c2.1,0,3.7,0.4,4.9,1.3c1.2,0.9,1.8,2.2,1.8,3.8
			c0,0.8-0.2,1.6-0.7,2.2c-0.5,0.7-1.2,1.2-2.1,1.7c1,0.3,1.8,0.9,2.3,1.6c0.5,0.7,0.8,1.6,0.8,2.6c0,1.6-0.6,2.9-1.9,3.9
			c-1.3,1-2.9,1.4-5,1.4c-1.3,0-2.5-0.2-3.5-0.7c-1-0.5-1.8-1.1-2.4-1.9c-0.5-0.8-0.8-1.7-0.8-2.7h3.7c0,0.6,0.3,1.2,0.8,1.6
			c0.6,0.4,1.3,0.7,2.2,0.7c1,0,1.8-0.2,2.3-0.7c0.6-0.4,0.9-1,0.9-1.7c0-0.9-0.3-1.6-0.8-2c-0.5-0.4-1.3-0.6-2.2-0.6h-2.2v-2.9h2.3
			C841.8,55.9,842.7,55.1,842.7,53.5"/>
		<path class="st18" d="M850.4,66.7V48.5h6.3c2.2,0,3.8,0.4,5,1.3c1.1,0.8,1.7,2.1,1.7,3.7c0,0.9-0.2,1.7-0.7,2.3
			c-0.5,0.7-1.1,1.2-1.9,1.5c0.9,0.2,1.7,0.7,2.2,1.4c0.5,0.7,0.8,1.6,0.8,2.6c0,1.7-0.6,3.1-1.7,4c-1.1,0.9-2.7,1.4-4.7,1.4H850.4z
			 M854.1,56.1h2.8c1.9,0,2.8-0.8,2.8-2.3c0-0.8-0.2-1.4-0.7-1.8c-0.5-0.4-1.2-0.5-2.2-0.5h-2.6V56.1z M854.1,58.8v4.9h3.2
			c0.9,0,1.6-0.2,2-0.6c0.5-0.4,0.7-1,0.7-1.7c0-1.7-0.9-2.5-2.6-2.5H854.1z"/>
		<polygon class="st18" points="878.2,48.5 882,48.5 882,66.7 878.2,66.7 878.2,54.6 871,66.7 867.3,66.7 867.3,48.5 871,48.5 
			871,60.6 		"/>
		<polygon class="st18" points="899.3,51.5 893.8,51.5 893.8,66.7 890.1,66.7 890.1,51.5 884.6,51.5 884.6,48.5 899.3,48.5 		"/>
		<polygon class="st18" points="913.1,48.5 916.8,48.5 916.8,66.7 913.1,66.7 913.1,54.6 905.9,66.7 902.2,66.7 902.2,48.5 
			905.9,48.5 905.9,60.6 		"/>
		<path class="st18" d="M929.3,66.7v-6.5h-3l-3.3,6.5h-4l3.9-7.7c-1.9-1-2.8-2.6-2.8-4.8c0-1.8,0.6-3.2,1.7-4.1
			c1.2-1,2.8-1.5,4.8-1.5h6.4v18.1H929.3z M923.8,54.4c0,1,0.2,1.7,0.7,2.2c0.5,0.5,1.2,0.7,2.2,0.7h2.6v-5.7h-2.6
			C924.8,51.5,923.8,52.5,923.8,54.4"/>
		<polygon class="st18" points="500.9,7.4 513.2,7.4 513.2,57.2 537,57.2 537,7.4 549.2,7.4 549.2,57.2 557.4,57.2 556.5,81.5 
			545.1,81.5 545.1,67.1 500.9,67.1 		"/>
		<polygon class="st18" points="601.9,41.2 578.4,41.2 578.4,57.2 605.9,57.2 605.9,67.1 566.1,67.1 566.1,7.4 605.9,7.4 
			605.9,17.3 578.4,17.3 578.4,31.6 601.9,31.6 		"/>
		<path class="st18" d="M662.7,7.4v59.8h-12.3V17.3h-15.8l-1,21.1c-0.4,7.1-1.3,12.7-2.7,16.8c-1.4,4.1-3.4,7.1-6.1,9
			c-2.7,1.9-6.3,2.9-10.9,2.9h-3.2v-9.9l2-0.2c3.1-0.4,5.3-2.2,6.6-5.4c1.3-3.2,2.2-8.8,2.5-16.9l1-27.4H662.7z"/>
		<polygon class="st18" points="710.3,7.4 722.5,7.4 722.5,67.1 710.3,67.1 710.3,27.4 686.5,67.1 674.2,67.1 674.2,7.4 686.5,7.4 
			686.5,47.1 		"/>
	</g>
</g>
<g id="Layer_1">
</g>
</svg>
