<?xml version="1.0" encoding="utf-8"?>
<!-- Generator: Adobe Illustrator 24.1.1, SVG Export Plug-In . SVG Version: 6.00 Build 0)  -->
<svg version="1.1" id="Layer_1" xmlns="http://www.w3.org/2000/svg" xmlns:xlink="http://www.w3.org/1999/xlink" x="0px" y="0px"
	 width="763.9px" height="246.8px" viewBox="0 0 763.9 246.8" style="enable-background:new 0 0 763.9 246.8;" xml:space="preserve"
	>
<style type="text/css">
	.st0{display:none;fill:#00ADEE;}
	.st1{fill:#3A8DDE;}
	.st2{display:none;fill:#3A8DDE;}
	.st3{display:none;fill:#5EBA47;}
	.st4{display:none;fill:#E4B633;}
	.st5{display:none;fill:#C4202E;}
	.st6{display:none;fill:#4B9E46;}
	.st7{display:none;fill:#407F44;}
	.st8{display:none;fill:#F9C213;}
	.st9{display:none;fill:#EE402B;}
	.st10{display:none;fill:#F89D28;}
	.st11{display:none;fill:#1995D3;}
	.st12{display:none;fill:#A11C43;}
	.st13{display:none;fill:#27BCE1;}
	.st14{display:none;fill:#F16A2B;}
	.st15{display:none;fill:#E7223B;}
	.st16{display:none;fill:#DC1768;}
	.st17{display:none;fill:#17486A;}
	.st18{display:none;fill:#C6972D;}
	.st19{display:none;fill:#03699C;}
	.st20{clip-path:url(#SVGID_2_);fill:#5FBA46;}
	.st21{clip-path:url(#SVGID_2_);fill:#D19F2A;}
	.st22{clip-path:url(#SVGID_2_);fill:#C22033;}
	.st23{clip-path:url(#SVGID_2_);fill:#2D9A47;}
	.st24{clip-path:url(#SVGID_2_);fill:#48773C;}
	.st25{clip-path:url(#SVGID_2_);fill:#FDB714;}
	.st26{clip-path:url(#SVGID_2_);fill:#EF412A;}
	.st27{clip-path:url(#SVGID_2_);fill:#F99D25;}
	.st28{clip-path:url(#SVGID_2_);fill:#007DBB;}
	.st29{clip-path:url(#SVGID_2_);fill:#8F1838;}
	.st30{clip-path:url(#SVGID_2_);fill:#00ADD8;}
	.st31{clip-path:url(#SVGID_2_);fill:#F36E24;}
	.st32{clip-path:url(#SVGID_2_);fill:#EA1D2D;}
	.st33{clip-path:url(#SVGID_2_);fill:#E01A83;}
	.st34{clip-path:url(#SVGID_2_);fill:#1B3668;}
	.st35{clip-path:url(#SVGID_2_);fill:#CD8B2A;}
	.st36{clip-path:url(#SVGID_2_);fill:#00558A;}
	.st37{clip-path:url(#SVGID_2_);fill:#009DDA;}
</style>
<g id="Layer_2_1_">
	<g id="OUTLINES">
		<path class="st0" d="M499.5,73.7H516c14.9,0,24.5,10.3,24.5,25.3v0.7c0,15-9.6,25.4-24.5,25.4h-16.6V73.7z M510.1,83.3v32.1h5.9
			c8.1,0,13.6-5.7,13.6-15.8v-0.4c0-10.2-5.5-15.9-13.6-15.9H510.1z"/>
		<path class="st0" d="M546.2,73.7h33.1v9.6h-22.5v11.1h19.8v9.6h-19.8v11.4h22.8v9.6h-33.4V73.7z"/>
		<path class="st0" d="M581.3,73.7h11.5l10.9,35.4l10.9-35.4h11.2l-17.3,51.7h-9.8L581.3,73.7z"/>
		<path class="st0" d="M629.5,73.7h33.1v9.6H640v11.1h19.8v9.6H640v11.4h22.8v9.6h-33.4V73.7z"/>
		<path class="st0" d="M668.5,73.7h10.6v41.6h20.8v9.8h-31.4V73.7z"/>
		<path class="st0" d="M699.8,99.9V99c0-15.4,9.7-26.2,23.3-26.2c13.6,0,23.2,10.7,23.2,26.1v0.9c0,15.3-9.7,26.2-23.3,26.2
			S699.8,115.2,699.8,99.9z M735.3,99.7v-0.5c0-10.1-5.1-16.5-12.3-16.5s-12.3,6.3-12.3,16.4v0.5c0,10.1,5.2,16.5,12.3,16.5
			S735.3,109.8,735.3,99.7L735.3,99.7z"/>
		<path class="st0" d="M752,73.7h17.1c11.5,0,18.8,6.7,18.8,17.6v0.2c0,11.8-8.4,17.8-19.2,18h-6v15.6H752V73.7z M768.6,99.9
			c5.5,0,8.6-3.4,8.6-8.2v-0.1c0-5.4-3.1-8.3-8.7-8.3h-5.8v16.6H768.6z"/>
		<path class="st0" d="M792.1,73.7h11.2l11.5,20.8L826,73.7h11.2v51.4h-10.4V92.3l-12.1,21.2h-0.2l-12-21.1v32.7h-10.4V73.7z"/>
		<path class="st0" d="M844.8,73.7h33.1v9.6h-22.5v11.1h19.8v9.6h-19.8v11.4h22.8v9.6h-33.4V73.7z"/>
		<path class="st0" d="M883.8,73.7h9.8l19.7,29.9V73.7h10.4v51.4h-9.1L894.2,94v31h-10.4V73.7z"/>
		<path class="st0" d="M941.1,83.5h-13v-9.8h36.4v9.8h-12.9v41.5h-10.5V83.5z"/>
		<path class="st0" d="M495.7,49.5l6.9-8.6c3.8,3.3,8.4,6.4,14,6.4c4.5,0,7.2-2.3,7.2-5.6v-0.1c0-2.8-1.6-4.6-9.7-7.6
			c-10-3.9-16.2-7.6-16.2-17.3v-0.2C498,6.7,505.6,0,516.5,0c6.7-0.1,13.2,2.4,18.2,6.9l-6.5,8.9c-3.5-2.9-7.6-5.2-12-5.2
			c-4,0-6.5,2-6.5,4.9v0.1c0,3.2,1.9,4.8,10.7,8.4c9.8,3.9,15.2,8.1,15.2,16.8v0.2c0,10.5-8,16.9-18.9,16.9
			C508.8,57.8,501.3,54.8,495.7,49.5z"/>
		<path class="st0" d="M540.4,35.2V0.7H552v34.5c0,8,3.8,11.9,9.8,11.9c6,0,9.8-3.9,9.8-11.7V0.7h11.6v34.2c0,15.5-8.5,23-21.6,23
			C548.6,57.9,540.4,50.4,540.4,35.2z"/>
		<path class="st0" d="M586.7,49.5l6.9-8.6c3.8,3.3,8.4,6.4,14,6.4c4.5,0,7.2-2.3,7.2-5.6v-0.1c0-2.8-1.6-4.6-9.7-7.6
			c-10-3.9-16.2-7.6-16.2-17.3v-0.2C589,6.7,596.6,0,607.5,0c6.7-0.1,13.2,2.4,18.2,6.9l-6.5,8.9c-3.5-2.9-7.7-5.2-12-5.2
			c-4,0-6.5,2-6.5,4.9v0.1c0,3.2,1.9,4.8,10.7,8.4c9.8,3.9,15.1,8,15.1,16.8v0.2c0,10.5-8,16.9-18.9,16.9
			C599.8,57.8,592.3,54.8,586.7,49.5z"/>
		<path class="st0" d="M641.7,11.5h-14.2V0.7h39.9v10.8h-14.2V57h-11.6V11.5z"/>
		<path class="st0" d="M682.5,0.4h11.1l20.2,56.7h-12.1l-4.2-12.2h-19.4L674,57h-11.7L682.5,0.4z M694,34.5l-6.1-18.4l-6.2,18.4H694
			z"/>
		<path class="st0" d="M718.2,0.7h11.7V57h-11.7V0.7z"/>
		<path class="st0" d="M738.5,0.7h10.7l21.6,32.8V0.7h11.4V57h-10L750,23v34h-11.4V0.7z"/>
		<path class="st0" d="M806.5,0.4h11.1l20.2,56.7h-12.1l-4.2-12.2h-19.4L798,57h-11.8L806.5,0.4z M818,34.5l-6.1-18.4l-6.2,18.4H818
			z"/>
		<path class="st0" d="M841.8,0.7h20.9c6.3,0,11.5,1.7,14.7,4.9c2.5,2.5,3.9,6,3.8,9.6v0.2c0,6.6-3.6,10.1-7.6,12.3
			c6,2.3,10,6,10,13.4v0.4c0,10.1-8.1,15.5-20.3,15.5h-21.4V0.7z M869.7,17.3c0-4.1-2.9-6.3-7.9-6.3h-8.7v12.7h8.1
			C866.4,23.7,869.7,21.6,869.7,17.3L869.7,17.3z M863.3,33.6h-10.2v13.2h10.5c5.2,0,8.5-2.3,8.5-6.6v-0.1
			C872.1,36,869.1,33.6,863.3,33.6L863.3,33.6z"/>
		<path class="st0" d="M889.1,0.7h11.7v45.6h22.8V57h-34.4V0.7z"/>
		<path class="st0" d="M928.4,0.7h36.3v10.6h-24.7v12.1h21.7V34h-21.7v12.5h25V57h-36.6V0.7z"/>
		<path class="st1" d="M371.4,78.9c7.7,14.8,9.8,35.1,4.9,51.8c-5,19.7-21.6,39.6-40.9,47.7c-21.7,10.6-52.6,8-71.9-5.9
			c-26.9-18.4-37.9-50.2-29.8-81.6c4.9-18.6,19.8-37.4,37.9-46.1c10.4-5.1,21.9-7.9,33.5-8C332.8,36.9,359.3,53.2,371.4,78.9z
			 M306.5,40.4c0.4,3.4,0.4,6.8,0.1,10.2c0-0.3,0.1-0.6,0.3-0.9c0.5-0.3,1,0.1,1.2,0.5c0,0.5,0.3,1.4-0.2,1.7
			c0.4,0.1,0.7-0.3,1.1-0.3c8.2,0.6,16.1,3,23.2,7.1v-0.2c1.4-0.7,3.3-1.6,4.8-0.4c1.8-0.7,2.1,1.5,3.5,1.8c1.7,1,3.7,3,3.9,5
			c0.3,0.7,1.4,1.1,1.5,1.8c1.2-2.5,3.5-4.3,5.6-6.4l1.3-0.5c-11.1-10.6-24.3-16.5-39-18.5C311.3,40.9,308.7,41.1,306.5,40.4z
			 M302.4,40.8c-14.8,0.6-27.9,5.6-39.6,14c-2.3,1.5-4.2,3.9-6.5,5.2h0.3c2.9,2.4,5.7,5,8.1,7.8l0.2-0.5
			c10.8-9.8,23.3-15.2,37.6-15.8l-0.3-0.9l-0.1-8.8L302.4,40.8z M315,46.4l-5.3,2.3c-0.4-0.2-1.3-0.4-1.6,0.2
			c-0.2,0.2,0,0.5,0.1,0.6c2,2.5,5.3,1.1,7.8,0.6c1.8,0.7,3.5-0.2,4.8-1.3v-0.3C319.5,46.8,317.1,46.5,315,46.4z M306.4,55.5
			l0.4,0.7c-0.1,3.4,0.1,7.1-0.2,10.3c1.4-0.5,2.8,0.1,4.2,0.2c7.2,1.2,14,3.5,19.8,8c-0.8-0.7-1.4-1.6-1.7-2.7
			c0.1-0.1,0.3-0.2,0.5-0.2c0.1-1.1-1.2-1.7-1.3-2.8c0.2-0.3,0.5-0.4,0.8-0.3c1.2,1.1,2.3,2.4,3.2,3.7c0.8-0.3,1.5,0.2,2.1,0.6
			c1.1,0.6,0.4,2,1.2,2.7c0.1,2.2,2.8,3.4,2.6,5.6c0,0.5,0.7,0.1,0.9,0.4l2.2,2.7c-0.3,0.5-0.2,1.2,0.3,1.5c0,0,0,0,0,0
			c1,0.4,1.5-0.8,2.5-0.6c1.4,0.8-0.2,1.8-0.1,2.7c0.6,0,1.3-0.4,1.7,0.1c0.2,0.8-0.7,1.3-1,1.8c0,0.8,0.7,0.6,1.3,0.8
			c0.6,0,1,0.5,0.9,1.1c0,0.1,0,0.2-0.1,0.3c1.8,1.9-0.6,4,0.3,6c0.6,1.3-0.1,2.6-1,3.6c0,1.6-1.4,2.6-2,4l-1.9,0.4
			c-1,1,0.8,2.2-0.1,2.8l4.1,0.1l-0.4-0.4c-0.6-1.7-0.4-3.7,0.5-5.2c0.6-1.3,0.8-2.9,2-4c0.3-0.1,0.7-0.6,1,0
			c0.1,1.3-0.1,2.6-0.6,3.8c1.2,1.7,1,3.9,1.1,6c3.6-0.2,7.2-0.3,10.8-0.3l-0.3-0.7c-0.4-6.6-2-13.1-4.8-19.1
			c-0.8,0-1.3,0.7-2.2,0.4c-0.3-0.1-0.5-0.4-0.4-0.7c-1.5-1.4-2.4-3.2-4-4.5c-1.9,0.2-2.7-2-4.4-2.2c-1.5-0.6-0.5-3-2.6-2.4
			c-1.1-0.4-2-1.3-2.3-2.5c0-1.9-0.4-4-2.1-5.2c-1.3-0.5-1.9,1.3-3.2,1c-0.7-0.4-0.4-1.3-0.6-2s-0.9-1-0.8-1.7
			c1.7-2.3-2.1-2.3-1.3-4.5c-0.2-1.6-1.9-2.3-2.7-3.5c-5.6-2.6-11.7-4.4-17.8-5.1C309.3,55.9,307.8,56.2,306.4,55.5z M339.7,55.5
			c-0.8,0.7-1.4-0.7-2.1,0.2c0,0.4,0,0.8,0.3,1.1c1.5,0.5,1.7,2.8,3.7,2.3c0.6-0.7-0.4-1.4-0.2-2.2
			C341.1,56.2,340.5,55.6,339.7,55.5z M273.7,65.4c-2.3,1.6-4.4,3.6-6.7,5c2.7,1.7,5,4.6,7.4,6.9l0.3,0.7
			c6.1-5.7,13.8-9.6,22.1-11.1c2-0.2,3.9-0.8,5.8-0.4c-0.3-3.5-0.3-7.1-0.1-10.6C292.2,56.3,282.2,59.7,273.7,65.4z M355.5,62.1
			c-2.3,2.8-4.7,5.4-7.4,7.9l-1.3,0.3c0.8,0.2,1,1.1,1.5,1.7c2.7,1.4,3.4,4.3,5.7,5.9c1.3,2.8,4.4,4.9,4.5,8.1
			c3.4,7.2,5.3,14.9,5.6,22.9l-0.3,0.4c0.3,0,0.6-0.1,0.9-0.3l10.6-0.2c-0.7-1-0.4-2.5-0.6-3.8C373.4,88.5,366.4,74.4,355.5,62.1z
			 M254.2,62.3c-10.5,11.7-17,25-18.8,40.2c-0.4,2.2-0.1,4.5-0.6,6.7c3.8-0.3,7.6-0.3,11.4,0l-0.3-1.4c0.6-11.3,4.4-22.3,11.1-31.5
			c1.7-1.9,2.9-4.2,4.9-5.6c-2.4-2.2-4.9-4.9-7.4-7.3L254.2,62.3z M302.6,70l-0.6,0.4c-9.4,0.7-17.5,4.6-24.6,10.4
			c2.8,2,5.3,5.1,7.8,7.3c0.2-0.3,0.4-0.5,0.6-0.8c3.5-2.5,7.1-4.8,11.2-5.8c1.8-0.2,3.6-1.1,5.6-0.6
			C302.2,77.3,302.2,73.6,302.6,70z M306.5,70.1l0.4,0.8l-0.1,10l1-0.2c6.1,0.8,11.7,2.8,16.5,6.7l0.3,0.8c1.6-2.3,4.1-4.3,6.1-6.5
			l1.8-1.1l-0.9-0.4c-3.9-3.3-8.4-5.9-13.3-7.7C314.5,71.4,310.5,70.6,306.5,70.1L306.5,70.1z M264.3,72.9l-0.1,0.7l-4,5
			c-6.5,9-9.6,19.3-10.5,30.6l10.1-0.1l1,0.4c-0.4-0.3-0.3-0.7-0.4-1.1c0.8-10.5,4.5-19.8,11.7-27.7
			C269.3,78.3,266.7,75.7,264.3,72.9z M334.7,83.1l-0.2,0.4c-3.4,3.5-7.1,7.2-10.3,10.8c0.2,0.4,0.6,0.8,1,1.1
			c0.1-0.9,0.6-1.7,0.7-2.6c0.9-1.2,2.2-0.4,3.4-0.2c1.8-0.4,3.4,0.4,5.2,0.4c1.3,0.7,1.4,2.3,2.6,3c0.3,0.5,0.1,1.1-0.3,1.4
			c0,0,0,0,0,0c0.4,2.8,1.7-0.7,3.1-0.1c0.6,0.2,1.3,0.2,1.8,0.8c0.2,1.1,1.6,0.9,1.7,2c-0.1,0.6-0.7,0.7-1.1,1
			c0.3,1.1-1.1,1.8-0.6,3c2.1,0.4,2.2-2.1,3.2-3.2c-0.4-1.9-1.1-3.8-2.1-5.6c-1.2-0.3-2-1.7-3.2-2c-2.4-0.9,0.4-2.4,0.1-3.8
			C338.2,87.3,336.5,85.1,334.7,83.1z M274.8,83.5c-5,5.8-8.5,12.8-9.9,20.4c-0.4,1.8-0.2,3.8-0.9,5.5c1.3-0.6,3.2-0.4,4.6-0.2
			c-0.9-0.4-0.2-1.5-0.6-2.1c-0.1-0.9-0.3-2.1,0.6-2.7c-0.1-1.5,1.5-2.3,1.7-3.7c0.4-1.5,2.2-0.5,3-1.3c0.6-0.3,0.1-0.8,0.1-1.2
			c0.7-1,1.9-1,2.8-1.5c0.6-1,1.5-1.9,2.5-2.6c2.2,0.1,2.3-3,4.4-3.1C280.1,88.7,277.4,86.2,274.8,83.5z M306.6,84.7
			c0.7,2.1,0.1,5.2,0.5,7.6l2.6,0.9c0.8-1.3,2.5-1.5,3.2-2.8c0.5-0.4,1,0,1.4,0.4c0.1,1-0.1,2-0.4,3c-1,2-3.4,2.2-4.7,3.7
			c0.9,0.5,1.3-0.4,2-0.6c1,0.3,1.9,0.8,2.5,1.7c0.7,0.3,1.3-0.1,1.9-0.3c0.4-3,4.2-2.6,5.4-5.5l-0.7,0.3c-0.3-0.4-1-0.2-1-0.9
			c0.6-0.7,1.4-1.3,2.2-1.8c-3.2-2.1-6.8-3.7-10.5-4.8C309.5,85.4,308.1,85.1,306.6,84.7z M286.8,92.4h0.8c0.9,0.9,2.3,0.7,3,1.9
			c0.3,0.7-0.6,0.6-0.6,1.1c0.2,0.2,0.4,0.2,0.6,0.4c0.7,0.3,0.5-0.4,0.8-0.7c0.9-0.9,1.1,0.9,2,0.9c0.6-0.5,1.4-0.4,1.9,0.2
			c0,0,0,0,0,0c0.6-0.5,1.8,0,2-1c1.1-1.2,0.5-3.1,2.2-3.9c0.6,0.3,0,0.9,0.2,1.4c1.1,0.5,2.4-1,3.4,0.2c-0.8-2.4-0.6-5.4-0.6-8
			C296.6,85.8,291.2,87.8,286.8,92.4z M304.7,98.5c-0.6-0.7-1.9-0.3-2.6,0c0.7,0.7,0.4,2.1,0.9,3c-1.1,1.8-3,2.3-4.7,2.8
			c-0.5,0.6-0.4,1.9-1.5,1.8c-0.4,0.8-1.6,1.3-1.1,2.5c-0.6,1.3-0.3,2.9-0.6,4.2c-2.2,1.4-1.5-1.8-2.6-2.5l-0.4,0.6
			c-0.4,0.1-0.7-0.2-1-0.4c-0.3-0.1-0.9-0.2-1.2,0.1c-0.5,0.8-1.2,1.5-1,2.6c-0.2,0.7-1.3,0.4-1.2,1.1c1.3-0.1,2.5-0.2,3.7-0.5
			c0.9,0.2,1.6-0.4,2.4-0.4c0.4,0.1,0.6,0.5,0.5,0.9h0.3c0.6-0.4,0.8-1.1,0.6-1.8c0.1-0.8,0.9-0.8,1.4-1c0.5,0.2,0.2,0.7,0.3,1.1
			c1.7,0.6-0.4,1.8-0.6,2.7c-0.4,0.7,0,2.3-1.4,2.1c-0.3-0.1-0.4-0.4-0.4-0.6h-0.3c0,0.7,0.4,1.3,1,1.7c1-0.8,1.1-2.3,2.5-2.5
			c0.8-0.8-0.3-2.1,0.8-2.7c1.9,0,4-0.8,5.5,0.7c-0.1,0.7-0.4,1,0.2,1.5c-0.3,0.9-0.7,1.7-1.3,2.5c0.2,0.5,0,1-0.4,1.4
			c-0.5,2.3-3.1,1.2-4.6,2c2.3,1.7,5.2,2.5,8.1,2.2c1.6-0.1,0.9-2,1.7-2.9c0.5-2.6,2.9-0.8,4.3-1.5c0.6-1.1,1-2.2,1.3-3.4
			c-0.9-0.6-1.3-1.7-1-2.8c-0.6-0.8-0.5-2.4-1.9-2.5c-0.2-0.3-0.1-0.7,0.1-0.9c0-0.8,0.8-1.1,1-1.7c-0.9-0.6-0.6-1.8-0.6-2.5
			c-1.4,0.4-1.6-1.5-2.6-1.9c-0.3-0.8-1.2-1-1.9-1.1c-1.8,0.8-2.1-1.3-3.4-1.8c-0.1-0.4-0.4-1,0-1.3c0.7-0.6,1.6-0.1,2.3-0.1
			L304.7,98.5z M272.7,107.6c-3,1,0.5,3.2-0.3,5c-0.4,1.1-1.5,0.1-2.3,0.5l-0.3,2c-0.4,1.2-1.9,0.3-2.5,1.1c-0.5,0.7,0,1.5,0.4,2.1
			c-1,2.4,2.3,3.1,2.3,5.2c1,1.3-0.1,3.2,1.3,4.4c0.3,2.4-0.3,5.6,1.8,7.5l0.4,2.3c0.4,1.6-1.9,1.2-1.6,2.6c0.5-0.2,0.6,0.4,0.6,0.5
			v-0.1c2.9-3.4,6.1-6.7,9.5-9.6l-1.4-1.4c-2.7-3.8-4.6-8.1-5.7-12.7l-1.1-0.6c0,1.2-0.6,2.1-0.5,3.3l-0.4,0.4
			c-0.8,0-1.3-0.7-1.9-1.1c-0.1-0.4-0.6-1.1,0.1-1.4c0.3,0,0.6,0.1,0.9,0.3c0.3-0.4,0.2-1,0.4-1.5c0.1-0.9-0.7-1.7-0.1-2.5
			c0.7-0.1,1.2,0.8,1.5,1.3c0.7,0.2,1.3-0.4,1.9-0.6c0-0.6,0.9-1.5-0.1-1.8c0.3-1.4,0.3-2.9-0.1-4.3
			C275,107.2,273.7,107.5,272.7,107.6L272.7,107.6z M341.6,108.8c-0.4,0.1-0.7,0.1-1.1,0.1C340.9,108.8,341.2,108.8,341.6,108.8
			L341.6,108.8z M339.3,112.4l1.1,1.2c1.1,0.8,0.4,2.4,1.6,3.1c1.4,0.7,2,2.4,2.6,3.6c0.2-0.3,0.3-0.7,0.3-1.1
			c0.5-2,0.4-4.3,1.1-6.3C343.8,113.1,341.3,113.3,339.3,112.4L339.3,112.4z M364.5,112.9l-0.6-0.4l0.4,1
			c-0.5,11.8-4.6,23.2-11.7,32.7c-1.4,1.6-2.6,3.6-4.3,4.8c2.9,2.5,5.7,5.2,8.2,8.1l0.3-0.6c11.3-12.9,17.7-27.7,18.4-44.9l0.4-0.9
			l-0.6,0.3L364.5,112.9z M349.7,112.7c0.2,2.3-0.4,4.4-0.5,6.6l1.2,1.3c0.3,0.6,0.2,1.3-0.3,1.7c-0.5,0.3-1.2,0.3-1.7-0.1
			c-1.5,4.9-3.4,9.7-6.4,14.1c-1.2,1.5-2.4,3.7-4,4.5l3.3,2.9c0.2-0.2,0.1-0.5,0.1-0.7c0-0.4,0.2-1,0.8-0.9c1.6,0,1.7,1.7,2.6,2.6
			c-0.2,1.4,1,2.5,0.6,3.8c9.3-9.8,13.9-21.8,14.8-35.1l0.5-0.6c-3.3,0.3-6.8,0.1-10.2,0.2L349.7,112.7z M263.8,112.8l0.6,0.9
			c0.1,2.4,1,4.8,0.5,7.2c0.4-0.7,0.5-1.7,1.4-2.1c0.1-0.7-0.9-0.8-0.8-1.5c0.7-1.4,0-3.6,1.8-4.2
			C266.1,113.4,264.9,113.6,263.8,112.8L263.8,112.8z M246.1,113l-1,0.4l-10.2-0.1c0.5,11.3,3.6,22.4,9,32.3
			c2.6,4.9,6.4,9.2,9.8,13.8l7.3-7.6l0.9-0.4c-1.3-1-2.4-2.2-3.4-3.5c-1.3-0.3-2.4-1.2-3.1-2.4c-0.4-0.4,0-1.1-0.4-1.4l-0.4,0.6
			c-1.3,0.6-1.8-0.7-2.6-1.3c-1.1-0.6-0.6-2.8-2.1-2.4c-0.6,0-0.8-0.7-1.1-1.1c-1.4,0.1-1.8-1.4-2.6-2.2c-0.1,0.3,0,0.8-0.4,1
			c-1.5,0.3-2-1.5-3-2.2c-0.3,0.1-0.4,0.4-0.8,0.3c-0.9-0.8-1.5-1.9-1.5-3.1c-1.2-1.4-0.7-3.5-0.4-5.2c0.2-0.4,0.8-0.7,0.7-1.3
			c0.3-0.8,1.1-0.8,1.9-0.9c0.3,0.2,0.6,0.4,0.7,0.7c0.5-0.3,1.5,0,1.1-1c0.7-0.5,1.5-0.8,2.4-0.9c0.5,0.8,1,1.6,1.7,2.3l-0.5-0.8
			c-0.9-3.7-1.5-7.5-1.7-11.3c0-0.2-0.5-0.3-0.2-0.6l0.1,0.1C246,114.3,246,113.7,246.1,113z M260.5,113l-0.8,0.4
			c-3.4-0.1-7,0.2-10.2-0.3l0.4,0.6l0.8,6.8c0.3,2.6,1.5,5.1,1.4,7.7c0.4-0.6,0.2-1.7,1.1-1.8c-0.4-0.8,0.8-1.5,0.1-2.2
			c0.3-1.8,0.6-3.6,2.1-4.9c1.9-0.1,2-2.5,3.9-2.7c1,0,1.5,1.3,2,1.7C260.1,116.9,260.2,114.6,260.5,113L260.5,113z M279.4,117.5
			c1,1.9,1.6,4.1,2.6,6c0.7,1.7,2.1,3,2.8,4.7c0.7-1.3,2.1-2.4,3.1-3.6c0.1-0.5,0-1-0.3-1.4c-0.3-0.8,0-1.9-0.6-2.5
			c-1,0.3,0.3,1.3-0.1,1.8c-0.3,0.2-0.6,0.1-0.8-0.2c0-0.1-0.1-0.2-0.1-0.2c-0.8-0.2-1.5-0.8-1.8-1.7c0.7-0.4-0.2-0.6-0.4-1
			c-0.4-0.2-0.4-0.2-0.7,0.2c-0.2,0-0.4,0-0.6-0.1C282.6,117.3,280.3,118.6,279.4,117.5L279.4,117.5z M291,120.4
			c-0.3,0.9-0.8,1.7-1.5,2.4l0.1,0.1c0.9-0.6,1.5-1.8,2.6-1.8L291,120.4z M320.1,123.4c0,0.6,0.2,1.3,0.6,1.8
			c1.4-0.2,0.8,1.8,2.1,1.6c0.7-0.2,0-0.8,0.3-1.3c-0.2-1.1-1.3-1.2-2-1.9c-0.1-0.2,0.1-0.4,0.2-0.6
			C320.6,122.7,320.4,123,320.1,123.4L320.1,123.4z M340.9,123.5c-1.1-0.1-2.4,0.6-3.3-0.2c-0.3-0.3-0.6,0.2-0.5,0.4
			c-0.4,0.6-0.7,1.3-1.6,1c-0.7-0.3-0.7-1-0.9-1.5c0,0.4-0.1,0.8-0.2,1.1c-0.6,0.8-1.2,1.6-1.6,2.5c-0.8,0.8-2,0.6-2.8,1.2
			c-0.1,1.8-2.1,1.4-3.2,1.9c-0.1,0.2,0.2,0.3,0.3,0.4c0.6,0.2,1.2,0.1,1.6-0.4c1.6,0.4,1.2-1.5,2.1-2.2c0.8-0.1,1.5-0.8,2.3-0.3
			c0.8,1.1,1.1,2.4,0.9,3.7c-0.9,0.9-0.5,2.3-1.1,3.4c0.1,1.2-1.3,1.8-1.1,3c-0.6,0.5-1.3,0.7-2,0.6c-3-1.1-6.1-1.8-9.2-2.1
			c-0.3,0.1-0.5,0.4-0.4,0.7c1.3,0.7,2.9,0.7,4.3,1.3c1.3,0.3,2.1,1.9,3.7,1.4c1.3-0.7,3.5,0.4,4.4-1c-0.1-1.4,1-2.4,1.6-3.5
			l0.4-0.1c0.7,0.8,0.7,1.9,1,2.8c1-1.1,1.8-2.3,2.8-3.5c2.5-3.4,4.3-7.3,5.4-11.4C342.8,123,341.8,123.2,340.9,123.5L340.9,123.5z
			 M294.5,123.5c-1.6,2.6-4.6,4.9-6.8,7.3c3.8,3.2,8.4,5.3,13.3,6.1c0.3-1-0.2-2.2,0.4-3.1c0.5-0.8,1.4-0.8,2.1-0.6
			c0.3,0,0.6-0.3,0.6-0.7c0-0.1-0.1-0.2-0.1-0.3c-1.1-0.2-0.6-1.4-1-2.1c0-0.4,0.7-0.3,0.5-0.8c-0.7-0.6,0.4-1.3-0.3-1.9
			c0.3-0.2,0.4-0.6,0.8-0.6c-2.3,1.2-4.8-0.3-6.9-1.2C296.1,125.2,294.7,124.7,294.5,123.5L294.5,123.5z M315.9,130
			c-0.1,0.3-0.5,0.8,0,1c0.9-0.9,2.8-0.9,2.8-2.2C317.4,128.5,316.8,129.2,315.9,130L315.9,130z M320.1,132.7
			c-1.1,0-1.7,0.9-2.6,1.6c-1,0.6-1.5-1.1-2.4-0.7c0,0.2,0.2,0.3,0.4,0.3c0.3,0.3,0.3,0.8,0,1.1c-1.3,1.1-1.8-0.6-3-0.4v0.4
			c0,0.3-0.1,0.7-0.4,0.5c-0.7-1.2-2.2-0.8-3-1.8c-0.5-0.3-0.9,0.1-1.3,0.4c-0.3,0.6-1.4-0.1-1.1,0.9c-0.9,0.3-1,1.3-1.7,1.9
			c-1.1-0.2-1.6,1.1-2.7,1.1c0.1,0.2,0,0.6,0.3,0.6c0.7,0.3,1.4,0.4,2.1,0.3c1.1-1.8,2.9-0.3,4.5-0.9c1,0.2,0.3,1.2,1,1.6
			c1.5-0.5,2.6,1.3,3.9,0.2c-0.1-1.7,1.9-1.6,2.9-2c1.7-1,3.5-2.3,3.4-4.5L320.1,132.7z M284.5,133.7c-2.2,2.7-4.6,5.2-7.3,7.5
			c1.1,0.1,1.8,1.3,2.7,1.9c5.5,4.6,12.4,6.8,18.8,8.4l-1.8-0.8c-1.3-1.5-3.2-3.3-3.3-5.4c1.3-0.4,1.2-1.9,1.6-2.9
			c1-1.1,2.4-1.8,3.9-2.1c-3.7,1.6-7-1.2-10-2.6C287.5,136.4,285.5,135.5,284.5,133.7L284.5,133.7z M335.7,144l-0.3-0.7
			c-0.4,0.8-1,1.5-1.7,2.1c0,0.6-0.2,1.5,0.5,1.9c1.5,0.5,3.4,1.4,3.7,3.2c-0.6,1.6-3.7,3.1-1.8,4.9c0.6,0.9-0.9,1.2-0.6,1.9
			l0.5-0.7c2.3-1.6,4.5-3.5,6.6-5.5h0.3c-0.4-0.1-1,0.3-1.5,0.1c-1-0.5-1.2-1.4-1.2-2.5L335.7,144z M276.5,145.4l-0.2-0.3l0.2,0.4
			V145.4z M277.6,147c-0.5-0.2-0.8-0.6-0.9-1.1L277.6,147z M277.9,147.3c0.2,0.9,1.4,1.4,1.1,2.5c-0.6,1-1.9,1-2.9,1
			c-2.1-0.3-3.7,1.3-5.6,1.5c-1.8,0.6-2.4-1.6-4.1-1.5c10.2,9,21.9,14.5,35.6,15.3l1,0.7l-0.4-1.3v-9.8l-0.9,0.4
			C293,155.7,284.7,152.6,277.9,147.3L277.9,147.3z M345.9,154.2l-0.2-0.9c-1,2-3.3,3.3-5,4.9c-2.4,2.4-6.3,2.9-7.5,6.4
			c-1.3,1.2-1.7,3-3.5,3.7c-0.7,1.8-2.5,1.6-3.6,2.9c-3.1,2.8-5.1-1.8-7.9-2.3l-5.6,1c-2,0-3.9,0.7-5.7,0.1c0.3,3.8,0.3,7.7,0,11.6
			l0.7-0.4c17.7-0.8,33.1-7.5,46.2-19.4L345.9,154.2z M264.2,154l-0.1,0.4l-7.6,7.6c11.5,9.9,24.4,16.4,39.2,18.4
			c2.4,0.4,5,0.2,7.3,0.9l-0.6-0.9v-10l0.4-0.6l-1.1,0.3C287.4,169.2,274.7,164.1,264.2,154z M306.2,156.6l0.5,0.8
			c0,3,0.4,6.1,0,9.1c2.7-0.9,5.9-0.8,8.8-1.3c-0.6-0.2-1.2-0.5-1.6-1c-1.7-0.1-2.5-1.9-3.1-3.3c-0.3-1,0.4-1.8,0.8-2.6
			c-0.7-1.5-3-0.4-4.3-1C307,157.1,306.8,156.7,306.2,156.6L306.2,156.6z"/>
		<path class="st1" d="M373.9,50.8c5.4,4.8,7.8,11.1,9.4,17.6l0.9,2.1c-7.9-5.7-14.7-12.9-20-21.2l-6.1-6.2
			C363.6,45.3,369.3,46.7,373.9,50.8z"/>
		<path class="st1" d="M237.1,60.4c-3.6,4.5-8.2,7.4-12.3,11.2c2.2-4.6,2.3-10,5.4-14.2c4.4-7.8,12.7-10.5,20-13.4
			C244.8,48.8,241.1,54.8,237.1,60.4z"/>
		<path class="st1" d="M393.1,68.5c1.7,7.7-0.8,15.3,0.8,23.1l-0.1,0.1c-4.2-8.3-13.1-12.2-19.3-18.8c-3.6-3.9-5.1-8.7-6-13.8
			c3.5,8.5,13,10.4,18.5,17.5c1.9,1.7,2.4,3.9,3.6,5.8l0.2-0.2c-3.1-6.7-4.2-14.2-6.4-21.4c-1.2-3.3-3.3-6.1-6.2-8.1
			C385.4,54.2,391.6,61.7,393.1,68.5z"/>
		<path class="st1" d="M230.4,54c-7.3,5-6.8,14-9.1,21.5c-0.7,2.8-2,5.3-2.6,8.1l0.2,0.1c1.3-3.3,3.4-6.4,6-8.8
			c5.2-4.8,12.8-7.8,15.4-14.8c-0.1,9.9-8.3,17.6-16.2,23.1c-3.2,2.8-6.4,6.1-8.1,9.7c-0.2-2.5,0.4-5,0.2-7.6
			c-0.8-8.6-1.5-18.4,4.6-24.7C223.1,57.4,226.5,55.1,230.4,54z"/>
		<path class="st1" d="M397.7,70.2c6.5,8.8,7.9,22.9,3.2,33c-1.8,4.4-3,8.9-3.7,13.6c-0.3-0.8-0.4-1.9-0.7-2.8
			c-2.6-9.9-12-17-15.8-26.3c-1.3-3.1-2.2-6.3-2.8-9.5c4.1,7.6,14.3,11.6,17,20c1.1,2.1,1.1,4.8,1.8,7.1c0.2,0,0.3-0.1,0.3-0.3
			c-1.1-8.7-1-17.5,0.3-26.2c-0.1-4.6-0.5-9.1-3.1-12.7C395.8,66.9,396.5,68.8,397.7,70.2z"/>
		<path class="st1" d="M214.8,67.4c-5.6,8.5-1,19.2-1.2,28.9l-0.7,9.9c0.1,0.1,0.1,0.4,0.4,0.3c0.3-1.1,0.4-2.3,0.6-3.4
			c1.3-8,8.3-13.7,14.3-19.2c1.3-1.3,2.3-2.9,3.1-4.6c-0.5,4-1.7,8-3.4,11.7c-4.7,9.2-13.4,16.8-15,27.3c-0.8-10.1-7.7-17.6-7-28.3
			c-0.2-8.7,3.4-15.8,8.5-22.3C214.5,67.6,214.6,67.4,214.8,67.4z"/>
		<path class="st1" d="M403.8,127.5c-3.9,5.5-8.5,10.6-12.1,16.2c0.4-4.4,0.9-9.9-0.8-14.1c-3-9-5.6-18.2-6.4-28.1l0.1-3.8
			c2.2,10.1,12.2,17.1,11.6,28.4c0.2,2.8-0.6,5.1-1.1,7.5l0.2,0.2l0.4-0.5c1.5-5.6,2.2-11.4,4.5-16.6c3.3-7.5,7.3-15,5.7-24
			C410.7,103.4,409.2,117.6,403.8,127.5z"/>
		<path class="st1" d="M212,124c1.1,3.7,1.3,7.7,2.8,11.2c0.2,0.1,0.3-0.1,0.4-0.2c-3.8-10.6,1.6-20.4,7.1-28.7
			c1.3-2.3,2.2-4.8,2.8-7.3c0.6,4.8-0.6,10.3-1.3,15.3c-1.3,6.3-3.3,12.3-5,18.5c-1.1,3.8-0.8,8.2-0.3,12.2l-0.6-0.4
			c-4-7.4-12-13.2-14.3-21.3c-2-6.4-3.2-13.9-1.9-21c0.5-2.7,1.2-5.4,2.3-8C201.7,105.7,209.4,114,212,124z"/>
		<path class="st1" d="M388.6,144.9c-0.3,4.8-1.8,9.4-4.5,13.4h0.4c3.5-4.6,6.3-9.6,10.4-14c6.4-6.2,12.9-12.5,13.8-21.1
			c2.2,14.3-5.9,26.9-17.7,35c-4.9,3.2-9.9,6.2-14.6,9.8v-0.4c7.2-12,3.7-28.5,8.1-41.6l1.6-4.4
			C385.3,129.7,388.9,136.7,388.6,144.9z"/>
		<path class="st1" d="M230.5,161.2c0.8,2.7,2.4,5.1,3.4,7.8c-11-7.5-25.9-14.6-30.8-28.3c-2-4.7-2.3-10.6-1.8-16
			c0.9,12.2,14,18.6,20.1,28.7c1.4,2.1,2.7,4.4,4.6,6.1c-0.3-1.3-1.5-2.4-2-3.7c-2.1-4.5-3-9.5-2.4-14.4c0.6-6.2,3.2-12,2.2-18.6
			C229.2,134.4,227.5,148.7,230.5,161.2z"/>
		<path class="st1" d="M372.2,170.3c-2,3.4-4.5,6.4-7.5,9c1,0,1.8-0.9,2.6-1.4c7.9-7.9,18.2-10.1,26.8-16.5
			c3.5-2.6,6.3-6.1,8.1-10.2c-1.6,13.1-14.6,25.3-26.9,29.2c-6.3,1.7-13.1,2.3-19.3,4.4c10.4-8.9,9.8-22.8,16.8-33.3
			c2.2-3,4-6.1,6.6-8.9C375.3,151.1,377.1,162.1,372.2,170.3z"/>
		<path class="st1" d="M240.8,159.3c3.7,9.1,5.1,19.3,13.6,26.1c-9.2-3-20-2.2-28.1-7.9c-8.9-5.4-16.8-14.7-18.4-24.8
			c6.1,13.8,21.4,15,31.7,23.4c1.8,1.6,3.8,3,6,4.1l0.1-0.1c-2.4-2.1-5.1-4.6-6.7-7.3c-6-8.4-3.9-20.1-8.4-29
			C234.6,148.4,238.1,153.6,240.8,159.3z"/>
		<path class="st1" d="M350,186.2c-2.2,1.5-5.1,1.7-7.4,2.8c3.3,0.1,6.3-1.1,9.6-1.4c12.1-1.9,26.1,0,34.6-10.3
			c-3.2,7.2-11.1,13.3-18.3,15.8c-12.4,4.7-24.9-1.1-36.8-3l-2.3-0.3v-0.1c5.7-1.3,11.2-3,15.7-7.1c6.7-6.4,12.6-13,20-18
			C359.6,171.7,359,181.7,350,186.2z"/>
		<path class="st1" d="M264.8,182.9c4.7,4.1,10.4,6,16.3,7.3c-1.4,0.5-3.3,0.4-4.9,0.8c-10.7,2.6-22.6,7-34,3.1
			c-7.4-2.3-15-8.2-18.7-15.5c9.8,11.2,25.8,7.4,38.9,10.4c1.8,0.3,3.5,1,5.5,0.7c-1.5-1-3.7-0.9-5.4-1.8
			c-10.2-3.6-11.7-14.7-17.3-22.2C252.3,170.3,258.3,176.7,264.8,182.9z"/>
		<path class="st1" d="M344.8,198c8,2.9,18.3,2.1,25.1-2.7c-3.5,4.3-8.1,7.5-13.3,9.3c-11,4.1-22.6-0.2-31.2-6.7
			c-3.5-2.2-6.6-5.4-11.1-5.1c-1.5-0.1-3.1,0.1-4.6,0.4c8.6,4,16.5,9.5,23.3,16.2c-1.3,1.4-2.7,2.7-4.2,3.8
			c-6.8-7.4-14.5-14.5-23-18.7c-1.7,0.4-3.3,1.1-4.8,2c-7.3,4.4-13.7,10.2-18.9,16.9l-4.4-3.6c6.7-6.9,14.7-12.6,23.4-16.7
			c-8.4-2.6-13.9,4.4-20.2,7.9c-7.4,5.2-18.1,7.6-27.1,4.1c-5.1-1.7-9.5-4.8-13-8.9c7.1,4.9,17.6,5.4,25.6,2.2
			c10.8-4.7,22-10.6,35-7.8c2,0,4,2.1,5.9,0.3c9.8-2.3,20-1,28.9,3.6L344.8,198z"/>
		<path class="st2" d="M555.5,186.8h49.7c-0.9,40-22.9,60-52.6,60c-32,0-52.4-26.9-52.4-55.9s20.5-55.9,52.4-55.9
			c35.4,0,45.1,22.1,49.2,33.5l-22.5,1.5c-3.9-9.5-11.6-15.8-26.7-15.8c-16.9,0-30.1,13.8-30.1,36.7c0,19.4,12.2,36.7,31.5,36.7
			c17.3,0,25.4-12.3,27.2-22.5h-25.8V186.8z"/>
		<path class="st2" d="M817.6,137.3h21.5v87.5h41.3v20h-62.8V137.3z"/>
		<path class="st2" d="M940.5,165.6c0-7.4-7.1-12-15.7-12c-10.7,0-17.2,4.7-17.2,11.9c0,7.4,7.2,11,12.4,12.7l19.7,6.3
			c14.3,4.6,24.4,12.9,24.4,29.4c0,13.1-9.4,32.9-39.2,32.9c-37.3,0-40.7-24.1-40.7-33.7l21.4-0.4c0,11.4,9,15.9,19.4,15.9
			c7.3,0,17.6-3.6,17.6-11.9c0-5.7-2.4-8.7-13-12.6l-23.4-8.4c-11.9-4.3-20.2-14.7-20.2-26.9c0-13.7,9.4-33.4,37.3-33.4
			c33.2,0,38.5,22,38.5,29.9L940.5,165.6z"/>
		<path class="st3" d="M639.4,177.7c1.3-2.2,2.9-4.3,4.8-6.1l-15.6-17.1c-3.9,3.8-7.3,8.1-9.9,12.9L639.4,177.7z"/>
		<path class="st4" d="M677.7,165.6c2.3,1.1,4.5,2.4,6.5,4.1l15.6-17.1c-4.1-3.6-8.8-6.5-13.8-8.6L677.7,165.6z"/>
		<path class="st5" d="M713.5,170.8l-20.7,10.3c1,2.3,1.7,4.8,2.1,7.3l23-2.2C717.2,180.9,715.7,175.7,713.5,170.8"/>
		<path class="st6" d="M691.3,178.1l20.7-10.3c-2.6-4.7-5.8-9.1-9.7-12.9L686.7,172C688.4,173.8,690,175.9,691.3,178.1"/>
		<path class="st7" d="M635.3,192.8c0-0.5,0-0.9,0-1.4l-23-2.1c-0.1,1.1-0.1,2.3-0.1,3.5c0,4.3,0.5,8.6,1.6,12.8l22.3-6.4
			C635.5,197.1,635.3,195,635.3,192.8"/>
		<path class="st8" d="M688.3,211.8c-1.6,2-3.5,3.8-5.6,5.3l12.2,19.7c4.5-3.1,8.5-6.8,11.9-11.1L688.3,211.8z"/>
		<path class="st9" d="M695.1,192.8c0,2.1-0.2,4.3-0.7,6.4l22.3,6.4c1-4.2,1.6-8.5,1.6-12.8c0-1.1,0-2.2-0.1-3.3l-23,2.2
			C695.1,192.1,695.1,192.4,695.1,192.8"/>
		<path class="st10" d="M642.5,212.2l-18.4,14c3.4,4.2,7.5,7.9,12,10.9l12.2-19.7C646.1,215.9,644.2,214.2,642.5,212.2"/>
		<path class="st11" d="M635.7,188.1c0.4-2.6,1.1-5.1,2.2-7.4l-20.7-10.3c-2.3,5-3.9,10.2-4.6,15.6L635.7,188.1z"/>
		<path class="st12" d="M692.1,238.5L680,218.9c-2.2,1.3-4.6,2.2-7.1,2.9l4.2,22.8C682.4,243.3,687.4,241.3,692.1,238.5"/>
		<path class="st13" d="M693.6,202.4c-0.8,2.3-1.9,4.6-3.2,6.7l18.5,13.9c3-4.4,5.4-9.1,7-14.2L693.6,202.4z"/>
		<path class="st14" d="M669.5,222.4c-1.4,0.2-2.9,0.3-4.3,0.3c-1.2,0-2.3-0.1-3.5-0.2l-4.3,22.8c2.6,0.4,5.2,0.6,7.8,0.6
			c2.9,0,5.8-0.2,8.6-0.7L669.5,222.4z"/>
		<path class="st15" d="M667.1,163c2.5,0.2,5,0.6,7.4,1.4l8.3-21.6c-5.1-1.8-10.4-2.8-15.7-3V163z"/>
		<path class="st16" d="M658.5,221.9c-2.6-0.6-5-1.5-7.3-2.8l-12.2,19.7c4.7,2.7,9.9,4.7,15.2,5.8L658.5,221.9z"/>
		<path class="st17" d="M656.2,164.3c2.4-0.8,5-1.2,7.5-1.3v-23.1c-5.4,0.1-10.8,1.1-15.9,2.9L656.2,164.3z"/>
		<path class="st18" d="M640.5,209.5c-1.5-2.2-2.7-4.6-3.5-7.1l-22.2,6.4c1.7,5.2,4.1,10.2,7.3,14.7L640.5,209.5z"/>
		<path class="st19" d="M646.7,169.4c2-1.6,4.1-2.9,6.4-3.9l-8.4-21.6c-4.9,2.1-9.5,4.9-13.6,8.4L646.7,169.4z"/>
		<path class="st2" d="M782.5,222h-39.8l-7.1,22.7h-23.5l39.7-108.9h22.9l39.1,108.9h-23.9L782.5,222z M762.8,162h-0.3l-13.8,42.3
			h28L762.8,162z"/>
	</g>
</g>
<g>
	<defs>
		<rect id="SVGID_1_" x="433.2" y="-21.3" width="351.1" height="287.8"/>
	</defs>
	<clipPath id="SVGID_2_">
		<use xlink:href="#SVGID_1_"  style="overflow:visible;"/>
	</clipPath>
	<path class="st20" d="M471.3,43.4c0.8-1.3,1.7-2.5,2.8-3.6l-9.2-10.1c-2.3,2.2-4.3,4.8-5.9,7.6L471.3,43.4z"/>
	<path class="st21" d="M494,36.2c1.4,0.6,2.7,1.5,3.9,2.4l9.3-10.1c-2.4-2.1-5.2-3.8-8.2-5.1L494,36.2z"/>
	<path class="st22" d="M515.2,39.2l-12.3,6.1c0.6,1.4,1,2.8,1.2,4.3l13.7-1.3C517.4,45.2,516.5,42.1,515.2,39.2"/>
	<path class="st23" d="M502,43.6l12.3-6.1c-1.5-2.8-3.5-5.4-5.7-7.6L499.3,40C500.4,41,501.3,42.3,502,43.6"/>
	<path class="st24" d="M468.9,52.3c0-0.3,0-0.6,0-0.8l-13.7-1.2c0,0.7-0.1,1.4-0.1,2.1c0,2.6,0.3,5.2,0.9,7.6l13.2-3.8
		C469,54.9,468.9,53.6,468.9,52.3"/>
	<path class="st25" d="M500.3,63.6c-1,1.2-2.1,2.2-3.3,3.1l7.2,11.7c2.7-1.8,5.1-4,7.1-6.6L500.3,63.6z"/>
	<path class="st26" d="M504.3,52.3c0,1.3-0.1,2.6-0.4,3.8l13.2,3.8c0.6-2.4,0.9-5,0.9-7.6c0-0.6,0-1.3-0.1-1.9l-13.7,1.3
		C504.3,51.9,504.3,52.1,504.3,52.3"/>
	<path class="st27" d="M473.1,63.8l-10.9,8.3c2,2.5,4.4,4.7,7.1,6.5l7.2-11.7C475.3,66,474.1,65,473.1,63.8"/>
	<path class="st28" d="M469.1,49.5c0.2-1.5,0.7-3,1.3-4.4L458.1,39c-1.4,2.9-2.3,6-2.7,9.3L469.1,49.5z"/>
	<path class="st29" d="M502.5,79.4l-7.2-11.7c-1.3,0.7-2.7,1.3-4.2,1.7l2.5,13.5C496.8,82.3,499.8,81.1,502.5,79.4"/>
	<path class="st30" d="M503.4,58c-0.5,1.4-1.1,2.7-1.9,4l11,8.3c1.8-2.6,3.2-5.4,4.1-8.4L503.4,58z"/>
	<path class="st31" d="M489.2,69.9c-0.8,0.1-1.7,0.2-2.6,0.2c-0.7,0-1.4,0-2.1-0.1L482,83.4c1.5,0.2,3,0.3,4.6,0.3
		c1.7,0,3.4-0.1,5.1-0.4L489.2,69.9z"/>
	<path class="st32" d="M487.7,34.6c1.5,0.1,3,0.4,4.4,0.8l4.9-12.8c-2.9-1-6.1-1.7-9.3-1.8V34.6z"/>
	<path class="st33" d="M482.6,69.6c-1.5-0.4-3-0.9-4.4-1.6L471,79.6c2.8,1.6,5.8,2.8,9,3.5L482.6,69.6z"/>
	<path class="st34" d="M481.3,35.4c1.4-0.4,2.9-0.7,4.5-0.8V20.9c-3.3,0.1-6.5,0.7-9.4,1.7L481.3,35.4z"/>
	<path class="st35" d="M471.9,62.2c-0.9-1.3-1.6-2.7-2.1-4.2l-13.2,3.8c1,3.1,2.5,6.1,4.4,8.7L471.9,62.2z"/>
	<path class="st36" d="M475.6,38.4c1.2-0.9,2.4-1.7,3.8-2.3l-5-12.8c-3,1.2-5.7,2.9-8.1,5L475.6,38.4z"/>
	<path class="st37" d="M546.6,83.8c-5.8,0-10.5-2-13.9-6c-2.9-3.5-4.4-7.9-4.4-13.2v-9.4l11.7-6.2v14.9c0,3.2,0.6,5.4,1.8,6.7
		c1.2,1.3,3.2,2,6.1,2H571c-1.9-2.6-2.8-6-2.8-10.3c0-6.8,1.9-12.2,5.6-16.2c3.3-3.5,7.6-5.2,13.1-5.2c5.5,0,9.8,1.8,13,5.3
		c2.7,3,4,7,4,11.9v8.4c0,5.3-1.6,9.6-4.8,12.8c-3.1,3-7.2,4.6-12.4,4.6H546.6z M592,57.9c0-4.1-1.7-6.2-5.2-6.2
		c-2.2,0-4,0.9-5.3,2.7c-1.3,1.8-1.9,4.3-1.9,7.5c0,7.1,2.3,10.6,6.9,10.6c3.7,0,5.5-2,5.5-6.1V57.9z M587.8,34.2
		c-1.9,0-3.4-0.6-4.5-1.7c-1.1-1.1-1.7-2.6-1.7-4.6c0-1.8,0.6-3.3,1.7-4.4c1.1-1.1,2.6-1.7,4.5-1.7c1.9,0,3.3,0.5,4.4,1.6
		c1.1,1.1,1.6,2.6,1.6,4.4C593.8,32.1,591.8,34.2,587.8,34.2"/>
	<polygon class="st37" points="615.9,83.8 615.9,29.9 627.7,23.7 627.7,83.8 	"/>
	<path class="st37" d="M633.3,83.8l5.9-11.3h14.7c3.2,0,4.8-1.8,4.8-5.5c0-6.8-3.3-12.1-9.9-15.8l5.8-10c9.7,5.7,14.9,13.3,15.7,23
		c0.2,3.1,0.9,5.3,2.1,6.4c1.1,1.2,3.1,1.8,5.9,1.8h7.1v11.3h-7.7c-4.6,0-8.5-1.3-11.7-3.8c-2.3,2.5-5.6,3.8-9.9,3.8H633.3z"/>
	<path class="st37" d="M690.7,55.3c1.6-5.2,4.3-9.3,8.3-12.3c4-3,8.7-4.5,13.9-4.5c7.1,0,12.9,2.3,17.4,7c4.2,4.4,6.3,10,6.3,16.9
		v4.1c0,5.7-1.8,10.1-5.3,13.2c-3.1,2.7-7.1,4.1-12.1,4.1h-11.7c-2.1,0-4.1-0.3-6-0.9c-1.9,0.6-3.9,0.9-6,0.9h-15.9V72.5h9.5
		c-1.1-2.3-1.6-4.8-1.6-7.5C687.6,61.1,688.6,57.9,690.7,55.3 M701.6,71.7c4-1.3,6-3.9,6-7.7c0-1.9-0.5-3.5-1.6-4.6
		c-1.1-1.1-2.5-1.7-4.3-1.7s-3.2,0.6-4.3,1.7c-1.1,1.2-1.6,2.7-1.6,4.6C695.6,67.8,697.6,70.4,701.6,71.7 M725.1,65.7v-3.4
		c0-3.9-1.1-7.1-3.4-9.4c-2.3-2.4-5.3-3.5-9-3.5c-2.5,0-4.8,0.6-6.6,1.7c2.9,0.9,5.2,2.5,6.9,5c1.7,2.5,2.6,5.4,2.6,8.9
		c0,2.7-0.5,5.3-1.6,7.5h5.1c2.3,0,3.9-0.5,4.7-1.4C724.7,70.1,725.1,68.3,725.1,65.7"/>
	<path class="st37" d="M743.9,18.4l3-5.4h2.8c-0.7-1.2-1-2.5-1-3.8c0-2,0.7-3.7,2.2-5.1c1.5-1.4,3.2-2.1,5.3-2.1
		c1.9,0,3.6,0.7,5.2,2v5.4c-1.5-1.3-3-2-4.5-2c-2,0-3.1,0.9-3.1,2.8c0,0.9,0.4,1.9,1.2,2.9h9.2l-3,5.4H743.9z M747.4,83.8V29.9
		l11.7-6.2v60.1H747.4z"/>
	<path class="st37" d="M484.7,236.6h5.9v7.9h-6.7c-4.1,0-7.2-1.4-9.4-4.1c-1.9,1.4-4.2,2.2-6.9,2.2c-4,0-7.2-1.5-9.6-4.5
		c-2-2.5-2.9-5.5-2.9-9c0-4.3,1.4-7.8,4.2-10.5c2.4-2.3,5.1-3.4,8.2-3.4c1.6,0,3.1,0.3,4.5,0.9v-1.7l8.2-4.3v21.8
		c0,1.7,0.4,2.9,1.1,3.6C481.9,236.2,483.1,236.6,484.7,236.6 M463.6,207.5c-1.3,0-2.4-0.4-3.1-1.2c-0.8-0.8-1.2-1.9-1.2-3.2
		c0-2.8,1.4-4.3,4.3-4.3c1.3,0,2.3,0.4,3.1,1.1c0.8,0.8,1.1,1.8,1.1,3.1C467.8,206.1,466.4,207.5,463.6,207.5 M471.9,224.4
		c-1.1-1-2.4-1.4-3.9-1.4c-1.4,0-2.6,0.6-3.5,1.8c-0.9,1.2-1.3,2.7-1.3,4.6c0,1.9,0.4,3.4,1.3,4.6c0.9,1.1,2.1,1.7,3.6,1.7
		c1.7,0,2.9-0.6,3.9-1.7c0-0.3-0.1-0.9-0.1-1.6V224.4z M473.7,207.5c-1.3,0-2.4-0.4-3.1-1.2c-0.8-0.8-1.2-1.9-1.2-3.2
		c0-2.8,1.4-4.3,4.3-4.3c1.3,0,2.3,0.4,3.1,1.1c0.8,0.8,1.1,1.8,1.1,3.1C477.9,206.1,476.5,207.5,473.7,207.5"/>
	<path class="st37" d="M497.2,226.4c0-3.9,1.2-7,3.7-9.2c2.1-1.9,4.9-2.9,8.2-2.9c4.3,0,7.7,1.6,10.1,4.8c2.1,2.7,3.1,6.1,3.1,10.3
		c0,4.8-1.3,8.7-3.9,11.5c-2.3,2.4-5.3,3.7-8.8,3.7c-3.5,0-6.4-0.8-8.6-2.3c-2.1,1.5-4.6,2.3-7.6,2.3h-6.7v-7.9h5.9
		c1.7,0,2.8-0.4,3.5-1.1c0.7-0.7,1-1.9,1-3.6V226.4z M505.4,232.9c0,2.4,1.3,3.7,3.9,3.7c3.2,0,4.8-2.5,4.8-7.5c0-4.8-1.7-7.1-5-7.1
		c-2.4,0-3.7,1.4-3.7,4.3V232.9z"/>
	<polygon class="st37" points="533,244.5 533,206.7 541.3,202.3 541.3,244.5 	"/>
	<path class="st37" d="M547.8,244.5l4.1-7.9h10.3c2.2,0,3.3-1.3,3.3-3.9c0-4.8-2.3-8.5-6.9-11.1l4.1-7c6.8,4,10.5,9.4,11,16.2
		c0.2,2.2,0.7,3.7,1.5,4.5c0.8,0.8,2.2,1.2,4.2,1.2h5v7.9h-5.4c-3.2,0-6-0.9-8.2-2.7c-1.6,1.8-3.9,2.7-6.9,2.7H547.8z"/>
	<path class="st37" d="M603.8,236.6h5.9v7.9H603c-3.2,0-5.8-0.9-7.9-2.6c-2.1,1.7-4.7,2.6-7.9,2.6h-6.7v-7.9h5.9
		c1.7,0,2.8-0.4,3.5-1.1c0.7-0.7,1-1.9,1-3.6v-12.1l8.2-4.3v16.4c0,1.7,0.3,2.9,1,3.6C600.9,236.2,602.1,236.6,603.8,236.6
		 M586.7,209.7c-1.3,0-2.4-0.4-3.1-1.2c-0.8-0.8-1.2-1.9-1.2-3.2c0-1.3,0.4-2.3,1.2-3.1c0.8-0.8,1.8-1.2,3.1-1.2
		c1.3,0,2.3,0.4,3.1,1.1c0.8,0.8,1.1,1.8,1.1,3.1C590.9,208.2,589.5,209.7,586.7,209.7 M596.7,209.7c-1.3,0-2.4-0.4-3.1-1.2
		c-0.8-0.8-1.2-1.9-1.2-3.2c0-1.3,0.4-2.3,1.2-3.1c0.8-0.8,1.8-1.2,3.1-1.2c1.3,0,2.3,0.4,3.1,1.1c0.8,0.8,1.1,1.8,1.1,3.1
		C600.9,208.2,599.5,209.7,596.7,209.7"/>
	<path class="st37" d="M605.7,244.5v-7.9h6.9c1.7,0,2.8-0.4,3.6-1.1c0.7-0.7,1.1-1.9,1.1-3.6v-8.6l8.2-4.3v13c0,1.7,0.3,2.9,1,3.6
		c0.7,0.7,1.9,1.1,3.5,1.1h4.5c1.7,0,2.8-0.4,3.5-1.1c0.7-0.7,1-1.9,1-3.6v-10.3l8.2-4.4v14.7c0,1.7,0.4,2.9,1.1,3.6
		c0.7,0.7,1.9,1.1,3.6,1.1h4.5c1.7,0,2.8-0.4,3.5-1.1c0.7-0.7,1-1.9,1-3.6v-12.1l8.2-4.3v15.4c0,2.1,0.4,3.6,1.3,4.5
		c0.8,0.9,2.3,1.3,4.3,1.3h6v7.9h-6.5c-3.7,0-6.6-1-8.8-3.1c-2,2.1-4.6,3.1-7.9,3.1h-6.5c-3.2,0-5.9-1-7.9-2.9
		c-1.9,1.9-4.4,2.8-7.5,2.9h-6.5c-3.2,0-5.9-1-7.9-2.9c-2.1,1.9-4.7,2.9-7.9,2.9H605.7z"/>
	<path class="st37" d="M718.6,236.6h5.8v7.9h-6.7c-3.1,0-5.7-0.8-7.7-2.4c-2.4,2.5-5.5,3.7-9.3,3.7c-3.9,0-7-1.2-9.3-3.7
		c-2.1,1.6-4.7,2.4-7.8,2.4H677v-7.9h5.9c1.7,0,2.8-0.4,3.5-1.1c0.7-0.7,1-1.9,1-3.6V230c0-5.1,1.3-9.1,4-11.9
		c2.3-2.5,5.4-3.7,9.3-3.7c4.4,0,7.8,1.6,10.2,4.8c2,2.7,3,6.4,3,10.8v1.9c0,1.7,0.4,2.9,1.1,3.6C715.8,236.2,717,236.6,718.6,236.6
		 M700.8,237.9c3.3,0,5-2.7,5-8.1c0-5.2-1.7-7.8-5-7.8c-3.4,0-5,2.6-5,7.8C695.7,235.2,697.4,237.9,700.8,237.9"/>
	<path class="st37" d="M720.5,244.5v-7.9h4.1c2,0,3.4-0.4,4.3-1.3c0.9-0.9,1.3-2.4,1.3-4.5v-24.2l8.2-4.4v28.6
		c0,4.2-1.3,7.6-3.9,10.1c-2.4,2.3-5.5,3.5-9.4,3.5H720.5z"/>
	<polygon class="st37" points="750.2,244.5 750.2,206.7 758.5,202.3 758.5,244.5 	"/>
	<path class="st37" d="M507.1,163.9h7.5v9.2H506c-7.8,0-13.3-2.9-16.7-8.6c-3.6,3.5-8.1,5.2-13.4,5.2c-6.6,0-11.9-2.5-15.8-7.5
		c-3.2-4.2-4.9-9.4-4.9-15.5c0-7.3,2.2-13.2,6.7-17.6c3.8-3.8,8.4-5.8,13.8-5.8c4.1,0,7.7,1.1,10.7,3.2v-4.9l9.8-5.2v36.2
		C496.2,160.1,499.8,163.9,507.1,163.9 M486.3,137c-2.8-3.1-6.2-4.6-10.3-4.6c-3.3,0-6,1.3-8.1,4c-2.1,2.7-3.2,6.2-3.2,10.5
		c0,4.4,1.1,7.9,3.2,10.5c2.1,2.6,4.9,4,8.2,4c4.2,0,7.7-1.7,10.4-5.2c-0.2-1.4-0.2-2.4-0.2-3.2V137z M471.7,109.2
		c-3.7,0-5.5-1.9-5.5-5.7c0-3.7,1.8-5.5,5.5-5.5c3.6,0,5.4,1.8,5.4,5.5C477.2,107.3,475.4,109.2,471.7,109.2 M486.1,109.2
		c-3.7,0-5.5-1.9-5.5-5.7c0-3.7,1.8-5.5,5.5-5.5c3.6,0,5.4,1.8,5.4,5.5C491.5,107.3,489.7,109.2,486.1,109.2"/>
	<path class="st37" d="M547.1,163.8h7.5v9.2H546c-6.3,0-11.2-2-14.8-6c-3.6,4-8.6,6-14.8,6h-8.6v-9.2h7.5c7.4,0,11.1-3.8,11.1-11.3
		v-23.4l9.7-5.2v28.6C536,160.1,539.7,163.8,547.1,163.8 M520.1,179.8c3.6,0,5.4,1.9,5.4,5.7c0,3.7-1.8,5.5-5.4,5.5
		c-3.7,0-5.5-1.8-5.5-5.5C514.6,181.7,516.4,179.8,520.1,179.8 M534.5,179.8c3.6,0,5.4,1.9,5.4,5.7c0,3.7-1.8,5.5-5.4,5.5
		c-3.7,0-5.5-1.8-5.5-5.5C528.9,181.7,530.8,179.8,534.5,179.8"/>
	<path class="st37" d="M620.6,163.8h7.6v9.2h-8.6c-6.3,0-11.2-2-14.8-6c-3.8,5.5-9.5,8.2-16.8,8.2c-7.4,0-13-2.7-16.7-8.1
		c-3.5,3.9-8.5,5.9-14.8,5.9h-8.6v-9.2h7.5c7.4,0,11.1-3.8,11.1-11.3v-3.7c0-8.7,2.1-15.4,6.4-20.1c3.8-4.1,8.8-6.2,15.1-6.2
		c7.2,0,12.8,2.7,16.7,8c3.3,4.6,5,10.7,5,18.3v3.7C609.6,160.1,613.3,163.8,620.6,163.8 M587.9,166.1c3.7,0,6.6-1.5,8.8-4.6
		c2.1-3.1,3.2-7.3,3.2-12.8c0-11.5-4-17.2-12-17.2c-7.9,0-11.9,5.7-11.9,17.2C576,160.3,580,166.1,587.9,166.1"/>
	<path class="st37" d="M660.7,163.9h7.5v9.2h-8.6c-6.3,0-11.2-2-14.8-6c-3.6,4-8.5,6-14.8,6h-8.6v-9.2h7.5c7.4,0,11.1-3.8,11.1-11.3
		v-23.4l9.7-5.2v28.6C649.6,160.1,653.3,163.9,660.7,163.9 M642.8,110.3c-3.7,0-5.5-1.9-5.5-5.6c0-3.7,1.8-5.5,5.5-5.5
		c3.6,0,5.4,1.8,5.4,5.5C648.3,108.4,646.4,110.3,642.8,110.3"/>
	<path class="st37" d="M700.7,163.9h7.5v9.2h-8.6c-6.3,0-11.2-2-14.8-6c-3.6,4-8.6,6-14.8,6h-8.6v-9.2h7.5c7.4,0,11.1-3.8,11.1-11.3
		v-23.4l9.7-5.2v28.6C689.6,160.1,693.3,163.9,700.7,163.9 M674,111.1c-3.7,0-5.5-1.9-5.5-5.7c0-3.7,1.8-5.5,5.5-5.5
		c3.6,0,5.4,1.8,5.4,5.5C679.4,109.2,677.6,111.1,674,111.1 M688.5,111.1c-3.7,0-5.5-1.9-5.5-5.7c0-3.7,1.8-5.5,5.5-5.5
		c3.6,0,5.4,1.8,5.4,5.5C693.9,109.2,692.1,111.1,688.5,111.1"/>
	<path class="st37" d="M701.4,173v-9.2h6c7.8,0,11.8-4.1,11.8-12.3v-46.2l9.8-5.2v51.5c0,6.7-2,12-6,15.9c-3.8,3.6-8.7,5.4-14.8,5.4
		H701.4z"/>
	<polygon class="st37" points="749.3,173 749.3,105.3 759,100.1 759,173 	"/>
</g>
</svg>
