<?xml version="1.0" encoding="utf-8"?>
<!-- Generator: Adobe Illustrator 24.1.1, SVG Export Plug-In . SVG Version: 6.00 Build 0)  -->
<svg version="1.1" id="Layer_1" xmlns="http://www.w3.org/2000/svg" xmlns:xlink="http://www.w3.org/1999/xlink" x="0px" y="0px"
	 width="763.9px" height="246.8px" viewBox="0 0 763.9 246.8" style="enable-background:new 0 0 763.9 246.8;" xml:space="preserve"
	>
<style type="text/css">
	.st0{display:none;fill:#00ADEE;}
	.st1{fill:#FFFFFF;}
	.st2{display:none;fill:#3A8DDE;}
	.st3{display:none;fill:#5EBA47;}
	.st4{display:none;fill:#E4B633;}
	.st5{display:none;fill:#C4202E;}
	.st6{display:none;fill:#4B9E46;}
	.st7{display:none;fill:#407F44;}
	.st8{display:none;fill:#F9C213;}
	.st9{display:none;fill:#EE402B;}
	.st10{display:none;fill:#F89D28;}
	.st11{display:none;fill:#1995D3;}
	.st12{display:none;fill:#A11C43;}
	.st13{display:none;fill:#27BCE1;}
	.st14{display:none;fill:#F16A2B;}
	.st15{display:none;fill:#E7223B;}
	.st16{display:none;fill:#DC1768;}
	.st17{display:none;fill:#17486A;}
	.st18{display:none;fill:#C6972D;}
	.st19{display:none;fill:#03699C;}
	.st20{fill:#5FBA46;}
	.st21{fill:#D19F2A;}
	.st22{fill:#C22033;}
	.st23{fill:#2D9A47;}
	.st24{fill:#48773C;}
	.st25{fill:#FDB714;}
	.st26{fill:#EF412A;}
	.st27{fill:#F99D25;}
	.st28{fill:#007DBB;}
	.st29{fill:#8F1838;}
	.st30{fill:#00ADD8;}
	.st31{fill:#F36E24;}
	.st32{fill:#EA1D2D;}
	.st33{fill:#E01A83;}
	.st34{fill:#1B3668;}
	.st35{fill:#CD8B2A;}
	.st36{fill:#00558A;}
</style>
<g id="Layer_2_1_">
	<g id="OUTLINES">
		<path class="st0" d="M468.5,73.7H485c14.9,0,24.5,10.3,24.5,25.3v0.7c0,15-9.6,25.4-24.5,25.4h-16.6V73.7z M479.1,83.3v32.1h5.9
			c8.1,0,13.6-5.7,13.6-15.8v-0.4c0-10.2-5.5-15.9-13.6-15.9H479.1z"/>
		<path class="st0" d="M515.2,73.7h33.1v9.6h-22.5v11.1h19.8v9.6h-19.8v11.4h22.8v9.6h-33.4V73.7z"/>
		<path class="st0" d="M550.3,73.7h11.5l10.9,35.4l10.9-35.4h11.2l-17.3,51.7h-9.8L550.3,73.7z"/>
		<path class="st0" d="M598.5,73.7h33.1v9.6H609v11.1h19.8v9.6H609v11.4h22.8v9.6h-33.4V73.7z"/>
		<path class="st0" d="M637.5,73.7h10.6v41.6h20.8v9.8h-31.4V73.7z"/>
		<path class="st0" d="M668.8,99.9V99c0-15.4,9.7-26.2,23.3-26.2c13.6,0,23.2,10.7,23.2,26.1v0.9c0,15.3-9.7,26.2-23.3,26.2
			S668.8,115.2,668.8,99.9z M704.3,99.7v-0.5c0-10.1-5.1-16.5-12.3-16.5s-12.3,6.3-12.3,16.4v0.5c0,10.1,5.2,16.5,12.3,16.5
			S704.3,109.8,704.3,99.7L704.3,99.7z"/>
		<path class="st0" d="M721,73.7h17.1c11.5,0,18.8,6.7,18.8,17.6v0.2c0,11.8-8.4,17.8-19.2,18h-6v15.6H721V73.7z M737.6,99.9
			c5.5,0,8.6-3.4,8.6-8.2v-0.1c0-5.4-3.1-8.3-8.7-8.3h-5.8v16.6H737.6z"/>
		<path class="st0" d="M761.1,73.7h11.2l11.5,20.8L795,73.7h11.2v51.4h-10.4V92.3l-12.1,21.2h-0.2l-12-21.1v32.7h-10.4V73.7z"/>
		<path class="st0" d="M813.8,73.7h33.1v9.6h-22.5v11.1h19.8v9.6h-19.8v11.4h22.8v9.6h-33.4V73.7z"/>
		<path class="st0" d="M852.8,73.7h9.8l19.7,29.9V73.7h10.4v51.4h-9.1L863.2,94v31h-10.4V73.7z"/>
		<path class="st0" d="M910.1,83.5h-13v-9.8h36.4v9.8h-12.9v41.5h-10.5V83.5z"/>
		<path class="st0" d="M464.7,49.5l6.9-8.6c3.8,3.3,8.4,6.4,14,6.4c4.5,0,7.2-2.3,7.2-5.6v-0.1c0-2.8-1.6-4.6-9.7-7.6
			c-10-3.9-16.2-7.6-16.2-17.3v-0.2C467,6.7,474.6,0,485.5,0c6.7-0.1,13.2,2.4,18.2,6.9l-6.5,8.9c-3.5-2.9-7.6-5.2-12-5.2
			c-4,0-6.5,2-6.5,4.9v0.1c0,3.2,1.9,4.8,10.7,8.4c9.8,3.9,15.2,8.1,15.2,16.8v0.2c0,10.5-8,16.9-18.9,16.9
			C477.8,57.8,470.3,54.8,464.7,49.5z"/>
		<path class="st0" d="M509.4,35.2V0.7H521v34.5c0,8,3.8,11.9,9.8,11.9c6,0,9.8-3.9,9.8-11.7V0.7h11.6v34.2c0,15.5-8.5,23-21.6,23
			C517.6,57.9,509.4,50.4,509.4,35.2z"/>
		<path class="st0" d="M555.7,49.5l6.9-8.6c3.8,3.3,8.4,6.4,14,6.4c4.5,0,7.2-2.3,7.2-5.6v-0.1c0-2.8-1.6-4.6-9.7-7.6
			c-10-3.9-16.2-7.6-16.2-17.3v-0.2C558,6.7,565.6,0,576.5,0c6.7-0.1,13.2,2.4,18.2,6.9l-6.5,8.9c-3.5-2.9-7.7-5.2-12-5.2
			c-4,0-6.5,2-6.5,4.9v0.1c0,3.2,1.9,4.8,10.7,8.4c9.8,3.9,15.1,8,15.1,16.8v0.2c0,10.5-8,16.9-18.9,16.9
			C568.8,57.8,561.3,54.8,555.7,49.5z"/>
		<path class="st0" d="M610.7,11.5h-14.2V0.7h39.9v10.8h-14.2V57h-11.6V11.5z"/>
		<path class="st0" d="M651.5,0.4h11.1l20.2,56.7h-12.1l-4.2-12.2h-19.4L643,57h-11.7L651.5,0.4z M663,34.5l-6.1-18.4l-6.2,18.4H663
			z"/>
		<path class="st0" d="M687.2,0.7h11.7V57h-11.7V0.7z"/>
		<path class="st0" d="M707.5,0.7h10.7l21.6,32.8V0.7h11.4V57h-10L719,23v34h-11.4V0.7z"/>
		<path class="st0" d="M775.5,0.4h11.1l20.2,56.7h-12.1l-4.2-12.2h-19.4L767,57h-11.8L775.5,0.4z M787,34.5l-6.1-18.4l-6.2,18.4H787
			z"/>
		<path class="st0" d="M810.8,0.7h20.9c6.3,0,11.5,1.7,14.7,4.9c2.5,2.5,3.9,6,3.8,9.6v0.2c0,6.6-3.6,10.1-7.6,12.3
			c6,2.3,10,6,10,13.4v0.4c0,10.1-8.1,15.5-20.3,15.5h-21.4V0.7z M838.7,17.3c0-4.1-2.9-6.3-7.9-6.3h-8.7v12.7h8.1
			C835.4,23.7,838.7,21.6,838.7,17.3L838.7,17.3z M832.3,33.6h-10.2v13.2h10.5c5.2,0,8.5-2.3,8.5-6.6v-0.1
			C841.1,36,838.1,33.6,832.3,33.6L832.3,33.6z"/>
		<path class="st0" d="M858.1,0.7h11.7v45.6h22.8V57h-34.4V0.7z"/>
		<path class="st0" d="M897.4,0.7h36.3v10.6h-24.7v12.1h21.7V34h-21.7v12.5h25V57h-36.6V0.7z"/>
		<path class="st1" d="M340.4,78.9c7.7,14.8,9.8,35.1,4.9,51.8c-5,19.7-21.6,39.6-40.9,47.7c-21.7,10.6-52.6,8-71.9-5.9
			c-26.9-18.4-37.9-50.2-29.8-81.6c4.9-18.6,19.8-37.4,37.9-46.1c10.4-5.1,21.9-7.9,33.5-8C301.8,36.9,328.3,53.2,340.4,78.9z
			 M275.5,40.4c0.4,3.4,0.4,6.8,0.1,10.2c0-0.3,0.1-0.6,0.3-0.9c0.5-0.3,1,0.1,1.2,0.5c0,0.5,0.3,1.4-0.2,1.7
			c0.4,0.1,0.7-0.3,1.1-0.3c8.2,0.6,16.1,3,23.2,7.1v-0.2c1.4-0.7,3.3-1.6,4.8-0.4c1.8-0.7,2.1,1.5,3.5,1.8c1.7,1,3.7,3,3.9,5
			c0.3,0.7,1.4,1.1,1.5,1.8c1.2-2.5,3.5-4.3,5.6-6.4l1.3-0.5c-11.1-10.6-24.3-16.5-39-18.5C280.3,40.9,277.7,41.1,275.5,40.4z
			 M271.4,40.8c-14.8,0.6-27.9,5.6-39.6,14c-2.3,1.5-4.2,3.9-6.5,5.2h0.3c2.9,2.4,5.7,5,8.1,7.8l0.2-0.5
			c10.8-9.8,23.3-15.2,37.6-15.8l-0.3-0.9l-0.1-8.8L271.4,40.8z M284,46.4l-5.3,2.3c-0.4-0.2-1.3-0.4-1.6,0.2
			c-0.2,0.2,0,0.5,0.1,0.6c2,2.5,5.3,1.1,7.8,0.6c1.8,0.7,3.5-0.2,4.8-1.3v-0.3C288.5,46.8,286.1,46.5,284,46.4z M275.4,55.5
			l0.4,0.7c-0.1,3.4,0.1,7.1-0.2,10.3c1.4-0.5,2.8,0.1,4.2,0.2c7.2,1.2,14,3.5,19.8,8c-0.8-0.7-1.4-1.6-1.7-2.7
			c0.1-0.1,0.3-0.2,0.5-0.2c0.1-1.1-1.2-1.7-1.3-2.8c0.2-0.3,0.5-0.4,0.8-0.3c1.2,1.1,2.3,2.4,3.2,3.7c0.8-0.3,1.5,0.2,2.1,0.6
			c1.1,0.6,0.4,2,1.2,2.7c0.1,2.2,2.8,3.4,2.6,5.6c0,0.5,0.7,0.1,0.9,0.4l2.2,2.7c-0.3,0.5-0.2,1.2,0.3,1.5c0,0,0,0,0,0
			c1,0.4,1.5-0.8,2.5-0.6c1.4,0.8-0.2,1.8-0.1,2.7c0.6,0,1.3-0.4,1.7,0.1c0.2,0.8-0.7,1.3-1,1.8c0,0.8,0.7,0.6,1.3,0.8
			c0.6,0,1,0.5,0.9,1.1c0,0.1,0,0.2-0.1,0.3c1.8,1.9-0.6,4,0.3,6c0.6,1.3-0.1,2.6-1,3.6c0,1.6-1.4,2.6-2,4l-1.9,0.4
			c-1,1,0.8,2.2-0.1,2.8l4.1,0.1l-0.4-0.4c-0.6-1.7-0.4-3.7,0.5-5.2c0.6-1.3,0.8-2.9,2-4c0.3-0.1,0.7-0.6,1,0
			c0.1,1.3-0.1,2.6-0.6,3.8c1.2,1.7,1,3.9,1.1,6c3.6-0.2,7.2-0.3,10.8-0.3l-0.3-0.7c-0.4-6.6-2-13.1-4.8-19.1
			c-0.8,0-1.3,0.7-2.2,0.4c-0.3-0.1-0.5-0.4-0.4-0.7c-1.5-1.4-2.4-3.2-4-4.5c-1.9,0.2-2.7-2-4.4-2.2c-1.5-0.6-0.5-3-2.6-2.4
			c-1.1-0.4-2-1.3-2.3-2.5c0-1.9-0.4-4-2.1-5.2c-1.3-0.5-1.9,1.3-3.2,1c-0.7-0.4-0.4-1.3-0.6-2s-0.9-1-0.8-1.7
			c1.7-2.3-2.1-2.3-1.3-4.5c-0.2-1.6-1.9-2.3-2.7-3.5c-5.6-2.6-11.7-4.4-17.8-5.1C278.3,55.9,276.8,56.2,275.4,55.5z M308.7,55.5
			c-0.8,0.7-1.4-0.7-2.1,0.2c0,0.4,0,0.8,0.3,1.1c1.5,0.5,1.7,2.8,3.7,2.3c0.6-0.7-0.4-1.4-0.2-2.2
			C310.1,56.2,309.5,55.6,308.7,55.5z M242.7,65.4c-2.3,1.6-4.4,3.6-6.7,5c2.7,1.7,5,4.6,7.4,6.9l0.3,0.7
			c6.1-5.7,13.8-9.6,22.1-11.1c2-0.2,3.9-0.8,5.8-0.4c-0.3-3.5-0.3-7.1-0.1-10.6C261.2,56.3,251.2,59.7,242.7,65.4z M324.5,62.1
			c-2.3,2.8-4.7,5.4-7.4,7.9l-1.3,0.3c0.8,0.2,1,1.1,1.5,1.7c2.7,1.4,3.4,4.3,5.7,5.9c1.3,2.8,4.4,4.9,4.5,8.1
			c3.4,7.2,5.3,14.9,5.6,22.9l-0.3,0.4c0.3,0,0.6-0.1,0.9-0.3l10.6-0.2c-0.7-1-0.4-2.5-0.6-3.8C342.4,88.5,335.4,74.4,324.5,62.1z
			 M223.2,62.3c-10.5,11.7-17,25-18.8,40.2c-0.4,2.2-0.1,4.5-0.6,6.7c3.8-0.3,7.6-0.3,11.4,0l-0.3-1.4c0.6-11.3,4.4-22.3,11.1-31.5
			c1.7-1.9,2.9-4.2,4.9-5.6c-2.4-2.2-4.9-4.9-7.4-7.3L223.2,62.3z M271.6,70l-0.6,0.4c-9.4,0.7-17.5,4.6-24.6,10.4
			c2.8,2,5.3,5.1,7.8,7.3c0.2-0.3,0.4-0.5,0.6-0.8c3.5-2.5,7.1-4.8,11.2-5.8c1.8-0.2,3.6-1.1,5.6-0.6
			C271.2,77.3,271.2,73.6,271.6,70z M275.5,70.1l0.4,0.8l-0.1,10l1-0.2c6.1,0.8,11.7,2.8,16.5,6.7l0.3,0.8c1.6-2.3,4.1-4.3,6.1-6.5
			l1.8-1.1l-0.9-0.4c-3.9-3.3-8.4-5.9-13.3-7.7C283.5,71.4,279.5,70.6,275.5,70.1L275.5,70.1z M233.3,72.9l-0.1,0.7l-4,5
			c-6.5,9-9.6,19.3-10.5,30.6l10.1-0.1l1,0.4c-0.4-0.3-0.3-0.7-0.4-1.1c0.8-10.5,4.5-19.8,11.7-27.7
			C238.3,78.3,235.7,75.7,233.3,72.9z M303.7,83.1l-0.2,0.4c-3.4,3.5-7.1,7.2-10.3,10.8c0.2,0.4,0.6,0.8,1,1.1
			c0.1-0.9,0.6-1.7,0.7-2.6c0.9-1.2,2.2-0.4,3.4-0.2c1.8-0.4,3.4,0.4,5.2,0.4c1.3,0.7,1.4,2.3,2.6,3c0.3,0.5,0.1,1.1-0.3,1.4
			c0,0,0,0,0,0c0.4,2.8,1.7-0.7,3.1-0.1c0.6,0.2,1.3,0.2,1.8,0.8c0.2,1.1,1.6,0.9,1.7,2c-0.1,0.6-0.7,0.7-1.1,1
			c0.3,1.1-1.1,1.8-0.6,3c2.1,0.4,2.2-2.1,3.2-3.2c-0.4-1.9-1.1-3.8-2.1-5.6c-1.2-0.3-2-1.7-3.2-2c-2.4-0.9,0.4-2.4,0.1-3.8
			C307.2,87.3,305.5,85.1,303.7,83.1z M243.8,83.5c-5,5.8-8.5,12.8-9.9,20.4c-0.4,1.8-0.2,3.8-0.9,5.5c1.3-0.6,3.2-0.4,4.6-0.2
			c-0.8-0.4-0.1-1.5-0.6-2.1c-0.1-0.9-0.3-2.1,0.6-2.7c-0.1-1.5,1.5-2.3,1.7-3.7c0.4-1.5,2.2-0.5,3-1.3c0.6-0.3,0.1-0.8,0.1-1.2
			c0.7-1,1.9-1,2.8-1.5c0.6-1,1.5-1.9,2.5-2.6c2.2,0.1,2.3-3,4.4-3.1C249.1,88.7,246.4,86.2,243.8,83.5z M275.6,84.7
			c0.7,2.1,0.1,5.2,0.5,7.6l2.6,0.9c0.8-1.3,2.5-1.5,3.2-2.8c0.5-0.4,1,0,1.4,0.4c0.1,1-0.1,2-0.4,3c-1,2-3.4,2.2-4.7,3.7
			c0.9,0.5,1.3-0.4,2-0.6c1,0.3,1.9,0.8,2.5,1.7c0.7,0.3,1.3-0.1,1.9-0.3c0.4-3,4.2-2.6,5.4-5.5l-0.7,0.3c-0.3-0.4-1-0.2-1-0.9
			c0.6-0.7,1.4-1.3,2.2-1.8c-3.2-2.1-6.8-3.7-10.5-4.8C278.5,85.4,277.1,85.1,275.6,84.7z M255.8,92.4h0.8c0.9,0.9,2.3,0.7,3,1.9
			c0.3,0.7-0.6,0.6-0.6,1.1c0.2,0.2,0.4,0.2,0.6,0.4c0.7,0.3,0.5-0.4,0.8-0.7c0.9-0.9,1.1,0.9,2,0.9c0.6-0.5,1.4-0.4,1.9,0.2
			c0,0,0,0,0,0c0.6-0.5,1.8,0,2-1c1.1-1.2,0.5-3.1,2.2-3.9c0.6,0.3,0,0.9,0.2,1.4c1.1,0.5,2.4-1,3.4,0.2c-0.8-2.4-0.6-5.4-0.6-8
			C265.6,85.8,260.2,87.8,255.8,92.4z M273.7,98.5c-0.6-0.7-1.9-0.3-2.6,0c0.7,0.7,0.4,2.1,0.9,3c-1.1,1.8-3,2.3-4.7,2.8
			c-0.5,0.6-0.4,1.9-1.5,1.8c-0.4,0.8-1.6,1.3-1.1,2.5c-0.6,1.3-0.3,2.9-0.6,4.2c-2.2,1.4-1.5-1.8-2.6-2.5l-0.4,0.6
			c-0.4,0.1-0.7-0.2-1-0.4c-0.3-0.1-0.9-0.2-1.2,0.1c-0.5,0.8-1.2,1.5-1,2.6c-0.2,0.7-1.3,0.4-1.2,1.1c1.3-0.1,2.5-0.2,3.7-0.5
			c0.9,0.2,1.6-0.4,2.4-0.4c0.4,0.1,0.6,0.5,0.5,0.9h0.3c0.6-0.4,0.8-1.1,0.6-1.8c0.1-0.8,0.9-0.8,1.4-1c0.5,0.2,0.2,0.7,0.3,1.1
			c1.7,0.6-0.4,1.8-0.6,2.7c-0.4,0.7,0,2.3-1.4,2.1c-0.3-0.1-0.4-0.4-0.4-0.6h-0.3c0,0.7,0.4,1.3,1,1.7c1-0.8,1.1-2.3,2.5-2.5
			c0.8-0.8-0.3-2.1,0.8-2.7c1.9,0,4-0.8,5.5,0.7c-0.1,0.7-0.4,1,0.2,1.5c-0.3,0.9-0.7,1.7-1.3,2.5c0.2,0.5,0,1-0.4,1.4
			c-0.5,2.3-3.1,1.2-4.6,2c2.3,1.7,5.2,2.5,8.1,2.2c1.6-0.1,0.9-2,1.7-2.9c0.5-2.6,2.9-0.8,4.3-1.5c0.6-1.1,1-2.2,1.3-3.4
			c-0.9-0.6-1.3-1.7-1-2.8c-0.6-0.8-0.5-2.4-1.9-2.5c-0.2-0.3-0.1-0.7,0.1-0.9c0-0.8,0.8-1.1,1-1.7c-0.9-0.6-0.6-1.8-0.6-2.5
			c-1.4,0.4-1.6-1.5-2.6-1.9c-0.3-0.8-1.2-1-1.9-1.1c-1.8,0.8-2.1-1.3-3.4-1.8c-0.1-0.4-0.4-1,0-1.3c0.7-0.6,1.6-0.1,2.3-0.1
			L273.7,98.5z M241.7,107.6c-3,1,0.5,3.2-0.3,5c-0.4,1.1-1.5,0.1-2.3,0.5l-0.3,2c-0.4,1.2-1.9,0.3-2.5,1.1c-0.5,0.7,0,1.5,0.4,2.1
			c-1,2.4,2.3,3.1,2.3,5.2c1,1.3-0.2,3.2,1.3,4.4c0.3,2.4-0.3,5.6,1.8,7.5l0.4,2.3c0.4,1.6-1.9,1.2-1.6,2.6c0.4-0.2,0.6,0.4,0.6,0.5
			v-0.1c2.9-3.4,6.1-6.7,9.5-9.6l-1.4-1.4c-2.7-3.8-4.6-8.1-5.7-12.7l-1.1-0.6c0,1.2-0.6,2.1-0.5,3.3l-0.4,0.4
			c-0.8,0-1.3-0.7-1.9-1.1c-0.2-0.4-0.6-1.1,0.1-1.4c0.3,0,0.6,0.1,0.9,0.3c0.3-0.4,0.2-1,0.4-1.5c0.1-0.9-0.7-1.7-0.1-2.5
			c0.7-0.1,1.2,0.8,1.5,1.3c0.7,0.2,1.3-0.4,1.8-0.6c0-0.6,0.9-1.5-0.1-1.8c0.3-1.4,0.3-2.9-0.1-4.3
			C244,107.2,242.7,107.5,241.7,107.6L241.7,107.6z M310.6,108.8c-0.4,0.1-0.7,0.1-1.1,0.1C309.9,108.8,310.2,108.8,310.6,108.8
			L310.6,108.8z M308.3,112.4l1.1,1.2c1.1,0.8,0.4,2.4,1.6,3.1c1.4,0.7,2,2.4,2.6,3.6c0.2-0.3,0.3-0.7,0.3-1.1
			c0.5-2,0.4-4.3,1.1-6.3C312.8,113.1,310.3,113.3,308.3,112.4L308.3,112.4z M333.5,112.9l-0.6-0.4l0.4,1
			c-0.5,11.8-4.6,23.2-11.7,32.7c-1.4,1.6-2.6,3.6-4.3,4.8c2.9,2.5,5.7,5.2,8.2,8.1l0.3-0.6c11.3-12.9,17.7-27.7,18.4-44.9l0.4-0.9
			l-0.6,0.3L333.5,112.9z M318.7,112.7c0.2,2.3-0.4,4.4-0.5,6.6l1.2,1.3c0.3,0.6,0.2,1.3-0.3,1.7c-0.5,0.3-1.2,0.3-1.7-0.1
			c-1.5,4.9-3.4,9.7-6.4,14.1c-1.2,1.5-2.4,3.7-4,4.5l3.3,2.9c0.2-0.2,0.1-0.5,0.1-0.7c0-0.4,0.2-1,0.8-0.9c1.6,0,1.7,1.7,2.6,2.6
			c-0.2,1.4,1,2.5,0.6,3.8c9.3-9.8,13.9-21.8,14.8-35.1l0.5-0.6c-3.3,0.3-6.8,0.1-10.2,0.2L318.7,112.7z M232.8,112.8l0.6,0.9
			c0.1,2.4,1,4.8,0.5,7.2c0.4-0.7,0.5-1.7,1.4-2.1c0.1-0.7-0.9-0.8-0.8-1.5c0.7-1.4,0-3.6,1.8-4.2
			C235.1,113.4,233.9,113.6,232.8,112.8L232.8,112.8z M215.1,113l-1,0.4l-10.2-0.1c0.5,11.3,3.6,22.4,9,32.3
			c2.6,4.9,6.4,9.2,9.8,13.8l7.3-7.6l0.9-0.4c-1.3-1-2.4-2.2-3.4-3.5c-1.3-0.3-2.4-1.2-3.1-2.4c-0.4-0.4,0-1.1-0.4-1.4l-0.4,0.6
			c-1.3,0.6-1.8-0.7-2.6-1.3c-1.1-0.6-0.6-2.8-2.1-2.4c-0.6,0-0.8-0.7-1.1-1.1c-1.4,0.1-1.8-1.4-2.6-2.2c-0.1,0.3,0,0.8-0.4,1
			c-1.5,0.3-2-1.5-3-2.2c-0.3,0.1-0.4,0.4-0.8,0.3c-0.9-0.8-1.5-1.9-1.5-3.1c-1.2-1.4-0.7-3.5-0.4-5.2c0.2-0.4,0.8-0.7,0.7-1.3
			c0.3-0.8,1.1-0.8,1.9-0.9c0.3,0.2,0.6,0.4,0.7,0.7c0.5-0.3,1.5,0,1.1-1c0.7-0.5,1.5-0.8,2.4-0.9c0.5,0.8,1,1.6,1.7,2.3l-0.5-0.8
			c-0.9-3.7-1.5-7.5-1.7-11.3c0-0.2-0.5-0.3-0.2-0.6l0.1,0.1C215,114.3,215,113.7,215.1,113z M229.5,113l-0.8,0.4
			c-3.4-0.1-7,0.2-10.2-0.3l0.4,0.6l0.8,6.8c0.3,2.6,1.5,5.1,1.4,7.7c0.4-0.6,0.2-1.7,1.1-1.8c-0.4-0.8,0.8-1.5,0.1-2.2
			c0.3-1.8,0.6-3.6,2.1-4.9c1.9-0.1,2-2.5,3.9-2.7c1,0,1.6,1.3,1.9,1.7C229.1,116.9,229.2,114.6,229.5,113L229.5,113z M248.4,117.5
			c1,1.9,1.6,4.1,2.7,6c0.7,1.7,2.1,3,2.8,4.7c0.7-1.3,2.1-2.4,3.1-3.6c0.1-0.5,0-1-0.3-1.4c-0.3-0.8,0-1.9-0.6-2.5
			c-1,0.3,0.3,1.3-0.1,1.8c-0.3,0.2-0.6,0.1-0.8-0.2c0-0.1-0.1-0.2-0.1-0.2c-0.8-0.2-1.5-0.8-1.8-1.7c0.7-0.4-0.2-0.6-0.4-1
			c-0.4-0.2-0.4-0.2-0.7,0.2c-0.2,0-0.4,0-0.6-0.1C251.6,117.3,249.3,118.6,248.4,117.5L248.4,117.5z M260,120.4
			c-0.3,0.9-0.8,1.7-1.5,2.4l0.1,0.1c0.9-0.6,1.5-1.8,2.6-1.8L260,120.4z M289.1,123.4c0,0.6,0.2,1.3,0.6,1.8
			c1.4-0.2,0.8,1.8,2.1,1.6c0.7-0.2,0-0.8,0.3-1.3c-0.2-1.1-1.3-1.2-2-1.9c-0.1-0.2,0.1-0.4,0.2-0.6
			C289.6,122.7,289.4,123,289.1,123.4L289.1,123.4z M309.9,123.5c-1.1-0.1-2.4,0.6-3.3-0.2c-0.3-0.3-0.6,0.2-0.5,0.4
			c-0.4,0.6-0.7,1.3-1.6,1c-0.7-0.3-0.7-1-0.9-1.5c0,0.4-0.1,0.8-0.2,1.1c-0.6,0.8-1.2,1.6-1.6,2.5c-0.8,0.8-2,0.6-2.8,1.2
			c-0.1,1.8-2.1,1.4-3.2,1.9c-0.1,0.2,0.2,0.3,0.3,0.4c0.6,0.2,1.2,0.1,1.6-0.4c1.6,0.4,1.2-1.5,2.1-2.2c0.8-0.1,1.5-0.8,2.3-0.3
			c0.8,1.1,1.1,2.4,0.9,3.7c-0.9,0.9-0.5,2.3-1.1,3.4c0.1,1.2-1.3,1.8-1.1,3c-0.6,0.5-1.3,0.7-2,0.6c-3-1.1-6.1-1.8-9.2-2.1
			c-0.3,0.1-0.5,0.4-0.4,0.7c1.3,0.7,2.9,0.7,4.3,1.3c1.3,0.3,2.1,1.9,3.7,1.4c1.3-0.7,3.5,0.4,4.4-1c-0.1-1.4,1-2.4,1.6-3.5
			l0.4-0.1c0.7,0.8,0.7,1.9,1,2.8c1-1.1,1.8-2.3,2.8-3.5c2.5-3.4,4.3-7.3,5.4-11.4C311.8,123,310.8,123.2,309.9,123.5L309.9,123.5z
			 M263.5,123.5c-1.6,2.6-4.6,4.9-6.8,7.3c3.8,3.2,8.4,5.3,13.3,6.1c0.3-1-0.2-2.2,0.4-3.1c0.5-0.8,1.4-0.8,2.1-0.6
			c0.3,0,0.6-0.3,0.6-0.7c0-0.1-0.1-0.2-0.1-0.3c-1.1-0.2-0.6-1.4-1-2.1c0-0.4,0.7-0.3,0.5-0.8c-0.7-0.6,0.4-1.3-0.3-1.9
			c0.3-0.2,0.4-0.6,0.8-0.6c-2.3,1.2-4.8-0.3-6.9-1.2C265.1,125.2,263.7,124.7,263.5,123.5L263.5,123.5z M284.9,130
			c-0.1,0.3-0.5,0.8,0,1c0.9-0.9,2.8-0.9,2.8-2.2C286.4,128.5,285.8,129.2,284.9,130L284.9,130z M289.1,132.7
			c-1.1,0-1.7,0.9-2.6,1.6c-1,0.6-1.5-1.1-2.4-0.7c0,0.2,0.2,0.3,0.4,0.3c0.3,0.3,0.3,0.8,0,1.1c-1.3,1.1-1.8-0.6-3-0.4v0.4
			c0,0.3-0.1,0.7-0.4,0.5c-0.7-1.2-2.2-0.8-3-1.8c-0.5-0.3-0.9,0.1-1.3,0.4c-0.3,0.6-1.4-0.1-1.1,0.9c-0.9,0.3-1,1.3-1.7,1.9
			c-1.1-0.2-1.6,1.1-2.7,1.1c0.1,0.2,0,0.6,0.3,0.6c0.7,0.3,1.4,0.4,2.1,0.3c1.1-1.8,2.9-0.3,4.5-0.9c1,0.2,0.3,1.2,1,1.6
			c1.5-0.5,2.6,1.3,3.9,0.2c-0.1-1.7,1.9-1.6,2.9-2c1.7-1,3.5-2.3,3.4-4.5L289.1,132.7z M253.5,133.7c-2.2,2.7-4.6,5.2-7.3,7.5
			c1.1,0.1,1.8,1.3,2.7,1.9c5.5,4.6,12.4,6.8,18.8,8.4l-1.8-0.8c-1.3-1.5-3.2-3.3-3.3-5.4c1.3-0.4,1.2-1.9,1.6-2.9
			c1-1.1,2.4-1.8,3.9-2.1c-3.7,1.6-7-1.2-10-2.6C256.5,136.4,254.5,135.5,253.5,133.7L253.5,133.7z M304.7,144l-0.3-0.7
			c-0.4,0.8-1,1.5-1.7,2.1c0,0.6-0.2,1.5,0.5,1.9c1.5,0.5,3.4,1.4,3.7,3.2c-0.6,1.6-3.7,3.1-1.8,4.9c0.6,0.9-0.9,1.2-0.6,1.9
			l0.5-0.7c2.3-1.6,4.5-3.5,6.6-5.5h0.3c-0.4-0.1-1,0.3-1.5,0.1c-1-0.5-1.2-1.4-1.2-2.5L304.7,144z M245.5,145.4l-0.1-0.3l0.1,0.4
			V145.4z M246.6,147c-0.5-0.2-0.8-0.6-0.9-1.1L246.6,147z M246.9,147.3c0.2,0.9,1.4,1.4,1.1,2.5c-0.6,1-1.9,1-2.9,1
			c-2.1-0.3-3.6,1.3-5.6,1.5c-1.8,0.6-2.4-1.6-4.1-1.5c10.2,9,21.9,14.5,35.6,15.3l1,0.7l-0.4-1.3v-9.8l-0.9,0.4
			C262,155.7,253.7,152.6,246.9,147.3L246.9,147.3z M314.9,154.2l-0.2-0.9c-1,2-3.3,3.3-5,4.9c-2.4,2.4-6.3,2.9-7.5,6.4
			c-1.3,1.2-1.7,3-3.5,3.7c-0.7,1.8-2.5,1.6-3.6,2.9c-3.1,2.8-5.1-1.8-7.9-2.3l-5.6,1c-2,0-3.9,0.7-5.7,0.1c0.3,3.8,0.3,7.7,0,11.6
			l0.7-0.4c17.7-0.8,33.1-7.5,46.2-19.4L314.9,154.2z M233.2,154l-0.1,0.4l-7.6,7.6c11.5,9.9,24.4,16.4,39.2,18.4
			c2.4,0.4,5,0.2,7.3,0.9l-0.6-0.9v-10l0.4-0.6l-1.1,0.3C256.4,169.2,243.7,164.1,233.2,154z M275.2,156.6l0.5,0.8
			c0,3,0.4,6.1,0,9.1c2.7-0.9,5.9-0.8,8.8-1.3c-0.6-0.2-1.2-0.5-1.6-1c-1.7-0.1-2.5-1.9-3.1-3.3c-0.3-1,0.4-1.8,0.8-2.6
			c-0.7-1.5-3-0.4-4.3-1C276,157.1,275.8,156.7,275.2,156.6L275.2,156.6z"/>
		<path class="st1" d="M342.9,50.8c5.4,4.8,7.8,11.1,9.4,17.6l0.9,2.1c-7.9-5.7-14.7-12.9-20-21.2l-6.1-6.2
			C332.6,45.3,338.3,46.7,342.9,50.8z"/>
		<path class="st1" d="M206.1,60.4c-3.6,4.5-8.2,7.4-12.3,11.2c2.2-4.6,2.3-10,5.4-14.2c4.4-7.8,12.7-10.5,20-13.4
			C213.8,48.8,210.1,54.8,206.1,60.4z"/>
		<path class="st1" d="M362.1,68.5c1.7,7.7-0.8,15.3,0.8,23.1l-0.1,0.1c-4.2-8.3-13.1-12.2-19.3-18.8c-3.6-3.9-5.1-8.7-6-13.8
			c3.5,8.5,13,10.4,18.5,17.5c1.9,1.7,2.4,3.9,3.6,5.8l0.2-0.2c-3.1-6.7-4.2-14.2-6.4-21.4c-1.2-3.3-3.3-6.1-6.2-8.1
			C354.4,54.2,360.6,61.7,362.1,68.5z"/>
		<path class="st1" d="M199.4,54c-7.3,5-6.8,14-9.1,21.5c-0.7,2.8-2,5.3-2.6,8.1l0.2,0.1c1.3-3.3,3.4-6.4,6-8.8
			c5.2-4.8,12.8-7.8,15.4-14.8c-0.1,9.9-8.3,17.6-16.2,23.1c-3.2,2.8-6.4,6.1-8.1,9.7c-0.2-2.5,0.4-5,0.2-7.6
			c-0.8-8.6-1.5-18.4,4.6-24.7C192.1,57.4,195.5,55.1,199.4,54z"/>
		<path class="st1" d="M366.7,70.2c6.5,8.8,7.9,22.9,3.2,33c-1.8,4.4-3,8.9-3.7,13.6c-0.3-0.8-0.4-1.9-0.7-2.8
			c-2.6-9.9-12-17-15.8-26.3c-1.3-3.1-2.2-6.3-2.8-9.5c4.1,7.6,14.3,11.6,17,20c1.1,2.1,1.1,4.8,1.8,7.1c0.2,0,0.3-0.1,0.3-0.3
			c-1.1-8.7-1-17.5,0.3-26.2c-0.1-4.6-0.5-9.1-3.1-12.7C364.8,66.9,365.5,68.8,366.7,70.2z"/>
		<path class="st1" d="M183.8,67.4c-5.6,8.5-1,19.2-1.2,28.9l-0.7,9.9c0.1,0.1,0.1,0.4,0.4,0.3c0.3-1.1,0.4-2.3,0.6-3.4
			c1.3-8,8.3-13.7,14.3-19.2c1.3-1.3,2.3-2.9,3.1-4.6c-0.5,4-1.7,8-3.4,11.7c-4.7,9.2-13.4,16.8-15,27.3c-0.8-10.1-7.7-17.6-7-28.3
			c-0.2-8.7,3.4-15.8,8.5-22.3C183.5,67.6,183.6,67.4,183.8,67.4z"/>
		<path class="st1" d="M372.8,127.5c-3.9,5.5-8.5,10.6-12.1,16.2c0.4-4.4,0.9-9.9-0.8-14.1c-3-9-5.6-18.2-6.4-28.1l0.1-3.8
			c2.2,10.1,12.2,17.1,11.6,28.4c0.2,2.8-0.6,5.1-1.1,7.5l0.2,0.2l0.4-0.5c1.5-5.6,2.2-11.4,4.5-16.6c3.3-7.5,7.3-15,5.7-24
			C379.7,103.4,378.2,117.6,372.8,127.5z"/>
		<path class="st1" d="M181,124c1.1,3.7,1.3,7.7,2.8,11.2c0.2,0.1,0.3-0.1,0.4-0.2c-3.8-10.6,1.6-20.4,7.1-28.7
			c1.3-2.3,2.2-4.8,2.8-7.3c0.6,4.8-0.6,10.3-1.3,15.3c-1.3,6.3-3.3,12.3-5,18.5c-1.1,3.8-0.8,8.2-0.3,12.2l-0.6-0.4
			c-4-7.4-12-13.2-14.3-21.3c-2-6.4-3.2-13.9-1.9-21c0.5-2.7,1.2-5.4,2.3-8C170.7,105.7,178.4,114,181,124z"/>
		<path class="st1" d="M357.6,144.9c-0.3,4.8-1.8,9.4-4.5,13.4h0.4c3.5-4.6,6.3-9.6,10.4-14c6.4-6.2,12.9-12.5,13.8-21.1
			c2.2,14.3-5.9,26.9-17.7,35c-4.9,3.2-9.9,6.2-14.6,9.8v-0.4c7.2-12,3.7-28.5,8.1-41.6l1.6-4.4
			C354.3,129.7,357.9,136.7,357.6,144.9z"/>
		<path class="st1" d="M199.5,161.2c0.8,2.7,2.4,5.1,3.4,7.8c-11-7.5-25.9-14.6-30.8-28.3c-2-4.7-2.3-10.6-1.8-16
			c0.9,12.2,14,18.6,20.1,28.7c1.4,2.1,2.7,4.4,4.6,6.1c-0.3-1.3-1.5-2.4-2-3.7c-2.1-4.5-3-9.5-2.4-14.4c0.6-6.2,3.2-12,2.2-18.6
			C198.2,134.4,196.5,148.7,199.5,161.2z"/>
		<path class="st1" d="M341.2,170.3c-2,3.4-4.5,6.4-7.5,9c1,0,1.8-0.9,2.6-1.4c7.9-7.9,18.2-10.1,26.8-16.5
			c3.5-2.6,6.3-6.1,8.1-10.2c-1.6,13.1-14.6,25.3-26.9,29.2c-6.3,1.7-13.1,2.3-19.3,4.4c10.4-8.9,9.8-22.8,16.8-33.3
			c2.2-3,4-6.1,6.6-8.9C344.3,151.1,346.1,162.1,341.2,170.3z"/>
		<path class="st1" d="M209.8,159.3c3.7,9.1,5.1,19.3,13.6,26.1c-9.2-3-20-2.2-28.1-7.9c-8.9-5.4-16.8-14.7-18.4-24.8
			c6.1,13.8,21.4,15,31.7,23.4c1.8,1.6,3.8,3,6,4.1l0.1-0.1c-2.4-2.1-5.1-4.6-6.7-7.3c-6-8.4-3.9-20.1-8.4-29
			C203.6,148.4,207.1,153.6,209.8,159.3z"/>
		<path class="st1" d="M319,186.2c-2.2,1.5-5.1,1.7-7.4,2.8c3.3,0.1,6.3-1.1,9.6-1.4c12.1-1.9,26.1,0,34.6-10.3
			c-3.2,7.2-11.1,13.3-18.3,15.8c-12.4,4.7-24.9-1.1-36.8-3l-2.3-0.3v-0.1c5.7-1.3,11.2-3,15.7-7.1c6.7-6.4,12.6-13,20-18
			C328.6,171.7,328,181.7,319,186.2z"/>
		<path class="st1" d="M233.8,182.9c4.7,4.1,10.4,6,16.3,7.3c-1.4,0.5-3.3,0.4-4.9,0.8c-10.7,2.6-22.6,7-34,3.1
			c-7.4-2.3-15-8.2-18.7-15.5c9.8,11.2,25.8,7.4,38.9,10.4c1.8,0.3,3.5,1,5.5,0.7c-1.6-1-3.7-0.9-5.4-1.8
			c-10.2-3.6-11.8-14.7-17.3-22.2C221.3,170.3,227.3,176.7,233.8,182.9z"/>
		<path class="st1" d="M313.8,198c8,2.9,18.3,2.1,25.1-2.7c-3.5,4.3-8.1,7.5-13.3,9.3c-11,4.1-22.6-0.2-31.2-6.7
			c-3.5-2.2-6.6-5.4-11.1-5.1c-1.5-0.1-3.1,0.1-4.6,0.4c8.6,4,16.5,9.5,23.3,16.2c-1.3,1.4-2.7,2.7-4.2,3.8
			c-6.8-7.4-14.5-14.5-23-18.7c-1.7,0.4-3.3,1.1-4.8,2c-7.3,4.4-13.7,10.2-18.9,16.9l-4.4-3.6c6.7-6.9,14.7-12.6,23.4-16.7
			c-8.4-2.6-13.9,4.4-20.2,7.9c-7.4,5.2-18.1,7.6-27.1,4.1c-5.1-1.7-9.5-4.8-13-8.9c7.1,4.9,17.6,5.4,25.6,2.2
			c10.8-4.7,22-10.6,35-7.8c2,0,4,2.1,5.9,0.3c9.8-2.3,20-1,28.9,3.6L313.8,198z"/>
		<path class="st2" d="M524.5,186.8h49.7c-0.9,40-22.9,60-52.6,60c-32,0-52.4-26.9-52.4-55.9s20.5-55.9,52.4-55.9
			c35.4,0,45.1,22.1,49.2,33.5l-22.5,1.5c-3.9-9.5-11.6-15.8-26.7-15.8c-16.9,0-30.1,13.8-30.1,36.7c0,19.4,12.2,36.7,31.5,36.7
			c17.3,0,25.4-12.3,27.2-22.5h-25.8V186.8z"/>
		<path class="st2" d="M786.6,137.3h21.5v87.5h41.3v20h-62.8V137.3z"/>
		<path class="st2" d="M909.5,165.6c0-7.4-7.1-12-15.7-12c-10.7,0-17.2,4.7-17.2,11.9c0,7.4,7.2,11,12.4,12.7l19.7,6.3
			c14.3,4.6,24.4,12.9,24.4,29.4c0,13.1-9.4,32.9-39.2,32.9c-37.3,0-40.7-24.1-40.7-33.7l21.4-0.4c0,11.4,9,15.9,19.4,15.9
			c7.3,0,17.6-3.6,17.6-11.9c0-5.7-2.4-8.7-13-12.6l-23.4-8.4c-11.9-4.3-20.2-14.7-20.2-26.9c0-13.7,9.4-33.4,37.3-33.4
			c33.2,0,38.5,22,38.5,29.9L909.5,165.6z"/>
		<path class="st3" d="M608.4,177.7c1.3-2.2,2.9-4.3,4.8-6.1l-15.6-17.1c-3.9,3.8-7.3,8.1-9.9,12.9L608.4,177.7z"/>
		<path class="st4" d="M646.7,165.6c2.3,1.1,4.5,2.4,6.5,4.1l15.6-17.1c-4.1-3.6-8.8-6.5-13.8-8.6L646.7,165.6z"/>
		<path class="st5" d="M682.5,170.8l-20.7,10.3c1,2.3,1.7,4.8,2.1,7.3l23-2.2C686.2,180.9,684.7,175.7,682.5,170.8"/>
		<path class="st6" d="M660.3,178.1l20.7-10.3c-2.6-4.7-5.8-9.1-9.7-12.9L655.7,172C657.4,173.8,659,175.9,660.3,178.1"/>
		<path class="st7" d="M604.3,192.8c0-0.5,0-0.9,0-1.4l-23-2.1c-0.1,1.1-0.1,2.3-0.1,3.5c0,4.3,0.5,8.6,1.6,12.8l22.3-6.4
			C604.5,197.1,604.3,195,604.3,192.8"/>
		<path class="st8" d="M657.3,211.8c-1.6,2-3.5,3.8-5.6,5.3l12.2,19.7c4.5-3.1,8.5-6.8,11.9-11.1L657.3,211.8z"/>
		<path class="st9" d="M664.1,192.8c0,2.1-0.2,4.3-0.7,6.4l22.3,6.4c1-4.2,1.6-8.5,1.6-12.8c0-1.1,0-2.2-0.1-3.3l-23,2.2
			C664.1,192.1,664.1,192.4,664.1,192.8"/>
		<path class="st10" d="M611.5,212.2l-18.4,14c3.4,4.2,7.5,7.9,12,10.9l12.2-19.7C615.1,215.9,613.2,214.2,611.5,212.2"/>
		<path class="st11" d="M604.7,188.1c0.4-2.6,1.1-5.1,2.2-7.4l-20.7-10.3c-2.3,5-3.9,10.2-4.6,15.6L604.7,188.1z"/>
		<path class="st12" d="M661.1,238.5L649,218.9c-2.2,1.3-4.6,2.2-7.1,2.9l4.2,22.8C651.4,243.3,656.4,241.3,661.1,238.5"/>
		<path class="st13" d="M662.6,202.4c-0.8,2.3-1.9,4.6-3.2,6.7l18.5,13.9c3-4.4,5.4-9.1,7-14.2L662.6,202.4z"/>
		<path class="st14" d="M638.5,222.4c-1.4,0.2-2.9,0.3-4.3,0.3c-1.2,0-2.3-0.1-3.5-0.2l-4.3,22.8c2.6,0.4,5.2,0.6,7.8,0.6
			c2.9,0,5.8-0.2,8.6-0.7L638.5,222.4z"/>
		<path class="st15" d="M636.1,163c2.5,0.2,5,0.6,7.4,1.4l8.3-21.6c-5.1-1.8-10.4-2.8-15.7-3V163z"/>
		<path class="st16" d="M627.5,221.9c-2.6-0.6-5-1.5-7.3-2.8l-12.2,19.7c4.7,2.7,9.9,4.7,15.2,5.8L627.5,221.9z"/>
		<path class="st17" d="M625.2,164.3c2.4-0.8,5-1.2,7.5-1.3v-23.1c-5.4,0.1-10.8,1.1-15.9,2.9L625.2,164.3z"/>
		<path class="st18" d="M609.5,209.5c-1.5-2.2-2.7-4.6-3.5-7.1l-22.2,6.4c1.7,5.2,4.1,10.2,7.3,14.7L609.5,209.5z"/>
		<path class="st19" d="M615.7,169.4c2-1.6,4.1-2.9,6.4-3.9l-8.4-21.6c-4.9,2.1-9.5,4.9-13.6,8.4L615.7,169.4z"/>
		<path class="st2" d="M751.5,222h-39.8l-7.1,22.7h-23.5l39.7-108.9h22.9l39.1,108.9h-23.9L751.5,222z M731.8,162h-0.3l-13.8,42.3
			h28L731.8,162z"/>
	</g>
</g>
<g>
	<path class="st20" d="M430.6,29.5c0.9-1.5,2-2.9,3.2-4.1l-10.6-11.6c-2.7,2.5-4.9,5.5-6.7,8.7L430.6,29.5z"/>
	<path class="st21" d="M456.4,21.3c1.6,0.7,3.1,1.7,4.4,2.8l10.6-11.6c-2.8-2.4-5.9-4.4-9.4-5.9L456.4,21.3z"/>
	<path class="st22" d="M480.7,24.8l-14,7c0.7,1.6,1.1,3.2,1.4,5l15.6-1.5C483.2,31.6,482.2,28.1,480.7,24.8"/>
	<path class="st23" d="M465.6,29.8l14-7c-1.7-3.2-4-6.2-6.6-8.7l-10.6,11.6C463.7,26.9,464.8,28.3,465.6,29.8"/>
	<path class="st24" d="M427.8,39.7c0-0.3,0-0.6,0-0.9l-15.6-1.4c0,0.8-0.1,1.6-0.1,2.3c0,3,0.4,5.9,1.1,8.7l15.1-4.3
		C428,42.7,427.8,41.2,427.8,39.7"/>
	<path class="st25" d="M463.7,52.6c-1.1,1.4-2.4,2.6-3.8,3.6l8.2,13.3c3.1-2.1,5.8-4.6,8.1-7.5L463.7,52.6z"/>
	<path class="st26" d="M468.3,39.7c0,1.5-0.2,2.9-0.5,4.3l15.1,4.3c0.7-2.8,1.1-5.7,1.1-8.6c0-0.7,0-1.5-0.1-2.2L468.3,39
		C468.3,39.3,468.3,39.5,468.3,39.7"/>
	<path class="st27" d="M432.6,52.9l-12.5,9.5c2.3,2.9,5.1,5.3,8.1,7.4l8.2-13.3C435.1,55.4,433.8,54.2,432.6,52.9"/>
	<path class="st28" d="M428,36.5c0.3-1.8,0.8-3.5,1.5-5l-14-7c-1.5,3.3-2.6,6.9-3.1,10.6L428,36.5z"/>
	<path class="st29" d="M466.2,70.7L458,57.4c-1.5,0.8-3.1,1.5-4.8,2l2.9,15.4C459.7,73.9,463.1,72.5,466.2,70.7"/>
	<path class="st30" d="M467.2,46.2c-0.5,1.6-1.3,3.1-2.2,4.5l12.5,9.4c2-2.9,3.6-6.2,4.7-9.6L467.2,46.2z"/>
	<path class="st31" d="M450.9,59.8c-1,0.1-1.9,0.2-2.9,0.2c-0.8,0-1.6-0.1-2.4-0.1l-2.9,15.4c1.7,0.3,3.5,0.4,5.3,0.4
		c2,0,3.9-0.2,5.8-0.5L450.9,59.8z"/>
	<path class="st32" d="M449.3,19.5c1.7,0.1,3.4,0.4,5,1L460,5.9c-3.3-1.2-6.9-1.9-10.6-2V19.5z"/>
	<path class="st33" d="M443.4,59.5c-1.8-0.4-3.4-1-5-1.9l-8.2,13.3c3.2,1.8,6.6,3.2,10.3,3.9L443.4,59.5z"/>
	<path class="st34" d="M441.9,20.4c1.6-0.5,3.3-0.8,5.1-0.9V3.9c-3.8,0.1-7.4,0.8-10.8,2L441.9,20.4z"/>
	<path class="st35" d="M431.3,51.1c-1-1.5-1.8-3.1-2.4-4.8l-15.1,4.3c1.1,3.6,2.8,6.9,5,9.9L431.3,51.1z"/>
	<path class="st36" d="M435.5,23.9c1.3-1,2.8-1.9,4.3-2.6l-5.7-14.6c-3.4,1.4-6.5,3.3-9.2,5.7L435.5,23.9z"/>
	<path class="st1" d="M413.9,134.4V91h15.6c5.6,0,9.8,1,12.7,3.1c2.9,2,4.4,5,4.4,8.9c0,2.2-0.5,4.2-1.6,5.8c-1,1.6-2.6,2.8-4.6,3.5
		c2.3,0.6,4,1.7,5.2,3.3c1.2,1.6,1.8,3.6,1.8,6c0,4.3-1.3,7.5-4,9.6c-2.7,2.1-6.7,3.2-12,3.3H413.9z M424.4,109.1h5.5
		c2.3,0,3.9-0.4,4.9-1.3c1-0.8,1.5-2,1.5-3.6c0-1.8-0.5-3.2-1.6-4c-1.1-0.8-2.8-1.2-5.1-1.2h-5.1V109.1z M424.4,116v10.4h6.9
		c1.9,0,3.3-0.4,4.4-1.3c1-0.9,1.5-2.1,1.5-3.7c0-3.6-1.8-5.4-5.4-5.5H424.4z"/>
	<path class="st1" d="M507.5,113.6c0,4.2-0.8,8-2.4,11.2c-1.6,3.3-3.8,5.8-6.7,7.5c-2.9,1.8-6.2,2.6-9.9,2.6c-3.7,0-7-0.9-9.8-2.6
		c-2.9-1.7-5.1-4.1-6.7-7.3c-1.6-3.2-2.4-6.8-2.5-10.9v-2.4c0-4.3,0.8-8,2.3-11.3c1.6-3.3,3.8-5.8,6.7-7.5c2.9-1.8,6.2-2.7,9.9-2.7
		c3.7,0,7,0.9,9.8,2.6c2.9,1.7,5.1,4.2,6.7,7.5c1.6,3.2,2.4,6.9,2.4,11.1V113.6z M496.8,111.8c0-4.3-0.7-7.6-2.2-9.8
		c-1.4-2.2-3.5-3.4-6.2-3.4c-5.3,0-8,3.9-8.3,11.8l0,3.2c0,4.3,0.7,7.5,2.1,9.8c1.4,2.3,3.5,3.4,6.3,3.4c2.6,0,4.7-1.1,6.1-3.4
		c1.4-2.2,2.2-5.5,2.2-9.7V111.8z"/>
	<path class="st1" d="M544.4,99.1h-18.8v6.9h5.4c3.4,0,6.5,0.6,9.1,1.8c2.6,1.2,4.7,2.8,6.1,5c1.4,2.1,2.1,4.6,2.1,7.4
		c0,4.3-1.6,7.7-4.8,10.4c-3.2,2.7-7.4,4-12.8,4H515V91h29.3V99.1z M525.5,114v12.4h5.4c2.1,0,3.8-0.6,5.1-1.8
		c1.2-1.2,1.9-2.7,1.9-4.6c0-1.8-0.6-3.2-1.8-4.3c-1.2-1.1-2.9-1.6-5.1-1.6H525.5z"/>
	<path class="st1" d="M591.9,91v43.4h-10.5V99.1h-9.8l-0.7,14.6c-0.3,5-1,9-2.1,12.1c-1.1,3-2.7,5.2-4.7,6.6c-2,1.4-4.8,2.1-8.2,2.1
		h-2.8v-8.1l1.5-0.2c2.1-0.3,3.6-1.6,4.5-3.8c0.9-2.3,1.5-6.1,1.8-11.4l0.7-20H591.9z"/>
	<path class="st1" d="M625.7,126.3h-14.3l-2.5,8.1h-11.2L613.6,91h9.8l16,43.4h-11.2L625.7,126.3z M613.9,118.2h9.3l-4.7-15.1
		L613.9,118.2z"/>
	<path class="st1" d="M679.3,119.7c-0.1,3-1,5.7-2.4,8c-1.5,2.3-3.6,4.1-6.3,5.4c-2.7,1.3-5.8,1.9-9.2,1.9c-5.7,0-10.2-1.9-13.5-5.6
		c-3.3-3.7-4.9-9-4.9-15.7v-2.1c0-4.3,0.7-8,2.2-11.2c1.5-3.2,3.6-5.7,6.4-7.4c2.8-1.7,6-2.6,9.7-2.6c5.3,0,9.5,1.4,12.7,4.2
		c3.2,2.8,5,6.6,5.5,11.5H669c-0.1-2.6-0.7-4.5-2-5.7c-1.3-1.2-3.2-1.7-5.7-1.7c-2.6,0-4.5,1-5.7,2.9c-1.2,2-1.8,5.1-1.9,9.3v3.1
		c0,4.6,0.6,7.9,1.7,9.9c1.2,2,3.2,3,6,3c2.4,0,4.2-0.6,5.5-1.7s2-2.9,2-5.4H679.3z"/>
	<polygon class="st1" points="719.7,99.1 706.6,99.1 706.6,134.4 696.2,134.4 696.2,99.1 683.4,99.1 683.4,91 719.7,91 	"/>
	<polygon class="st1" points="751.7,91 762.2,91 762.2,134.4 751.7,134.4 751.7,107.1 736.1,134.4 725.6,134.4 725.6,91 736.1,91 
		736.1,118.4 	"/>
	<path class="st1" d="M428.6,164L428.6,164l5.4-14.3h8.4l-11.1,26.1c-1.2,2.6-2.5,4.5-4,5.6c-1.5,1.1-3.2,1.6-5.2,1.7h-1.6l-1.2,0
		l-0.1-6.2c0.2,0.1,0.7,0.1,1.6,0.1c1.2,0,2.1-0.2,2.7-0.6c0.6-0.4,1.1-1.2,1.5-2.4l0.4-1.1l-11.9-23.2h8.4L428.6,164z"/>
	<path class="st1" d="M472.8,171.5c-0.1,2.3-0.7,4.3-1.9,6.1c-1.1,1.8-2.7,3.1-4.8,4.1c-2,1-4.4,1.4-7,1.4c-4.3,0-7.7-1.4-10.2-4.2
		c-2.5-2.8-3.7-6.8-3.7-11.9v-1.6c0-3.2,0.6-6,1.7-8.5c1.1-2.4,2.7-4.3,4.8-5.6s4.6-2,7.3-2c4,0,7.2,1.1,9.6,3.2
		c2.4,2.1,3.8,5,4.1,8.7H465c-0.1-2-0.6-3.4-1.5-4.3c-0.9-0.9-2.4-1.3-4.3-1.3c-2,0-3.4,0.7-4.3,2.2c-0.9,1.5-1.4,3.8-1.4,7.1v2.3
		c0,3.5,0.4,6,1.3,7.5c0.9,1.5,2.4,2.3,4.6,2.3c1.8,0,3.2-0.4,4.2-1.3c1-0.9,1.5-2.2,1.5-4.1H472.8z"/>
	<polygon class="st1" points="503.4,155.9 493.5,155.9 493.5,182.7 485.6,182.7 485.6,155.9 475.9,155.9 475.9,149.7 503.4,149.7 	
		"/>
	<path class="st1" d="M535.6,166.9c0,3.2-0.6,6.1-1.8,8.5c-1.2,2.5-2.9,4.4-5.1,5.7c-2.2,1.3-4.7,2-7.5,2c-2.8,0-5.3-0.6-7.5-1.9
		c-2.2-1.3-3.9-3.1-5.1-5.5c-1.2-2.4-1.8-5.1-1.9-8.3v-1.9c0-3.2,0.6-6.1,1.8-8.5c1.2-2.5,2.9-4.4,5.1-5.7c2.2-1.3,4.7-2,7.5-2
		c2.8,0,5.3,0.7,7.5,2c2.2,1.3,3.9,3.2,5.1,5.7c1.2,2.4,1.8,5.3,1.8,8.4V166.9z M527.6,165.5c0-3.3-0.5-5.8-1.6-7.5
		c-1.1-1.7-2.7-2.5-4.7-2.5c-4,0-6.1,3-6.3,9l0,2.4c0,3.2,0.5,5.7,1.6,7.4c1.1,1.7,2.7,2.6,4.8,2.6c2,0,3.6-0.9,4.6-2.6
		c1.1-1.7,1.6-4.2,1.7-7.3V165.5z"/>
	<path class="st1" d="M560.7,149.7h7.9v32.9h-7.9v-20.8l-11.8,20.8h-7.9v-32.9h7.9v20.8L560.7,149.7z M563.2,140.9
		c0,2.1-0.8,3.7-2.3,5c-1.5,1.3-3.6,1.9-6.1,1.9s-4.6-0.6-6.1-1.9c-1.5-1.3-2.3-3-2.3-5h5.2c0,0.9,0.3,1.6,0.8,2.1
		c0.6,0.5,1.3,0.8,2.3,0.8c1,0,1.8-0.2,2.3-0.7c0.6-0.5,0.8-1.2,0.8-2.1H563.2z"/>
	<path class="st1" d="M602.5,149.7v32.9h-7.9v-12.2l-2.3,0.3l-2.9,0.2c-4.4,0-7.8-1-10.2-2.9c-2.4-1.9-3.5-4.6-3.6-8.2v-10.2h7.9
		v10.1c0,1.8,0.4,3.1,1.3,3.9c0.9,0.8,2.4,1.2,4.5,1.2l0.7,0c1.9-0.1,3.4-0.2,4.6-0.4v-14.7H602.5z"/>
	<polygon class="st1" points="628.4,149.7 636.3,149.7 636.3,182.7 628.4,182.7 628.4,161.9 616.5,182.7 608.6,182.7 608.6,149.7 
		616.5,149.7 616.5,170.5 	"/>
	<path class="st1" d="M642.8,182.7v-32.9h11.8c4.2,0,7.5,0.8,9.7,2.3c2.2,1.6,3.3,3.8,3.3,6.8c0,1.7-0.4,3.2-1.2,4.4
		c-0.8,1.2-1.9,2.1-3.5,2.7c1.7,0.5,3,1.3,4,2.5c0.9,1.2,1.4,2.7,1.4,4.5c0,3.2-1,5.7-3.1,7.3c-2,1.6-5.1,2.4-9.1,2.5H642.8z
		 M650.7,163.5h4.1c1.7,0,3-0.3,3.7-1c0.7-0.6,1.1-1.5,1.1-2.7c0-1.4-0.4-2.4-1.2-3c-0.8-0.6-2.1-0.9-3.9-0.9h-3.9V163.5z
		 M650.7,168.7v7.9h5.2c1.4,0,2.5-0.3,3.3-1c0.8-0.7,1.2-1.6,1.2-2.8c0-2.7-1.4-4.1-4.1-4.1H650.7z"/>
	<path class="st1" d="M702.2,166.9c0,3.2-0.6,6.1-1.8,8.5c-1.2,2.5-2.9,4.4-5.1,5.7c-2.2,1.3-4.7,2-7.5,2c-2.8,0-5.3-0.6-7.5-1.9
		c-2.2-1.3-3.9-3.1-5.1-5.5c-1.2-2.4-1.8-5.1-1.9-8.3v-1.9c0-3.2,0.6-6.1,1.8-8.5c1.2-2.5,2.9-4.4,5.1-5.7c2.2-1.3,4.7-2,7.5-2
		c2.8,0,5.3,0.7,7.5,2c2.2,1.3,3.9,3.2,5.1,5.7c1.2,2.4,1.8,5.3,1.8,8.4V166.9z M694.1,165.5c0-3.3-0.5-5.8-1.6-7.5
		c-1.1-1.7-2.7-2.5-4.7-2.5c-4,0-6.1,3-6.3,9l0,2.4c0,3.2,0.5,5.7,1.6,7.4c1.1,1.7,2.7,2.6,4.8,2.6c2,0,3.5-0.9,4.6-2.6
		c1.1-1.7,1.6-4.2,1.7-7.3V165.5z"/>
	<polygon class="st1" points="730.1,155.9 715.8,155.9 715.8,182.7 707.8,182.7 707.8,149.7 730.1,149.7 	"/>
	<path class="st1" d="M761.7,166.9c0,3.2-0.6,6.1-1.8,8.5c-1.2,2.5-2.9,4.4-5.1,5.7c-2.2,1.3-4.7,2-7.5,2c-2.8,0-5.3-0.6-7.5-1.9
		c-2.2-1.3-3.9-3.1-5.1-5.5c-1.2-2.4-1.9-5.1-1.9-8.3v-1.9c0-3.2,0.6-6.1,1.8-8.5c1.2-2.5,2.9-4.4,5.1-5.7c2.2-1.3,4.7-2,7.5-2
		c2.8,0,5.3,0.7,7.5,2c2.2,1.3,3.9,3.2,5.1,5.7c1.2,2.4,1.8,5.3,1.8,8.4V166.9z M753.6,165.5c0-3.3-0.5-5.8-1.6-7.5
		c-1.1-1.7-2.7-2.5-4.7-2.5c-4,0-6.1,3-6.3,9l0,2.4c0,3.2,0.5,5.7,1.6,7.4c1.1,1.7,2.7,2.6,4.8,2.6c2,0,3.5-0.9,4.6-2.6
		c1.1-1.7,1.6-4.2,1.7-7.3V165.5z"/>
	<path class="st1" d="M423.5,228.3V245h-9.8v-47.4h18.5c3.6,0,6.7,0.7,9.4,2c2.7,1.3,4.8,3.2,6.2,5.6c1.5,2.4,2.2,5.1,2.2,8.2
		c0,4.6-1.6,8.3-4.8,11c-3.2,2.7-7.6,4-13.2,4H423.5z M423.5,220.4h8.7c2.6,0,4.6-0.6,5.9-1.8c1.4-1.2,2-3,2-5.2
		c0-2.3-0.7-4.2-2.1-5.6c-1.4-1.4-3.3-2.2-5.7-2.2h-9V220.4z"/>
	<path class="st1" d="M480.1,235.2h-17.1l-3.3,9.8h-10.4l17.7-47.4h9.1l17.8,47.4h-10.4L480.1,235.2z M465.6,227.3h11.9l-6-17.8
		L465.6,227.3z"/>
	<path class="st1" d="M523.9,210.6c0-1.8-0.7-3.2-2.1-4.3c-1.4-1-3.3-1.5-5.6-1.5c-2.1,0-3.8,0.5-5.2,1.5c-1.4,1-2.1,2.4-2.1,4h-9.8
		c0-2.6,0.7-4.9,2.2-6.9c1.4-2.1,3.5-3.7,6.2-4.8c2.7-1.2,5.6-1.7,8.7-1.7c5.5,0,9.8,1.2,12.9,3.5c3.1,2.3,4.7,5.7,4.7,10
		c0,2.1-0.6,4.1-1.9,5.9s-3.1,3.2-5.4,4.3c2.6,0.9,4.6,2.3,6,4.2c1.4,1.9,2.1,4.2,2.1,6.9c0,4.3-1.7,7.6-5,10.1
		c-3.3,2.5-7.8,3.8-13.3,3.8c-3.5,0-6.6-0.6-9.3-1.8c-2.8-1.2-4.8-2.8-6.3-4.9c-1.4-2.1-2.1-4.4-2.1-7.2h9.8c0,1.7,0.7,3.1,2.2,4.3
		c1.5,1.1,3.4,1.7,5.7,1.7c2.6,0,4.7-0.6,6.2-1.8c1.5-1.2,2.3-2.7,2.3-4.5c0-2.5-0.7-4.3-2-5.3c-1.3-1.1-3.3-1.6-5.9-1.6h-5.8V217h6
		C521.6,216.9,523.9,214.8,523.9,210.6"/>
	<path class="st1" d="M544,245v-47.4h16.6c5.8,0,10.1,1.1,13.1,3.3c3,2.2,4.5,5.4,4.5,9.7c0,2.3-0.6,4.4-1.8,6.1
		c-1.2,1.8-2.9,3.1-5,3.9c2.4,0.6,4.4,1.8,5.8,3.7c1.4,1.8,2.1,4.1,2.1,6.8c0,4.6-1.5,8-4.4,10.4c-2.9,2.3-7.1,3.5-12.4,3.6H544z
		 M553.8,217.4h7.2c4.9-0.1,7.4-2.1,7.4-5.9c0-2.1-0.6-3.7-1.9-4.6c-1.2-0.9-3.2-1.4-5.9-1.4h-6.8V217.4z M553.8,224.3v12.8h8.4
		c2.3,0,4.1-0.5,5.4-1.6c1.3-1.1,1.9-2.6,1.9-4.5c0-4.3-2.2-6.6-6.7-6.6H553.8z"/>
	<polygon class="st1" points="617.4,197.6 627.2,197.6 627.2,245 617.4,245 617.4,213.5 598.4,245 588.6,245 588.6,197.6 
		598.4,197.6 598.4,229.1 	"/>
	<polygon class="st1" points="672.8,205.5 658.3,205.5 658.3,245 648.5,245 648.5,205.5 634.2,205.5 634.2,197.6 672.8,197.6 	"/>
	<polygon class="st1" points="709.2,197.6 719,197.6 719,245 709.2,245 709.2,213.5 690.2,245 680.4,245 680.4,197.6 690.2,197.6 
		690.2,229.1 	"/>
	<path class="st1" d="M751.7,245v-17.1h-8l-8.6,17.1h-10.6l10.1-20.2c-4.9-2.7-7.3-6.9-7.3-12.5c0-4.6,1.5-8.2,4.6-10.8
		s7.3-3.8,12.7-3.9h16.8V245H751.7z M737.2,212.9c0,2.7,0.6,4.6,1.9,5.8c1.3,1.2,3.2,1.8,5.8,1.8h6.7v-15H745
		C739.8,205.5,737.2,208,737.2,212.9"/>
	<polygon class="st1" points="496.4,4.5 511,4.5 511,63.9 539.5,63.9 539.5,4.5 554.2,4.5 554.2,63.9 563.9,63.9 562.9,87.2 
		549.2,87.2 549.2,75.7 496.4,75.7 	"/>
	<polygon class="st1" points="617.2,44.8 589,44.8 589,63.9 622.1,63.9 622.1,75.7 574.4,75.7 574.4,4.5 622,4.5 622,16.4 589,16.4 
		589,33.4 617.2,33.4 	"/>
	<path class="st1" d="M690,4.5v71.1h-14.7V16.4h-18.9l-1.2,25.1c-0.5,8.5-1.6,15.1-3.2,20c-1.7,4.9-4.1,8.4-7.3,10.7
		c-3.2,2.3-7.6,3.4-13.1,3.4h-3.8V63.9l2.4-0.2c3.7-0.5,6.3-2.6,7.9-6.4c1.6-3.8,2.6-10.5,3-20.1l1.2-32.6H690z"/>
	<polygon class="st1" points="746.9,4.5 761.6,4.5 761.6,75.7 746.9,75.7 746.9,28.4 718.5,75.7 703.8,75.7 703.8,4.5 718.5,4.5 
		718.5,51.9 	"/>
</g>
</svg>
