<svg xmlns="http://www.w3.org/2000/svg" width="810.83" height="250.57" viewBox="0 0 810.83 250.57"><defs><style>.cls-1{fill:#3a8dde;}.cls-2{fill:#00adee;}.cls-3{fill:#5fba46;}.cls-4{fill:#e4b634;}.cls-5{fill:#c4202e;}.cls-6{fill:#4d9f46;}.cls-7{fill:#3f7f44;}.cls-8{fill:#f9c213;}.cls-9{fill:#ee402b;}.cls-10{fill:#f89e28;}.cls-11{fill:#1896d3;}.cls-12{fill:#a11c44;}.cls-13{fill:#25bde2;}.cls-14{fill:#f16a2b;}.cls-15{fill:#e7223c;}.cls-16{fill:#dc1768;}.cls-17{fill:#17486a;}.cls-18{fill:#c7982e;}.cls-19{fill:#03699c;}</style></defs><title>Asset 3FRwhite</title><g id="Layer_2" data-name="Layer 2"><g id="OUTLINES"><path class="cls-1" d="M173,80.81c7.78,15,10,35.64,4.94,52.58-5.13,20-22,40.24-41.55,48.47-22.06,10.81-53.4,8.11-73.07-6C35.94,157.14,24.76,124.87,33,93c5-18.92,20.08-38,38.51-46.82a79,79,0,0,1,34-8.07C133.77,38.14,160.7,54.71,173,80.81Zm-65.89-39a52,52,0,0,1,.11,10.32,1.59,1.59,0,0,1,.34-.9c.52-.29,1,.15,1.2.53,0,.52.26,1.42-.19,1.72.45.07.67-.26,1.08-.26a55.65,55.65,0,0,1,23.6,7.18v-.19c1.46-.71,3.33-1.65,4.83-.37,1.79-.68,2.13,1.53,3.58,1.79,1.76,1,3.74,3,4,5,.33.67,1.38,1.16,1.53,1.87,1.2-2.54,3.59-4.34,5.65-6.54l1.27-.53c-11.29-10.77-24.72-16.71-39.68-18.77C112,42.26,109.35,42.48,107.07,41.77Zm-4.19.37c-15,.6-28.38,5.73-40.24,14.25-2.28,1.57-4.3,4-6.61,5.31h.33a64.16,64.16,0,0,1,8.27,8l.18-.52C75.73,59.2,88.45,53.74,103,53.07l-.33-.9-.12-9Zm12.83,5.65-5.39,2.32c-.44-.19-1.3-.41-1.6.19-.23.18,0,.45.07.63,2,2.55,5.42,1.12,7.89.64,1.8.75,3.52-.15,4.86-1.27V50C120.27,48.24,117.88,48,115.71,47.79ZM107,57l.37.71c-.07,3.48.15,7.18-.19,10.43,1.42-.48,2.88.12,4.3.15,7.33,1.2,14.25,3.55,20.12,8.08a5.35,5.35,0,0,1-1.72-2.69.41.41,0,0,1,.45-.15c.08-1.16-1.16-1.76-1.35-2.81a.78.78,0,0,1,.83-.33,24.16,24.16,0,0,1,3.29,3.85c.82-.34,1.49.19,2.09.63,1.09.64.41,2,1.24,2.77.15,2.21,2.84,3.44,2.69,5.65,0,.52.67.11.9.37l2.24,2.77a1.12,1.12,0,0,0,.37,1.53c1,.45,1.57-.82,2.58-.63,1.46.82-.22,1.79-.07,2.69.56,0,1.27-.45,1.72.11.19.83-.67,1.35-1,1.87,0,.82.67.64,1.27.82a1,1,0,0,1,.9,1.35c1.87,2-.56,4,.34,6.1.6,1.34-.15,2.65-1,3.66,0,1.65-1.46,2.66-2,4l-1.91.37c-1,1,.86,2.25-.15,2.88l4.19.08-.45-.45a6.17,6.17,0,0,1,.56-5.31c.64-1.35.79-2.95,2-4.11.26-.08.75-.57,1,0a7.53,7.53,0,0,1-.64,3.85c1.2,1.72,1.05,4,1.16,6.09,3.7-.22,7.33-.3,11-.26l-.34-.71a53.72,53.72,0,0,0-4.86-19.37c-.79,0-1.35.67-2.25.45a.7.7,0,0,1-.44-.75c-1.5-1.42-2.44-3.29-4.12-4.56-1.91.19-2.76-2-4.49-2.25-1.53-.63-.48-3.1-2.69-2.43a3.6,3.6,0,0,1-2.35-2.5c0-2-.38-4-2.14-5.31-1.34-.49-1.9,1.31-3.25,1-.75-.38-.41-1.35-.64-2s-.89-1-.78-1.72c1.76-2.32-2.13-2.29-1.27-4.57-.23-1.64-1.91-2.28-2.77-3.59a60.75,60.75,0,0,0-18.14-5.2C109.88,57.44,108.38,57.78,107,57Zm33.84.07c-.79.75-1.46-.67-2.17.19a1.55,1.55,0,0,0,.26,1.09c1.57.56,1.76,2.84,3.78,2.31.6-.67-.38-1.38-.19-2.24A2.22,2.22,0,0,0,140.84,57.1ZM73.71,67.16c-2.32,1.61-4.45,3.71-6.84,5.13,2.77,1.75,5,4.67,7.55,7l.27.71A44.84,44.84,0,0,1,97.12,68.62c2-.19,4-.86,5.91-.45A73.08,73.08,0,0,1,103,57.4,57.54,57.54,0,0,0,73.71,67.16Zm83.1-3.4a86.08,86.08,0,0,1-7.44,8l-1.28.26c.79.19,1,1.13,1.54,1.69,2.73,1.46,3.44,4.37,5.83,6,1.35,2.8,4.45,5,4.56,8.19a59.3,59.3,0,0,1,5.69,23.22l-.3.45a1.56,1.56,0,0,0,.9-.34l10.77-.18c-.71-1-.41-2.58-.6-3.86C175.06,90.57,168,76.32,156.81,63.76ZM54,64C43.31,75.88,36.73,89.41,34.82,104.86c-.41,2.24-.15,4.56-.6,6.84a74.35,74.35,0,0,1,11.56,0l-.26-1.46a60.68,60.68,0,0,1,11.22-32c1.68-1.91,2.91-4.3,5-5.73-2.43-2.28-5-4.93-7.52-7.44Zm49.17,7.82-.63.37c-9.5.68-17.73,4.64-24.94,10.59,2.84,2,5.38,5.16,8,7.44.19-.26.38-.53.56-.83,3.55-2.54,7.22-4.86,11.41-5.91,1.87-.18,3.7-1.08,5.64-.63A49.61,49.61,0,0,1,103.14,71.84Zm3.93.07.37.83-.07,10.13,1-.19c6.21.86,11.89,2.84,16.79,6.85l.27.78c1.68-2.35,4.22-4.37,6.2-6.62l1.87-1.08-.89-.38a43.69,43.69,0,0,0-13.47-7.77A66.31,66.31,0,0,0,107.07,71.91ZM64.18,74.72l-.08.71-4,5.12c-6.61,9.09-9.76,19.6-10.69,31l10.24-.19,1,.38c-.41-.27-.3-.71-.45-1.09C61,100,64.7,90.54,72.07,82.61A75.35,75.35,0,0,1,64.18,74.72Zm71.54,10.39-.19.45c-3.44,3.59-7.22,7.29-10.51,11a2.58,2.58,0,0,0,1,1.08c.15-.89.64-1.68.71-2.61.9-1.24,2.24-.45,3.4-.19,1.8-.41,3.48.41,5.32.37,1.34.68,1.45,2.4,2.69,3.07a1.06,1.06,0,0,1-.38,1.42c.38,2.81,1.72-.75,3.15-.07.59.22,1.34.15,1.79.78.22,1.16,1.65.94,1.72,2.06-.11.56-.71.71-1.08,1,.33,1.12-1.16,1.83-.64,3,2.17.41,2.24-2.1,3.25-3.22a20.22,20.22,0,0,0-2.09-5.65c-1.24-.26-2-1.72-3.22-2-2.39-.93.38-2.43.08-3.85A45,45,0,0,0,135.72,85.11Zm-60.85.38A44.1,44.1,0,0,0,64.81,106.2c-.41,1.8-.18,3.89-.89,5.58,1.31-.6,3.21-.38,4.67-.19-.86-.45-.15-1.53-.63-2.13-.12-.94-.27-2.1.63-2.69-.11-1.54,1.53-2.32,1.68-3.71.42-1.57,2.21-.52,3.07-1.34.56-.3.07-.83.07-1.24.75-1,1.91-1,2.81-1.53a8,8,0,0,1,2.51-2.62c2.24.08,2.28-3.06,4.41-3.14A88.66,88.66,0,0,1,74.87,85.49Zm32.31,1.23c.71,2.13.08,5.27.53,7.74l2.69.9c.78-1.31,2.51-1.57,3.25-2.8.49-.42,1,0,1.42.44a7.39,7.39,0,0,1-.45,3c-1,2-3.4,2.28-4.74,3.74.86.48,1.34-.42,2.05-.6a4.52,4.52,0,0,1,2.51,1.68c.67.3,1.31-.11,1.9-.34.42-3.1,4.31-2.65,5.46-5.57l-.71.26c-.29-.41-1-.22-1-.9a7.9,7.9,0,0,1,2.25-1.79,38.17,38.17,0,0,0-10.66-4.86A36.78,36.78,0,0,1,107.18,86.72ZM87.06,94.54h.83c.89.9,2.35.71,3,1.9.33.68-.64.6-.6,1.16.18.15.45.19.6.45.71.26.56-.41.82-.71.93-.93,1.08.9,2,.9a1.38,1.38,0,0,1,2,.26c.6-.52,1.87,0,2.06-1,1.16-1.23.52-3.14,2.24-3.92.6.33,0,.89.19,1.42,1.16.48,2.47-1,3.4.18-.86-2.43-.63-5.46-.56-8.15C97,87.81,91.48,89.86,87.06,94.54Zm18.14,6.2c-.6-.67-1.91-.26-2.69,0,.75.75.45,2.1.9,3-1.13,1.87-3,2.29-4.75,2.81-.49.6-.38,1.91-1.54,1.79-.37.83-1.64,1.31-1.16,2.51-.59,1.27-.3,2.92-.63,4.3-2.21,1.38-1.57-1.83-2.69-2.51l-.38.64c-.45.11-.75-.15-1.05-.45-.33-.11-.89-.22-1.19.08-.49.82-1.24,1.49-1,2.61-.22.68-1.35.45-1.19,1.16a20.86,20.86,0,0,0,3.77-.52c.86.22,1.57-.41,2.43-.45a.81.81,0,0,1,.53.9h.3a1.52,1.52,0,0,0,.59-1.8c.08-.78.94-.78,1.46-1,.49.23.19.72.26,1.09,1.69.63-.41,1.87-.63,2.77-.45.71,0,2.31-1.42,2.09a.54.54,0,0,1-.38-.64h-.18a1.93,1.93,0,0,0,1,1.69c1-.86,1.08-2.32,2.58-2.51.78-.82-.34-2.09.82-2.77,1.94,0,4-.86,5.57.71-.11.68-.37,1,.19,1.54a7.51,7.51,0,0,1-1.35,2.5,1.27,1.27,0,0,1-.37,1.42c-.53,2.29-3.14,1.2-4.68,2a11.91,11.91,0,0,0,8.27,2.24c1.61-.07.89-2.06,1.72-3,.52-2.62,2.91-.83,4.37-1.54a10.26,10.26,0,0,0,1.27-3.48,2.47,2.47,0,0,1-1-2.8c-.64-.86-.57-2.43-2-2.58a.75.75,0,0,1,.15-.9c0-.82.78-1.08,1-1.72-.86-.56-.64-1.79-.56-2.5-1.46.41-1.61-1.5-2.69-1.91-.27-.86-1.2-1-2-1.16-1.79.86-2.09-1.35-3.44-1.87-.15-.41-.45-1,0-1.35.67-.56,1.57-.07,2.36-.11ZM72.7,110c-3,1,.49,3.26-.26,5.13-.41,1.08-1.53.07-2.32.52l-.3,2c-.45,1.16-1.9.3-2.58,1.09-.48.74,0,1.53.45,2.13-1,2.39,2.36,3.14,2.32,5.31,1,1.34-.15,3.29,1.35,4.49.33,2.43-.34,5.72,1.79,7.62l.38,2.32c.45,1.61-1.91,1.2-1.61,2.62.45-.22.56.37.6.52v-.07a98.65,98.65,0,0,1,9.61-9.8l-1.42-1.42A37.29,37.29,0,0,1,75,119.59L73.86,119c0,1.2-.6,2.13-.52,3.33l-.38.45c-.78,0-1.27-.67-1.94-1.09-.15-.41-.56-1.08.08-1.42a1.27,1.27,0,0,1,.89.26c.34-.41.19-1,.38-1.53.11-.9-.68-1.72-.11-2.5.7-.08,1.23.78,1.53,1.27.71.22,1.27-.38,1.87-.64,0-.63.9-1.49-.08-1.87a8.78,8.78,0,0,0-.07-4.41C75.1,109.65,73.71,109.87,72.7,110Zm70,1.27c-.3.15-.71,0-1.09.08A2.69,2.69,0,0,1,142.71,111.25Zm-2.32,3.67,1.16,1.16c1.16.78.37,2.47,1.61,3.14,1.46.75,2,2.43,2.62,3.7a4.17,4.17,0,0,0,.33-1.08c.53-2.06.45-4.38,1.09-6.4C145,115.55,142.37,115.78,140.39,114.92Zm25.58.52-.64-.45.38,1a60.21,60.21,0,0,1-11.86,33.21c-1.38,1.65-2.69,3.67-4.41,4.82a79.76,79.76,0,0,1,8.34,8.19l.3-.56c11.44-13,17.95-28.15,18.66-45.66l.45-.89-.56.26Zm-15-.26c.23,2.28-.37,4.49-.52,6.73l1.23,1.35a1.36,1.36,0,0,1-.26,1.72,1.48,1.48,0,0,1-1.72-.11c-1.57,5-3.4,9.91-6.54,14.28-1.24,1.57-2.43,3.74-4,4.56l3.4,3c.19-.19.08-.49.11-.75,0-.45.23-1,.79-.9,1.65,0,1.68,1.72,2.62,2.62-.19,1.42,1,2.54.63,3.85,9.43-9.95,14.14-22.14,15-35.64l.52-.6c-3.36.34-6.91.11-10.39.15Zm-87.24.11.56.9c.07,2.47,1,4.82.52,7.33.42-.71.53-1.68,1.42-2.13.12-.68-.89-.86-.78-1.53.71-1.39,0-3.63,1.87-4.23C66,115.85,64.85,116.11,63.73,115.29Zm-18,.15-1,.38-10.39-.08a76.25,76.25,0,0,0,9.16,32.84c2.66,4.93,6.54,9.38,9.95,14l7.44-7.7.9-.38a22,22,0,0,1-3.48-3.59,5.09,5.09,0,0,1-3.14-2.39c-.38-.41,0-1.16-.45-1.46l-.45.56c-1.31.64-1.79-.71-2.69-1.27-1.16-.63-.6-2.84-2.17-2.43-.6,0-.79-.71-1.16-1.08-1.46.15-1.83-1.46-2.62-2.25-.15.34,0,.79-.45,1-1.49.34-2-1.49-3-2.24-.26.11-.45.41-.82.33a4.36,4.36,0,0,1-1.53-3.14c-1.24-1.38-.68-3.59-.45-5.27.22-.45.86-.71.75-1.27.33-.79,1.16-.86,1.94-.9a2,2,0,0,1,.75.71c.49-.3,1.57,0,1.16-1.05a4.89,4.89,0,0,1,2.43-.89A16.18,16.18,0,0,0,48,130.18l-.52-.83A59,59,0,0,1,45.7,118c0-.22-.48-.33-.18-.56l.07.12A11.81,11.81,0,0,1,45.7,115.44Zm14.63,0-.83.38c-3.47-.08-7.1.22-10.39-.27l.45.64.82,6.88c.33,2.66,1.49,5.2,1.42,7.82.41-.57.15-1.69,1.16-1.8-.41-.82.78-1.53.11-2.24.34-1.8.56-3.63,2.13-4.94,1.91-.07,2.06-2.58,4-2.69,1,0,1.57,1.27,2,1.72C60,119.48,60,117.09,60.33,115.44ZM79.55,120c1,1.95,1.6,4.15,2.69,6.1.67,1.72,2.17,3.06,2.84,4.75.71-1.35,2.13-2.43,3.14-3.67a1.92,1.92,0,0,0-.33-1.46c-.34-.78,0-1.9-.64-2.58-1,.34.34,1.31-.07,1.87a.59.59,0,0,1-.9-.45,2.48,2.48,0,0,1-1.8-1.68c.71-.45-.18-.63-.37-1-.37-.19-.41-.15-.71.19-.19,0-.41,0-.56-.08C82.84,119.89,80.45,121.16,79.55,120Zm11.74,3a5.44,5.44,0,0,1-1.53,2.43l.11.07c.9-.63,1.53-1.79,2.69-1.87Zm29.54,3.06a2.81,2.81,0,0,0,.6,1.8c1.46-.23.82,1.79,2.17,1.61.75-.23,0-.86.26-1.35-.22-1.12-1.31-1.23-2.06-1.91-.07-.22.08-.41.19-.6C121.43,125.31,121.17,125.65,120.83,126.06Zm21.17.08c-1.08-.08-2.39.56-3.33-.19-.34-.3-.56.15-.52.45-.38.56-.75,1.27-1.61,1-.67-.3-.67-1-.9-1.53a4,4,0,0,1-.18,1.15,12.85,12.85,0,0,0-1.61,2.51c-.79.86-2.06.56-2.88,1.27-.15,1.8-2.13,1.42-3.26,2-.07.23.19.27.3.45a1.45,1.45,0,0,0,1.61-.37c1.57.41,1.24-1.57,2.13-2.24.79-.12,1.54-.79,2.36-.27a5.35,5.35,0,0,1,.9,3.78c-.9.9-.45,2.36-1.09,3.4.15,1.24-1.34,1.8-1.16,3a2.62,2.62,0,0,1-2,.64,35.28,35.28,0,0,0-9.35-2.13.65.65,0,0,0-.45.71c1.34.71,3,.75,4.41,1.34,1.27.34,2.13,1.91,3.74,1.42,1.35-.74,3.59.45,4.49-1-.15-1.38,1-2.39,1.64-3.59l.45-.11c.75.78.71,1.94,1.05,2.8,1.05-1.12,1.87-2.35,2.8-3.51A33.23,33.23,0,0,0,145,125.61,11.14,11.14,0,0,0,142,126.14Zm-47.12,0c-1.61,2.61-4.68,5-6.92,7.44a28.52,28.52,0,0,0,13.46,6.21c.27-1-.15-2.28.38-3.14.37-.83,1.38-.79,2.13-.64a.63.63,0,0,0,.45-1c-1.09-.23-.6-1.42-1-2.1,0-.37.67-.3.52-.78-.75-.6.37-1.27-.26-1.91.26-.19.45-.6.82-.6-2.35,1.24-4.9-.26-7-1.19C96.53,127.89,95.1,127.33,94.88,126.14Zm21.73,6.54c-.11.3-.53.83,0,1,.89-.93,2.8-.9,2.88-2.24C118.18,131.26,117.5,132,116.61,132.68Zm4.22,2.81c-1.16,0-1.76.89-2.62,1.6-1,.6-1.57-1.12-2.43-.71,0,.19.23.27.38.34a.85.85,0,0,1,0,1.08c-1.27,1.16-1.87-.56-3.07-.44v.44c0,.27-.07.68-.45.53-.75-1.24-2.28-.79-3-1.87-.48-.26-.93.07-1.27.37-.26.56-1.46-.07-1.16.9-.93.34-1,1.35-1.72,1.94-1.16-.18-1.68,1.13-2.76,1.09.11.22,0,.6.33.63a3.83,3.83,0,0,0,2.17.27c1.12-1.8,3-.3,4.56-1,1,.19.3,1.24,1,1.61,1.54-.48,2.7,1.31,3.93.19-.08-1.76,1.91-1.61,3-2.06,1.68-1,3.59-2.35,3.4-4.6Zm-36.08,1a54.94,54.94,0,0,1-7.45,7.63c1.16.08,1.8,1.35,2.77,1.91,5.61,4.67,12.6,6.92,19.11,8.53l-1.79-.83c-1.35-1.53-3.26-3.33-3.33-5.46,1.34-.45,1.19-1.94,1.64-2.95a7.49,7.49,0,0,1,3.93-2.17c-3.78,1.57-7.07-1.23-10.21-2.69C87.81,139.3,85.72,138.33,84.75,136.53ZM136.69,147l-.26-.71a6.28,6.28,0,0,1-1.69,2.13c0,.59-.18,1.49.53,1.9,1.49.49,3.44,1.46,3.77,3.22-.59,1.65-3.73,3.14-1.79,4.94.63.9-.9,1.23-.64,2l.53-.71a52.21,52.21,0,0,0,6.65-5.57h.27c-.45-.15-1,.3-1.54.07a2.38,2.38,0,0,1-1.23-2.5Zm-60.13,1.42-.15-.26.15.45ZM77.75,150a1.7,1.7,0,0,1-.9-1.16Zm.26.29c.23.9,1.43,1.46,1.09,2.59-.64,1-1.95,1-3,1-2.13-.34-3.71,1.27-5.72,1.49-1.84.56-2.47-1.68-4.16-1.49,10.4,9.08,22.29,14.77,36.2,15.51l1,.71-.45-1.27V159l-.89.38A43.31,43.31,0,0,1,78,150.29Zm69.11,7-.19-.9c-1,2.06-3.36,3.37-5.12,4.94-2.43,2.43-6.39,2.95-7.63,6.47-1.31,1.19-1.76,3.06-3.59,3.74-.67,1.79-2.58,1.68-3.66,3-3.14,2.8-5.16-1.8-8-2.36l-5.72,1c-2,0-4,.71-5.83.08a88.45,88.45,0,0,1,0,11.74l.71-.45c18-.78,33.58-7.63,46.93-19.75Zm-83-.11-.11.45-7.7,7.74C68,175.46,81.12,182,96.15,184c2.4.42,5.12.19,7.44.9L103,184V173.89l.38-.56-1.16.3C87.66,172.62,74.76,167.46,64.1,157.18Zm42.71,2.62.56.82c0,3.06.37,6.2,0,9.23,2.77-.93,6-.78,9-1.27a3.11,3.11,0,0,1-1.64-1c-1.76-.11-2.58-2-3.14-3.33-.26-1,.41-1.83.82-2.69-.75-1.53-3.07-.41-4.41-1C107.59,160.32,107.33,159.87,106.81,159.8Z"/><path class="cls-1" d="M175.58,52.28c5.5,4.9,8,11.26,9.57,17.84l.9,2.09a78.78,78.78,0,0,1-20.27-21.54l-6.2-6.28C165,46.71,170.91,48.09,175.58,52.28Z"/><path class="cls-1" d="M36.54,62c-3.66,4.53-8.34,7.52-12.49,11.41,2.24-4.64,2.32-10.18,5.5-14.44,4.52-7.89,12.9-10.66,20.38-13.57C44.43,50.26,40.62,56.36,36.54,62Z"/><path class="cls-1" d="M195,70.31c1.75,7.85-.79,15.51.82,23.44l-.08.08c-4.26-8.42-13.35-12.38-19.59-19.11-3.63-4-5.2-8.87-6.1-14,3.59,8.64,13.24,10.55,18.77,17.8,1.88,1.69,2.48,4,3.67,5.91l.19-.18c-3.18-6.81-4.26-14.48-6.47-21.73A17,17,0,0,0,180,54.26C187.21,55.76,193.53,63.35,195,70.31Z"/><path class="cls-1" d="M29.74,55.61c-7.41,5.08-6.92,14.21-9.28,21.8-.75,2.8-2.06,5.39-2.69,8.26l.19.15a25.64,25.64,0,0,1,6.09-9C29.32,72,37.1,69,39.68,61.78c-.11,10-8.45,17.84-16.41,23.45C20,88.11,16.8,91.4,15,95.1c-.19-2.51.38-5,.19-7.74-.86-8.72-1.5-18.66,4.67-25.13A18.57,18.57,0,0,1,29.74,55.61Z"/><path class="cls-1" d="M199.7,72c6.62,9,8.08,23.26,3.26,33.55a58.72,58.72,0,0,0-3.78,13.84c-.34-.83-.41-2-.71-2.88-2.62-10.06-12.16-17.24-16.08-26.74a49.67,49.67,0,0,1-2.88-9.69c4.19,7.74,14.51,11.75,17.31,20.27,1.16,2.17,1.09,4.86,1.8,7.18a.29.29,0,0,0,.3-.26,97.92,97.92,0,0,1,.33-26.66c-.07-4.72-.52-9.28-3.14-12.91C197.79,68.7,198.54,70.57,199.7,72Z"/><path class="cls-1" d="M13.92,69.22c-5.69,8.64-1,19.52-1.24,29.36l-.74,10.06c.11.07.11.37.37.26.33-1.12.41-2.32.64-3.48,1.34-8.11,8.37-13.87,14.54-19.48a15.78,15.78,0,0,0,3.14-4.68,41.35,41.35,0,0,1-3.44,11.86c-4.78,9.35-13.65,17-15.25,27.71-.79-10.25-7.78-17.92-7.07-28.8-.23-8.82,3.44-16,8.6-22.62C13.62,69.33,13.73,69.18,13.92,69.22Z"/><path class="cls-1" d="M205.91,130.25c-3.93,5.57-8.68,10.77-12.3,16.46.41-4.49.93-10-.83-14.29-3-9.16-5.68-18.47-6.54-28.53l.11-3.86c2.28,10.29,12.38,17.36,11.74,28.87.23,2.81-.63,5.16-1.16,7.63l.19.19.45-.52c1.5-5.65,2.24-11.6,4.56-16.87,3.33-7.59,7.44-15.26,5.76-24.42C212.94,105.72,211.41,120.15,205.91,130.25Z"/><path class="cls-1" d="M11,126.66c1.08,3.78,1.34,7.86,2.88,11.41.15.07.26-.08.37-.19-3.85-10.77,1.68-20.76,7.26-29.17a28.34,28.34,0,0,0,2.8-7.44c.6,4.86-.63,10.47-1.35,15.52-1.34,6.43-3.36,12.53-5.12,18.77-1.16,3.89-.86,8.3-.26,12.38l-.56-.45C13,140,4.9,134.1,2.51,125.88c-2-6.55-3.29-14.14-1.94-21.28a39.54,39.54,0,0,1,2.32-8.16C.6,108.11,8.46,116.53,11,126.66Z"/><path class="cls-1" d="M190.46,147.94a26.76,26.76,0,0,1-4.56,13.57h.45c3.59-4.71,6.4-9.72,10.58-14.21,6.51-6.28,13.13-12.71,14-21.42,2.21,14.54-5.95,27.29-18,35.52-5,3.26-10,6.28-14.81,10v-.45c7.33-12.19,3.73-28.91,8.26-42.3l1.68-4.48C187.1,132.49,190.73,139.56,190.46,147.94Z"/><path class="cls-1" d="M29.88,164.47c.79,2.76,2.4,5.23,3.44,7.89C22.18,164.77,7,157.55,2.06,143.64,0,138.85-.26,132.91.19,127.41c.9,12.38,14.21,18.92,20.38,29.17,1.46,2.09,2.73,4.41,4.68,6.17-.3-1.31-1.53-2.43-2-3.78a26.65,26.65,0,0,1-2.44-14.62c.6-6.32,3.26-12.19,2.25-18.85C28.5,137.21,26.86,151.79,29.88,164.47Z"/><path class="cls-1" d="M173.86,173.71a37.31,37.31,0,0,1-7.63,9.16c1,0,1.83-.9,2.69-1.46,8-8,18.52-10.25,27.19-16.75,3.48-2.77,6.66-6.4,8.19-10.33-1.64,13.28-14.85,25.73-27.3,29.69-6.43,1.73-13.31,2.29-19.56,4.42,10.59-9.09,10-23.15,17.06-33.84,2.24-3,4.11-6.21,6.73-9.09C176.93,154.15,178.8,165.33,173.86,173.71Z"/><path class="cls-1" d="M40.32,162.49c3.74,9.2,5.16,19.59,13.8,26.55-9.35-3.07-20.31-2.21-28.54-8-9-5.53-17-14.92-18.73-25.24,6.21,14.06,21.76,15.22,32.2,23.78a25.82,25.82,0,0,0,6.09,4.16l.12-.12c-2.4-2.17-5.17-4.64-6.85-7.44-6.09-8.49-4-20.38-8.53-29.5A68.46,68.46,0,0,1,40.32,162.49Z"/><path class="cls-1" d="M151.24,189.86c-2.28,1.5-5.17,1.76-7.52,2.88,3.36.07,6.43-1.12,9.76-1.46,12.34-1.94,26.48,0,35.11-10.47-3.21,7.33-11.25,13.46-18.58,16-12.6,4.75-25.28-1.08-37.36-3l-2.32-.3v-.07c5.76-1.31,11.37-3,16-7.18,6.77-6.51,12.79-13.2,20.31-18.32C161,175.09,160.44,185.26,151.24,189.86Z"/><path class="cls-1" d="M64.74,186.46c4.78,4.19,10.54,6.13,16.6,7.36-1.46.53-3.36.38-4.93.79-10.89,2.69-23,7.07-34.56,3.14-7.51-2.35-15.26-8.3-19-15.71,9.94,11.34,26.21,7.56,39.49,10.51,1.87.26,3.59,1,5.57.71-1.57-1-3.78-.89-5.5-1.79C52,187.8,50.45,176.55,44.81,169,52,173.74,58.08,180.21,64.74,186.46Z"/><path class="cls-1" d="M146,201.79c8.08,3,18.55,2.17,25.47-2.77A30.27,30.27,0,0,1,158,208.45c-11.22,4.19-22.93-.19-31.68-6.85-3.55-2.24-6.69-5.5-11.29-5.2a16.13,16.13,0,0,0-4.68.45A86.73,86.73,0,0,1,134,213.27a36.35,36.35,0,0,1-4.29,3.89c-7-7.52-14.7-14.73-23.34-19a14.89,14.89,0,0,0-4.82,2.06,72.3,72.3,0,0,0-19.23,17.16l-4.48-3.7a82,82,0,0,1,23.78-16.94c-8.53-2.69-14.1,4.45-20.57,8.08-7.55,5.27-18.4,7.74-27.52,4.11-4.9-1.87-9.65-4.6-13.2-9.05,7.18,4.94,17.87,5.46,26,2.24,11-4.75,22.32-10.77,35.52-7.89,2.06,0,4.08,2.1,6,.34a42.2,42.2,0,0,1,29.36,3.7Z"/><path class="cls-2" d="M301.58,160.65H334.8c26.77,0,42.5,15.73,42.5,44.14,0,28.17-19.49,44.14-42,44.14H301.58ZM334.1,233.9c18.07,0,24.88-15.49,24.88-29.23,0-14.79-6.34-29-26.29-29h-13.5V233.9Z"/><path class="cls-2" d="M440.91,160.65h17.61V212.3c0,27.59-17.49,38.27-36.74,38.27S385,239.89,385,212.3V160.65h17.6v51.77c0,14.67,6.58,22.42,19.14,22.42s19.13-7.75,19.13-22.42Z"/><path class="cls-2" d="M498.07,214.06H487.74v34.87h-17.6V160.65h33c18.55,0,29.12,11.62,29.12,26.29,0,9.28-5,21.37-16.44,24.77l20.54,37.22h-21Zm1.41-14.32c12.09,0,15.15-6.45,15.15-12.09,0-6.34-3.06-12-15.73-12H487.74v24.06Z"/><path class="cls-2" d="M589.87,230.5H557.59l-5.76,18.43h-19L565,160.65h18.55l31.69,88.28H595.85Zm-16-48.6h-.23l-11.16,34.28h22.66Z"/><path class="cls-2" d="M619.09,160.65h31.34c18.78,0,28.53,9.63,28.53,23.95,0,9.74-5.52,15.26-11.86,18.19V203c7.87,1.88,14.67,9,14.67,20.07,0,16.2-12.44,25.83-30.63,25.83h-32Zm28.29,36.27c8.33,0,14-3.75,14-10.8,0-7.27-5.4-10.44-12.44-10.44H636.7v21.24Zm.94,37c11.15,0,15.14-4.93,15.14-11.15,0-5.63-3.52-11.5-13.73-11.5h-13V233.9Z"/><path class="cls-2" d="M690.33,160.65h17.61v71.84h33.93v16.44H690.33Z"/><path class="cls-2" d="M748.56,160.65H804.9v15.73H766.16v20.07h37.69v15.73H766.16v21H804.9v15.73H748.56Z"/><path class="cls-2" d="M301.58,102h15c12.1,0,19.22,7.11,19.22,20s-8.81,20-19,20H301.58Zm14.7,33.12c8.18,0,11.26-7,11.26-13.22,0-6.68-2.87-13.11-11.89-13.11h-6.11v26.33Z"/><path class="cls-2" d="M339.69,102h25.48v7.11H347.65v9.08h17v7.11h-17v9.5h17.52v7.12H339.69Z"/><path class="cls-2" d="M380.5,102h15c12.1,0,19.21,7.11,19.21,20s-8.81,20-19,20H380.5Zm14.71,33.12c8.17,0,11.25-7,11.25-13.22,0-6.68-2.86-13.11-11.89-13.11h-6.1v26.33Z"/><path class="cls-2" d="M418.61,102h25.48v7.11H426.58v9.08h17v7.11h-17v9.5h17.51v7.12H418.61Zm13.7-9.71h7.16L432,99.69h-4.4Z"/><path class="cls-2" d="M469.73,102h8.6l-12.95,39.92H457L444,102h8.76l8.55,29.35h.1Z"/><path class="cls-2" d="M480.08,102h25.47v7.11H488v9.08h17v7.11H488v9.5h17.51v7.12H480.08Z"/><path class="cls-2" d="M509.32,102h8v32.48h15.34v7.44h-23.3Z"/><path class="cls-2" d="M553.32,101.23c12.42,0,19.43,10,19.43,20.7s-7,20.7-19.43,20.7-19.43-10-19.43-20.7S540.9,101.23,553.32,101.23Zm0,7.11c-7.43,0-11.14,6.42-11.14,13.59s3.71,13.59,11.14,13.59,11.15-6.43,11.15-13.59S560.75,108.34,553.32,108.34Z"/><path class="cls-2" d="M576.62,102h13c6.26,0,13.85,2.87,13.85,12.69,0,9.18-6.85,12.63-13.22,12.63h-5.68v14.6h-8ZM589,120.49c5.26,0,6.48-3.18,6.48-5.83s-1.86-5.9-6.42-5.9h-4.52v11.73Z"/><path class="cls-2" d="M605.87,102h13c6.27,0,13.86,2.87,13.86,12.69,0,9.18-6.85,12.63-13.22,12.63h-5.68v14.6h-8Zm12.42,18.52c5.25,0,6.47-3.18,6.47-5.83s-1.85-5.9-6.42-5.9h-4.51v11.73Z"/><path class="cls-2" d="M635.11,102h25.48v7.11H643.07v9.08h17v7.11h-17v9.5h17.52v7.12H635.11Z"/><path class="cls-2" d="M698,115.24h-.1l-10.67,26.65h-4.46l-10.67-26.12H672v26.12h-7.64V102h9.07L685,129.15,696.58,102h9.08v39.92H698Z"/><path class="cls-2" d="M711.28,102h25.47v7.11H719.24v9.08h17v7.11h-17v9.5h17.51v7.12H711.28Z"/><path class="cls-2" d="M748.27,114.66h-.11v27.23h-7.64V102h8.55l16.19,26.8h.1V102H773v39.92h-8.23Z"/><path class="cls-2" d="M786.43,109.08H775.92V102h29v7.11H794.39v32.81h-8Z"/><path class="cls-3" d="M318.15,30.75a23.14,23.14,0,0,1,3.65-4.7l-12-13.14a41.34,41.34,0,0,0-7.61,9.9Z"/><path class="cls-4" d="M347.52,21.47a22.75,22.75,0,0,1,5,3.15l12-13.12a40.94,40.94,0,0,0-10.65-6.65Z"/><path class="cls-5" d="M375,25.42l-15.93,7.94a23.11,23.11,0,0,1,1.6,5.62l17.71-1.67A40.37,40.37,0,0,0,375,25.42"/><path class="cls-6" d="M358,31.06l15.92-7.94a40.51,40.51,0,0,0-7.44-9.88l-12,13.11A22.92,22.92,0,0,1,358,31.06"/><path class="cls-7" d="M315,42.37c0-.36,0-.71,0-1.07l-17.72-1.59c-.05.88-.09,1.77-.09,2.66a41.09,41.09,0,0,0,1.21,9.86l17.11-4.91a23.1,23.1,0,0,1-.54-5"/><path class="cls-8" d="M355.74,56.94A23.1,23.1,0,0,1,351.42,61l9.36,15.15a41.16,41.16,0,0,0,9.16-8.51Z"/><path class="cls-9" d="M361,42.37a22.48,22.48,0,0,1-.53,4.89l17.11,4.92a40.67,40.67,0,0,0,1.2-9.81c0-.84,0-1.67-.08-2.5l-17.72,1.67c0,.28,0,.56,0,.83"/><path class="cls-10" d="M320.49,57.27,306.32,68a41.45,41.45,0,0,0,9.25,8.38l9.36-15.13a22.92,22.92,0,0,1-4.44-4"/><path class="cls-11" d="M315.27,38.74A22.78,22.78,0,0,1,317,33l-15.92-7.93a40.43,40.43,0,0,0-3.51,12Z"/><path class="cls-12" d="M358.6,77.52l-9.34-15.13a23.09,23.09,0,0,1-5.46,2.22l3.3,17.5a40.77,40.77,0,0,0,11.5-4.59"/><path class="cls-13" d="M359.75,49.74a22.9,22.9,0,0,1-2.49,5.12l14.21,10.72a40.3,40.3,0,0,0,5.37-10.93Z"/><path class="cls-14" d="M341.29,65.12a24.25,24.25,0,0,1-3.32.24,23.8,23.8,0,0,1-2.68-.16L332,82.7a40.53,40.53,0,0,0,6,.44,41.13,41.13,0,0,0,6.61-.54Z"/><path class="cls-15" d="M339.44,19.43a22.85,22.85,0,0,1,5.69,1.1l6.39-16.61a40.3,40.3,0,0,0-12.08-2.28Z"/><path class="cls-16" d="M332.76,64.76a23,23,0,0,1-5.64-2.13l-9.36,15.14a40.64,40.64,0,0,0,11.71,4.47Z"/><path class="cls-17" d="M331.06,20.45a22.83,22.83,0,0,1,5.81-1V1.62a40.94,40.94,0,0,0-12.24,2.23Z"/><path class="cls-18" d="M318.93,55.23a22.67,22.67,0,0,1-2.71-5.44l-17.1,4.91A40.49,40.49,0,0,0,304.76,66Z"/><path class="cls-19" d="M323.73,24.34a23,23,0,0,1,4.93-3L322.23,4.77a40.8,40.8,0,0,0-10.49,6.43Z"/><path class="cls-1" d="M384,1.45h27.75C428.33,1.45,437,10,437,22.65c0,8.63-4.89,13.52-10.5,16.11V39c7,1.66,13,8,13,17.77,0,14.34-11,22.86-27.12,22.86H384Zm25,32.12c7.38,0,12.37-3.33,12.37-9.56,0-6.45-4.78-9.25-11-9.25h-10.8V33.57Zm.83,32.73c9.88,0,13.41-4.36,13.41-9.87,0-5-3.12-10.18-12.16-10.18H399.55v20Z"/><path class="cls-1" d="M440.9,1.45h35.75V53c0,24.73-14.76,27.23-30.55,27.23h-5V66.93h8c7.59,0,11.95-2.29,11.95-10.4V15.38H440.9Z"/><path class="cls-1" d="M486.93,1.45h49.89V15.38h-34.3V33.15h33.36V47.08H502.52v18.6h34.3V79.6H486.93Z"/><path class="cls-1" d="M595.42,29.2c-2.28-10.08-9.15-15.27-18.08-15.27-12.68,0-20.37,12.16-20.37,26.7,0,16.53,8.1,26.5,20.78,26.5,7.49,0,14.76-5,17.46-13.82l16,1.15c-5.41,17.45-18.08,26.6-34.09,26.6-21.2,0-36.37-14.34-36.37-40.53C540.76,16.94,555.62,0,577.13,0c16.42,0,29.93,8.11,34,28.16Z"/><path class="cls-1" d="M634.07,15.38H613.49V1.45h56.74V15.38H649.66V79.6H634.07Z"/><path class="cls-1" d="M676.77,1.45h15.59V79.6H676.77Z"/><path class="cls-1" d="M704.21,1.45H750V15.38H719.79V33.15h29.52V47.08H719.79V79.6H704.21Z"/><path class="cls-1" d="M793.57,22c0-5.4-5.19-8.73-11.43-8.73-7.79,0-12.47,3.43-12.47,8.63,0,5.4,5.2,8,9,9.25l14.34,4.57c10.4,3.32,17.78,9.35,17.78,21.41,0,9.56-6.86,23.9-28.48,23.9-27.12,0-29.62-17.56-29.62-24.53l15.59-.31c0,8.31,6.55,11.54,14.13,11.54,5.3,0,12.79-2.6,12.79-8.63,0-4.16-1.77-6.34-9.46-9.14l-17-6.14c-8.63-3.11-14.66-10.7-14.66-19.53,0-10,6.86-24.32,27.13-24.32,24.11,0,27.95,16,27.95,21.72Z"/></g></g></svg>