<svg xmlns="http://www.w3.org/2000/svg" width="763.86" height="246.79" viewBox="0 0 763.86 246.79"><defs><style>.cls-1{fill:#00adee;}.cls-2{fill:#3a8dde;}.cls-3{fill:#5eba47;}.cls-4{fill:#e4b633;}.cls-5{fill:#c4202e;}.cls-6{fill:#4b9e46;}.cls-7{fill:#407f44;}.cls-8{fill:#f9c213;}.cls-9{fill:#ee402b;}.cls-10{fill:#f89d28;}.cls-11{fill:#1995d3;}.cls-12{fill:#a11c43;}.cls-13{fill:#27bce1;}.cls-14{fill:#f16a2b;}.cls-15{fill:#e7223b;}.cls-16{fill:#dc1768;}.cls-17{fill:#17486a;}.cls-18{fill:#c6972d;}.cls-19{fill:#03699c;}</style></defs><title>SDGsAsset 5EN</title><g id="Layer_2" data-name="Layer 2"><g id="OUTLINES"><path class="cls-1" d="M298.35,73.71h16.58c14.89,0,24.5,10.27,24.5,25.32v.66c0,15-9.61,25.38-24.5,25.38H298.35ZM309,83.32v32.14h5.86c8.08,0,13.58-5.65,13.58-15.85v-.36c0-10.2-5.5-15.93-13.58-15.93Z"/><path class="cls-1" d="M345.08,73.71h33.09v9.61H355.64V94.4h19.82V104H355.64v11.45h22.82v9.61H345.08Z"/><path class="cls-1" d="M380.22,73.71h11.52l10.86,35.37,10.86-35.37h11.23l-17.32,51.66h-9.83Z"/><path class="cls-1" d="M428.35,73.71h33.09v9.61H438.92V94.4h19.81V104H438.92v11.45h22.82v9.61H428.35Z"/><path class="cls-1" d="M467.38,73.71H478v41.6h20.77v9.76H467.38Z"/><path class="cls-1" d="M498.71,99.91V99c0-15.41,9.69-26.2,23.26-26.2s23.19,10.71,23.19,26.05v.88c0,15.33-9.69,26.19-23.26,26.19S498.71,115.24,498.71,99.91Zm35.44-.22v-.52c0-10.12-5.13-16.51-12.25-16.51S509.64,89,509.64,99.1v.51c0,10.13,5.21,16.51,12.33,16.51S534.15,109.81,534.15,99.69Z"/><path class="cls-1" d="M550.88,73.71H568c11.52,0,18.78,6.68,18.78,17.61v.15c0,11.81-8.43,17.75-19.22,18h-6v15.62H550.88Zm16.58,26.2c5.5,0,8.58-3.45,8.58-8.22v-.07c0-5.36-3.08-8.3-8.73-8.3h-5.79V99.91Z"/><path class="cls-1" d="M591,73.71h11.15l11.45,20.84,11.3-20.84h11.22v51.36H625.72V92.27l-12.11,21.21h-.22l-12-21.06v32.65H591Z"/><path class="cls-1" d="M643.69,73.71h33.09v9.61H654.25V94.4h19.81V104H654.25v11.45h22.82v9.61H643.69Z"/><path class="cls-1" d="M682.72,73.71h9.76l19.66,29.94V73.71h10.42v51.36h-9.1L693.13,94v31H682.72Z"/><path class="cls-1" d="M740,83.54H727V73.71h36.4v9.83H750.51v41.53H740Z"/><path class="cls-1" d="M294.6,49.49l6.92-8.61c3.79,3.3,8.37,6.36,14,6.36,4.5,0,7.24-2.26,7.24-5.56V41.6c0-2.81-1.61-4.58-9.66-7.64-10-3.86-16.17-7.65-16.17-17.3V16.5c0-9.82,7.56-16.5,18.42-16.5a26.78,26.78,0,0,1,18.19,6.92L327,15.77c-3.54-2.89-7.64-5.23-12-5.23-4,0-6.52,2-6.52,4.91v.08c0,3.22,1.94,4.75,10.71,8.37C329,27.76,334.35,32,334.35,40.72v.16c0,10.46-8,16.9-18.91,16.9A30.27,30.27,0,0,1,294.6,49.49Z"/><path class="cls-1" d="M339.26,35.17V.72h11.67V35.25c0,8,3.78,11.91,9.81,11.91s9.82-3.87,9.82-11.67V.72h11.59v34.2c0,15.53-8.53,23-21.57,23S339.26,50.37,339.26,35.17Z"/><path class="cls-1" d="M385.61,49.49l6.92-8.61c3.78,3.3,8.37,6.36,14,6.36,4.5,0,7.24-2.26,7.24-5.56V41.6c0-2.81-1.61-4.58-9.66-7.64-10-3.86-16.17-7.65-16.17-17.3V16.5c0-9.82,7.56-16.5,18.43-16.5a26.76,26.76,0,0,1,18.18,6.92L418,15.77c-3.55-2.89-7.65-5.23-12-5.23-4,0-6.52,2-6.52,4.91v.08c0,3.22,1.93,4.75,10.7,8.37,9.82,3.86,15.13,8.05,15.13,16.82v.16c0,10.46-8,16.9-18.91,16.9A30.25,30.25,0,0,1,385.61,49.49Z"/><path class="cls-1" d="M440.56,11.51H426.4V.72h39.91V11.51H452.15V57.05H440.56Z"/><path class="cls-1" d="M481.36.4h11.1l20.2,56.65H500.59L496.4,44.82H477l-4.1,12.23H461.16Zm11.5,34.12-6.11-18.35-6.2,18.35Z"/><path class="cls-1" d="M517.08.72h11.67V57.05H517.08Z"/><path class="cls-1" d="M537.44.72h10.7l21.57,32.84V.72h11.42V57.05h-10L548.86,23v34H537.44Z"/><path class="cls-1" d="M605.35.4h11.1l20.2,56.65H624.58L620.4,44.82H601l-4.1,12.23H585.15Zm11.51,34.12-6.12-18.35-6.2,18.35Z"/><path class="cls-1" d="M640.67.72h20.92c6.28,0,11.51,1.69,14.73,4.91a13.08,13.08,0,0,1,3.78,9.58v.24c0,6.6-3.62,10.14-7.64,12.31,6,2.34,10,6,10,13.44v.4c0,10.14-8.12,15.45-20.35,15.45H640.67ZM668.59,17.3c0-4.1-2.89-6.28-7.88-6.28H652V23.74h8.12c5.15,0,8.45-2.09,8.45-6.36Zm-6.35,16.26H652V46.75h10.46c5.23,0,8.53-2.25,8.53-6.6v-.08C671,36.05,668,33.56,662.24,33.56Z"/><path class="cls-1" d="M688,.72h11.67V46.35h22.77v10.7H688Z"/><path class="cls-1" d="M727.25.72h36.29V11.27h-24.7V23.42h21.72V34H738.84V46.51h25V57.05H727.25Z"/><path class="cls-2" d="M170.26,78.86c7.66,14.76,9.83,35.08,4.86,51.76-5.05,19.69-21.61,39.61-40.9,47.71-21.72,10.64-52.57,8-71.93-5.89C35.38,154,24.37,122.23,32.51,90.86c4.93-18.62,19.77-37.44,37.92-46.09a77.78,77.78,0,0,1,33.49-8C131.68,36.86,158.19,53.17,170.26,78.86ZM105.4,40.43a51.92,51.92,0,0,1,.11,10.16,1.53,1.53,0,0,1,.33-.88c.52-.3,1,.14,1.18.51,0,.52.25,1.4-.19,1.7.44.07.67-.26,1.07-.26a54.8,54.8,0,0,1,23.23,7.07v-.19c1.43-.7,3.28-1.62,4.75-.37,1.76-.66,2.1,1.51,3.53,1.77,1.73,1,3.68,3,3.9,5,.33.66,1.37,1.14,1.51,1.84,1.18-2.5,3.54-4.27,5.56-6.44l1.25-.52c-11.11-10.6-24.33-16.45-39-18.48C110.22,40.91,107.64,41.13,105.4,40.43Zm-4.13.37c-14.79.59-27.94,5.63-39.6,14-2.25,1.55-4.24,3.91-6.52,5.23h.33a63.43,63.43,0,0,1,8.14,7.84l.18-.51c10.75-9.79,23.27-15.17,37.62-15.83l-.33-.89L101,41.83Zm12.63,5.56-5.3,2.28c-.44-.18-1.29-.41-1.58.18-.22.19,0,.45.07.63,2,2.5,5.34,1.1,7.77.63,1.77.73,3.46-.15,4.78-1.26v-.25C118.39,46.8,116,46.54,113.9,46.36Zm-8.58,9.09.37.7c-.07,3.42.15,7.07-.18,10.27,1.4-.48,2.83.11,4.23.15,7.22,1.18,14,3.49,19.81,8a5.27,5.27,0,0,1-1.7-2.65.4.4,0,0,1,.45-.15c.07-1.14-1.15-1.73-1.33-2.76a.75.75,0,0,1,.81-.33A23.85,23.85,0,0,1,131,72.42c.81-.33,1.47.18,2.06.63,1.07.62.41,2,1.22,2.72.14,2.17,2.79,3.39,2.65,5.56,0,.51.66.11.88.37L140,84.42a1.09,1.09,0,0,0,.36,1.51c1,.44,1.55-.81,2.54-.63,1.44.81-.21,1.77-.07,2.65.55,0,1.25-.44,1.7.11.18.82-.67,1.33-1,1.85,0,.81.66.62,1.25.81a1,1,0,0,1,.89,1.32c1.84,1.92-.56,4,.33,6,.59,1.33-.15,2.61-1,3.61,0,1.62-1.44,2.61-2,4l-1.88.37c-1,1,.84,2.21-.15,2.84l4.12.07-.44-.44a6.1,6.1,0,0,1,.55-5.23c.63-1.32.78-2.91,2-4,.25-.07.73-.55.95,0a7.3,7.3,0,0,1-.62,3.79c1.17,1.7,1,3.91,1.14,6,3.64-.22,7.21-.29,10.78-.25l-.33-.7A52.93,52.93,0,0,0,154.36,89c-.78,0-1.33.66-2.21.44a.68.68,0,0,1-.44-.74c-1.48-1.39-2.4-3.24-4.05-4.49-1.88.19-2.72-2-4.42-2.21-1.51-.62-.48-3-2.65-2.39a3.54,3.54,0,0,1-2.32-2.46c0-1.92-.37-4-2.1-5.23-1.32-.48-1.87,1.29-3.2,1-.74-.37-.41-1.32-.63-2s-.88-1-.77-1.69c1.73-2.28-2.1-2.25-1.25-4.49-.22-1.62-1.88-2.25-2.73-3.54a59.48,59.48,0,0,0-17.85-5.11C108.16,55.86,106.69,56.19,105.32,55.45Zm33.32.07c-.77.74-1.44-.66-2.14.19a1.57,1.57,0,0,0,.26,1.07c1.55.55,1.73,2.79,3.72,2.28.59-.67-.37-1.37-.19-2.21A2.19,2.19,0,0,0,138.64,55.52ZM72.56,65.43c-2.28,1.58-4.38,3.64-6.73,5,2.72,1.73,5,4.6,7.43,6.88l.26.7A44.13,44.13,0,0,1,95.61,66.86c2-.18,3.9-.84,5.81-.44a72.16,72.16,0,0,1-.07-10.6A56.43,56.43,0,0,0,72.56,65.43Zm81.8-3.35A86.08,86.08,0,0,1,147,70l-1.25.26c.77.19,1,1.11,1.51,1.66,2.69,1.43,3.39,4.31,5.74,5.93,1.33,2.76,4.38,4.89,4.49,8.06a58.22,58.22,0,0,1,5.6,22.86l-.3.44a1.56,1.56,0,0,0,.89-.33l10.6-.19c-.7-1-.4-2.54-.59-3.79C172.32,88.47,165.33,74.44,154.36,62.08Zm-101.24.25c-10.49,11.67-17,25-18.84,40.2-.41,2.21-.15,4.49-.59,6.74a71.93,71.93,0,0,1,11.37,0l-.26-1.44A59.83,59.83,0,0,1,55.85,76.29c1.66-1.88,2.87-4.24,4.93-5.64-2.39-2.24-4.89-4.86-7.4-7.32ZM101.53,70l-.62.37c-9.35.66-17.45,4.56-24.56,10.41,2.8,2,5.3,5.08,7.84,7.33.19-.26.37-.52.56-.81,3.49-2.5,7.1-4.79,11.22-5.82,1.84-.18,3.65-1.06,5.56-.62A49.29,49.29,0,0,1,101.53,70Zm3.87.07.37.81-.08,10,1-.19c6.11.85,11.7,2.8,16.53,6.74l.26.77c1.65-2.32,4.15-4.3,6.11-6.51l1.84-1.07-.89-.37a42.93,42.93,0,0,0-13.25-7.66A65.91,65.91,0,0,0,105.4,70.1ZM63.17,72.86l-.07.7-4,5c-6.52,9-9.61,19.29-10.53,30.56L58.68,109l1,.37c-.41-.26-.29-.7-.44-1.06.81-10.5,4.49-19.85,11.74-27.65A74,74,0,0,1,63.17,72.86ZM133.6,83.1l-.19.44c-3.38,3.53-7.1,7.18-10.34,10.78a2.57,2.57,0,0,0,1,1.07c.15-.88.63-1.66.7-2.58.88-1.21,2.21-.44,3.35-.18,1.77-.41,3.42.4,5.23.37,1.32.66,1.43,2.35,2.65,3a1,1,0,0,1-.37,1.4c.37,2.76,1.69-.74,3.09-.08.59.22,1.33.15,1.77.78.22,1.14,1.62.92,1.69,2-.11.55-.7.7-1.06,1,.33,1.11-1.15,1.81-.63,3,2.13.4,2.21-2.07,3.2-3.17a19.59,19.59,0,0,0-2.06-5.56c-1.22-.26-2-1.69-3.16-2-2.36-.92.36-2.39.07-3.79A43.69,43.69,0,0,0,133.6,83.1Zm-59.9.36a43.4,43.4,0,0,0-9.9,20.4c-.4,1.76-.18,3.83-.88,5.48,1.29-.59,3.16-.37,4.6-.18-.85-.44-.15-1.51-.63-2.1-.11-.92-.26-2.06.63-2.65-.11-1.51,1.51-2.28,1.66-3.65.4-1.54,2.17-.51,3-1.32.56-.29.08-.81.08-1.22.73-1,1.87-1,2.76-1.5a7.78,7.78,0,0,1,2.46-2.58c2.21.07,2.25-3,4.35-3.09A87.25,87.25,0,0,1,73.7,83.46Zm31.81,1.22c.7,2.1.07,5.19.51,7.62l2.65.88c.78-1.29,2.47-1.54,3.21-2.76.48-.4,1,0,1.4.44a7.29,7.29,0,0,1-.45,3c-1,2-3.35,2.24-4.67,3.68.85.48,1.32-.41,2-.59a4.42,4.42,0,0,1,2.47,1.66c.66.29,1.29-.11,1.88-.34.4-3,4.23-2.61,5.37-5.48l-.7.26c-.29-.41-1-.22-1-.89a7.5,7.5,0,0,1,2.21-1.76,37.53,37.53,0,0,0-10.49-4.79A35.27,35.27,0,0,1,105.51,84.68ZM85.7,92.37h.81c.89.89,2.32.7,3,1.88.33.66-.63.59-.59,1.14.18.15.44.18.59.44.69.26.55-.4.8-.7.92-.92,1.07.89,2,.89a1.36,1.36,0,0,1,1.95.25c.59-.51,1.84,0,2-1,1.14-1.21.52-3.09,2.21-3.86.59.33,0,.88.18,1.39,1.15.48,2.43-1,3.35.19-.84-2.39-.62-5.38-.55-8C95.5,85.75,90.05,87.77,85.7,92.37Zm17.86,6.11c-.59-.66-1.88-.26-2.65,0,.73.74.44,2.06.88,3-1.1,1.84-3,2.25-4.67,2.77-.48.58-.37,1.87-1.51,1.76-.37.81-1.62,1.29-1.14,2.47-.59,1.25-.3,2.87-.63,4.23-2.17,1.36-1.55-1.8-2.65-2.46l-.37.62c-.44.11-.74-.15-1-.44-.33-.11-.88-.22-1.18.07-.48.81-1.21,1.48-1,2.58-.22.66-1.32.44-1.18,1.14a22.05,22.05,0,0,0,3.72-.51c.85.22,1.55-.41,2.39-.45a.8.8,0,0,1,.52.89h.29a1.49,1.49,0,0,0,.59-1.77c.08-.77.92-.77,1.44-1,.48.22.18.7.26,1.06,1.65.63-.41,1.85-.63,2.73-.44.7,0,2.28-1.4,2.06a.52.52,0,0,1-.37-.63H93a1.89,1.89,0,0,0,1,1.66c1-.85,1.07-2.28,2.54-2.47.78-.81-.33-2.06.81-2.72,1.92,0,4-.85,5.49.7-.11.66-.37,1,.18,1.51a7.29,7.29,0,0,1-1.32,2.47,1.27,1.27,0,0,1-.37,1.39c-.52,2.25-3.09,1.18-4.6,2a11.64,11.64,0,0,0,8.13,2.21c1.59-.07.89-2,1.7-2.9.51-2.58,2.87-.81,4.3-1.51a10.26,10.26,0,0,0,1.25-3.43,2.45,2.45,0,0,1-1-2.76c-.63-.85-.55-2.39-1.91-2.54a.73.73,0,0,1,.14-.88c0-.81.78-1.07,1-1.69-.85-.56-.63-1.77-.55-2.47-1.44.4-1.59-1.47-2.65-1.88-.26-.84-1.18-1-1.92-1.14-1.77.85-2.06-1.33-3.39-1.84-.14-.4-.44-1,0-1.33.67-.55,1.55-.07,2.32-.11Zm-32,9.1c-3,1,.48,3.2-.26,5-.4,1.07-1.51.07-2.28.51l-.3,2c-.44,1.15-1.87.3-2.54,1.07-.48.74,0,1.51.44,2.1-1,2.36,2.32,3.09,2.29,5.23,1,1.32-.15,3.24,1.32,4.42.33,2.39-.33,5.63,1.77,7.5l.37,2.29c.44,1.58-1.88,1.18-1.59,2.57.45-.22.56.37.59.52v-.07a97.79,97.79,0,0,1,9.46-9.65l-1.39-1.4A36.64,36.64,0,0,1,73.78,117l-1.07-.56c0,1.18-.59,2.1-.52,3.28l-.37.44c-.77,0-1.25-.66-1.91-1.07-.15-.4-.55-1.06.08-1.39a1.21,1.21,0,0,1,.88.25c.33-.4.18-1,.37-1.51.11-.88-.67-1.69-.11-2.46.69-.08,1.21.77,1.5,1.25.7.22,1.26-.37,1.85-.63,0-.62.88-1.47-.08-1.84a8.62,8.62,0,0,0-.07-4.34C73.92,107.24,72.56,107.46,71.57,107.58Zm68.91,1.25a3.69,3.69,0,0,1-1.07.07A2.59,2.59,0,0,1,140.48,108.83Zm-2.28,3.6,1.14,1.15c1.14.77.37,2.43,1.58,3.09,1.44.73,2,2.39,2.58,3.64a3.93,3.93,0,0,0,.33-1.06c.51-2,.44-4.31,1.07-6.3C142.69,113.06,140.15,113.28,138.2,112.43Zm25.18.52-.63-.44.37,1a59.34,59.34,0,0,1-11.67,32.69c-1.36,1.62-2.65,3.61-4.34,4.75a78.12,78.12,0,0,1,8.2,8.06l.3-.55c11.26-12.85,17.67-27.72,18.37-44.95l.44-.88-.55.26Zm-14.77-.26c.23,2.25-.36,4.42-.51,6.63l1.21,1.32a1.34,1.34,0,0,1-.25,1.7,1.46,1.46,0,0,1-1.7-.11c-1.54,4.93-3.35,9.75-6.44,14.06-1.21,1.54-2.39,3.68-4,4.49l3.34,2.95c.19-.19.08-.48.11-.74,0-.44.23-1,.78-.88,1.62,0,1.66,1.69,2.58,2.57-.19,1.4,1,2.51.62,3.79,9.28-9.79,13.92-21.79,14.76-35.08l.52-.59c-3.31.33-6.81.11-10.24.15Zm-85.88.11.56.89c.07,2.43,1,4.75.51,7.21.41-.7.52-1.65,1.4-2.1.11-.66-.88-.84-.77-1.51.7-1.36,0-3.57,1.84-4.16C65,113.36,63.84,113.61,62.73,112.8ZM45,113l-1,.37-10.24-.08a75.14,75.14,0,0,0,9,32.33c2.61,4.85,6.44,9.24,9.79,13.76l7.33-7.58.88-.37a22.5,22.5,0,0,1-3.42-3.53,5,5,0,0,1-3.09-2.36c-.37-.4,0-1.14-.45-1.43l-.44.55c-1.29.62-1.76-.7-2.65-1.25-1.14-.63-.59-2.8-2.13-2.4-.59,0-.78-.7-1.14-1.06-1.44.14-1.81-1.44-2.58-2.21-.15.33,0,.77-.44,1-1.47.33-2-1.47-3-2.21-.26.11-.45.41-.82.33a4.27,4.27,0,0,1-1.5-3.09c-1.22-1.36-.67-3.53-.45-5.19.23-.44.85-.7.74-1.25.33-.77,1.14-.85,1.92-.88a1.94,1.94,0,0,1,.73.69c.48-.29,1.55,0,1.14-1a4.91,4.91,0,0,1,2.4-.88,14.91,14.91,0,0,0,1.65,2.28l-.51-.81A57.32,57.32,0,0,1,45,115.45c0-.22-.48-.33-.19-.55l.08.11A11.39,11.39,0,0,1,45,113Zm14.39,0-.81.37c-3.42-.08-7,.22-10.23-.26l.44.63.81,6.77c.33,2.61,1.47,5.12,1.4,7.69.41-.55.15-1.65,1.14-1.76-.4-.81.77-1.51.11-2.21.33-1.77.55-3.57,2.1-4.86,1.88-.07,2-2.54,3.9-2.65,1,0,1.55,1.25,1.95,1.69C59,116.93,59.09,114.57,59.38,113Zm18.92,4.53c1,1.91,1.59,4.08,2.65,6,.67,1.69,2.14,3,2.8,4.67.7-1.32,2.1-2.39,3.09-3.6a1.87,1.87,0,0,0-.33-1.44c-.33-.77,0-1.88-.62-2.54-1,.33.33,1.29-.08,1.84a.58.58,0,0,1-.88-.44,2.45,2.45,0,0,1-1.77-1.66c.7-.44-.18-.62-.36-1-.37-.19-.41-.15-.7.18a1,1,0,0,1-.56-.07C81.54,117.33,79.19,118.58,78.3,117.48Zm11.56,2.91a5.23,5.23,0,0,1-1.51,2.39l.11.07c.89-.62,1.51-1.77,2.65-1.84Zm29.08,3a2.76,2.76,0,0,0,.59,1.77c1.44-.22.81,1.77,2.14,1.58.73-.22,0-.84.26-1.32-.22-1.11-1.29-1.22-2-1.88-.07-.22.08-.4.18-.59C119.53,122.67,119.28,123,118.94,123.4Zm20.84.08c-1.07-.08-2.36.55-3.28-.19-.33-.29-.55.15-.51.44-.37.56-.74,1.26-1.58,1-.67-.29-.67-1-.89-1.51a3.89,3.89,0,0,1-.18,1.14,12.14,12.14,0,0,0-1.58,2.47c-.78.84-2,.55-2.84,1.25-.15,1.77-2.1,1.4-3.2,1.95-.08.22.18.26.29.44a1.4,1.4,0,0,0,1.58-.37c1.55.41,1.22-1.54,2.1-2.2.78-.11,1.51-.78,2.32-.26a5.24,5.24,0,0,1,.89,3.72c-.89.88-.45,2.31-1.07,3.35.15,1.21-1.33,1.76-1.14,3a2.61,2.61,0,0,1-2,.62,34.54,34.54,0,0,0-9.2-2.09.64.64,0,0,0-.44.69c1.32.7,2.94.74,4.34,1.33,1.25.33,2.1,1.88,3.68,1.4,1.33-.74,3.54.44,4.42-1-.15-1.36,1-2.35,1.62-3.53l.44-.11c.74.77.7,1.91,1,2.76,1-1.11,1.84-2.32,2.76-3.46A33.1,33.1,0,0,0,142.69,123,10.84,10.84,0,0,0,139.78,123.48Zm-46.38,0c-1.59,2.57-4.6,4.93-6.81,7.32a28,28,0,0,0,13.25,6.11c.26-1-.15-2.24.37-3.09s1.36-.77,2.1-.62a.63.63,0,0,0,.44-1c-1.07-.22-.59-1.4-1-2.06,0-.37.66-.3.52-.78-.74-.58.36-1.25-.26-1.87.26-.19.44-.59.81-.59-2.32,1.21-4.82-.26-6.89-1.18C95,125.21,93.62,124.66,93.4,123.48Zm21.38,6.44c-.1.29-.51.81,0,1,.89-.92,2.77-.88,2.84-2.2C116.33,128.52,115.67,129.22,114.78,129.92Zm4.16,2.76c-1.14,0-1.73.89-2.57,1.58-1,.59-1.55-1.1-2.4-.69,0,.18.23.25.37.33a.82.82,0,0,1,0,1.06c-1.25,1.14-1.84-.55-3-.44V135c0,.26-.07.67-.44.52-.73-1.22-2.24-.77-3-1.84-.48-.26-.92.07-1.25.37-.26.55-1.44-.08-1.14.88-.92.33-1,1.33-1.7,1.91-1.14-.18-1.65,1.11-2.72,1.07.11.22,0,.59.33.63a3.72,3.72,0,0,0,2.14.25c1.1-1.76,2.94-.29,4.49-.95,1,.18.29,1.21,1,1.58,1.51-.48,2.65,1.29,3.87.19-.08-1.74,1.87-1.59,2.94-2,1.66-1,3.54-2.32,3.35-4.53Zm-35.52,1a54.81,54.81,0,0,1-7.32,7.51c1.14.07,1.76,1.33,2.72,1.88,5.52,4.6,12.4,6.81,18.81,8.39l-1.77-.81c-1.32-1.51-3.2-3.27-3.27-5.37,1.32-.44,1.18-1.92,1.62-2.91a7.42,7.42,0,0,1,3.86-2.14c-3.72,1.55-7-1.21-10-2.65C86.44,136.44,84.38,135.48,83.42,133.71ZM134.55,144l-.25-.7a6.14,6.14,0,0,1-1.66,2.1c0,.59-.19,1.47.51,1.88,1.48.48,3.39,1.43,3.72,3.16-.59,1.62-3.68,3.1-1.77,4.86.63.89-.88,1.22-.62,1.95l.51-.69a50.77,50.77,0,0,0,6.56-5.49h.25c-.44-.15-1,.29-1.51.07-1-.47-1.21-1.39-1.21-2.46Zm-59.19,1.4-.15-.26.15.45ZM76.54,147a1.61,1.61,0,0,1-.89-1.14Zm.25.3c.23.88,1.4,1.43,1.07,2.54-.62,1-1.91,1-2.94,1-2.1-.33-3.65,1.25-5.63,1.47-1.81.56-2.43-1.65-4.09-1.47,10.23,9,21.94,14.54,35.63,15.28l1,.7-.44-1.25V155.8l-.88.37A42.64,42.64,0,0,1,76.79,147.26Zm68,6.88-.18-.88c-1,2-3.31,3.31-5,4.86-2.4,2.39-6.3,2.91-7.51,6.37-1.29,1.17-1.73,3-3.54,3.68-.66,1.76-2.54,1.65-3.61,2.94-3.09,2.76-5.08-1.76-7.87-2.32l-5.64,1c-2,0-3.9.7-5.74.07a85.76,85.76,0,0,1,0,11.56l.7-.44c17.74-.77,33.06-7.51,46.2-19.44ZM63.1,154l-.11.44-7.58,7.62c11.48,9.94,24.44,16.35,39.24,18.37,2.36.41,5,.19,7.32.89l-.55-.89v-10l.37-.56-1.14.3C86.29,169.23,73.59,164.15,63.1,154Zm42,2.58.55.81c0,3,.37,6.11,0,9.09,2.73-.92,5.89-.77,8.84-1.25a3.07,3.07,0,0,1-1.62-1c-1.73-.11-2.54-1.91-3.09-3.27-.26-1,.4-1.81.81-2.65-.74-1.51-3-.41-4.35-1C105.91,157.12,105.66,156.68,105.14,156.61Z"/><path class="cls-2" d="M172.84,50.77c5.41,4.83,7.84,11.09,9.42,17.56l.88,2.07a77.66,77.66,0,0,1-19.95-21.21L157.08,43C162.46,45.29,168.24,46.65,172.84,50.77Z"/><path class="cls-2" d="M36,60.38c-3.61,4.46-8.21,7.4-12.29,11.23,2.2-4.56,2.28-10,5.41-14.21C33.54,49.63,41.79,46.91,49.15,44,43.74,48.79,40,54.79,36,60.38Z"/><path class="cls-2" d="M192,68.52c1.73,7.73-.77,15.27.81,23.08l-.07.07c-4.2-8.28-13.15-12.18-19.29-18.81-3.57-3.94-5.12-8.72-6-13.8,3.53,8.5,13,10.38,18.47,17.52,1.85,1.66,2.44,3.94,3.61,5.82l.19-.19c-3.13-6.7-4.2-14.24-6.37-21.39a16.69,16.69,0,0,0-6.19-8.09C184.29,54.2,190.51,61.67,192,68.52Z"/><path class="cls-2" d="M29.27,54.05c-7.29,5-6.81,14-9.13,21.46-.73,2.76-2,5.3-2.65,8.14l.19.14a25.09,25.09,0,0,1,6-8.83c5.19-4.79,12.84-7.77,15.38-14.84C39,70,30.74,77.68,22.9,83.21c-3.24,2.83-6.37,6.07-8.13,9.71-.19-2.46.37-5,.18-7.62-.84-8.57-1.47-18.36,4.6-24.73A18.33,18.33,0,0,1,29.27,54.05Z"/><path class="cls-2" d="M196.58,70.21c6.52,8.84,7.95,22.9,3.2,33a58.07,58.07,0,0,0-3.71,13.62c-.34-.81-.41-1.91-.7-2.83-2.58-9.9-12-17-15.83-26.32a48.84,48.84,0,0,1-2.84-9.54c4.13,7.62,14.29,11.56,17.05,20,1.14,2.13,1.06,4.78,1.76,7.06a.29.29,0,0,0,.3-.26,96,96,0,0,1,.33-26.24c-.07-4.64-.52-9.13-3.09-12.7C194.7,66.94,195.44,68.78,196.58,70.21Z"/><path class="cls-2" d="M13.7,67.45c-5.6,8.5-1,19.22-1.22,28.9l-.73,9.9c.11.07.11.37.37.26.33-1.11.4-2.28.62-3.43,1.33-8,8.25-13.65,14.32-19.17a15.49,15.49,0,0,0,3.09-4.61A40.66,40.66,0,0,1,26.77,91c-4.71,9.21-13.44,16.75-15,27.28-.78-10.08-7.66-17.63-7-28.34-.22-8.69,3.39-15.8,8.47-22.28C13.41,67.56,13.52,67.41,13.7,67.45Z"/><path class="cls-2" d="M202.69,127.53c-3.86,5.48-8.54,10.6-12.11,16.2.41-4.42.92-9.87-.81-14.07-3-9-5.6-18.18-6.44-28.08l.11-3.8c2.24,10.13,12.18,17.08,11.56,28.42.22,2.76-.63,5.08-1.14,7.51l.18.19.44-.52c1.48-5.56,2.21-11.41,4.49-16.6,3.28-7.47,7.33-15,5.67-24C209.61,103.38,208.1,117.59,202.69,127.53Z"/><path class="cls-2" d="M10.86,124c1.07,3.72,1.33,7.74,2.84,11.23.15.08.26-.07.37-.18-3.79-10.6,1.65-20.43,7.14-28.72A27.8,27.8,0,0,0,24,99c.59,4.78-.63,10.31-1.33,15.28-1.32,6.33-3.31,12.33-5,18.47-1.14,3.83-.85,8.18-.26,12.19l-.55-.44c-4-7.4-12-13.18-14.32-21.28-1.95-6.44-3.24-13.91-1.91-21a38.81,38.81,0,0,1,2.28-8C.59,105.73,8.33,114,10.86,124Z"/><path class="cls-2" d="M187.49,144.94A26.48,26.48,0,0,1,183,158.3h.44c3.53-4.64,6.29-9.57,10.42-14,6.4-6.18,12.92-12.51,13.76-21.09,2.18,14.32-5.85,26.87-17.74,35-4.9,3.2-9.86,6.18-14.58,9.83v-.44c7.22-12,3.68-28.46,8.14-41.64l1.65-4.41C184.17,129.74,187.75,136.69,187.49,144.94Z"/><path class="cls-2" d="M29.42,161.21c.77,2.72,2.35,5.15,3.38,7.77C21.83,161.5,6.89,154.4,2,140.71,0,136-.25,130.14.19,124.73c.88,12.18,14,18.63,20.06,28.71,1.44,2.06,2.69,4.35,4.6,6.08-.29-1.29-1.51-2.4-2-3.72a26.25,26.25,0,0,1-2.39-14.4c.59-6.22,3.2-12,2.21-18.55C28.06,134.37,26.44,148.73,29.42,161.21Z"/><path class="cls-2" d="M171.14,170.3a36.21,36.21,0,0,1-7.51,9c1,0,1.81-.88,2.65-1.43,7.92-7.88,18.23-10.09,26.77-16.5a25.76,25.76,0,0,0,8.06-10.16c-1.62,13.07-14.62,25.33-26.87,29.23-6.34,1.7-13.11,2.25-19.26,4.35,10.42-8.95,9.83-22.79,16.79-33.32,2.21-3,4-6.11,6.63-8.94C174.16,151.05,176,162.06,171.14,170.3Z"/><path class="cls-2" d="M39.69,159.26c3.68,9.06,5.08,19.29,13.58,26.14-9.2-3-20-2.18-28.09-7.85-8.87-5.44-16.78-14.68-18.44-24.84,6.11,13.84,21.43,15,31.7,23.41a25.33,25.33,0,0,0,6,4.09l.11-.12c-2.36-2.13-5.08-4.56-6.74-7.32-6-8.36-3.9-20.06-8.39-29A67.79,67.79,0,0,1,39.69,159.26Z"/><path class="cls-2" d="M148.87,186.21c-2.24,1.47-5.08,1.73-7.4,2.83,3.32.07,6.33-1.1,9.61-1.44,12.15-1.91,26.06,0,34.57-10.3-3.17,7.21-11.08,13.25-18.3,15.79-12.4,4.67-24.88-1.07-36.77-3l-2.28-.3v-.07c5.66-1.29,11.19-3,15.71-7.07,6.67-6.4,12.59-13,20-18C158.52,171.67,157.93,181.68,148.87,186.21Z"/><path class="cls-2" d="M63.73,182.86c4.71,4.12,10.38,6,16.34,7.25-1.43.51-3.31.37-4.86.77-10.71,2.65-22.64,7-34,3.09-7.4-2.32-15-8.17-18.74-15.46,9.79,11.16,25.81,7.44,38.87,10.35,1.84.25,3.54,1,5.49.69-1.55-1-3.72-.88-5.41-1.76-10.24-3.61-11.75-14.69-17.3-22.16C51.21,170.34,57.17,176.71,63.73,182.86Z"/><path class="cls-2" d="M143.68,198c7.95,2.94,18.26,2.13,25.07-2.73a29.81,29.81,0,0,1-13.25,9.28c-11,4.12-22.57-.18-31.18-6.74-3.5-2.2-6.59-5.41-11.12-5.11a15.26,15.26,0,0,0-4.6.44,85.35,85.35,0,0,1,23.3,16.16,35.3,35.3,0,0,1-4.23,3.83c-6.85-7.4-14.47-14.51-23-18.67a14.9,14.9,0,0,0-4.75,2A70.88,70.88,0,0,0,81,213.34l-4.42-3.65A80.77,80.77,0,0,1,100,193c-8.39-2.65-13.87,4.38-20.24,7.95-7.44,5.19-18.11,7.62-27.1,4.05a29.72,29.72,0,0,1-13-8.91c7.07,4.86,17.6,5.37,25.62,2.21,10.79-4.68,22-10.61,35-7.77,2,0,4,2.06,5.93.33a41.57,41.57,0,0,1,28.89,3.64Z"/><path class="cls-2" d="M354.35,186.75h49.72c-.86,40-22.93,60-52.59,60-32,0-52.44-26.94-52.44-55.89S319.53,135,351.48,135c35.4,0,45.14,22.06,49.15,33.53L378.14,170c-3.87-9.46-11.61-15.76-26.66-15.76-16.91,0-30.09,13.76-30.09,36.68,0,19.35,12.18,36.69,31.53,36.69,17.33,0,25.36-12.33,27.22-22.5H354.35Z"/><path class="cls-2" d="M616.53,137.32H638v87.46h41.3v20H616.53Z"/><path class="cls-2" d="M739.43,165.61c0-7.43-7.14-12-15.72-12-10.72,0-17.15,4.72-17.15,11.86,0,7.43,7.15,11,12.44,12.72l19.72,6.29c14.29,4.57,24.44,12.86,24.44,29.44,0,13.15-9.44,32.87-39.16,32.87-37.3,0-40.73-24.15-40.73-33.73l21.43-.43c0,11.44,9,15.87,19.44,15.87,7.29,0,17.58-3.58,17.58-11.87,0-5.71-2.43-8.71-13-12.57l-23.44-8.43c-11.86-4.29-20.15-14.72-20.15-26.87,0-13.72,9.44-33.44,37.3-33.44,33.16,0,38.45,22,38.45,29.87Z"/><path class="cls-3" d="M438.34,177.69a30.35,30.35,0,0,1,4.75-6.11l-15.58-17.1a53.21,53.21,0,0,0-9.9,12.89Z"/><path class="cls-4" d="M476.55,165.62a29.82,29.82,0,0,1,6.54,4.09l15.63-17.06A53.59,53.59,0,0,0,484.87,144Z"/><path class="cls-5" d="M512.35,170.76l-20.72,10.32a29.71,29.71,0,0,1,2.08,7.32l23-2.17a52.58,52.58,0,0,0-4.4-15.47"/><path class="cls-6" d="M490.15,178.09l20.71-10.33a53.23,53.23,0,0,0-9.68-12.85L485.55,172a30.27,30.27,0,0,1,4.6,6.12"/><path class="cls-7" d="M434.22,192.81c0-.46,0-.93,0-1.39l-23.05-2.07c-.08,1.15-.12,2.3-.12,3.46a53.08,53.08,0,0,0,1.57,12.82l22.26-6.38a30.4,30.4,0,0,1-.7-6.44"/><path class="cls-8" d="M487.24,211.76a30.32,30.32,0,0,1-5.62,5.29l12.17,19.7a53.56,53.56,0,0,0,11.92-11.06Z"/><path class="cls-9" d="M494,192.81a29.58,29.58,0,0,1-.69,6.36l22.26,6.4a52.65,52.65,0,0,0,1.56-12.76c0-1.09,0-2.17-.1-3.25l-23,2.17c0,.37,0,.72,0,1.08"/><path class="cls-10" d="M441.38,212.2,423,226.2a53.4,53.4,0,0,0,12,10.9l12.17-19.68a29.89,29.89,0,0,1-5.78-5.22"/><path class="cls-11" d="M434.6,188.09a29.45,29.45,0,0,1,2.2-7.42l-20.71-10.32A53.1,53.1,0,0,0,411.52,186Z"/><path class="cls-12" d="M491,238.54l-12.15-19.68a30.32,30.32,0,0,1-7.09,2.88L476,244.5a52.67,52.67,0,0,0,14.95-6"/><path class="cls-13" d="M492.46,202.4a30.19,30.19,0,0,1-3.24,6.66L507.71,223a52.68,52.68,0,0,0,7-14.21Z"/><path class="cls-14" d="M468.44,222.4a29.25,29.25,0,0,1-4.31.32,31,31,0,0,1-3.49-.21l-4.28,22.77a53.83,53.83,0,0,0,7.77.57,52.87,52.87,0,0,0,8.59-.7Z"/><path class="cls-15" d="M466,163a29.23,29.23,0,0,1,7.4,1.43l8.31-21.61a52.79,52.79,0,0,0-15.71-3Z"/><path class="cls-16" d="M457.35,221.94a29.49,29.49,0,0,1-7.34-2.77l-12.18,19.69a52.7,52.7,0,0,0,15.24,5.82Z"/><path class="cls-17" d="M455.14,164.29a29.44,29.44,0,0,1,7.55-1.34V139.8a52.49,52.49,0,0,0-15.92,2.9Z"/><path class="cls-18" d="M439.35,209.54a30.16,30.16,0,0,1-3.53-7.07l-22.24,6.38a52.8,52.8,0,0,0,7.34,14.69Z"/><path class="cls-19" d="M445.6,169.36a29.37,29.37,0,0,1,6.41-3.88l-8.37-21.59A53.31,53.31,0,0,0,430,152.25Z"/><path class="cls-2" d="M581.38,222H541.55l-7.1,22.74H511l39.69-108.94h22.89l39.11,108.94h-23.9Zm-19.7-60h-.29l-13.76,42.3h28Z"/></g></g></svg>