<?xml version="1.0" encoding="utf-8"?>
<!-- Generator: Adobe Illustrator 24.1.1, SVG Export Plug-In . SVG Version: 6.00 Build 0)  -->
<svg version="1.1" xmlns="http://www.w3.org/2000/svg" xmlns:xlink="http://www.w3.org/1999/xlink" x="0px" y="0px" width="938.4px"
	 height="82.7px" viewBox="0 0 938.4 82.7" style="enable-background:new 0 0 938.4 82.7;" xml:space="preserve">
<style type="text/css">
	.st0{display:none;stroke:#FFFFFF;stroke-miterlimit:10;}
	.st1{fill:#5FBA46;}
	.st2{fill:#D19F2A;}
	.st3{fill:#C22033;}
	.st4{fill:#2D9A47;}
	.st5{fill:#48773C;}
	.st6{fill:#FDB714;}
	.st7{fill:#EF412A;}
	.st8{fill:#F99D25;}
	.st9{fill:#007DBB;}
	.st10{fill:#8F1838;}
	.st11{fill:#00ADD8;}
	.st12{fill:#F36E24;}
	.st13{fill:#EA1D2D;}
	.st14{fill:#E01A83;}
	.st15{fill:#1B3668;}
	.st16{fill:#CD8B2A;}
	.st17{fill:#00558A;}
	.st18{fill:#FFFFFF;}
</style>
<g id="Layer_2">
	<rect x="-28.1" y="-161" class="st0" width="1058" height="328"/>
	<g>
		<path class="st1" d="M545.8,32.5c0.9-1.5,1.9-2.9,3.2-4.1l-10.4-11.4c-2.6,2.5-4.8,5.4-6.6,8.6L545.8,32.5z"/>
		<path class="st2" d="M571.2,24.5c1.6,0.7,3,1.6,4.4,2.7L586,15.8c-2.7-2.4-5.9-4.3-9.2-5.8L571.2,24.5z"/>
		<path class="st3" d="M595.1,27.9l-13.8,6.9c0.7,1.5,1.1,3.2,1.4,4.9l15.4-1.4C597.6,34.6,596.6,31.1,595.1,27.9"/>
		<path class="st4" d="M580.3,32.8l13.8-6.9c-1.7-3.2-3.9-6.1-6.5-8.6l-10.4,11.4C578.4,29.9,579.4,31.3,580.3,32.8"/>
		<path class="st5" d="M543,42.6c0-0.3,0-0.6,0-0.9l-15.4-1.4c0,0.8-0.1,1.5-0.1,2.3c0,2.9,0.4,5.8,1,8.5l14.8-4.3
			C543.2,45.5,543,44.1,543,42.6"/>
		<path class="st6" d="M578.3,55.2c-1.1,1.3-2.4,2.5-3.7,3.5l8.1,13.1c3-2,5.7-4.5,7.9-7.4L578.3,55.2z"/>
		<path class="st7" d="M582.9,42.6c0,1.5-0.2,2.9-0.5,4.2l14.8,4.3c0.7-2.7,1-5.6,1-8.5c0-0.7,0-1.4-0.1-2.2l-15.4,1.5
			C582.9,42.1,582.9,42.4,582.9,42.6"/>
		<path class="st8" d="M547.8,55.5l-12.3,9.3c2.3,2.8,5,5.3,8,7.3l8.1-13.1C550.2,58,548.9,56.8,547.8,55.5"/>
		<path class="st9" d="M543.3,39.5c0.3-1.7,0.8-3.4,1.5-4.9l-13.8-6.9c-1.5,3.2-2.6,6.8-3,10.4L543.3,39.5z"/>
		<path class="st10" d="M580.8,73.1L572.7,60c-1.5,0.8-3.1,1.5-4.7,1.9l2.9,15.2C574.4,76.2,577.8,74.9,580.8,73.1"/>
		<path class="st11" d="M581.8,49c-0.5,1.6-1.3,3.1-2.2,4.4l12.3,9.3c2-2.9,3.6-6.1,4.7-9.5L581.8,49z"/>
		<path class="st12" d="M565.8,62.3c-0.9,0.1-1.9,0.2-2.9,0.2c-0.8,0-1.6,0-2.3-0.1l-2.9,15.2c1.7,0.2,3.4,0.4,5.2,0.4
			c2,0,3.9-0.2,5.7-0.5L565.8,62.3z"/>
		<path class="st13" d="M564.2,22.7c1.7,0.1,3.4,0.4,4.9,1l5.5-14.4c-3.3-1.2-6.8-1.9-10.5-2V22.7z"/>
		<path class="st14" d="M558.4,62c-1.7-0.4-3.4-1-4.9-1.8l-8.1,13.1c3.1,1.8,6.5,3.1,10.2,3.9L558.4,62z"/>
		<path class="st15" d="M557,23.6c1.6-0.5,3.3-0.8,5-0.9V7.3c-3.7,0.1-7.3,0.8-10.6,1.9L557,23.6z"/>
		<path class="st16" d="M546.4,53.7c-1-1.4-1.8-3-2.3-4.7l-14.8,4.3c1.1,3.5,2.8,6.8,4.9,9.8L546.4,53.7z"/>
		<path class="st17" d="M550.6,27c1.3-1,2.7-1.9,4.3-2.6L549.3,10c-3.3,1.4-6.4,3.3-9.1,5.6L550.6,27z"/>
		<path class="st18" d="M915.4,21.1c3.4,6.5,4.4,15.5,2.2,22.9c-2.2,8.7-9.6,17.5-18.1,21.1c-9.6,4.7-23.3,3.5-31.9-2.6
			c-11.9-8.2-16.8-22.2-13.2-36.1c2.2-8.3,8.8-16.6,16.8-20.4c4.5-2.2,9.5-3.4,14.8-3.5C898.3,2.5,910.1,9.7,915.4,21.1 M886.7,4.1
			c0.2,1.3,0.1,3,0,4.5c0-0.1,0.1-0.3,0.1-0.4c0.2-0.1,0.4,0.1,0.5,0.2c0,0.2,0.1,0.6-0.1,0.8c0.2,0,0.3-0.1,0.5-0.1
			c3.7,0.3,7.2,1.4,10.3,3.1v-0.1c0.6-0.3,1.4-0.7,2.1-0.2c0.8-0.3,0.9,0.7,1.6,0.8c0.8,0.5,1.6,1.3,1.7,2.2
			c0.1,0.3,0.6,0.5,0.7,0.8c0.5-1.1,1.6-1.9,2.5-2.9l0.6-0.2c-4.9-4.7-10.8-7.3-17.3-8.2C888.8,4.3,887.7,4.4,886.7,4.1 M884.9,4.3
			c-6.6,0.3-12.4,2.5-17.5,6.2c-1,0.7-1.9,1.7-2.9,2.3h0.1c1.3,0.9,2.5,2.3,3.6,3.5l0.1-0.2c4.8-4.3,10.3-6.7,16.7-7l-0.1-0.4l0-3.9
			L884.9,4.3z M890.5,6.7l-2.3,1c-0.2-0.1-0.6-0.2-0.7,0.1c-0.1,0.1,0,0.2,0,0.3c0.9,1.1,2.4,0.5,3.4,0.3c0.8,0.3,1.5-0.1,2.1-0.6
			V7.7C892.4,6.9,891.4,6.8,890.5,6.7 M886.7,10.7l0.2,0.3c0,1.5,0.1,3.1-0.1,4.5c0.6-0.2,1.3,0,1.9,0.1c3.2,0.5,6.2,1.5,8.8,3.5
			c-0.3-0.3-0.7-0.7-0.8-1.2c0-0.1,0.1-0.1,0.2-0.1c0-0.5-0.5-0.8-0.6-1.2c0.1-0.1,0.2-0.2,0.4-0.1c0.6,0.5,1,1.1,1.4,1.7
			c0.4-0.1,0.7,0.1,0.9,0.3c0.5,0.3,0.2,0.9,0.5,1.2c0.1,1,1.2,1.5,1.2,2.5c0,0.2,0.3,0,0.4,0.2l1,1.2c-0.2,0.2,0,0.5,0.2,0.7
			c0.4,0.2,0.7-0.4,1.1-0.3c0.6,0.4-0.1,0.8,0,1.2c0.2,0,0.6-0.2,0.8,0c0.1,0.4-0.3,0.6-0.4,0.8c0,0.4,0.3,0.3,0.6,0.4
			c0.3,0,0.5,0.3,0.4,0.6c0.8,0.8-0.2,1.8,0.1,2.7c0.3,0.6-0.1,1.2-0.4,1.6c0,0.7-0.6,1.2-0.9,1.8l-0.8,0.2c-0.4,0.4,0.4,1-0.1,1.3
			l1.8,0l-0.2-0.2c-0.3-0.7-0.2-1.7,0.2-2.3c0.3-0.6,0.3-1.3,0.9-1.8c0.1,0,0.3-0.2,0.4,0c0,0.6,0,1.2-0.3,1.7
			c0.5,0.8,0.5,1.7,0.5,2.7c1.6-0.1,3.2-0.1,4.8-0.1l-0.1-0.3c-0.2-3-0.9-5.9-2.1-8.4c-0.3,0-0.6,0.3-1,0.2c-0.1,0-0.2-0.2-0.2-0.3
			c-0.7-0.6-1.1-1.4-1.8-2c-0.8,0.1-1.2-0.9-2-1c-0.7-0.3-0.2-1.4-1.2-1.1c-0.5-0.2-0.9-0.6-1-1.1c0-0.8-0.2-1.8-0.9-2.3
			c-0.6-0.2-0.8,0.6-1.4,0.4c-0.3-0.2-0.2-0.6-0.3-0.9c-0.1-0.2-0.4-0.4-0.3-0.8c0.8-1-0.9-1-0.6-2c-0.1-0.7-0.8-1-1.2-1.6
			c-2.5-1.1-5.1-1.9-7.9-2.3C887.9,10.9,887.3,11.1,886.7,10.7 M901.4,10.8c-0.3,0.3-0.6-0.3-0.9,0.1c0,0.2,0,0.3,0.1,0.5
			c0.7,0.2,0.8,1.2,1.6,1c0.3-0.3-0.2-0.6-0.1-1C902,11,901.7,10.9,901.4,10.8 M872.1,15.2c-1,0.7-1.9,1.6-3,2.2
			c1.2,0.8,2.2,2,3.3,3l0.1,0.3c2.8-2.7,6.1-4.2,9.8-5c0.9-0.1,1.7-0.4,2.6-0.2c-0.1-1.6-0.2-3.2,0-4.7
			C880.2,11.2,875.9,12.6,872.1,15.2 M908.4,13.7c-0.9,1.2-2.1,2.3-3.2,3.5l-0.6,0.1c0.3,0.1,0.4,0.5,0.7,0.7
			c1.2,0.6,1.5,1.9,2.5,2.6c0.6,1.2,1.9,2.2,2,3.6c1.4,3.1,2.4,6.4,2.5,10.1l-0.1,0.2c0.1,0,0.3-0.1,0.4-0.1l4.7-0.1
			c-0.3-0.5-0.2-1.1-0.3-1.7C916.3,25.4,913.2,19.2,908.4,13.7 M863.5,13.8c-4.6,5.2-7.5,11.1-8.3,17.8c-0.2,1-0.1,2-0.3,3
			c1.6-0.1,3.4-0.1,5,0l-0.1-0.6c0.3-5.2,2-9.8,4.9-14c0.7-0.8,1.3-1.9,2.2-2.5c-1.1-1-2.2-2.2-3.3-3.2L863.5,13.8z M885,17.2
			l-0.3,0.2c-4.1,0.3-7.7,2-10.9,4.6c1.2,0.9,2.3,2.2,3.5,3.2c0.1-0.1,0.2-0.2,0.2-0.4c1.5-1.1,3.1-2.1,5-2.6
			c0.8-0.1,1.6-0.5,2.5-0.3C884.8,20.5,884.8,18.8,885,17.2 M886.7,17.2l0.2,0.4l0,4.4l0.4-0.1c2.7,0.4,5.2,1.2,7.3,3l0.1,0.3
			c0.7-1,1.8-1.9,2.7-2.9l0.8-0.5l-0.4-0.2c-1.8-1.5-3.8-2.6-5.9-3.4C890.3,17.8,888.5,17.5,886.7,17.2 M868,18.5l0,0.3l-1.8,2.2
			c-2.9,4-4.3,8.5-4.7,13.5l4.5-0.1l0.4,0.2c-0.2-0.1-0.1-0.3-0.2-0.5c0.4-4.6,2-8.8,5.2-12.2C870.2,20.8,869,19.7,868,18.5
			 M899.2,23l-0.1,0.2c-1.5,1.6-3.1,3.2-4.6,4.8c0.1,0.2,0.3,0.4,0.4,0.5c0.1-0.4,0.3-0.7,0.3-1.1c0.4-0.5,1-0.2,1.5-0.1
			c0.8-0.2,1.5,0.2,2.3,0.2c0.6,0.3,0.6,1,1.2,1.3c0.1,0.2,0,0.5-0.2,0.6c0.2,1.2,0.8-0.3,1.4,0c0.3,0.1,0.6,0.1,0.8,0.3
			c0.1,0.5,0.7,0.4,0.8,0.9c0,0.2-0.3,0.3-0.5,0.4c0.1,0.5-0.5,0.8-0.3,1.3c0.9,0.2,1-0.9,1.4-1.4c-0.2-0.8-0.4-1.7-0.9-2.5
			c-0.5-0.1-0.9-0.8-1.4-0.9c-1-0.4,0.2-1.1,0-1.7C900.8,24.9,899.9,23.9,899.2,23 M872.6,23.2c-2.3,2.7-3.8,5.7-4.4,9
			c-0.2,0.8-0.1,1.7-0.4,2.4c0.6-0.3,1.4-0.2,2-0.1c-0.4-0.2-0.1-0.7-0.3-0.9c0-0.4-0.1-0.9,0.3-1.2c0-0.7,0.7-1,0.7-1.6
			c0.2-0.7,1-0.2,1.3-0.6c0.2-0.1,0-0.4,0-0.5c0.3-0.4,0.8-0.4,1.2-0.7c0.3-0.4,0.6-0.9,1.1-1.1c1,0,1-1.3,1.9-1.4
			C875,25.6,873.8,24.3,872.6,23.2 M886.7,23.7c0.3,0.9,0,2.3,0.2,3.4l1.2,0.4c0.3-0.6,1.1-0.7,1.4-1.2c0.2-0.2,0.5,0,0.6,0.2
			c0,0.4-0.1,0.9-0.2,1.3c-0.4,0.9-1.5,1-2.1,1.6c0.4,0.2,0.6-0.2,0.9-0.3c0.5,0,0.8,0.4,1.1,0.7c0.3,0.1,0.6,0,0.8-0.1
			c0.2-1.4,1.9-1.2,2.4-2.4l-0.3,0.1c-0.1-0.2-0.5-0.1-0.4-0.4c0.3-0.3,0.6-0.7,1-0.8c-1.5-0.9-3-1.7-4.6-2.1
			C888,23.9,887.4,23.9,886.7,23.7 M878,27.1h0.4c0.4,0.4,1,0.3,1.3,0.8c0.1,0.3-0.3,0.3-0.3,0.5c0.1,0.1,0.2,0.1,0.3,0.2
			c0.3,0.1,0.2-0.2,0.4-0.3c0.4-0.4,0.5,0.4,0.9,0.4c0.3-0.2,0.7-0.2,0.9,0.1c0.3-0.2,0.8,0,0.9-0.4c0.5-0.5,0.2-1.4,1-1.7
			c0.3,0.1,0,0.4,0.1,0.6c0.5,0.2,1.1-0.4,1.5,0.1c-0.4-1.1-0.3-2.4-0.2-3.6C882.3,24.2,879.9,25.1,878,27.1 M885.9,29.8
			c-0.3-0.3-0.8-0.1-1.2,0c0.3,0.3,0.2,0.9,0.4,1.3c-0.5,0.8-1.3,1-2.1,1.2c-0.2,0.3-0.2,0.8-0.7,0.8c-0.2,0.4-0.7,0.6-0.5,1.1
			c-0.3,0.6-0.1,1.3-0.3,1.9c-1,0.6-0.7-0.8-1.2-1.1l-0.2,0.3c-0.2,0-0.3-0.1-0.5-0.2c-0.1-0.1-0.4-0.1-0.5,0
			c-0.2,0.4-0.5,0.7-0.5,1.1c-0.1,0.3-0.6,0.2-0.5,0.5c0.5,0,1.1-0.1,1.6-0.2c0.4,0.1,0.7-0.2,1.1-0.2c0.1,0.1,0.3,0.2,0.2,0.4h0.1
			c0.3-0.2,0.4-0.5,0.3-0.8c0-0.3,0.4-0.3,0.6-0.4c0.2,0.1,0.1,0.3,0.1,0.5c0.7,0.3-0.2,0.8-0.3,1.2c-0.2,0.3,0,1-0.6,0.9
			c-0.1,0-0.2-0.1-0.2-0.3h-0.1c0,0.3,0.2,0.6,0.4,0.7c0.5-0.4,0.5-1,1.1-1.1c0.3-0.4-0.1-0.9,0.4-1.2c0.8,0,1.8-0.4,2.4,0.3
			c0,0.3-0.2,0.4,0.1,0.7c-0.2,0.4-0.3,0.8-0.6,1.1c0.1,0.2,0,0.5-0.2,0.6c-0.2,1-1.4,0.5-2,0.9c1,0.8,2.3,1.1,3.6,1
			c0.7,0,0.4-0.9,0.8-1.3c0.2-1.1,1.3-0.4,1.9-0.7c0.2-0.5,0.5-1,0.6-1.5c-0.4-0.3-0.6-0.7-0.4-1.2c-0.3-0.4-0.2-1.1-0.8-1.1
			c-0.1-0.1,0-0.3,0.1-0.4c0-0.4,0.3-0.5,0.4-0.8c-0.4-0.2-0.3-0.8-0.2-1.1c-0.6,0.2-0.7-0.7-1.2-0.8c-0.1-0.4-0.5-0.4-0.8-0.5
			c-0.8,0.4-0.9-0.6-1.5-0.8c-0.1-0.2-0.2-0.4,0-0.6c0.3-0.2,0.7,0,1,0L885.9,29.8z M871.7,33.8c-1.3,0.4,0.2,1.4-0.1,2.2
			c-0.2,0.5-0.7,0-1,0.2l-0.1,0.9c-0.2,0.5-0.8,0.1-1.1,0.5c-0.2,0.3,0,0.7,0.2,0.9c-0.5,1,1,1.4,1,2.3c0.5,0.6-0.1,1.4,0.6,2
			c0.1,1.1-0.1,2.5,0.8,3.3l0.2,1c0.2,0.7-0.8,0.5-0.7,1.1c0.2-0.1,0.2,0.2,0.3,0.2v0c1.3-1.4,2.7-3,4.2-4.3l-0.6-0.6
			c-1.2-1.7-2.1-3.6-2.5-5.6l-0.5-0.2c0,0.5-0.3,0.9-0.2,1.5l-0.2,0.2c-0.3,0-0.6-0.3-0.8-0.5c-0.1-0.2-0.2-0.5,0-0.6
			c0.2,0,0.3,0,0.4,0.1c0.1-0.2,0.1-0.4,0.2-0.7c0-0.4-0.3-0.7,0-1.1c0.3,0,0.5,0.3,0.7,0.6c0.3,0.1,0.6-0.2,0.8-0.3
			c0-0.3,0.4-0.7,0-0.8c0.2-0.6,0.1-1.3,0-1.9C872.7,33.7,872.1,33.8,871.7,33.8 M902.2,34.4c-0.1,0.1-0.3,0-0.5,0
			C901.9,34.4,902.1,34.4,902.2,34.4 M901.2,36l0.5,0.5c0.5,0.3,0.2,1.1,0.7,1.4c0.6,0.3,0.9,1.1,1.1,1.6c0.1-0.1,0.1-0.3,0.1-0.5
			c0.2-0.9,0.2-1.9,0.5-2.8C903.2,36.3,902.1,36.4,901.2,36 M912.4,36.2l-0.3-0.2l0.2,0.4c-0.3,5.4-2.1,10.2-5.2,14.5
			c-0.6,0.7-1.2,1.6-1.9,2.1c1.2,1,2.6,2.4,3.6,3.6l0.1-0.2c5-5.7,7.8-12.3,8.1-19.9l0.2-0.4l-0.2,0.1L912.4,36.2z M905.8,36.1
			c0.1,1-0.2,2-0.2,2.9l0.5,0.6c0.1,0.2,0.1,0.6-0.1,0.8c-0.2,0.1-0.5,0.1-0.8,0c-0.7,2.2-1.5,4.3-2.9,6.2c-0.5,0.7-1.1,1.6-1.8,2
			l1.5,1.3c0.1-0.1,0-0.2,0-0.3c0-0.2,0.1-0.4,0.3-0.4c0.7,0,0.7,0.8,1.1,1.1c-0.1,0.6,0.5,1.1,0.3,1.7c4.1-4.3,6.2-9.7,6.5-15.5
			l0.2-0.3c-1.5,0.1-3,0-4.5,0.1L905.8,36.1z M867.8,36.2l0.2,0.4c0,1.1,0.5,2.1,0.2,3.2c0.2-0.3,0.2-0.7,0.6-0.9
			c0-0.3-0.4-0.4-0.3-0.7c0.3-0.6,0-1.6,0.8-1.8C868.8,36.4,868.3,36.5,867.8,36.2 M859.9,36.2l-0.4,0.2l-4.5,0
			c0.3,5.2,1.6,10,4,14.3c1.2,2.2,2.9,4.1,4.3,6.1l3.2-3.4l0.4-0.2c-0.6-0.4-1-1-1.5-1.6c-0.5-0.1-1.1-0.5-1.4-1
			c-0.2-0.2,0-0.5-0.2-0.6l-0.2,0.2c-0.6,0.3-0.8-0.3-1.2-0.6c-0.5-0.3-0.3-1.2-0.9-1.1c-0.3,0-0.3-0.3-0.5-0.5
			c-0.6,0.1-0.8-0.6-1.1-1c-0.1,0.1,0,0.3-0.2,0.4c-0.7,0.1-0.9-0.7-1.3-1c-0.1,0.1-0.2,0.2-0.4,0.1c-0.4-0.3-0.7-0.8-0.7-1.4
			c-0.5-0.6-0.3-1.6-0.2-2.3c0.1-0.2,0.4-0.3,0.3-0.6c0.1-0.3,0.5-0.4,0.8-0.4c0.1,0.1,0.3,0.2,0.3,0.3c0.2-0.1,0.7,0,0.5-0.5
			c0.3-0.2,0.7-0.3,1.1-0.4c0.3,0.3,0.4,0.7,0.7,1l-0.2-0.4c-0.4-1.6-0.7-3.2-0.8-5c0-0.1-0.2-0.1-0.1-0.2l0,0
			C859.9,36.8,859.9,36.5,859.9,36.2 M866.3,36.2l-0.4,0.2c-1.5,0-3.1,0.1-4.5-0.1l0.2,0.3l0.4,3c0.1,1.2,0.7,2.3,0.6,3.4
			c0.2-0.2,0.1-0.7,0.5-0.8c-0.2-0.4,0.3-0.7,0-1c0.1-0.8,0.2-1.6,0.9-2.2c0.8,0,0.9-1.1,1.7-1.2c0.4,0,0.7,0.6,0.9,0.8
			C866.1,38,866.2,36.9,866.3,36.2 M874.7,38.2c0.5,0.8,0.7,1.8,1.2,2.7c0.3,0.8,0.9,1.3,1.2,2.1c0.3-0.6,0.9-1.1,1.4-1.6
			c0-0.2,0-0.5-0.1-0.6c-0.1-0.3,0-0.8-0.3-1.1c-0.4,0.1,0.1,0.6,0,0.8c-0.2,0.1-0.4,0-0.4-0.2c-0.4-0.1-0.7-0.4-0.8-0.7
			c0.3-0.2-0.1-0.3-0.2-0.4c-0.2-0.1-0.2-0.1-0.3,0.1c-0.1,0-0.2,0-0.2,0C876.1,38.2,875.1,38.7,874.7,38.2 M879.8,39.5
			c-0.1,0.4-0.4,0.8-0.7,1.1l0,0c0.4-0.3,0.7-0.8,1.2-0.8L879.8,39.5z M892.7,40.8c0,0.2,0,0.6,0.3,0.8c0.6-0.1,0.4,0.8,0.9,0.7
			c0.3-0.1,0-0.4,0.1-0.6c-0.1-0.5-0.6-0.5-0.9-0.8c0-0.1,0-0.2,0.1-0.3C892.9,40.5,892.8,40.7,892.7,40.8 M901.9,40.9
			c-0.5,0-1,0.2-1.5-0.1c-0.1-0.1-0.2,0.1-0.2,0.2c-0.2,0.2-0.3,0.6-0.7,0.4c-0.3-0.1-0.3-0.4-0.4-0.7c0,0.2,0,0.3-0.1,0.5
			c-0.3,0.4-0.5,0.7-0.7,1.1c-0.3,0.4-0.9,0.2-1.3,0.6c-0.1,0.8-0.9,0.6-1.4,0.9c0,0.1,0.1,0.1,0.1,0.2c0.2,0.1,0.5,0.1,0.7-0.2
			c0.7,0.2,0.5-0.7,0.9-1c0.3,0,0.7-0.3,1-0.1c0.4,0.4,0.4,1.1,0.4,1.6c-0.4,0.4-0.2,1-0.5,1.5c0.1,0.5-0.6,0.8-0.5,1.3
			c-0.2,0.2-0.6,0.3-0.9,0.3c-1.3-0.5-2.6-0.8-4.1-0.9c-0.1,0-0.2,0.2-0.2,0.3c0.6,0.3,1.3,0.3,1.9,0.6c0.6,0.1,0.9,0.8,1.6,0.6
			c0.6-0.3,1.6,0.2,2-0.4c-0.1-0.6,0.5-1,0.7-1.6l0.2,0c0.3,0.3,0.3,0.8,0.5,1.2c0.5-0.5,0.8-1,1.2-1.5c1.1-1.6,2-3.2,2.4-5
			C902.8,40.7,902.3,40.8,901.9,40.9 M881.4,40.9c-0.7,1.1-2,2.2-3,3.2c1.7,1.4,3.7,2.3,5.9,2.7c0.1-0.4-0.1-1,0.2-1.4
			c0.2-0.4,0.6-0.3,0.9-0.3c0.2,0,0.3-0.3,0.2-0.4c-0.5-0.1-0.3-0.6-0.4-0.9c0-0.2,0.3-0.1,0.2-0.3c-0.3-0.3,0.2-0.6-0.1-0.8
			c0.1-0.1,0.2-0.3,0.4-0.3c-1,0.5-2.1-0.1-3-0.5C882.1,41.6,881.5,41.4,881.4,40.9 M890.8,43.7c0,0.1-0.2,0.4,0,0.4
			c0.4-0.4,1.2-0.4,1.3-1C891.5,43.1,891.2,43.4,890.8,43.7 M892.7,45c-0.5,0-0.8,0.4-1.1,0.7c-0.5,0.3-0.7-0.5-1.1-0.3
			c0,0.1,0.1,0.1,0.2,0.1c0.1,0.1,0.1,0.4,0,0.5c-0.6,0.5-0.8-0.2-1.3-0.2V46c0,0.1,0,0.3-0.2,0.2c-0.3-0.5-1-0.3-1.3-0.8
			c-0.2-0.1-0.4,0-0.6,0.2c-0.1,0.2-0.6,0-0.5,0.4c-0.4,0.1-0.5,0.6-0.8,0.8c-0.5-0.1-0.7,0.5-1.2,0.5c0.1,0.1,0,0.3,0.1,0.3
			c0.3,0.1,0.6,0.2,0.9,0.1c0.5-0.8,1.3-0.1,2-0.4c0.4,0.1,0.1,0.5,0.4,0.7c0.7-0.2,1.2,0.6,1.7,0.1c0-0.8,0.8-0.7,1.3-0.9
			c0.7-0.4,1.6-1,1.5-2L892.7,45z M877,45.4c-1,1.2-2.1,2.4-3.2,3.3c0.5,0,0.8,0.6,1.2,0.8c2.4,2,5.5,3,8.3,3.7l-0.8-0.4
			c-0.6-0.7-1.4-1.5-1.5-2.4c0.6-0.2,0.5-0.8,0.7-1.3c0.5-0.5,1.1-0.8,1.7-0.9c-1.6,0.7-3.1-0.5-4.5-1.2
			C878.3,46.6,877.4,46.2,877,45.4 M899.6,50l-0.1-0.3c-0.1,0.4-0.4,0.6-0.7,0.9c0,0.3-0.1,0.7,0.2,0.8c0.7,0.2,1.5,0.6,1.6,1.4
			c-0.3,0.7-1.6,1.4-0.8,2.2c0.3,0.4-0.4,0.5-0.3,0.9l0.2-0.3c1-0.8,2-1.5,2.9-2.4h0.1c-0.2-0.1-0.4,0.1-0.7,0
			c-0.5-0.2-0.5-0.6-0.5-1.1L899.6,50z M873.4,50.6l-0.1-0.1L873.4,50.6L873.4,50.6z M873.9,51.3c-0.2-0.1-0.3-0.3-0.4-0.5
			L873.9,51.3z M874,51.4c0.1,0.4,0.6,0.6,0.5,1.1c-0.3,0.4-0.8,0.5-1.3,0.4c-0.9-0.1-1.6,0.6-2.5,0.7c-0.8,0.2-1.1-0.7-1.8-0.7
			c4.5,4,9.7,6.4,15.8,6.8l0.5,0.3l-0.2-0.6v-4.3l-0.4,0.2C880.6,55.2,877.1,53.7,874,51.4 M904.2,54.5l-0.1-0.4
			c-0.5,0.9-1.5,1.5-2.2,2.2c-1.1,1.1-2.8,1.3-3.3,2.8c-0.6,0.5-0.8,1.3-1.6,1.6c-0.3,0.8-1.1,0.7-1.6,1.3c-1.4,1.2-2.3-0.8-3.5-1
			l-2.5,0.4c-0.9,0-1.7,0.3-2.5,0c0.1,1.7,0.1,3.5,0,5.1l0.3-0.2c7.9-0.3,14.6-3.3,20.5-8.6L904.2,54.5z M868,54.4l-0.1,0.2
			l-3.4,3.4c5.1,4.4,10.8,7.2,17.4,8.1c1,0.2,2.2,0.1,3.2,0.4l-0.2-0.4v-4.4l0.2-0.2l-0.5,0.1C878.2,61.1,872.6,58.9,868,54.4
			 M886.6,55.6l0.2,0.4c0,1.3,0.2,2.7,0,4c1.2-0.4,2.6-0.3,3.9-0.6c-0.3-0.1-0.5-0.2-0.7-0.4c-0.8,0-1.1-0.8-1.4-1.5
			c-0.1-0.4,0.2-0.8,0.4-1.2c-0.3-0.7-1.3-0.2-1.9-0.4C886.9,55.8,886.8,55.6,886.6,55.6"/>
		<path class="st18" d="M916.6,8.7c2.4,2.1,3.5,4.9,4.2,7.8l0.4,0.9c-3.5-2.5-6.6-5.9-8.8-9.4l-2.7-2.7C912,6.3,914.5,6.9,916.6,8.7
			"/>
		<path class="st18" d="M855.9,12.9c-1.6,2-3.6,3.3-5.4,5c1-2,1-4.4,2.4-6.3c2-3.4,5.6-4.6,8.9-5.9C859.4,7.8,857.7,10.5,855.9,12.9
			"/>
		<path class="st18" d="M925,16.5c0.8,3.4-0.3,6.8,0.4,10.2l0,0c-1.9-3.7-5.8-5.4-8.5-8.3c-1.6-1.7-2.3-3.9-2.7-6.1
			c1.6,3.8,5.8,4.6,8.2,7.8c0.8,0.7,1.1,1.7,1.6,2.6l0.1-0.1c-1.4-3-1.9-6.3-2.8-9.5c-0.5-1.4-1.4-2.7-2.7-3.6
			C921.6,10.2,924.4,13.5,925,16.5"/>
		<path class="st18" d="M853,10.1c-3.2,2.2-3,6.2-4,9.5c-0.3,1.2-0.9,2.3-1.2,3.6l0.1,0.1c0.5-1.4,1.5-2.8,2.7-3.9
			c2.3-2.1,5.7-3.4,6.8-6.6c0,4.4-3.7,7.8-7.2,10.2c-1.4,1.3-2.8,2.7-3.6,4.3c-0.1-1.1,0.2-2.2,0.1-3.4c-0.4-3.8-0.7-8.1,2-11
			C849.8,11.6,851.3,10.6,853,10.1"/>
		<path class="st18" d="M927.1,17.3c2.9,3.9,3.5,10.1,1.4,14.6c-0.8,1.9-1.3,3.9-1.6,6c-0.1-0.4-0.2-0.8-0.3-1.3
			c-1.1-4.4-5.3-7.5-7-11.7c-0.5-1.4-1-2.8-1.3-4.2c1.8,3.4,6.3,5.1,7.5,8.8c0.5,0.9,0.5,2.1,0.8,3.1c0.1,0,0.1,0,0.1-0.1
			c-0.5-3.8-0.4-7.8,0.1-11.6c0-2.1-0.2-4-1.4-5.6C926.2,15.8,926.6,16.7,927.1,17.3"/>
		<path class="st18" d="M846.1,16.1c-2.5,3.8-0.4,8.5-0.5,12.8l-0.3,4.4c0,0,0,0.2,0.2,0.1c0.1-0.5,0.2-1,0.3-1.5
			c0.6-3.5,3.7-6,6.3-8.5c0.6-0.6,1.1-1.3,1.4-2c-0.2,1.8-0.8,3.5-1.5,5.2c-2.1,4.1-6,7.4-6.7,12.1c-0.3-4.5-3.4-7.8-3.1-12.6
			c-0.1-3.8,1.5-7,3.7-9.9C845.9,16.1,846,16,846.1,16.1"/>
		<path class="st18" d="M929.8,42.7c-1.7,2.4-3.8,4.7-5.4,7.2c0.2-2,0.4-4.4-0.4-6.2c-1.3-4-2.5-8.1-2.9-12.4l0-1.7
			c1,4.5,5.4,7.6,5.1,12.6c0.1,1.2-0.3,2.2-0.5,3.3l0.1,0.1l0.2-0.2c0.7-2.5,1-5.1,2-7.4c1.5-3.3,3.2-6.7,2.5-10.6
			C932.8,32,932.2,38.3,929.8,42.7"/>
		<path class="st18" d="M844.8,41.1c0.5,1.6,0.6,3.4,1.3,5c0.1,0,0.1,0,0.2-0.1c-1.7-4.7,0.7-9.1,3.2-12.7c0.6-1,0.9-2.1,1.2-3.2
			c0.3,2.1-0.3,4.6-0.6,6.8c-0.6,2.8-1.5,5.5-2.2,8.2c-0.5,1.7-0.4,3.6-0.1,5.4l-0.2-0.2c-1.8-3.3-5.3-5.8-6.3-9.4
			c-0.9-2.9-1.4-6.2-0.8-9.3c0.3-1.2,0.5-2.4,1-3.6C840.3,33,843.7,36.7,844.8,41.1"/>
		<path class="st18" d="M923,50.4c-0.1,2.2-0.8,4.2-2,5.9h0.2c1.6-2.1,2.8-4.2,4.6-6.2c2.8-2.7,5.7-5.5,6.1-9.3
			c1,6.3-2.6,11.9-7.9,15.5c-2.2,1.4-4.4,2.7-6.5,4.4v-0.2c3.2-5.3,1.6-12.6,3.6-18.4l0.7-2C921.6,43.7,923.2,46.7,923,50.4"/>
		<path class="st18" d="M853,57.6c0.3,1.2,1,2.3,1.5,3.4c-4.9-3.3-11.5-6.5-13.6-12.5c-0.9-2.1-1-4.7-0.8-7.1
			c0.4,5.4,6.2,8.2,8.9,12.7c0.6,0.9,1.2,1.9,2,2.7c-0.1-0.6-0.7-1.1-0.9-1.6c-0.9-1.9-1.3-4.1-1.1-6.4c0.3-2.8,1.4-5.3,1-8.2
			C852.4,45.7,851.7,52.1,853,57.6"/>
		<path class="st18" d="M915.8,61.6c-0.8,1.5-2,2.9-3.3,4c0.4,0,0.8-0.4,1.2-0.6c3.5-3.5,8.1-4.5,11.9-7.3c1.5-1.2,2.9-2.8,3.6-4.5
			c-0.7,5.8-6.5,11.2-11.9,12.9c-2.8,0.8-5.8,1-8.5,1.9c4.6-4,4.4-10.1,7.4-14.8c1-1.3,1.8-2.7,2.9-4C917.1,53.1,918,58,915.8,61.6"
			/>
		<path class="st18" d="M857.6,56.7c1.6,4,2.3,8.5,6,11.6c-4.1-1.3-8.9-1-12.4-3.5c-3.9-2.4-7.4-6.5-8.2-11c2.7,6.1,9.5,6.6,14,10.4
			c0.8,0.7,1.7,1.4,2.7,1.8l0,0c-1-0.9-2.3-2-3-3.2c-2.7-3.7-1.7-8.9-3.7-12.9C854.8,52,856.5,54.3,857.6,56.7"/>
		<path class="st18" d="M905.9,68.7c-1,0.7-2.2,0.8-3.3,1.3c1.5,0,2.8-0.5,4.3-0.6c5.4-0.8,11.5,0,15.3-4.6c-1.4,3.2-4.9,5.9-8.1,7
			c-5.5,2.1-11-0.5-16.3-1.3l-1-0.1v0c2.5-0.6,5-1.3,7-3.1c3-2.8,5.6-5.8,8.9-8C910.2,62.2,910,66.7,905.9,68.7"/>
		<path class="st18" d="M868.2,67.2c2.1,1.8,4.6,2.7,7.2,3.2c-0.6,0.2-1.5,0.2-2.2,0.3c-4.7,1.2-10,3.1-15.1,1.4
			c-3.3-1-6.7-3.6-8.3-6.8c4.3,4.9,11.4,3.3,17.2,4.6c0.8,0.1,1.6,0.4,2.4,0.3c-0.7-0.4-1.6-0.4-2.4-0.8c-4.5-1.6-5.2-6.5-7.7-9.8
			C862.7,61.6,865.3,64.5,868.2,67.2"/>
		<path class="st18" d="M903.6,73.9c3.5,1.3,8.1,0.9,11.1-1.2c-1.5,1.9-3.7,3.3-5.9,4.1c-4.9,1.8-10-0.1-13.8-3
			c-1.6-1-2.9-2.4-4.9-2.3c-0.7,0-1.4,0-2,0.2c3.7,1.7,7.2,4.1,10.3,7.2c-0.5,0.6-1.2,1.2-1.9,1.7c-3-3.3-6.4-6.4-10.2-8.3
			c-0.7,0.1-1.4,0.5-2.1,0.9c-3.1,1.9-6.1,4.4-8.4,7.5l-2-1.6c3.1-3.2,6.6-5.6,10.4-7.4c-3.7-1.2-6.1,1.9-9,3.5
			c-3.3,2.3-8,3.4-12,1.8c-2.1-0.8-4.2-2-5.8-3.9c3.1,2.2,7.8,2.4,11.3,1c4.8-2.1,9.7-4.7,15.5-3.4c0.9,0,1.8,0.9,2.6,0.1
			c4.3-1.1,9.1-0.3,12.8,1.6L903.6,73.9z"/>
		<path class="st18" d="M628.9,80.6c-5.2,0-9.4-1.8-12.4-5.3c-2.6-3.1-3.9-7.1-3.9-11.8V55l10.5-5.6v13.3c0,2.8,0.5,4.8,1.6,6
			c1.1,1.2,2.9,1.8,5.4,1.8h20.7c-1.7-2.3-2.5-5.4-2.5-9.2c0-6.1,1.7-11,5-14.5c2.9-3.1,6.8-4.7,11.7-4.7c4.9,0,8.8,1.6,11.6,4.8
			c2.4,2.7,3.6,6.3,3.6,10.7V65c0,4.8-1.4,8.6-4.3,11.4c-2.8,2.7-6.5,4.1-11.1,4.1H628.9z M669.6,57.4c0-3.7-1.6-5.5-4.7-5.5
			c-2,0-3.6,0.8-4.7,2.4c-1.1,1.6-1.7,3.8-1.7,6.7c0,6.3,2.1,9.5,6.2,9.5c3.3,0,4.9-1.8,4.9-5.4V57.4z M665.8,36.2
			c-1.7,0-3-0.5-4-1.5c-1-1-1.5-2.4-1.5-4.1c0-1.6,0.5-2.9,1.5-3.9c1-1,2.3-1.5,4-1.5s3,0.5,4,1.5c1,1,1.5,2.3,1.5,4
			C671.2,34.3,669.4,36.2,665.8,36.2"/>
		<polygon class="st18" points="691,80.6 691,32.4 701.5,26.8 701.5,80.6 		"/>
		<path class="st18" d="M706.5,80.6l5.3-10.1h13.2c2.8,0,4.3-1.6,4.3-4.9c0-6.1-2.9-10.8-8.8-14.1l5.2-8.9
			c8.7,5.1,13.3,11.9,14,20.6c0.2,2.8,0.8,4.7,1.9,5.8c1,1.1,2.8,1.6,5.3,1.6h6.3v10.1h-6.9c-4.1,0-7.6-1.1-10.4-3.4
			c-2.1,2.3-5,3.4-8.8,3.4H706.5z"/>
		<path class="st18" d="M757.8,55c1.4-4.7,3.9-8.3,7.5-11c3.6-2.7,7.7-4,12.5-4c6.3,0,11.5,2.1,15.6,6.3c3.8,3.9,5.7,8.9,5.7,15.1
			V65c0,5.1-1.6,9-4.8,11.8c-2.8,2.4-6.4,3.7-10.8,3.7h-10.5c-1.9,0-3.7-0.3-5.3-0.8c-1.7,0.6-3.5,0.8-5.3,0.8H748V70.5h8.5
			c-0.9-2.1-1.4-4.3-1.4-6.8C755.1,60.3,756,57.4,757.8,55 M767.6,69.7c3.6-1.2,5.3-3.5,5.3-6.9c0-1.7-0.5-3.1-1.5-4.1
			c-1-1-2.3-1.5-3.9-1.5c-1.6,0-2.9,0.5-3.9,1.5c-1,1-1.5,2.4-1.5,4.1C762.3,66.2,764,68.5,767.6,69.7 M788.6,64.4v-3
			c0-3.5-1-6.3-3-8.4c-2-2.1-4.7-3.2-8-3.2c-2.3,0-4.3,0.5-5.9,1.5c2.6,0.8,4.7,2.3,6.2,4.5c1.5,2.2,2.3,4.9,2.3,7.9
			c0,2.4-0.5,4.7-1.4,6.8h4.6c2.1,0,3.5-0.4,4.2-1.3C788.2,68.3,788.6,66.7,788.6,64.4"/>
		<path class="st18" d="M805.5,22.1l2.7-4.8h2.5c-0.6-1.1-0.9-2.3-0.9-3.4c0-1.8,0.7-3.3,2-4.6c1.3-1.3,2.9-1.9,4.7-1.9
			c1.7,0,3.2,0.6,4.7,1.8v4.8c-1.3-1.2-2.7-1.8-4-1.8c-1.8,0-2.8,0.8-2.8,2.5c0,0.8,0.4,1.7,1.1,2.6h8.3l-2.7,4.8H805.5z
			 M808.6,80.6V32.4l10.5-5.6v53.8H808.6z"/>
		<path class="st18" d="M370.8,75.8h3v4.1h-3.4c-2.1,0-3.7-0.7-4.8-2.1c-1,0.7-2.1,1.1-3.5,1.1c-2.1,0-3.7-0.8-4.9-2.3
			c-1-1.3-1.5-2.8-1.5-4.6c0-2.2,0.7-4,2.2-5.4c1.2-1.2,2.6-1.8,4.2-1.8c0.8,0,1.6,0.2,2.3,0.5v-0.9l4.2-2.2v11.2
			c0,0.9,0.2,1.5,0.6,1.9C369.3,75.6,369.9,75.8,370.8,75.8 M359.9,60.9c-0.7,0-1.2-0.2-1.6-0.6c-0.4-0.4-0.6-1-0.6-1.6
			c0-1.5,0.7-2.2,2.2-2.2c0.7,0,1.2,0.2,1.6,0.6c0.4,0.4,0.6,0.9,0.6,1.6C362.1,60.1,361.4,60.9,359.9,60.9 M364.2,69.5
			c-0.6-0.5-1.2-0.7-2-0.7s-1.3,0.3-1.8,0.9c-0.5,0.6-0.7,1.4-0.7,2.4c0,1,0.2,1.8,0.7,2.4c0.4,0.6,1.1,0.9,1.9,0.9
			c0.9,0,1.5-0.3,2-0.9c0-0.2,0-0.5,0-0.8V69.5z M365.1,60.9c-0.7,0-1.2-0.2-1.6-0.6c-0.4-0.4-0.6-1-0.6-1.6c0-1.5,0.7-2.2,2.2-2.2
			c0.7,0,1.2,0.2,1.6,0.6c0.4,0.4,0.6,0.9,0.6,1.6C367.3,60.1,366.5,60.9,365.1,60.9"/>
		<path class="st18" d="M377.2,70.6c0-2,0.6-3.6,1.9-4.7c1.1-1,2.5-1.5,4.2-1.5c2.2,0,3.9,0.8,5.2,2.5c1.1,1.4,1.6,3.1,1.6,5.3
			c0,2.5-0.7,4.4-2,5.9c-1.2,1.3-2.7,1.9-4.5,1.9c-1.8,0-3.3-0.4-4.4-1.2c-1.1,0.8-2.4,1.2-3.9,1.2h-3.4v-4.1h3
			c0.9,0,1.5-0.2,1.8-0.6s0.5-1,0.5-1.9V70.6z M381.4,73.9c0,1.3,0.7,1.9,2,1.9c1.7,0,2.5-1.3,2.5-3.8c0-2.4-0.9-3.7-2.6-3.7
			c-1.3,0-1.9,0.7-1.9,2.2V73.9z"/>
		<polygon class="st18" points="395.6,79.9 395.6,60.4 399.8,58.2 399.8,79.9 		"/>
		<path class="st18" d="M403.2,79.9l2.1-4.1h5.3c1.1,0,1.7-0.7,1.7-2c0-2.5-1.2-4.4-3.6-5.7l2.1-3.6c3.5,2,5.4,4.8,5.7,8.3
			c0.1,1.1,0.3,1.9,0.8,2.3c0.4,0.4,1.1,0.6,2.1,0.6h2.6v4.1h-2.8c-1.7,0-3.1-0.5-4.2-1.4c-0.8,0.9-2,1.4-3.6,1.4H403.2z"/>
		<path class="st18" d="M431.9,75.8h3v4.1h-3.4c-1.6,0-3-0.4-4.1-1.3c-1.1,0.9-2.4,1.3-4.1,1.3h-3.4v-4.1h3c0.9,0,1.5-0.2,1.8-0.6
			c0.4-0.4,0.5-1,0.5-1.9v-6.2l4.2-2.2v8.4c0,0.9,0.2,1.5,0.5,1.9C430.4,75.6,431.1,75.8,431.9,75.8 M423.1,62
			c-0.7,0-1.2-0.2-1.6-0.6c-0.4-0.4-0.6-1-0.6-1.6c0-0.7,0.2-1.2,0.6-1.6c0.4-0.4,0.9-0.6,1.6-0.6c0.7,0,1.2,0.2,1.6,0.6
			c0.4,0.4,0.6,0.9,0.6,1.6C425.3,61.2,424.6,62,423.1,62 M428.3,62c-0.7,0-1.2-0.2-1.6-0.6c-0.4-0.4-0.6-1-0.6-1.6
			c0-0.7,0.2-1.2,0.6-1.6c0.4-0.4,0.9-0.6,1.6-0.6c0.7,0,1.2,0.2,1.6,0.6c0.4,0.4,0.6,0.9,0.6,1.6C430.5,61.2,429.7,62,428.3,62"/>
		<path class="st18" d="M432.9,79.9v-4.1h3.6c0.9,0,1.5-0.2,1.8-0.6c0.4-0.4,0.6-1,0.6-1.9V69l4.2-2.2v6.7c0,0.9,0.2,1.5,0.5,1.9
			c0.4,0.4,1,0.6,1.8,0.6h2.3c0.9,0,1.5-0.2,1.8-0.6c0.4-0.4,0.5-1,0.5-1.9v-5.3l4.2-2.3v7.6c0,0.9,0.2,1.5,0.6,1.9
			c0.4,0.4,1,0.6,1.8,0.6h2.3c0.9,0,1.5-0.2,1.8-0.6c0.4-0.4,0.5-1,0.5-1.9v-6.2l4.2-2.2v7.9c0,1.1,0.2,1.8,0.7,2.3
			c0.4,0.4,1.2,0.7,2.2,0.7h3.1v4.1h-3.3c-1.9,0-3.4-0.5-4.5-1.6c-1,1.1-2.4,1.6-4.1,1.6h-3.3c-1.7,0-3-0.5-4.1-1.5
			c-1,1-2.2,1.5-3.8,1.5h-3.3c-1.7,0-3-0.5-4.1-1.5c-1.1,1-2.4,1.5-4.1,1.5H432.9z"/>
		<path class="st18" d="M490.9,75.8h3v4.1h-3.4c-1.6,0-2.9-0.4-4-1.2c-1.2,1.3-2.8,1.9-4.8,1.9c-2,0-3.6-0.6-4.8-1.9
			c-1.1,0.8-2.4,1.2-4,1.2h-3.4v-4.1h3c0.9,0,1.5-0.2,1.8-0.6c0.4-0.4,0.5-1,0.5-1.9v-1c0-2.6,0.7-4.7,2.1-6.1
			c1.2-1.3,2.8-1.9,4.8-1.9c2.3,0,4,0.8,5.2,2.5c1,1.4,1.5,3.3,1.5,5.5v1c0,0.9,0.2,1.5,0.6,1.9S490.1,75.8,490.9,75.8 M481.8,76.5
			c1.7,0,2.6-1.4,2.6-4.2c0-2.7-0.9-4-2.6-4c-1.7,0-2.6,1.3-2.6,4C479.2,75.1,480,76.5,481.8,76.5"/>
		<path class="st18" d="M491.9,79.9v-4.1h2.1c1,0,1.8-0.2,2.2-0.7c0.4-0.4,0.7-1.2,0.7-2.3V60.4l4.2-2.3v14.7c0,2.2-0.7,3.9-2,5.2
			c-1.2,1.2-2.8,1.8-4.8,1.8H491.9z"/>
		<polygon class="st18" points="507.1,79.9 507.1,60.4 511.4,58.2 511.4,79.9 		"/>
		<path class="st18" d="M382.3,38.4h3.8v4.7h-4.4c-4,0-6.9-1.5-8.6-4.4c-1.9,1.8-4.2,2.7-6.9,2.7c-3.4,0-6.1-1.3-8.1-3.8
			c-1.7-2.2-2.5-4.8-2.5-8c0-3.8,1.1-6.8,3.4-9.1c1.9-2,4.3-3,7.1-3c2.1,0,4,0.5,5.5,1.6v-2.5l5.1-2.7v18.6
			C376.6,36.5,378.5,38.4,382.3,38.4 M371.6,24.6c-1.4-1.6-3.2-2.4-5.3-2.4c-1.7,0-3.1,0.7-4.2,2.1c-1.1,1.4-1.6,3.2-1.6,5.4
			c0,2.2,0.5,4,1.6,5.4c1.1,1.4,2.5,2,4.2,2c2.2,0,3.9-0.9,5.3-2.7c-0.1-0.7-0.1-1.2-0.1-1.6V24.6z M364.1,10.3
			c-1.9,0-2.8-1-2.8-2.9c0-1.9,0.9-2.8,2.8-2.8c1.9,0,2.8,1,2.8,2.8C366.9,9.4,365.9,10.3,364.1,10.3 M371.5,10.3
			c-1.9,0-2.8-1-2.8-2.9c0-1.9,0.9-2.8,2.8-2.8c1.9,0,2.8,1,2.8,2.8C374.2,9.4,373.3,10.3,371.5,10.3"/>
		<path class="st18" d="M402.8,38.4h3.8v4.7h-4.4c-3.2,0-5.7-1-7.6-3.1c-1.9,2.1-4.4,3.1-7.6,3.1h-4.4v-4.7h3.8
			c3.8,0,5.7-1.9,5.7-5.8v-12l5-2.7v14.7C397.1,36.5,399,38.4,402.8,38.4 M388.9,49c1.9,0,2.8,1,2.8,2.9c0,1.9-0.9,2.8-2.8,2.8
			c-1.9,0-2.8-1-2.8-2.8C386.1,49.9,387,49,388.9,49 M396.3,49c1.9,0,2.8,1,2.8,2.9c0,1.9-0.9,2.8-2.8,2.8c-1.9,0-2.8-1-2.8-2.8
			C393.5,49.9,394.4,49,396.3,49"/>
		<path class="st18" d="M440.5,38.4h3.9v4.7H440c-3.2,0-5.7-1-7.6-3.1c-2,2.8-4.9,4.2-8.6,4.2c-3.8,0-6.7-1.4-8.6-4.2
			c-1.8,2-4.4,3-7.6,3h-4.4v-4.7h3.8c3.8,0,5.7-1.9,5.7-5.8v-1.9c0-4.5,1.1-7.9,3.3-10.3c1.9-2.1,4.5-3.2,7.8-3.2
			c3.7,0,6.6,1.4,8.6,4.1c1.7,2.4,2.6,5.5,2.6,9.4v1.9C434.9,36.5,436.8,38.4,440.5,38.4 M423.8,39.6c1.9,0,3.4-0.8,4.5-2.4
			c1.1-1.6,1.7-3.8,1.7-6.6c0-5.9-2.1-8.8-6.2-8.8c-4.1,0-6.1,2.9-6.1,8.8C417.7,36.6,419.7,39.6,423.8,39.6"/>
		<path class="st18" d="M461.2,38.4h3.8v4.7h-4.4c-3.2,0-5.7-1-7.6-3.1c-1.9,2.1-4.4,3.1-7.6,3.1H441v-4.7h3.8
			c3.8,0,5.7-1.9,5.7-5.8v-12l5-2.7v14.7C455.5,36.5,457.4,38.4,461.2,38.4 M452,10.9c-1.9,0-2.8-1-2.8-2.9c0-1.9,0.9-2.8,2.8-2.8
			c1.9,0,2.8,1,2.8,2.8C454.8,10,453.8,10.9,452,10.9"/>
		<path class="st18" d="M481.7,38.4h3.8v4.7h-4.4c-3.2,0-5.7-1-7.6-3.1c-1.9,2.1-4.4,3.1-7.6,3.1h-4.4v-4.7h3.8
			c3.8,0,5.7-1.9,5.7-5.8v-12l5-2.7v14.7C476,36.5,477.9,38.4,481.7,38.4 M468,11.3c-1.9,0-2.8-1-2.8-2.9c0-1.9,0.9-2.8,2.8-2.8
			c1.9,0,2.8,1,2.8,2.8C470.8,10.4,469.9,11.3,468,11.3 M475.4,11.3c-1.9,0-2.8-1-2.8-2.9c0-1.9,0.9-2.8,2.8-2.8
			c1.9,0,2.8,1,2.8,2.8C478.2,10.4,477.3,11.3,475.4,11.3"/>
		<path class="st18" d="M482.1,43.1v-4.7h3.1c4,0,6-2.1,6-6.3V8.4l5.1-2.7v26.5c0,3.4-1,6.2-3.1,8.2c-1.9,1.9-4.5,2.8-7.6,2.8H482.1
			z"/>
		<polygon class="st18" points="506.7,43.1 506.7,8.4 511.7,5.7 511.7,43.1 		"/>
	</g>
</g>
<g id="Layer_1">
</g>
</svg>
