<svg xmlns="http://www.w3.org/2000/svg" width="951.47" height="83.59" viewBox="0 0 951.47 83.59"><defs><style>.cls-1{fill:#fff;}.cls-2{fill:#5fba46;}.cls-3{fill:#e4b634;}.cls-4{fill:#c4202e;}.cls-5{fill:#4d9f46;}.cls-6{fill:#3f7f44;}.cls-7{fill:#f9c213;}.cls-8{fill:#ee402b;}.cls-9{fill:#f89e28;}.cls-10{fill:#1896d3;}.cls-11{fill:#a11c44;}.cls-12{fill:#25bde2;}.cls-13{fill:#f16a2b;}.cls-14{fill:#e7223c;}.cls-15{fill:#dc1768;}.cls-16{fill:#17486a;}.cls-17{fill:#c7982e;}.cls-18{fill:#03699c;}</style></defs><title>SDGsAsset 1003</title><g id="Layer_2" data-name="Layer 2"><g id="OUTLINES"><path class="cls-1" d="M72.61,23.34a31.12,31.12,0,0,1,2.08,22.07c-2.15,8.4-9.22,16.9-17.45,20.35C48,70.3,34.82,69.17,26.57,63.25,15.09,55.38,10.4,41.83,13.87,28.46A31.91,31.91,0,0,1,30,8.8,33.24,33.24,0,0,1,44.32,5.41,31.57,31.57,0,0,1,72.61,23.34ZM45,7a22.23,22.23,0,0,1,0,4.33.63.63,0,0,1,.14-.37c.22-.13.41.06.5.22s.11.59-.08.72c.19,0,.29-.11.46-.11a23.61,23.61,0,0,1,9.91,3v-.08c.61-.29,1.39-.69,2-.15.75-.29.9.64,1.51.75a3.28,3.28,0,0,1,1.66,2.12c.14.28.58.49.65.78a11.84,11.84,0,0,1,2.37-2.74l.53-.22A29.28,29.28,0,0,0,48,7.33,25.58,25.58,0,0,1,45,7Zm-1.76.16a30.54,30.54,0,0,0-16.89,6c-1,.66-1.81,1.66-2.78,2.23h.14a26.69,26.69,0,0,1,3.47,3.34l.08-.22a24.92,24.92,0,0,1,16-6.75l-.15-.38,0-3.76Zm5.39,2.37-2.26,1c-.19-.08-.55-.17-.68.08-.09.08,0,.19,0,.27.84,1.06,2.28.47,3.32.26a2,2,0,0,0,2-.53v-.11A3.17,3.17,0,0,0,48.58,9.48Zm-3.66,3.88.16.29c0,1.46.06,3-.08,4.38a5,5,0,0,1,1.8.07,18.34,18.34,0,0,1,8.45,3.39,2.25,2.25,0,0,1-.72-1.13.18.18,0,0,1,.19-.07c0-.48-.49-.73-.57-1.17A.31.31,0,0,1,54.5,19a10.34,10.34,0,0,1,1.38,1.61c.34-.14.63.08.88.27.45.27.17.85.52,1.16.06.93,1.19,1.45,1.13,2.37,0,.22.28.05.37.16l.95,1.16a.45.45,0,0,0,.15.64c.43.19.66-.34,1.08-.26.62.34-.09.75,0,1.13.24,0,.54-.19.73.05s-.29.56-.43.78.28.27.54.35.45.33.37.56c.79.82-.23,1.7.14,2.56a1.49,1.49,0,0,1-.4,1.54c0,.69-.62,1.11-.87,1.69l-.8.16c-.42.43.36.94-.06,1.21l1.76,0L61.72,36A2.61,2.61,0,0,1,62,33.73,4.92,4.92,0,0,1,62.79,32c.11,0,.31-.24.4,0a3.05,3.05,0,0,1-.26,1.61,4.78,4.78,0,0,1,.48,2.56c1.56-.09,3.08-.12,4.6-.11l-.14-.3a22.44,22.44,0,0,0-2-8.13c-.33,0-.56.28-.94.19a.3.3,0,0,1-.19-.31A22.37,22.37,0,0,0,63,25.6c-.8.08-1.16-.85-1.88-.94-.64-.27-.2-1.3-1.13-1a1.51,1.51,0,0,1-1-1.05,2.59,2.59,0,0,0-.89-2.23c-.57-.21-.8.55-1.37.42-.31-.16-.17-.56-.27-.83s-.37-.41-.33-.72c.74-1-.89-1-.53-1.92-.09-.69-.8-1-1.16-1.51a25.81,25.81,0,0,0-7.62-2.18A5.25,5.25,0,0,1,44.92,13.36Zm14.21,0c-.33.31-.61-.29-.91.08a.58.58,0,0,0,.11.45c.66.24.74,1.19,1.58,1,.25-.28-.15-.58-.08-.94A.9.9,0,0,0,59.13,13.39ZM31,17.61c-1,.68-1.87,1.55-2.88,2.15a25,25,0,0,1,3.18,2.94l.11.29a18.82,18.82,0,0,1,9.41-4.77A8.44,8.44,0,0,1,43.26,18a31,31,0,0,1,0-4.52A24.12,24.12,0,0,0,31,17.61Zm34.88-1.43a35.92,35.92,0,0,1-3.12,3.36l-.54.11c.33.08.43.47.65.71,1.14.61,1.44,1.83,2.45,2.53.56,1.17,1.87,2.08,1.91,3.43a25,25,0,0,1,2.39,9.75l-.13.19a.66.66,0,0,0,.38-.14L74.34,36c-.3-.44-.17-1.08-.25-1.62C73.49,27.44,70.51,21.46,65.83,16.18Zm-43.17.11a30.84,30.84,0,0,0-8,17.15c-.17.94-.06,1.91-.25,2.87a30.21,30.21,0,0,1,4.85,0l-.11-.61a25.56,25.56,0,0,1,4.71-13.46,13.1,13.1,0,0,1,2.1-2.4c-1-1-2.09-2.07-3.15-3.13ZM43.3,19.57l-.26.16a18.37,18.37,0,0,0-10.48,4.44,41.23,41.23,0,0,1,3.35,3.13,3,3,0,0,0,.23-.35,14.31,14.31,0,0,1,4.79-2.48,7.33,7.33,0,0,1,2.37-.27A21.08,21.08,0,0,1,43.3,19.57Zm1.65,0,.16.35,0,4.25.4-.07A13.74,13.74,0,0,1,52.53,27l.11.33c.71-1,1.78-1.84,2.61-2.78l.79-.46-.38-.15A18.19,18.19,0,0,0,50,20.67,28.57,28.57,0,0,0,45,19.6Zm-18,1.18,0,.3-1.69,2.15a25,25,0,0,0-4.49,13l4.3-.08.41.16c-.18-.11-.13-.3-.19-.46a18.88,18.88,0,0,1,5-11.79A30.52,30.52,0,0,1,26.94,20.78Zm30,4.37-.08.18c-1.45,1.51-3,3.07-4.41,4.6a1,1,0,0,0,.42.46c.06-.38.27-.71.3-1.1.38-.52.94-.19,1.43-.08a11.27,11.27,0,0,1,2.23.16c.56.28.61,1,1.13,1.29a.44.44,0,0,1-.16.59c.16,1.18.72-.31,1.32,0,.25.1.57.06.75.33.1.49.69.39.73.86,0,.24-.3.3-.46.43.14.47-.49.77-.27,1.27.91.17.94-.88,1.37-1.35a8.55,8.55,0,0,0-.88-2.37c-.52-.11-.83-.72-1.35-.83-1-.4.16-1,0-1.62A18.69,18.69,0,0,0,57,25.15Zm-25.55.15A18.55,18.55,0,0,0,27.21,34a13.93,13.93,0,0,1-.38,2.34,4,4,0,0,1,2-.08c-.37-.19-.07-.64-.27-.89s-.11-.88.27-1.13c-.05-.65.64-1,.7-1.56s.93-.22,1.29-.56c.24-.13,0-.35,0-.52.32-.43.8-.41,1.18-.65a3.41,3.41,0,0,1,1-1.09c.94,0,1-1.29,1.85-1.32A39.36,39.36,0,0,1,31.43,25.3ZM45,25.82c.3.9,0,2.21.22,3.25l1.13.38c.33-.55,1-.66,1.36-1.18.21-.17.44,0,.6.19a3,3,0,0,1-.19,1.25c-.42.85-1.43,1-2,1.57.36.21.56-.17.86-.25a1.89,1.89,0,0,1,1,.71c.29.13.55,0,.8-.14.18-1.3,1.81-1.12,2.3-2.34l-.3.11c-.13-.17-.44-.09-.43-.38a3.35,3.35,0,0,1,1-.75,16.17,16.17,0,0,0-4.48-2A14.22,14.22,0,0,1,45,25.82ZM36.55,29.1h.35c.37.38,1,.3,1.27.8.14.29-.27.25-.25.49.08.06.19.08.25.19.3.11.23-.17.34-.3.4-.39.46.38.84.38a.57.57,0,0,1,.83.11c.25-.22.78,0,.86-.43.49-.51.22-1.32.94-1.65.26.15,0,.38.08.6.49.2,1-.41,1.43.08A9.71,9.71,0,0,1,43.26,26,10.71,10.71,0,0,0,36.55,29.1Zm7.62,2.61c-.25-.28-.8-.11-1.13,0,.31.31.18.88.37,1.27a3,3,0,0,1-2,1.18c-.21.25-.16.8-.65.75-.15.35-.69.55-.48,1.05A9.75,9.75,0,0,0,40,37.77c-.93.58-.66-.77-1.13-1.05l-.16.26c-.18.05-.31-.06-.44-.18s-.37-.1-.5,0c-.2.34-.52.62-.44,1.1-.09.28-.56.18-.5.48a8.57,8.57,0,0,0,1.59-.22c.36.1.65-.17,1-.19a.36.36,0,0,1,.22.38h.12a.63.63,0,0,0,.25-.75c0-.33.4-.33.62-.43.2.1.07.3.1.46.71.27-.17.78-.26,1.16s0,1-.6.88a.22.22,0,0,1-.16-.27h-.07a.8.8,0,0,0,.42.71c.44-.36.46-1,1.08-1,.33-.35-.14-.88.35-1.16.82,0,1.69-.37,2.34.29,0,.29-.16.41.08.65a3.17,3.17,0,0,1-.57,1.05.54.54,0,0,1-.16.6c-.22.95-1.31.5-2,.83a5,5,0,0,0,3.47.94c.68,0,.38-.86.72-1.24.22-1.1,1.23-.35,1.84-.64A4.28,4.28,0,0,0,47.82,39a1.06,1.06,0,0,1-.42-1.18c-.27-.36-.24-1-.82-1.08a.32.32,0,0,1,.07-.38c0-.35.33-.46.42-.72-.36-.24-.27-.76-.23-1.06-.62.18-.68-.62-1.13-.8-.12-.36-.51-.42-.82-.48-.75.36-.88-.57-1.45-.79-.06-.17-.18-.42,0-.56s.66,0,1,0ZM30.52,35.59c-1.27.4.21,1.36-.11,2.15-.17.45-.64,0-1,.22l-.13.83c-.18.49-.8.12-1.08.45s0,.65.19.9c-.44,1,1,1.32,1,2.23.44.56-.06,1.38.57,1.88.14,1-.14,2.4.75,3.21l.16,1c.19.67-.8.5-.68,1.1.19-.1.24.15.25.22v0a41.29,41.29,0,0,1,4-4.12l-.6-.59a15.75,15.75,0,0,1-2.41-5.39L31,39.39a13.38,13.38,0,0,0-.22,1.39l-.16.19c-.33,0-.53-.28-.81-.45-.07-.18-.24-.46,0-.6a.48.48,0,0,1,.37.11c.15-.17.08-.42.16-.64.05-.38-.28-.73-.05-1.06.3,0,.52.33.65.54.3.09.53-.16.78-.27,0-.27.38-.63,0-.78a3.78,3.78,0,0,0,0-1.86C31.53,35.45,31,35.54,30.52,35.59Zm29.39.53a1.3,1.3,0,0,1-.45,0A1.14,1.14,0,0,1,59.91,36.12Zm-1,1.54.49.49c.48.33.15,1,.67,1.31s.83,1,1.1,1.56a1.35,1.35,0,0,0,.14-.46c.22-.86.19-1.83.46-2.68A6.64,6.64,0,0,1,58.94,37.66Zm10.74.22-.27-.19.16.42a25.26,25.26,0,0,1-5,14,10.54,10.54,0,0,1-1.85,2,33.49,33.49,0,0,1,3.5,3.44l.13-.24A30.25,30.25,0,0,0,74.2,38.11l.19-.37-.24.11Zm-6.3-.11a15.62,15.62,0,0,1-.22,2.82l.52.57a.57.57,0,0,1-.11.72.6.6,0,0,1-.72-.05,20.4,20.4,0,0,1-2.75,6,6.92,6.92,0,0,1-1.69,1.92L59.83,51c.08-.07,0-.2.05-.31s.1-.41.33-.38c.69,0,.71.73,1.1,1.1-.08.6.44,1.07.27,1.62a23.34,23.34,0,0,0,6.29-15l.22-.25c-1.41.14-2.9,0-4.36.06Zm-36.62,0,.23.37a12.76,12.76,0,0,1,.22,3.08c.17-.3.22-.71.6-.9,0-.28-.38-.36-.33-.64.3-.58,0-1.52.78-1.77A1.82,1.82,0,0,1,26.76,37.82Zm-7.57.06-.43.16L14.4,38a31.87,31.87,0,0,0,3.85,13.79,50.6,50.6,0,0,0,4.17,5.87l3.13-3.23.37-.16a10,10,0,0,1-1.46-1.51,2.17,2.17,0,0,1-1.32-1c-.15-.18,0-.49-.18-.61l-.19.23c-.55.27-.76-.3-1.13-.53s-.25-1.2-.91-1c-.25,0-.33-.3-.49-.46-.61.06-.77-.61-1.1-.94-.06.14,0,.33-.19.42-.63.14-.85-.63-1.27-.94-.11.05-.19.17-.35.14a1.88,1.88,0,0,1-.64-1.32c-.52-.58-.28-1.5-.19-2.21.1-.19.36-.3.32-.53.14-.33.48-.37.81-.38a.84.84,0,0,1,.32.3c.2-.13.66,0,.48-.44a2,2,0,0,1,1-.38,6.5,6.5,0,0,0,.71,1l-.22-.34A24.73,24.73,0,0,1,19.19,39c0-.1-.21-.15-.08-.24l0,0A5.49,5.49,0,0,1,19.19,37.88Zm6.14,0L25,38a39.17,39.17,0,0,1-4.36-.11l.18.26.35,2.89a22.68,22.68,0,0,1,.6,3.28c.17-.23.06-.7.48-.75-.17-.35.33-.64.05-.94a3.16,3.16,0,0,1,.9-2.08c.8,0,.86-1.08,1.66-1.13.41,0,.66.54.83.73A3,3,0,0,1,25.33,37.88Zm8.07,1.93c.44.82.67,1.74,1.13,2.56.28.72.91,1.29,1.19,2A11,11,0,0,1,37,42.82a.85.85,0,0,0-.14-.61c-.14-.33,0-.8-.27-1.08-.41.14.14.55,0,.78a.25.25,0,0,1-.38-.18,1.05,1.05,0,0,1-.75-.71c.3-.19-.08-.27-.16-.43s-.17-.06-.3.08-.17,0-.23,0C34.78,39.75,33.77,40.28,33.4,39.81Zm4.93,1.24a2.35,2.35,0,0,1-.65,1l0,0c.38-.27.64-.75,1.13-.78Zm12.4,1.29a1.13,1.13,0,0,0,.25.75c.61-.09.34.75.91.68.31-.1,0-.36.11-.57-.09-.47-.55-.52-.86-.8,0-.09,0-.17.08-.25C51,42,50.87,42.16,50.73,42.34Zm8.89,0c-.46,0-1,.23-1.4-.08-.14-.13-.24.06-.22.19-.16.23-.32.53-.68.42s-.28-.42-.37-.64a2,2,0,0,1-.08.49,5.38,5.38,0,0,0-.68,1c-.33.36-.86.23-1.21.53-.06.75-.89.6-1.36.83,0,.1.08.11.12.19a.64.64,0,0,0,.68-.15c.66.17.52-.66.89-1,.33,0,.65-.33,1-.11a2.21,2.21,0,0,1,.38,1.59c-.38.37-.19,1-.46,1.43.07.52-.56.75-.48,1.27a1.14,1.14,0,0,1-.87.27A14.55,14.55,0,0,0,51,47.8a.27.27,0,0,0-.19.3c.56.3,1.26.31,1.85.56s.9.81,1.57.6,1.51.19,1.89-.41c-.07-.58.44-1,.69-1.5L57,47.3c.31.33.29.81.44,1.18.44-.47.78-1,1.17-1.48a13.83,13.83,0,0,0,2.29-4.85A4.24,4.24,0,0,0,59.62,42.37Zm-19.79,0a24,24,0,0,1-2.9,3.12,12,12,0,0,0,5.65,2.61c.11-.42-.06-1,.16-1.32s.58-.33.89-.27a.27.27,0,0,0,.19-.41c-.45-.09-.25-.59-.41-.87,0-.16.29-.13.22-.33-.31-.25.16-.54-.11-.8.11-.08.19-.26.35-.26-1,.52-2.06-.11-2.94-.5C40.52,43.11,39.93,42.87,39.83,42.37ZM49,45.12c0,.12-.21.34,0,.42.38-.39,1.18-.38,1.21-.94C49.61,44.52,49.33,44.82,49,45.12Zm1.78,1.17c-.49,0-.74.38-1.1.68s-.66-.47-1-.3c0,.08.09.11.16.14a.38.38,0,0,1,0,.46c-.54.48-.79-.24-1.29-.19v.19c0,.11,0,.28-.19.22-.31-.52-1-.33-1.27-.79-.21-.11-.39,0-.54.16s-.61,0-.48.38c-.39.14-.44.56-.72.81-.49-.08-.71.47-1.17.46,0,.09,0,.25.15.26a1.53,1.53,0,0,0,.91.11c.47-.75,1.25-.12,1.91-.4.41.07.13.51.43.67.64-.2,1.13.55,1.64.08,0-.74.8-.68,1.26-.86.71-.43,1.51-1,1.43-1.93Zm-15.15.44a23.79,23.79,0,0,1-3.13,3.21c.49,0,.76.56,1.17.8a19.67,19.67,0,0,0,8,3.58L40.88,54c-.56-.64-1.36-1.4-1.39-2.29.56-.19.5-.82.69-1.24a3.12,3.12,0,0,1,1.65-.91c-1.59.66-3-.52-4.29-1.13A6.1,6.1,0,0,1,35.58,46.73Zm21.81,4.38-.11-.29a2.77,2.77,0,0,1-.71.89c0,.25-.08.63.22.8.63.21,1.44.61,1.58,1.35-.25.69-1.57,1.32-.75,2.07.27.38-.38.52-.27.84l.22-.3a21.44,21.44,0,0,0,2.8-2.34h.11c-.19-.06-.43.12-.65,0a1,1,0,0,1-.51-1Zm-25.25.6-.06-.11.06.19Zm.5.68a.7.7,0,0,1-.37-.49Zm.11.12c.1.38.6.61.46,1.08S32.39,54,32,54c-.89-.14-1.55.53-2.4.63s-1-.71-1.74-.63A24.67,24.67,0,0,0,43,60.53l.44.3-.18-.53V56.15l-.38.16A18.23,18.23,0,0,1,32.75,52.51Zm29,2.94-.08-.38c-.44.86-1.42,1.41-2.15,2.07-1,1-2.69,1.24-3.21,2.72-.55.5-.73,1.29-1.5,1.57-.29.75-1.09.71-1.54,1.25-1.32,1.18-2.17-.75-3.36-1l-2.4.42a7.48,7.48,0,0,1-2.45,0,36.87,36.87,0,0,1,0,4.93l.29-.19A30.57,30.57,0,0,0,65.08,58.6ZM26.91,55.4l0,.19-3.24,3.25a31.8,31.8,0,0,0,16.74,7.83,26.85,26.85,0,0,1,3.12.38l-.23-.38V62.42l.15-.24-.48.13A24.8,24.8,0,0,1,26.91,55.4Zm17.93,1.1.24.34a33.48,33.48,0,0,1,0,3.88,24,24,0,0,1,3.76-.53,1.37,1.37,0,0,1-.69-.41c-.73-.05-1.08-.82-1.31-1.4-.11-.42.17-.77.34-1.13-.31-.64-1.29-.17-1.85-.41C45.17,56.72,45.06,56.53,44.84,56.5Z"/><path class="cls-1" d="M73.71,11.36a13.89,13.89,0,0,1,4,7.49l.38.88a33.09,33.09,0,0,1-8.51-9L67,8.05C69.29,9,71.75,9.6,73.71,11.36Z"/><path class="cls-1" d="M15.34,15.46c-1.54,1.9-3.5,3.15-5.24,4.79.94-1.95,1-4.27,2.31-6.06,1.9-3.32,5.41-4.48,8.55-5.7C18.65,10.51,17.05,13.07,15.34,15.46Z"/><path class="cls-1" d="M81.88,18.93c.74,3.3-.33,6.51.34,9.84l0,0c-1.79-3.53-5.6-5.19-8.23-8a11.22,11.22,0,0,1-2.55-5.89c1.5,3.63,5.55,4.43,7.88,7.48a10.12,10.12,0,0,1,1.54,2.48l.07-.08c-1.33-2.86-1.79-6.08-2.71-9.12a7.16,7.16,0,0,0-2.64-3.46C78.6,12.82,81.25,16,81.88,18.93Z"/><path class="cls-1" d="M12.48,12.76c-3.1,2.13-2.9,6-3.89,9.15-.31,1.18-.86,2.26-1.13,3.47l.08.06a10.81,10.81,0,0,1,2.56-3.76c2.21-2,5.48-3.32,6.56-6.33-.05,4.19-3.55,7.49-6.89,9.84A13.91,13.91,0,0,0,6.3,29.34c-.08-1.05.16-2.12.08-3.25-.36-3.66-.63-7.84,2-10.55A7.77,7.77,0,0,1,12.48,12.76Z"/><path class="cls-1" d="M83.84,19.65a14.72,14.72,0,0,1,1.37,14.08,24.71,24.71,0,0,0-1.59,5.81c-.14-.34-.17-.81-.3-1.21-1.1-4.22-5.1-7.23-6.75-11.22A20.56,20.56,0,0,1,75.36,23c1.76,3.25,6.09,4.93,7.27,8.51a15.34,15.34,0,0,1,.75,3,.12.12,0,0,0,.13-.11,41.17,41.17,0,0,1,.14-11.2,9.21,9.21,0,0,0-1.32-5.41C83,18.25,83.35,19,83.84,19.65Z"/><path class="cls-1" d="M5.84,18.47c-2.38,3.63-.41,8.2-.52,12.33L5,35s0,.16.16.11a13.91,13.91,0,0,0,.26-1.46C6,30.26,9,27.85,11.54,25.49a6.57,6.57,0,0,0,1.32-2,17.54,17.54,0,0,1-1.44,5c-2,3.92-5.73,7.14-6.41,11.63-.33-4.3-3.26-7.52-3-12.09-.09-3.7,1.45-6.73,3.61-9.5C5.72,18.52,5.76,18.46,5.84,18.47Z"/><path class="cls-1" d="M86.45,44.1c-1.65,2.34-3.65,4.52-5.17,6.9.17-1.88.39-4.2-.34-6a51.6,51.6,0,0,1-2.75-12l0-1.62c1,4.32,5.2,7.29,4.94,12.12a10.67,10.67,0,0,1-.49,3.2l.08.08.19-.22a47.62,47.62,0,0,1,1.91-7.08c1.4-3.19,3.12-6.4,2.42-10.25C89.4,33.8,88.75,39.86,86.45,44.1Z"/><path class="cls-1" d="M4.63,42.59a41.43,41.43,0,0,0,1.21,4.79c.07,0,.11,0,.16-.08-1.62-4.52.71-8.71,3.05-12.25a12,12,0,0,0,1.17-3.12,26.4,26.4,0,0,1-.56,6.51c-.57,2.7-1.42,5.26-2.15,7.89a12.25,12.25,0,0,0-.11,5.19l-.24-.19c-1.71-3.15-5.1-5.62-6.11-9.07a19.19,19.19,0,0,1-.81-8.93,16.45,16.45,0,0,1,1-3.43C.25,34.8,3.55,38.33,4.63,42.59Z"/><path class="cls-1" d="M80,51.52a11.31,11.31,0,0,1-1.91,5.7h.18a72.74,72.74,0,0,1,4.45-6c2.73-2.63,5.51-5.33,5.87-9,.93,6.11-2.5,11.46-7.57,14.91-2.09,1.37-4.2,2.64-6.22,4.2v-.19c3.08-5.12,1.57-12.14,3.47-17.76l.71-1.88C78.55,45,80.07,48,80,51.52Z"/><path class="cls-1" d="M12.55,58.46A36,36,0,0,0,14,61.77C9.31,58.59,2.94,55.56.87,49.72A14.52,14.52,0,0,1,.08,42.9c.38,5.2,6,8,8.56,12.25a14,14,0,0,0,2,2.59c-.13-.55-.64-1-.83-1.59a11.17,11.17,0,0,1-1-6.14c.25-2.65,1.36-5.11.94-7.91C12,47,11.28,53.14,12.55,58.46Z"/><path class="cls-1" d="M73,62.34a15.63,15.63,0,0,1-3.2,3.85c.41,0,.77-.38,1.13-.62,3.37-3.36,7.77-4.3,11.41-7a11,11,0,0,0,3.44-4.33c-.69,5.57-6.23,10.8-11.46,12.46-2.7.72-5.59,1-8.21,1.85,4.44-3.81,4.19-9.71,7.16-14.2a46.35,46.35,0,0,1,2.82-3.82C74.28,54.13,75.06,58.82,73,62.34Z"/><path class="cls-1" d="M16.93,57.63c1.57,3.86,2.16,8.23,5.79,11.15-3.93-1.29-8.52-.93-12-3.35C7,63.11,3.58,59.17,2.88,54.83c2.6,5.91,9.13,6.39,13.51,10A10.64,10.64,0,0,0,19,66.56l.05,0a14.7,14.7,0,0,1-2.87-3.13c-2.56-3.56-1.67-8.56-3.58-12.39A29,29,0,0,1,16.93,57.63Z"/><path class="cls-1" d="M63.49,69.12a23.22,23.22,0,0,1-3.15,1.21,33.35,33.35,0,0,0,4.09-.61c5.19-.82,11.12,0,14.75-4.4-1.35,3.08-4.73,5.65-7.81,6.74-5.29,2-10.61-.46-15.68-1.27l-1-.13v0a14.18,14.18,0,0,0,6.7-3c2.84-2.73,5.37-5.54,8.53-7.69C67.61,62.92,67.36,67.19,63.49,69.12Z"/><path class="cls-1" d="M27.18,67.69a14.64,14.64,0,0,0,7,3.1c-.61.22-1.41.15-2.07.33-4.57,1.13-9.66,3-14.51,1.31a14,14,0,0,1-8-6.59c4.18,4.76,11,3.17,16.58,4.41a7.64,7.64,0,0,0,2.34.3c-.66-.42-1.59-.38-2.31-.75-4.36-1.54-5-6.27-7.38-9.45C21.84,62.35,24.38,65.07,27.18,67.69Z"/><path class="cls-1" d="M61.28,74.13A12.09,12.09,0,0,0,72,73a12.62,12.62,0,0,1-5.65,4c-4.71,1.76-9.62-.07-13.3-2.87-1.49-.94-2.81-2.31-4.74-2.18a6.23,6.23,0,0,0-2,.19A36.06,36.06,0,0,1,56.25,79a14.08,14.08,0,0,1-1.8,1.63c-2.92-3.15-6.17-6.18-9.8-8a6.41,6.41,0,0,0-2,.87,30.28,30.28,0,0,0-8.07,7.2l-1.89-1.55a34.42,34.42,0,0,1,10-7.11c-3.58-1.13-5.92,1.86-8.64,3.39-3.17,2.21-7.72,3.25-11.55,1.72a12.54,12.54,0,0,1-5.54-3.8,12.25,12.25,0,0,0,10.92,1c4.6-2,9.38-4.52,14.92-3.32.86,0,1.71.88,2.53.15a17.71,17.71,0,0,1,12.32,1.55Z"/><path class="cls-1" d="M689.2,35.64h17.31c14,0,22.14,8.19,22.14,23s-10.15,23-21.89,23H689.2Zm16.94,38.17c9.42,0,13-8.08,13-15.23,0-7.71-3.3-15.11-13.7-15.11h-7V73.81Z"/><path class="cls-1" d="M761.8,35.64H771V62.55c0,14.38-9.12,19.94-19.15,19.94s-19.14-5.56-19.14-19.94V35.64h9.17v27c0,7.65,3.43,11.69,10,11.69s10-4,10-11.69Z"/><path class="cls-1" d="M791.59,63.47H786.2V81.64H777v-46h17.19c9.66,0,15.17,6,15.17,13.7,0,4.83-2.63,11.13-8.57,12.91l10.71,19.39H800.58Zm.73-7.46c6.3,0,7.89-3.37,7.89-6.3,0-3.31-1.59-6.24-8.2-6.24H786.2V56Z"/><path class="cls-1" d="M839.42,72H822.6l-3,9.61h-9.91l16.76-46h9.66l16.52,46H842.54ZM831.1,46.71H831l-5.82,17.86H837Z"/><path class="cls-1" d="M854.64,35.64H871c9.78,0,14.86,5,14.86,12.48a9.92,9.92,0,0,1-6.18,9.48v.12c4.1,1,7.65,4.71,7.65,10.46,0,8.44-6.49,13.46-16,13.46h-16.7Zm14.75,18.9c4.34,0,7.27-2,7.27-5.63s-2.81-5.44-6.48-5.44h-6.36V54.54Zm.48,19.27c5.82,0,7.9-2.57,7.9-5.81,0-2.94-1.84-6-7.16-6h-6.79V73.81Z"/><path class="cls-1" d="M891.77,35.64h9.17V73.07h17.68v8.57H891.77Z"/><path class="cls-1" d="M922.11,35.64h29.36v8.19H931.28V54.29h19.64v8.2H931.28V73.44h20.19v8.2H922.11Z"/><path class="cls-1" d="M689.2,5.06H697c6.3,0,10,3.71,10,10.4s-4.59,10.4-9.9,10.4H689.2Zm7.66,17.26c4.26,0,5.86-3.65,5.86-6.89,0-3.48-1.49-6.83-6.19-6.83h-3.18V22.32Z"/><path class="cls-1" d="M709.06,5.06h13.27V8.77h-9.12V13.5h8.87v3.7h-8.87v4.95h9.12v3.71H709.06Z"/><path class="cls-1" d="M730.32,5.06h7.83c6.31,0,10,3.71,10,10.4s-4.6,10.4-9.91,10.4h-7.94ZM738,22.32c4.26,0,5.86-3.65,5.86-6.89,0-3.48-1.49-6.83-6.2-6.83h-3.18V22.32Z"/><path class="cls-1" d="M750.18,5.06h13.28V8.77h-9.13V13.5h8.88v3.7h-8.88v4.95h9.13v3.71H750.18ZM757.32,0h3.73l-3.87,3.87h-2.3Z"/><path class="cls-1" d="M776.82,5.06h4.48l-6.75,20.8h-4.37L763.4,5.06H768l4.45,15.3h.05Z"/><path class="cls-1" d="M782.21,5.06h13.27V8.77h-9.12V13.5h8.88v3.7h-8.88v4.95h9.12v3.71H782.21Z"/><path class="cls-1" d="M797.45,5.06h4.15V22h8v3.87H797.45Z"/><path class="cls-1" d="M820.37,4.67c6.48,0,10.13,5.2,10.13,10.79s-3.65,10.79-10.13,10.79-10.12-5.2-10.12-10.79S813.9,4.67,820.37,4.67Zm0,3.71c-3.87,0-5.8,3.35-5.8,7.08s1.93,7.08,5.8,7.08,5.81-3.34,5.81-7.08S824.25,8.38,820.37,8.38Z"/><path class="cls-1" d="M832.52,5.06h6.77c3.27,0,7.22,1.5,7.22,6.61,0,4.79-3.57,6.58-6.89,6.58h-3v7.61h-4.14ZM839,14.71c2.74,0,3.37-1.65,3.37-3A3.06,3.06,0,0,0,839,8.6h-2.36v6.11Z"/><path class="cls-1" d="M847.75,5.06h6.78c3.26,0,7.22,1.5,7.22,6.61,0,4.79-3.57,6.58-6.89,6.58h-3v7.61h-4.15Zm6.48,9.65c2.73,0,3.37-1.65,3.37-3a3.07,3.07,0,0,0-3.35-3.07H851.9v6.11Z"/><path class="cls-1" d="M863,5.06h13.28V8.77h-9.13V13.5H876v3.7h-8.88v4.95h9.13v3.71H863Z"/><path class="cls-1" d="M895.77,12h-.06l-5.56,13.88h-2.32l-5.56-13.61h-.06V25.86h-4V5.06H883l6,14.16,6-14.16h4.73v20.8h-4Z"/><path class="cls-1" d="M902.68,5.06H916V8.77h-9.13V13.5h8.88v3.7h-8.88v4.95H916v3.71H902.68Z"/><path class="cls-1" d="M922,11.67h-.06V25.86h-4V5.06h4.45l8.44,14h.05v-14h4v20.8h-4.29Z"/><path class="cls-1" d="M941.84,8.77h-5.48V5.06h15.11V8.77H946V25.86h-4.15Z"/><path class="cls-2" d="M618.49,32.93A22.58,22.58,0,0,1,622,28.39L610.43,15.68a39.73,39.73,0,0,0-7.35,9.58Z"/><path class="cls-3" d="M646.89,24a22.41,22.41,0,0,1,4.86,3l11.62-12.68a39.56,39.56,0,0,0-10.3-6.43Z"/><path class="cls-4" d="M673.5,27.78l-15.4,7.67a22.15,22.15,0,0,1,1.54,5.45l17.13-1.62a39.34,39.34,0,0,0-3.27-11.5"/><path class="cls-5" d="M657,33.23l15.4-7.68a39.63,39.63,0,0,0-7.2-9.55L653.58,28.68A22.36,22.36,0,0,1,657,33.23"/><path class="cls-6" d="M615.43,44.17c0-.34,0-.69,0-1L598.32,41.6c-.05.85-.09,1.71-.09,2.57a39.36,39.36,0,0,0,1.17,9.53L616,49a22.16,22.16,0,0,1-.52-4.78"/><path class="cls-7" d="M654.84,58.25a22.23,22.23,0,0,1-4.18,3.93l9,14.65a39.38,39.38,0,0,0,8.86-8.23Z"/><path class="cls-8" d="M659.88,44.17a22.33,22.33,0,0,1-.51,4.73l16.54,4.75a39,39,0,0,0,1.16-9.48c0-.81,0-1.62-.08-2.42l-17.13,1.62c0,.27,0,.53,0,.8"/><path class="cls-9" d="M620.75,58.58,607.05,69a39.67,39.67,0,0,0,9,8.1l9-14.63a22.29,22.29,0,0,1-4.29-3.88"/><path class="cls-10" d="M615.71,40.66a21.59,21.59,0,0,1,1.64-5.52L602,27.48a39,39,0,0,0-3.39,11.65Z"/><path class="cls-11" d="M657.6,78.16l-9-14.63a22,22,0,0,1-5.28,2.14l3.19,16.92a39.08,39.08,0,0,0,11.12-4.43"/><path class="cls-12" d="M658.71,51.3a22.66,22.66,0,0,1-2.4,5L670,66.61a39.21,39.21,0,0,0,5.2-10.56Z"/><path class="cls-13" d="M640.86,66.16a21.28,21.28,0,0,1-3.21.24,24.32,24.32,0,0,1-2.58-.15l-3.19,16.92a40.71,40.71,0,0,0,5.77.42,39.55,39.55,0,0,0,6.39-.52Z"/><path class="cls-14" d="M639.07,22a22.15,22.15,0,0,1,5.5,1.06L650.75,7a39,39,0,0,0-11.68-2.21Z"/><path class="cls-15" d="M632.62,65.82a22.28,22.28,0,0,1-5.46-2.06l-9,14.64a39,39,0,0,0,11.32,4.32Z"/><path class="cls-16" d="M631,23a22.67,22.67,0,0,1,5.62-1V4.77a39.33,39.33,0,0,0-11.84,2.15Z"/><path class="cls-17" d="M619.24,56.6a22,22,0,0,1-2.62-5.25l-16.54,4.74A39.22,39.22,0,0,0,605.54,67Z"/><path class="cls-18" d="M623.88,26.74a22.64,22.64,0,0,1,4.77-2.89l-6.22-16A39.27,39.27,0,0,0,612.29,14Z"/><path class="cls-1" d="M174.89,4.61h26.83c16.08,0,24.42,8.24,24.42,20.5,0,8.34-4.73,13.06-10.15,15.57v.2c6.73,1.61,12.56,7.74,12.56,17.19,0,13.86-10.65,22.1-26.23,22.1H174.89Zm24.22,31.05c7.13,0,11.95-3.22,11.95-9.25,0-6.23-4.62-8.94-10.65-8.94H190V35.66Zm.8,31.65c9.55,0,13-4.22,13-9.55,0-4.82-3-9.84-11.75-9.84H190V67.31Z"/><path class="cls-1" d="M230,4.61h34.57V54.45c0,23.91-14.27,26.33-29.54,26.33h-4.83V67.91h7.74c7.34,0,11.55-2.21,11.55-10V18.07H230Z"/><path class="cls-1" d="M274.46,4.61H322.7V18.07H289.53V35.26h32.26V48.72H289.53v18H322.7V80.17H274.46Z"/><path class="cls-1" d="M379.36,31.44c-2.21-9.75-8.84-14.77-17.48-14.77-12.26,0-19.7,11.75-19.7,25.82,0,16,7.84,25.62,20.1,25.62,7.24,0,14.27-4.82,16.88-13.36l15.48,1.1c-5.23,16.89-17.49,25.73-33,25.73-20.5,0-35.17-13.87-35.17-39.19,0-22.81,14.37-39.19,35.17-39.19,15.87,0,28.94,7.84,32.86,27.23Z"/><path class="cls-1" d="M416.74,18.07h-19.9V4.61H451.7V18.07H431.81v62.1H416.74Z"/><path class="cls-1" d="M458,4.61H473.1V80.17H458Z"/><path class="cls-1" d="M484.55,4.61h44.32V18.07H499.63V35.26h28.54V48.72H499.63V80.17H484.55Z"/><path class="cls-1" d="M571,24.5c0-5.22-5-8.44-11.06-8.44-7.53,0-12,3.32-12,8.34,0,5.23,5,7.74,8.74,9l13.86,4.42c10,3.21,17.19,9,17.19,20.7,0,9.24-6.64,23.11-27.54,23.11-26.22,0-28.64-17-28.64-23.72l15.08-.3c0,8,6.33,11.16,13.66,11.16,5.13,0,12.36-2.52,12.36-8.34,0-4-1.7-6.13-9.14-8.85L547,45.61c-8.34-3-14.17-10.35-14.17-18.9,0-9.64,6.63-23.51,26.23-23.51,23.31,0,27,15.47,27,21Z"/><path class="cls-1" d="M133.86,3.73c23.38,0,36.57,18.78,36.57,39s-13.19,39-36.57,39S97.3,62.87,97.3,42.69,110.49,3.73,133.86,3.73Zm0,13.39c-14,0-21,12.08-21,25.57s7,25.58,21,25.58,21-12.09,21-25.58S147.85,17.12,133.86,17.12Z"/></g></g></svg>