<svg xmlns="http://www.w3.org/2000/svg" width="938.42" height="82.67" viewBox="0 0 938.42 82.67"><defs><style>.cls-1{fill:#fff;}.cls-2{fill:#5fba46;}.cls-3{fill:#e4b634;}.cls-4{fill:#c4202e;}.cls-5{fill:#4d9f46;}.cls-6{fill:#3f7f44;}.cls-7{fill:#f9c213;}.cls-8{fill:#ee402b;}.cls-9{fill:#f89e28;}.cls-10{fill:#1896d3;}.cls-11{fill:#a11c44;}.cls-12{fill:#25bde2;}.cls-13{fill:#f16a2b;}.cls-14{fill:#e7223c;}.cls-15{fill:#dc1768;}.cls-16{fill:#17486a;}.cls-17{fill:#c7982e;}.cls-18{fill:#03699c;}</style></defs><title>SDGsAsset 801</title><g id="Layer_2" data-name="Layer 2"><g id="OUTLINES"><path class="cls-1" d="M636.94,2.77h11c8.88,0,14.1,5.22,14.1,14.65s-6.47,14.65-14,14.65H636.94Zm10.79,24.32c6,0,8.26-5.15,8.26-9.71,0-4.9-2.1-9.62-8.73-9.62h-4.48V27.09Z"/><path class="cls-1" d="M665,2.77h18.7V8H670.87v6.67h12.51v5.22H670.87v7h12.86v5.22H665Z"/><path class="cls-1" d="M695.22,2.77h11c8.88,0,14.11,5.22,14.11,14.65s-6.47,14.65-14,14.65H695.22ZM706,27.09c6,0,8.26-5.15,8.26-9.71,0-4.9-2.11-9.62-8.73-9.62h-4.48V27.09Z"/><path class="cls-1" d="M723.31,2.77H742V8H729.16v6.67h12.51v5.22H729.16v7H742v5.22H723.31Z"/><path class="cls-1" d="M759.08,10.49c0-2-2-3.27-4.28-3.27-2.93,0-4.68,1.28-4.68,3.23s2,3,3.39,3.47l5.38,1.71c3.89,1.25,6.66,3.51,6.66,8,0,3.58-2.57,9-10.68,9-10.17,0-11.1-6.59-11.1-9.2l5.84-.11c0,3.11,2.46,4.32,5.3,4.32,2,0,4.8-1,4.8-3.23,0-1.56-.67-2.38-3.55-3.43l-6.39-2.3a7.94,7.94,0,0,1-5.49-7.33c0-3.74,2.57-9.11,10.17-9.11,9,0,10.48,6,10.48,8.14Z"/><path class="cls-1" d="M784.76,26H774l-1.91,6.11h-6.31L776.5,2.77h6.15l10.52,29.3h-6.43Zm-5.3-16.13h-.08l-3.7,11.37h7.52Z"/><path class="cls-1" d="M803.85,20.5h-3.43V32.07h-5.85V2.77h10.95c6.16,0,9.67,3.86,9.67,8.73,0,3.08-1.68,7.09-5.46,8.22l6.82,12.35h-7Zm.46-4.75c4,0,5-2.15,5-4,0-2.1-1-4-5.22-4h-3.7v8Z"/><path class="cls-1" d="M827.61,20.5h-3.43V32.07h-5.84V2.77h10.95c6.15,0,9.66,3.86,9.66,8.73,0,3.08-1.67,7.09-5.45,8.22l6.82,12.35h-7Zm.47-4.75c4,0,5-2.15,5-4,0-2.1-1-4-5.22-4h-3.71v8Z"/><path class="cls-1" d="M855.08,2.23c9.12,0,14.26,7.32,14.26,15.19s-5.14,15.2-14.26,15.2-14.26-7.33-14.26-15.2S846,2.23,855.08,2.23Zm0,5.22c-5.46,0-8.18,4.71-8.18,10s2.72,10,8.18,10,8.18-4.72,8.18-10S860.53,7.45,855.08,7.45Z"/><path class="cls-1" d="M872.3,2.77h5.84V26.62H889.4v5.45H872.3Z"/><path class="cls-1" d="M891.74,2.77h5.85V26.62h11.26v5.45H891.74Z"/><path class="cls-1" d="M924.16,2.23c9.12,0,14.26,7.32,14.26,15.19s-5.14,15.2-14.26,15.2-14.26-7.33-14.26-15.2S915,2.23,924.16,2.23Zm0,5.22c-5.46,0-8.19,4.71-8.19,10s2.73,10,8.19,10,8.18-4.72,8.18-10S929.61,7.45,924.16,7.45Z"/><path class="cls-1" d="M656.62,50.73c0-2.75-2.65-4.45-5.83-4.45-4,0-6.35,1.75-6.35,4.4s2.65,4.07,4.61,4.71l7.3,2.33c5.3,1.69,9.06,4.76,9.06,10.91,0,4.87-3.5,12.17-14.51,12.17-13.82,0-15.09-8.94-15.09-12.49l7.94-.16c0,4.23,3.34,5.88,7.2,5.88,2.7,0,6.51-1.33,6.51-4.4,0-2.12-.9-3.23-4.81-4.66L644,61.85a10.79,10.79,0,0,1-7.46-10c0-5.09,3.49-12.39,13.82-12.39,12.28,0,14.24,8.15,14.24,11.06Z"/><path class="cls-1" d="M687.27,39.51c12.39,0,19.38,10,19.38,20.64s-7,20.65-19.38,20.65-19.38-10-19.38-20.65S674.88,39.51,687.27,39.51Zm0,7.09c-7.41,0-11.12,6.41-11.12,13.55s3.71,13.56,11.12,13.56,11.12-6.41,11.12-13.56S694.68,46.6,687.27,46.6Z"/><path class="cls-1" d="M729.94,50.73c0-2.75-2.65-4.45-5.82-4.45-4,0-6.36,1.75-6.36,4.4s2.65,4.07,4.61,4.71l7.3,2.33c5.3,1.69,9.06,4.76,9.06,10.91,0,4.87-3.5,12.17-14.51,12.17-13.82,0-15.09-8.94-15.09-12.49l7.94-.16c0,4.23,3.34,5.88,7.2,5.88,2.7,0,6.52-1.33,6.52-4.4,0-2.12-.9-3.23-4.82-4.66l-8.68-3.12a10.78,10.78,0,0,1-7.47-10c0-5.09,3.49-12.39,13.82-12.39,12.28,0,14.24,8.15,14.24,11.06Z"/><path class="cls-1" d="M750.74,47.34H740.26V40.25h28.91v7.09H758.68V80.06h-7.94Z"/><path class="cls-1" d="M772.24,40.25h25.41v7.09H780.18V56.4h17v7.09h-17V73h17.47v7.09H772.24Z"/><path class="cls-1" d="M809.3,52.9h-.11V80.06h-7.62V40.25h8.52L826.24,67h.1V40.25H834V80.06h-8.21Z"/><path class="cls-1" d="M840.16,40.25h7.94V80.06h-7.94Z"/><path class="cls-1" d="M854.29,40.25h14.14c8.47,0,12.87,4.34,12.87,10.8a8.57,8.57,0,0,1-5.35,8.2v.11c3.55.85,6.62,4.08,6.62,9,0,7.31-5.62,11.65-13.82,11.65H854.29Zm12.76,16.36c3.76,0,6.3-1.7,6.3-4.87S870.92,47,867.74,47h-5.51v9.59Zm.43,16.68c5,0,6.83-2.23,6.83-5,0-2.54-1.59-5.18-6.2-5.18h-5.88V73.29Z"/><path class="cls-1" d="M886.59,40.25h7.94v32.4h15.3v7.41H886.59Z"/><path class="cls-1" d="M913,40.25h25.42v7.09H921V56.4h17v7.09H921V73h17.47v7.09H913Z"/><path class="cls-1" d="M74.63,20.52a32,32,0,0,1,2.13,22.69c-2.21,8.64-9.47,17.37-17.92,20.92-9.52,4.66-23.05,3.5-31.53-2.59-11.8-8.08-16.63-22-13.06-35.75A32.82,32.82,0,0,1,30.87,5.58,34,34,0,0,1,45.56,2.1,32.42,32.42,0,0,1,74.63,20.52ZM46.2,3.68a22.66,22.66,0,0,1,0,4.45.71.71,0,0,1,.14-.39c.23-.12.42.07.52.23s.11.61-.08.74c.19,0,.29-.11.47-.11a24.08,24.08,0,0,1,10.18,3.1v-.08c.63-.31,1.44-.71,2.08-.16.78-.29.92.66,1.55.77a3.38,3.38,0,0,1,1.71,2.18c.15.29.6.5.66.81a12.37,12.37,0,0,1,2.44-2.83l.55-.22a30,30,0,0,0-17.12-8.1A24.87,24.87,0,0,1,46.2,3.68Zm-1.81.16A31.43,31.43,0,0,0,27,10c-1,.68-1.86,1.71-2.85,2.29h.14a27.6,27.6,0,0,1,3.57,3.44l.08-.23A25.62,25.62,0,0,1,44.46,8.55l-.15-.39-.05-3.87Zm5.54,2.44-2.33,1c-.19-.08-.56-.18-.69.08-.1.08,0,.19,0,.27.86,1.1,2.34.49,3.41.28a2.06,2.06,0,0,0,2.1-.55V7.24A3.25,3.25,0,0,0,49.93,6.28Zm-3.76,4,.16.31c0,1.5.06,3.1-.08,4.5a5,5,0,0,1,1.85.07,18.89,18.89,0,0,1,8.69,3.48A2.3,2.3,0,0,1,56,17.46a.19.19,0,0,1,.2-.07c0-.5-.5-.75-.58-1.21A.33.33,0,0,1,56,16a10.42,10.42,0,0,1,1.42,1.66c.36-.14.65.08.91.28.46.27.17.87.53,1.19.06.95,1.22,1.48,1.16,2.44,0,.22.29,0,.39.16l1,1.19a.47.47,0,0,0,.16.66c.43.2.67-.35,1.11-.27.63.35-.1.77,0,1.16.24,0,.55-.19.74,0s-.29.58-.44.81.29.27.55.35a.45.45,0,0,1,.39.58c.81.84-.24,1.74.15,2.63a1.56,1.56,0,0,1-.42,1.58c0,.71-.63,1.15-.89,1.75l-.82.16c-.44.43.37,1-.07,1.24l1.81,0-.2-.19a2.68,2.68,0,0,1,.25-2.29,5.21,5.21,0,0,1,.85-1.78c.12,0,.33-.24.42,0a3.22,3.22,0,0,1-.27,1.66,5,5,0,0,1,.5,2.63c1.6-.09,3.16-.12,4.73-.11l-.15-.3A23,23,0,0,0,67.66,25c-.34,0-.58.29-1,.19a.31.31,0,0,1-.19-.32,22,22,0,0,0-1.77-2c-.83.08-1.2-.87-1.94-1-.66-.27-.21-1.34-1.16-1.05a1.56,1.56,0,0,1-1-1.08,2.65,2.65,0,0,0-.92-2.29c-.58-.21-.82.56-1.4.43-.33-.16-.18-.58-.28-.85s-.38-.42-.34-.74c.76-1-.92-1-.54-2-.1-.71-.83-1-1.2-1.55a26.16,26.16,0,0,0-7.83-2.24A5.54,5.54,0,0,1,46.17,10.26Zm14.6,0c-.34.33-.63-.29-.93.08a.63.63,0,0,0,.11.47c.68.24.76,1.23,1.63,1,.26-.29-.16-.59-.08-1A1,1,0,0,0,60.77,10.29Zm-29,4.35c-1,.69-1.92,1.59-3,2.21a24.8,24.8,0,0,1,3.26,3l.12.31a19.4,19.4,0,0,1,9.68-4.91,8.48,8.48,0,0,1,2.55-.19,30.09,30.09,0,0,1,0-4.65A24.82,24.82,0,0,0,31.81,14.64Zm35.85-1.47a36.49,36.49,0,0,1-3.21,3.45l-.55.11c.34.08.44.49.67.73,1.17.63,1.48,1.89,2.51,2.6.58,1.21,1.92,2.14,2,3.53a25.53,25.53,0,0,1,2.45,10l-.13.2a.67.67,0,0,0,.39-.15l4.65-.08c-.31-.45-.18-1.11-.26-1.66C75.54,24.74,72.47,18.59,67.66,13.17Zm-44.37.11A31.73,31.73,0,0,0,15,30.9c-.18,1-.07,2-.26,3a31.84,31.84,0,0,1,5,0l-.11-.63A26.21,26.21,0,0,1,24.48,19.4a13.21,13.21,0,0,1,2.16-2.47c-1.05-1-2.14-2.13-3.24-3.21Zm21.22,3.37-.28.16a18.79,18.79,0,0,0-10.76,4.57,45.36,45.36,0,0,1,3.44,3.21c.08-.11.16-.22.24-.35a14.63,14.63,0,0,1,4.92-2.55,7.45,7.45,0,0,1,2.44-.28A21,21,0,0,1,44.51,16.65Zm1.69,0,.16.36,0,4.37.42-.08a14.18,14.18,0,0,1,7.24,3l.12.34c.72-1,1.82-1.88,2.68-2.85l.8-.47-.38-.16a18.7,18.7,0,0,0-5.81-3.36A29.07,29.07,0,0,0,46.2,16.68ZM27.69,17.89l0,.31-1.74,2.21a25.78,25.78,0,0,0-4.62,13.4l4.42-.09.42.17c-.17-.12-.13-.31-.19-.47A19.43,19.43,0,0,1,31.1,21.3,32.29,32.29,0,0,1,27.69,17.89Zm30.87,4.49-.08.19C57,24.12,55.37,25.72,54,27.3a1,1,0,0,0,.43.47,11.11,11.11,0,0,0,.31-1.13c.39-.53,1-.19,1.47-.08a11.13,11.13,0,0,1,2.29.16c.58.29.63,1,1.16,1.32a.46.46,0,0,1-.16.62c.16,1.21.74-.33,1.36,0,.25.09.58.06.77.33.1.5.71.41.74.89,0,.24-.3.31-.47.44.15.48-.5.79-.27,1.3.93.18,1-.9,1.4-1.38a8.73,8.73,0,0,0-.9-2.44c-.53-.11-.86-.74-1.39-.86-1-.4.16-1,0-1.66A19.08,19.08,0,0,0,58.56,22.38Zm-26.25.16A18.91,18.91,0,0,0,28,31.48a14.6,14.6,0,0,1-.39,2.41,3.93,3.93,0,0,1,2-.08c-.37-.2-.07-.67-.28-.92-.05-.41-.11-.91.28-1.17-.05-.66.66-1,.72-1.59s.95-.23,1.33-.58c.24-.13,0-.36,0-.54.32-.43.82-.42,1.21-.66A3.43,3.43,0,0,1,34,27.22c1,0,1-1.32,1.9-1.35A38.73,38.73,0,0,1,32.31,22.54Zm13.94.53c.31.92,0,2.28.23,3.34l1.16.39c.34-.56,1.08-.68,1.4-1.21.21-.18.45,0,.61.2a3.19,3.19,0,0,1-.19,1.29c-.43.87-1.47,1-2.05,1.61.37.21.58-.18.89-.26a2,2,0,0,1,1.08.73c.29.13.56-.05.82-.15.18-1.34,1.86-1.14,2.36-2.4l-.31.11c-.13-.18-.45-.1-.43-.39a3.47,3.47,0,0,1,1-.77,16.57,16.57,0,0,0-4.59-2.1A13.6,13.6,0,0,1,46.25,23.07Zm-8.68,3.38h.35c.39.38,1,.3,1.31.82.15.29-.27.26-.26.5.08.06.2.08.26.19.31.12.24-.17.36-.3.4-.41.46.38.85.38a.61.61,0,0,1,.86.12c.25-.23.8,0,.88-.44.5-.53.23-1.35,1-1.69.26.14,0,.38.08.61.5.21,1.07-.42,1.47.08a10.26,10.26,0,0,1-.24-3.52A11,11,0,0,0,37.57,26.45Zm7.82,2.68c-.25-.29-.82-.12-1.16,0,.32.32.2.9.39,1.3a3,3,0,0,1-2,1.21c-.21.26-.16.83-.66.78-.16.35-.71.56-.5,1.08a10.19,10.19,0,0,0-.28,1.85c-1,.6-.67-.79-1.16-1.08l-.16.28c-.19.05-.32-.07-.45-.2s-.39-.09-.52,0c-.21.35-.53.64-.45,1.13-.1.29-.58.19-.51.5a9.73,9.73,0,0,0,1.62-.23c.38.1.68-.18,1-.19a.34.34,0,0,1,.23.38h.13a.65.65,0,0,0,.26-.77c0-.34.4-.34.63-.44.21.1.08.31.11.47.72.28-.18.81-.28,1.2s0,1-.61.9a.23.23,0,0,1-.16-.28h-.08a.82.82,0,0,0,.44.73c.45-.37.46-1,1.11-1.08.34-.36-.15-.9.35-1.19.84,0,1.75-.38,2.41.3-.05.29-.16.42.08.66a3.23,3.23,0,0,1-.58,1.08.58.58,0,0,1-.16.62c-.23,1-1.36.51-2,.85A5.08,5.08,0,0,0,46,40c.69,0,.38-.89.74-1.27.22-1.13,1.26-.36,1.89-.66a4.55,4.55,0,0,0,.54-1.51,1.07,1.07,0,0,1-.43-1.21c-.28-.37-.24-1-.84-1.11a.32.32,0,0,1,.06-.39c0-.35.34-.46.44-.74-.37-.24-.28-.77-.24-1.08-.63.18-.7-.65-1.16-.82-.12-.37-.52-.44-.84-.5-.78.37-.91-.58-1.49-.81-.06-.18-.19-.44,0-.58s.68,0,1-.05Zm-14,4c-1.31.42.21,1.41-.11,2.21-.18.47-.66,0-1,.23l-.13.85c-.2.5-.82.13-1.11.47s0,.66.19.92c-.45,1,1,1.36,1,2.29.45.58-.06,1.42.58,1.94.15,1-.14,2.47.78,3.29l.16,1c.19.7-.83.52-.7,1.13.2-.1.24.16.26.23v0a42.33,42.33,0,0,1,4.15-4.22l-.61-.62a16.14,16.14,0,0,1-2.49-5.53L31.87,37a14.13,14.13,0,0,0-.22,1.43l-.17.2c-.33,0-.54-.29-.83-.47-.07-.18-.25-.47,0-.62a.59.59,0,0,1,.39.12c.14-.18.08-.44.16-.66,0-.39-.29-.75-.05-1.08.3,0,.53.33.66.54.31.1.55-.16.81-.27,0-.27.38-.65,0-.81a3.71,3.71,0,0,0,0-1.9C32.4,33,31.81,33.06,31.37,33.11Zm30.21.55a1.43,1.43,0,0,1-.47,0A1.25,1.25,0,0,1,61.58,33.66Zm-1,1.58.5.5c.5.34.16,1.07.69,1.36s.86,1,1.13,1.59a1.65,1.65,0,0,0,.15-.46c.22-.89.19-1.89.47-2.76A6.85,6.85,0,0,1,60.58,35.24Zm11,.23-.28-.2.16.44A26,26,0,0,1,66.39,50a10.57,10.57,0,0,1-1.91,2.08,33.41,33.41,0,0,1,3.6,3.53l.13-.24a31,31,0,0,0,8.05-19.7l.2-.39-.25.12Zm-6.48-.12a17.66,17.66,0,0,1-.22,2.91l.53.58a.58.58,0,0,1-.11.74.62.62,0,0,1-.74,0,21,21,0,0,1-2.83,6.17,7,7,0,0,1-1.74,2L61.5,49c.08-.08,0-.21,0-.33s.09-.41.34-.38c.71,0,.72.74,1.13,1.13-.09.61.45,1.09.27,1.66a23.91,23.91,0,0,0,6.47-15.38L70,35.4c-1.46.15-3,.05-4.49.07Zm-37.64,0,.24.39A13.39,13.39,0,0,1,28,39c.17-.3.22-.72.61-.92.05-.29-.39-.37-.34-.66.31-.6,0-1.56.81-1.82A1.86,1.86,0,0,1,27.5,35.4Zm-7.78.07-.43.16-4.49,0a32.93,32.93,0,0,0,3.95,14.16,53.66,53.66,0,0,0,4.3,6l3.21-3.33.38-.16a9.62,9.62,0,0,1-1.5-1.55,2.18,2.18,0,0,1-1.35-1c-.16-.18,0-.5-.2-.63l-.19.24c-.56.28-.77-.3-1.16-.54s-.26-1.23-.94-1c-.26,0-.34-.31-.5-.47-.63.06-.79-.63-1.13-1-.06.15,0,.34-.19.44-.65.14-.87-.65-1.31-1-.11,0-.19.18-.35.14a1.83,1.83,0,0,1-.66-1.35c-.54-.6-.3-1.55-.2-2.28.1-.19.37-.3.32-.55.15-.33.5-.37.84-.38a.87.87,0,0,1,.33.3c.21-.13.67,0,.5-.45A2.15,2.15,0,0,1,20,40.82a6.05,6.05,0,0,0,.72,1l-.22-.36a25.29,25.29,0,0,1-.78-4.91c0-.09-.21-.14-.08-.24l0,0A5.84,5.84,0,0,1,19.72,35.47Zm6.31,0-.35.16a37,37,0,0,1-4.49-.11l.19.27.36,3a23.91,23.91,0,0,1,.61,3.37c.18-.24.07-.72.5-.77-.18-.36.34-.66,0-1a3.23,3.23,0,0,1,.92-2.13c.82,0,.89-1.11,1.71-1.16.42,0,.68.55.86.74A3,3,0,0,1,26,35.47Zm8.29,2c.46.84.7,1.79,1.17,2.63.29.74.93,1.33,1.22,2.05a11.07,11.07,0,0,1,1.36-1.58.86.86,0,0,0-.15-.63c-.14-.34,0-.82-.27-1.11-.42.14.14.56,0,.8a.26.26,0,0,1-.39-.19,1.08,1.08,0,0,1-.78-.73c.31-.19-.08-.27-.16-.43s-.17-.07-.3.08c-.08,0-.18,0-.24,0C35.75,37.39,34.71,37.94,34.32,37.45Zm5.07,1.28a2.38,2.38,0,0,1-.66,1.05l.05,0c.39-.28.66-.78,1.16-.81Zm12.75,1.32a1.2,1.2,0,0,0,.26.77c.63-.09.35.78.93.7.33-.1,0-.37.12-.58-.1-.49-.57-.53-.89-.83,0-.09,0-.17.08-.25C52.4,39.73,52.28,39.87,52.14,40.05Zm9.13,0c-.46,0-1,.24-1.43-.08-.15-.13-.25.07-.23.19-.16.25-.32.55-.69.44s-.29-.44-.39-.66a1.64,1.64,0,0,1-.08.5,5.19,5.19,0,0,0-.69,1.08c-.34.37-.89.24-1.25.55-.06.77-.92.61-1.4.85,0,.1.08.12.13.2a.64.64,0,0,0,.69-.16c.68.17.53-.68.92-1,.34-.05.66-.34,1-.11a2.29,2.29,0,0,1,.38,1.63c-.38.38-.19,1-.46,1.46.06.54-.58.78-.5,1.31a1.16,1.16,0,0,1-.89.28,14.61,14.61,0,0,0-4-.92.28.28,0,0,0-.2.3,19.25,19.25,0,0,0,1.91.58c.54.15.92.83,1.61.62s1.55.19,1.94-.42c-.07-.6.45-1,.71-1.55l.19-.05c.32.34.31.84.45,1.21.45-.48.81-1,1.21-1.52a14.41,14.41,0,0,0,2.36-5A4.58,4.58,0,0,0,61.27,40.08Zm-20.33,0a25.38,25.38,0,0,1-3,3.21A12.26,12.26,0,0,0,43.76,46c.12-.43-.06-1,.17-1.35s.59-.34.92-.28a.27.27,0,0,0,.19-.42c-.47-.09-.26-.61-.42-.9,0-.16.29-.13.23-.34-.33-.26.16-.55-.12-.82.12-.08.2-.26.36-.26-1,.53-2.12-.11-3-.52C41.65,40.84,41,40.6,40.94,40.08Zm9.38,2.83c0,.13-.23.35,0,.43.38-.4,1.21-.39,1.24-1C51,42.29,50.7,42.6,50.32,42.91Zm1.82,1.21c-.5,0-.76.38-1.13.69s-.68-.48-1-.31c0,.08.1.12.16.15a.36.36,0,0,1,0,.47c-.55.5-.8-.24-1.32-.2v.2c0,.11,0,.29-.19.22-.33-.53-1-.34-1.31-.8-.21-.12-.41,0-.55.16s-.63,0-.5.38c-.4.15-.45.59-.74.84-.5-.08-.73.49-1.2.47,0,.1,0,.26.15.28a1.69,1.69,0,0,0,.93.11c.49-.78,1.3-.13,2-.42.42.08.13.53.44.69.66-.21,1.16.57,1.69.08,0-.75.83-.69,1.29-.88.73-.44,1.55-1,1.47-2Zm-15.57.45a23.81,23.81,0,0,1-3.21,3.29c.5,0,.77.58,1.19.82a20.06,20.06,0,0,0,8.25,3.68L42,52c-.58-.66-1.4-1.44-1.43-2.36.58-.19.51-.84.71-1.27A3.22,3.22,0,0,1,43,47.44c-1.63.68-3.05-.53-4.41-1.16A6.42,6.42,0,0,1,36.57,44.57ZM59,49.07l-.11-.31a2.71,2.71,0,0,1-.73.92c0,.26-.08.65.23.83.64.21,1.48.63,1.63,1.38-.26.71-1.62,1.36-.78,2.13.28.39-.38.54-.27.86l.22-.31a23.34,23.34,0,0,0,2.88-2.4h.11c-.19-.07-.44.13-.66,0-.45-.21-.53-.61-.53-1.08ZM33,49.68,33,49.57l.06.19Zm.52.7a.73.73,0,0,1-.39-.5Zm.11.13c.1.38.62.63.47,1.11s-.84.45-1.29.44c-.92-.15-1.6.54-2.47.64s-1.06-.73-1.79-.64A25.39,25.39,0,0,0,44.2,58.75l.45.31-.19-.55V54.25l-.39.16A18.71,18.71,0,0,1,33.66,50.51Zm29.82,3-.08-.38a8.81,8.81,0,0,1-2.21,2.13c-1,1-2.76,1.27-3.29,2.79-.56.51-.76,1.32-1.55,1.61-.29.78-1.11.73-1.58,1.29-1.36,1.21-2.23-.77-3.45-1l-2.47.43a7.63,7.63,0,0,1-2.52,0,39,39,0,0,1,0,5.07l.31-.19a31.42,31.42,0,0,0,20.25-8.52Zm-35.82,0-.05.19L24.29,57a32.66,32.66,0,0,0,17.2,8.05,26.3,26.3,0,0,1,3.21.39l-.24-.39V60.69l.16-.24-.5.13A25.53,25.53,0,0,1,27.66,53.48Zm18.43,1.13.24.35a33.2,33.2,0,0,1,0,4,24.05,24.05,0,0,1,3.87-.55,1.38,1.38,0,0,1-.71-.42c-.75,0-1.11-.84-1.35-1.44-.12-.43.17-.79.35-1.16-.32-.66-1.32-.18-1.9-.42C46.43,54.83,46.31,54.64,46.09,54.61Z"/><path class="cls-1" d="M75.76,8.21a14.25,14.25,0,0,1,4.13,7.7l.39.9a33.86,33.86,0,0,1-8.74-9.29L68.86,4.81C71.21,5.81,73.75,6.41,75.76,8.21Z"/><path class="cls-1" d="M15.77,12.42c-1.58,2-3.6,3.25-5.39,4.93,1-2,1-4.39,2.37-6.23,1.95-3.41,5.57-4.6,8.79-5.86C19.17,7.34,17.53,10,15.77,12.42Z"/><path class="cls-1" d="M84.15,16c.76,3.39-.33,6.7.36,10.12l0,0c-1.84-3.63-5.76-5.34-8.46-8.25a11.61,11.61,0,0,1-2.63-6.05c1.55,3.73,5.71,4.55,8.1,7.68a10,10,0,0,1,1.58,2.55l.08-.08c-1.37-2.93-1.84-6.24-2.79-9.37a7.21,7.21,0,0,0-2.71-3.55C80.78,9.71,83.51,13,84.15,16Z"/><path class="cls-1" d="M12.83,9.65c-3.19,2.19-3,6.13-4,9.41-.32,1.21-.89,2.32-1.16,3.56l.08.07a11.09,11.09,0,0,1,2.63-3.88c2.27-2.09,5.63-3.4,6.74-6.5C17.07,16.62,13.48,20,10,22.43a14.4,14.4,0,0,0-3.57,4.26c-.08-1.08.16-2.18.08-3.34-.37-3.76-.64-8,2-10.84A8,8,0,0,1,12.83,9.65Z"/><path class="cls-1" d="M86.17,16.73a15.12,15.12,0,0,1,1.41,14.48,25,25,0,0,0-1.63,6c-.15-.36-.18-.84-.31-1.24-1.13-4.35-5.25-7.44-6.94-11.54a21.89,21.89,0,0,1-1.24-4.18c1.81,3.34,6.26,5.07,7.47,8.74a16.35,16.35,0,0,1,.77,3.1.12.12,0,0,0,.13-.11A42.24,42.24,0,0,1,86,20.44a9.47,9.47,0,0,0-1.36-5.56C85.35,15.3,85.67,16.1,86.17,16.73Z"/><path class="cls-1" d="M6,15.52C3.55,19.25,5.59,24,5.47,28.19l-.32,4.34s0,.16.16.11a14.7,14.7,0,0,0,.28-1.5c.58-3.5,3.61-6,6.27-8.4a6.78,6.78,0,0,0,1.36-2,17.73,17.73,0,0,1-1.49,5.11c-2.06,4-5.89,7.35-6.58,12-.34-4.42-3.36-7.73-3.05-12.42C2,21.56,3.58,18.44,5.81,15.6,5.88,15.57,5.92,15.51,6,15.52Z"/><path class="cls-1" d="M88.85,41.86c-1.69,2.4-3.74,4.64-5.31,7.1.18-1.94.4-4.33-.35-6.17a53.18,53.18,0,0,1-2.83-12.31l0-1.66c1,4.44,5.34,7.49,5.07,12.46a11.33,11.33,0,0,1-.5,3.29l.08.08.19-.23c.65-2.43,1-5,2-7.27,1.44-3.28,3.21-6.59,2.49-10.54C91.88,31.27,91.22,37.5,88.85,41.86Z"/><path class="cls-1" d="M4.76,40.31A41.16,41.16,0,0,0,6,45.23c.07,0,.12,0,.17-.08-1.67-4.65.72-9,3.13-12.59a12.16,12.16,0,0,0,1.21-3.21c.26,2.1-.28,4.52-.58,6.7-.58,2.77-1.46,5.4-2.21,8.1a12.63,12.63,0,0,0-.12,5.34l-.24-.19C5.6,46.05,2.12,43.52,1.08,40a19.84,19.84,0,0,1-.84-9.18,17.36,17.36,0,0,1,1-3.52C.26,32.3,3.65,35.94,4.76,40.31Z"/><path class="cls-1" d="M82.19,49.49a11.75,11.75,0,0,1-2,5.86h.19A71.12,71.12,0,0,1,85,49.22c2.81-2.72,5.66-5.49,6-9.25.95,6.28-2.56,11.78-7.78,15.33-2.14,1.4-4.32,2.71-6.39,4.31v-.2c3.17-5.26,1.62-12.47,3.57-18.25l.73-1.93C80.73,42.83,82.3,45.88,82.19,49.49Z"/><path class="cls-1" d="M12.9,56.62A35.46,35.46,0,0,0,14.38,60C9.57,56.75,3,53.64.89,47.63a15,15,0,0,1-.81-7C.47,46,6.21,48.8,8.88,53.22a15.23,15.23,0,0,0,2,2.66c-.12-.56-.66-1.05-.85-1.63a11.44,11.44,0,0,1-1-6.31c.26-2.73,1.4-5.26,1-8.13C12.3,44.86,11.59,51.15,12.9,56.62Z"/><path class="cls-1" d="M75,60.61a16,16,0,0,1-3.29,4c.42,0,.79-.39,1.16-.63,3.47-3.45,8-4.42,11.73-7.23a11.39,11.39,0,0,0,3.54-4.45c-.71,5.73-6.41,11.1-11.78,12.81-2.78.74-5.75,1-8.44,1.91C72.5,63,72.25,57,75.3,52.36a44.48,44.48,0,0,1,2.9-3.92C76.34,52.17,77.15,57,75,60.61Z"/><path class="cls-1" d="M17.4,55.77c1.61,4,2.22,8.45,6,11.45-4-1.32-8.76-1-12.31-3.43C7.15,61.4,3.68,57.35,3,52.89,5.63,59,12.35,59.46,16.85,63.16A11.34,11.34,0,0,0,19.48,65l.05,0a15.54,15.54,0,0,1-3-3.21C13.94,58,14.86,52.89,12.9,49A29.45,29.45,0,0,1,17.4,55.77Z"/><path class="cls-1" d="M65.26,67.58A25.65,25.65,0,0,1,62,68.82a33.68,33.68,0,0,0,4.21-.63c5.32-.84,11.42,0,15.15-4.52-1.39,3.17-4.86,5.81-8,6.93-5.44,2.05-10.91-.47-16.12-1.31l-1-.13v0A14.73,14.73,0,0,0,63.13,66c2.92-2.81,5.52-5.7,8.76-7.91C69.49,61.21,69.23,65.59,65.26,67.58Z"/><path class="cls-1" d="M27.93,66.11a15,15,0,0,0,7.17,3.18c-.63.23-1.45.16-2.13.34-4.7,1.16-9.92,3.05-14.91,1.35a14.45,14.45,0,0,1-8.21-6.77c4.29,4.89,11.31,3.26,17,4.53a8,8,0,0,0,2.4.31c-.68-.44-1.63-.39-2.37-.78-4.49-1.58-5.15-6.44-7.59-9.71C22.45,60.62,25.06,63.42,27.93,66.11Z"/><path class="cls-1" d="M63,72.73a12.44,12.44,0,0,0,11-1.2,13.08,13.08,0,0,1-5.81,4.07c-4.84,1.81-9.89-.08-13.66-2.95-1.54-1-2.89-2.38-4.88-2.25a7,7,0,0,0-2,.2,37.32,37.32,0,0,1,10.22,7.08A15,15,0,0,1,56,79.36c-3-3.24-6.34-6.36-10.07-8.18a6.33,6.33,0,0,0-2.08.89,31.12,31.12,0,0,0-8.29,7.4l-1.94-1.6a35.56,35.56,0,0,1,10.27-7.31c-3.68-1.16-6.09,1.92-8.88,3.49-3.26,2.27-7.94,3.34-11.88,1.77a12.9,12.9,0,0,1-5.69-3.9,12.62,12.62,0,0,0,11.23,1c4.73-2,9.63-4.65,15.33-3.41.89,0,1.76.91,2.6.15a18.15,18.15,0,0,1,12.66,1.6Z"/><path class="cls-2" d="M502.81,30.47a23.11,23.11,0,0,1,3.64-4.69L494.51,12.69a41.06,41.06,0,0,0-7.58,9.87Z"/><path class="cls-3" d="M532.08,21.22a22.54,22.54,0,0,1,5,3.13l12-13.07a40.84,40.84,0,0,0-10.62-6.62Z"/><path class="cls-4" d="M559.51,25.15l-15.87,7.91a23,23,0,0,1,1.58,5.61L562.88,37a40.47,40.47,0,0,0-3.37-11.86"/><path class="cls-5" d="M542.5,30.77l15.87-7.91A41.18,41.18,0,0,0,551,13L539,26.09a23,23,0,0,1,3.52,4.68"/><path class="cls-6" d="M499.66,42.05c0-.36,0-.72,0-1.07L482,39.4c-.06.87-.09,1.76-.09,2.65a40.69,40.69,0,0,0,1.2,9.82L500.2,47a22.92,22.92,0,0,1-.54-4.93"/><path class="cls-7" d="M540.27,56.56a22.93,22.93,0,0,1-4.3,4l9.32,15.1a41.11,41.11,0,0,0,9.13-8.48Z"/><path class="cls-8" d="M545.47,42.05a23,23,0,0,1-.52,4.87l17,4.9a40.34,40.34,0,0,0,1.19-9.77c0-.84,0-1.67-.08-2.5l-17.65,1.67c0,.28,0,.55,0,.83"/><path class="cls-9" d="M505.14,56.9,491,67.63A40.91,40.91,0,0,0,500.24,76l9.33-15.08a23.08,23.08,0,0,1-4.43-4"/><path class="cls-10" d="M499.94,38.43a22.83,22.83,0,0,1,1.7-5.69l-15.87-7.9a40.53,40.53,0,0,0-3.5,12Z"/><path class="cls-11" d="M543.12,77.07,533.81,62a23.27,23.27,0,0,1-5.43,2.21l3.29,17.44a40.15,40.15,0,0,0,11.45-4.58"/><path class="cls-12" d="M544.27,49.39a22.93,22.93,0,0,1-2.48,5.1L556,65.17a40.26,40.26,0,0,0,5.36-10.88Z"/><path class="cls-13" d="M525.87,64.72a24,24,0,0,1-3.3.24,23.35,23.35,0,0,1-2.67-.16l-3.29,17.44a41.81,41.81,0,0,0,6,.43,40.76,40.76,0,0,0,6.58-.53Z"/><path class="cls-14" d="M524,19.19a22.6,22.6,0,0,1,5.67,1.09l6.37-16.55a40.36,40.36,0,0,0-12-2.28Z"/><path class="cls-15" d="M517.37,64.36a22.78,22.78,0,0,1-5.62-2.12l-9.33,15.08a40.2,40.2,0,0,0,11.67,4.46Z"/><path class="cls-16" d="M515.68,20.2a22.6,22.6,0,0,1,5.79-1V1.44a40.36,40.36,0,0,0-12.2,2.22Z"/><path class="cls-17" d="M503.59,54.86a22.62,22.62,0,0,1-2.7-5.41l-17.05,4.89a40.64,40.64,0,0,0,5.63,11.25Z"/><path class="cls-18" d="M508.37,24.08a23.53,23.53,0,0,1,4.91-3l-6.4-16.53A40.53,40.53,0,0,0,496.42,11Z"/><path class="cls-1" d="M184.49,1.44H211.9c16.43,0,25,8.42,25,20.94,0,8.53-4.83,13.35-10.37,15.92v.21c6.87,1.64,12.83,7.9,12.83,17.55,0,14.17-10.88,22.59-26.8,22.59h-28Zm24.75,31.73c7.29,0,12.21-3.29,12.21-9.45,0-6.37-4.72-9.14-10.88-9.14H199.89V33.17Zm.82,32.34c9.75,0,13.24-4.31,13.24-9.75,0-4.93-3.08-10.07-12-10.07h-11.4V65.51Z"/><path class="cls-1" d="M240.75,1.44h35.32V52.37c0,24.43-14.58,26.9-30.18,26.9H241V66.13h7.9c7.5,0,11.81-2.26,11.81-10.27V15.2H240.75Z"/><path class="cls-1" d="M286.23,1.44h49.29V15.2H301.63V32.76h33V46.51h-33V64.89h33.89V78.65H286.23Z"/><path class="cls-1" d="M357.9,15.2H337.57V1.44h56.06V15.2H373.3V78.65H357.9Z"/><path class="cls-1" d="M400.09,1.44h15.4V78.65h-15.4Z"/><path class="cls-1" d="M469.5,1.44h16.63L461.08,78.65H444.86L419.7,1.44h16.94l16.53,56.78h.21Z"/><path class="cls-1" d="M140.68,0c24,0,37.58,19.31,37.58,40.05s-13.55,40-37.58,40-37.58-19.3-37.58-40S116.65,0,140.68,0Zm0,13.76c-14.38,0-21.57,12.42-21.57,26.29s7.19,26.28,21.57,26.28,21.56-12.42,21.56-26.28S155.05,13.76,140.68,13.76Z"/><path class="cls-1" d="M606.15,21.77c0-5.34-5.13-8.63-11.29-8.63-7.7,0-12.33,3.39-12.33,8.53,0,5.33,5.14,7.9,8.94,9.13l14.17,4.52c10.27,3.29,17.56,9.24,17.56,21.15,0,9.45-6.78,23.62-28.14,23.62-26.8,0-29.26-17.35-29.26-24.23l15.4-.31c0,8.21,6.47,11.4,14,11.4,5.24,0,12.63-2.57,12.63-8.53,0-4.1-1.74-6.26-9.34-9l-16.84-6.06c-8.52-3.08-14.48-10.57-14.48-19.3,0-9.86,6.78-24,26.8-24,23.82,0,27.62,15.81,27.62,21.46Z"/></g></g></svg>