<svg id="Layer_1" data-name="Layer 1" xmlns="http://www.w3.org/2000/svg" width="596" height="78" viewBox="0 0 596 78"><defs><style>.cls-1{fill:#fff;}.cls-2{fill:#5fba46;}.cls-3{fill:#d19f2a;}.cls-4{fill:#c22033;}.cls-5{fill:#2d9a47;}.cls-6{fill:#48773c;}.cls-7{fill:#fdb714;}.cls-8{fill:#ef412a;}.cls-9{fill:#f99d25;}.cls-10{fill:#007dbb;}.cls-11{fill:#8f1838;}.cls-12{fill:#00add8;}.cls-13{fill:#f36e24;}.cls-14{fill:#ea1c2d;}.cls-15{fill:#e01a83;}.cls-16{fill:#1a3668;}.cls-17{fill:#cd8b2a;}.cls-18{fill:#00558a;}</style></defs><title>Artboard 7 copyUNsdgs</title><path class="cls-1" d="M66.17,21.28A27,27,0,0,1,68,40.4,27.78,27.78,0,0,1,52.85,58c-8,3.93-19.42,3-26.58-2.18-9.94-6.82-14-18.56-11-30.15a27.7,27.7,0,0,1,14-17A28.64,28.64,0,0,1,41.66,5.74,27.33,27.33,0,0,1,66.17,21.28ZM42.2,7.07a18.78,18.78,0,0,1,0,3.76.59.59,0,0,1,.13-.33c.19-.11.35.06.43.19s.1.52-.07.63c.17,0,.25-.1.4-.1a20.25,20.25,0,0,1,8.58,2.61v-.06c.53-.26,1.21-.6,1.76-.14.65-.24.77.56,1.3.65a2.89,2.89,0,0,1,1.45,1.84c.12.25.5.42.55.68a10.61,10.61,0,0,1,2.06-2.38l.46-.19A25.38,25.38,0,0,0,44.85,7.4,20.85,20.85,0,0,1,42.2,7.07Zm-1.52.14A26.5,26.5,0,0,0,26,12.39c-.83.57-1.57,1.44-2.41,1.93h.12a22.9,22.9,0,0,1,3,2.9l.07-.19a21.61,21.61,0,0,1,13.9-5.85l-.12-.33,0-3.26Zm4.67,2.05-2,.85c-.17-.07-.48-.15-.59.06s0,.17,0,.24c.72.92,2,.4,2.87.23a1.73,1.73,0,0,0,1.77-.47v-.09A2.76,2.76,0,0,0,45.35,9.26Zm-3.17,3.36.13.26c0,1.27.06,2.61-.07,3.8a4.37,4.37,0,0,1,1.57.05,16,16,0,0,1,7.32,2.94,1.94,1.94,0,0,1-.63-1,.14.14,0,0,1,.16-.05c0-.43-.42-.64-.49-1a.28.28,0,0,1,.3-.13,8.72,8.72,0,0,1,1.2,1.41c.3-.13.55.06.76.23.4.23.15.73.45,1,.06.81,1,1.26,1,2.06,0,.19.25,0,.33.13l.81,1c-.15.19,0,.42.14.56.37.16.57-.3.94-.23.53.3-.08.65,0,1,.21,0,.46-.17.63,0s-.25.49-.37.68.24.23.46.3.4.28.33.49c.68.7-.21,1.47.12,2.21a1.3,1.3,0,0,1-.35,1.34c0,.6-.53,1-.75,1.47l-.69.13c-.37.37.31.82-.06,1.05l1.52,0-.16-.17a2.23,2.23,0,0,1,.21-1.93,4.2,4.2,0,0,1,.72-1.49c.09,0,.27-.21.35,0a2.68,2.68,0,0,1-.23,1.4,4.19,4.19,0,0,1,.42,2.22c1.35-.09,2.67-.11,4-.1l-.13-.26a19.62,19.62,0,0,0-1.76-7c-.29,0-.49.25-.82.17a.25.25,0,0,1-.16-.28,21.26,21.26,0,0,0-1.5-1.65c-.69.06-1-.74-1.63-.82-.56-.23-.18-1.13-1-.89a1.29,1.29,0,0,1-.86-.91,2.23,2.23,0,0,0-.77-1.93c-.49-.18-.7.48-1.19.37-.27-.14-.15-.49-.23-.72s-.33-.36-.28-.63c.64-.84-.78-.83-.47-1.66-.08-.6-.69-.83-1-1.3a22,22,0,0,0-6.6-1.9A4.32,4.32,0,0,1,42.18,12.62Zm12.31,0c-.29.27-.53-.24-.79.07a.52.52,0,0,0,.09.39c.57.21.64,1,1.38.85.22-.25-.14-.51-.07-.82A.81.81,0,0,0,54.49,12.65ZM30.07,16.31c-.85.59-1.62,1.35-2.49,1.86a23.35,23.35,0,0,1,2.75,2.55l.09.26a16.33,16.33,0,0,1,8.16-4.14,7.15,7.15,0,0,1,2.15-.16,27,27,0,0,1,0-3.92A20.88,20.88,0,0,0,30.07,16.31ZM60.3,15.07A30.47,30.47,0,0,1,57.59,18l-.46.1c.28.07.36.41.56.61,1,.53,1.25,1.59,2.12,2.19.49,1,1.62,1.81,1.66,3a21.63,21.63,0,0,1,2.06,8.45l-.1.16a.53.53,0,0,0,.32-.12l3.92-.07c-.26-.38-.15-.94-.22-1.4A26.89,26.89,0,0,0,60.3,15.07Zm-37.42.1a26.77,26.77,0,0,0-7,14.85c-.15.82-.06,1.66-.22,2.49a29.44,29.44,0,0,1,4.2,0L19.81,32a22.19,22.19,0,0,1,4.08-11.66,11.37,11.37,0,0,1,1.82-2.08c-.88-.83-1.81-1.79-2.73-2.71ZM40.77,18l-.23.14A15.8,15.8,0,0,0,31.47,22a36.92,36.92,0,0,1,2.9,2.7l.2-.29a12.37,12.37,0,0,1,4.15-2.15A6.2,6.2,0,0,1,40.77,22,17.92,17.92,0,0,1,40.77,18Zm1.43,0,.14.3,0,3.68.35-.06a11.88,11.88,0,0,1,6.11,2.49l.1.28c.61-.86,1.54-1.59,2.26-2.41l.68-.39-.33-.14A16,16,0,0,0,46.58,19,23.8,23.8,0,0,0,42.2,18Zm-15.6,1,0,.26L25.1,21.18a21.69,21.69,0,0,0-3.89,11.29l3.73-.06.35.13c-.15-.09-.11-.26-.16-.39a16.4,16.4,0,0,1,4.34-10.22A26.82,26.82,0,0,1,26.6,19.06Zm26,3.78-.06.16c-1.26,1.31-2.63,2.66-3.83,4a.93.93,0,0,0,.37.39c0-.32.23-.61.26-.95.33-.45.81-.16,1.24-.07a9.06,9.06,0,0,1,1.93.14c.49.25.53.87,1,1.12a.37.37,0,0,1-.14.51c.14,1,.63-.27,1.14,0,.22.08.49.05.66.28.08.42.6.34.62.75,0,.2-.25.26-.39.37.12.41-.42.66-.23,1.1.79.15.81-.76,1.18-1.17a7.19,7.19,0,0,0-.76-2.06c-.45-.09-.72-.62-1.17-.72-.87-.34.13-.88,0-1.4A16.9,16.9,0,0,0,52.62,22.84ZM30.49,23a16,16,0,0,0-3.66,7.53,12.11,12.11,0,0,1-.33,2,3.48,3.48,0,0,1,1.7-.07c-.31-.16-.05-.55-.23-.77s-.09-.76.23-1c0-.56.56-.85.62-1.35s.8-.19,1.11-.49c.2-.11,0-.3,0-.45.27-.36.69-.35,1-.56a3,3,0,0,1,.91-.95c.82,0,.83-1.11,1.61-1.14A32,32,0,0,1,30.49,23Zm11.75.45a24.35,24.35,0,0,1,.19,2.81l1,.33c.29-.48.91-.57,1.19-1,.17-.15.38,0,.51.16A2.7,2.7,0,0,1,45,26.8c-.37.73-1.24.83-1.73,1.36.32.18.49-.15.75-.22a1.65,1.65,0,0,1,.91.61c.25.11.48,0,.7-.12.15-1.13,1.56-1,2-2l-.26.09c-.1-.15-.38-.08-.36-.33a3.09,3.09,0,0,1,.81-.65,14.11,14.11,0,0,0-3.87-1.77A12.51,12.51,0,0,1,42.24,23.43Zm-7.32,2.84h.3c.33.33.86.26,1.11.69.12.25-.24.22-.22.42s.16.07.22.17c.25.09.2-.15.29-.26.34-.34.4.33.73.33a.5.5,0,0,1,.72.09c.21-.19.68,0,.74-.37.43-.44.2-1.14.82-1.42.22.12,0,.32.07.51.42.18.9-.35,1.24.07a8.6,8.6,0,0,1-.21-3A9.32,9.32,0,0,0,34.92,26.27Zm6.6,2.26c-.22-.25-.69-.1-1,0,.27.27.17.76.33,1.1a2.59,2.59,0,0,1-1.73,1c-.18.22-.13.69-.56.65-.13.3-.6.48-.42.91a8.14,8.14,0,0,0-.23,1.57c-.8.5-.57-.67-1-.91l-.14.23c-.16,0-.27-.06-.38-.16A.42.42,0,0,0,36,33c-.18.3-.45.55-.38,1-.08.24-.49.16-.44.42a9.16,9.16,0,0,0,1.38-.19c.31.08.57-.15.88-.17a.3.3,0,0,1,.19.33h.11a.55.55,0,0,0,.22-.65c0-.29.34-.29.53-.37.17.08.07.26.09.39.62.24-.15.68-.23,1s0,.84-.51.76a.19.19,0,0,1-.14-.23h-.07a.69.69,0,0,0,.37.61c.38-.31.39-.84.94-.91.28-.3-.13-.76.3-1,.7,0,1.47-.32,2,.25,0,.25-.13.36.07.56a2.6,2.6,0,0,1-.49.91.46.46,0,0,1-.13.52c-.19.83-1.15.44-1.7.72a4.32,4.32,0,0,0,3,.82c.59,0,.33-.75.63-1.08.19-.95,1.06-.3,1.59-.56a3.74,3.74,0,0,0,.46-1.26.92.92,0,0,1-.37-1c-.23-.31-.2-.89-.7-.94a.27.27,0,0,1,.05-.33c0-.3.29-.39.37-.62-.31-.21-.23-.66-.2-.91-.54.15-.59-.55-1-.7-.1-.31-.44-.36-.71-.42-.65.31-.76-.49-1.25-.68-.06-.15-.17-.37,0-.49s.57,0,.85,0ZM29.7,31.89c-1.1.35.18,1.18-.1,1.86-.15.4-.55,0-.84.19l-.11.72c-.16.43-.69.11-.94.4s0,.56.17.77c-.38.87.85,1.15.84,1.94.38.48,0,1.19.49,1.63.12.88-.12,2.08.65,2.77L30,43c.16.58-.7.43-.59.95.17-.08.21.14.22.19v0a35.6,35.6,0,0,1,3.5-3.56l-.52-.52a13.55,13.55,0,0,1-2.09-4.67l-.4-.2c0,.44-.22.78-.19,1.21l-.14.16c-.28,0-.46-.24-.7-.39-.06-.15-.21-.39,0-.52a.45.45,0,0,1,.33.1c.12-.15.07-.37.14-.56s-.25-.63,0-.91c.25,0,.45.28.55.46.26.08.47-.13.68-.23,0-.23.33-.54,0-.68a3.25,3.25,0,0,0,0-1.61C30.57,31.77,30.07,31.85,29.7,31.89Zm25.47.46c-.11.06-.26,0-.4,0A.91.91,0,0,1,55.17,32.35Zm-.85,1.33.43.43c.42.28.13.89.58,1.14s.72.88,1,1.35a1.33,1.33,0,0,0,.13-.4c.19-.75.16-1.59.39-2.33A5.56,5.56,0,0,1,54.32,33.68Zm9.31.19-.23-.16.13.37a21.81,21.81,0,0,1-4.31,12.08,9,9,0,0,1-1.6,1.75,30.5,30.5,0,0,1,3,3l.11-.2a26.21,26.21,0,0,0,6.79-16.61l.16-.33-.2.1Zm-5.46-.09A13.42,13.42,0,0,1,58,36.23l.45.49a.49.49,0,0,1-.09.62.53.53,0,0,1-.63,0,17.75,17.75,0,0,1-2.38,5.2c-.45.57-.88,1.36-1.47,1.66l1.24,1.09c.07-.07,0-.18,0-.27s.08-.36.29-.33c.59,0,.61.62,1,1-.07.52.38.93.23,1.4a20.15,20.15,0,0,0,5.45-13l.2-.22c-1.23.12-2.52,0-3.79,0Zm-31.74,0,.21.33a10.77,10.77,0,0,1,.19,2.66c.15-.26.19-.61.52-.77,0-.25-.33-.31-.29-.56.26-.5,0-1.32.68-1.54A1.57,1.57,0,0,1,26.43,33.82Zm-6.55,0-.37.14-3.78,0a27.75,27.75,0,0,0,3.33,12A45.87,45.87,0,0,0,22.68,51l2.71-2.81.32-.13a8.26,8.26,0,0,1-1.26-1.31,1.84,1.84,0,0,1-1.14-.87c-.14-.15,0-.42-.17-.53l-.16.2c-.48.24-.65-.25-1-.46s-.22-1-.79-.88c-.22,0-.29-.26-.42-.4-.53.06-.67-.53-.95-.81-.06.12,0,.28-.17.36-.54.13-.73-.54-1.1-.81-.09,0-.16.15-.3.12a1.61,1.61,0,0,1-.56-1.14c-.44-.51-.24-1.31-.16-1.92.08-.16.31-.26.27-.46.12-.29.42-.32.71-.33a.62.62,0,0,1,.27.26c.18-.11.57,0,.42-.38a1.85,1.85,0,0,1,.89-.33,5.26,5.26,0,0,0,.61.84l-.19-.29a20.79,20.79,0,0,1-.65-4.14c0-.08-.18-.12-.07-.2l0,0A3.61,3.61,0,0,1,19.88,33.87Zm5.32,0-.3.14a33.85,33.85,0,0,1-3.79-.09l.17.23.3,2.5a19.28,19.28,0,0,1,.51,2.84c.15-.2.06-.61.43-.65-.15-.3.28-.56,0-.82a2.7,2.7,0,0,1,.77-1.79c.7,0,.75-.94,1.44-1,.36,0,.58.46.73.62A2.56,2.56,0,0,1,25.2,33.87Zm7,1.68c.38.71.58,1.51,1,2.22.24.62.79,1.11,1,1.72a9.44,9.44,0,0,1,1.15-1.33.74.74,0,0,0-.13-.53c-.12-.29,0-.69-.23-.94-.35.12.12.48,0,.68a.21.21,0,0,1-.32-.16A.91.91,0,0,1,34,36.6c.25-.17-.07-.24-.14-.37s-.15-.06-.26.07a.33.33,0,0,1-.2,0C33.39,35.49,32.52,36,32.19,35.55Zm4.27,1.07a2,2,0,0,1-.56.89l0,0c.33-.23.56-.65,1-.68Zm10.75,1.12a1,1,0,0,0,.22.65c.53-.08.3.65.79.59.27-.09,0-.32.09-.49-.08-.41-.48-.45-.75-.7a.31.31,0,0,1,.07-.22C47.43,37.47,47.33,37.59,47.21,37.74Zm7.7,0c-.4,0-.87.2-1.21-.07-.12-.11-.21,0-.19.16-.14.2-.27.46-.59.37s-.24-.37-.32-.56a1.42,1.42,0,0,1-.07.42,5,5,0,0,0-.59.91c-.28.32-.74.21-1,.47-.06.65-.78.51-1.19.72,0,.08.07.09.11.16a.55.55,0,0,0,.59-.14c.57.15.45-.57.77-.81.29,0,.56-.29.86-.1a1.9,1.9,0,0,1,.32,1.38c-.32.32-.16.85-.39,1.23.05.45-.49.66-.42,1.11a1,1,0,0,1-.75.23,12.68,12.68,0,0,0-3.4-.78.23.23,0,0,0-.16.26c.49.26,1.08.27,1.6.49s.78.69,1.36.52,1.31.16,1.63-.36c0-.5.39-.87.6-1.3l.17,0c.27.28.25.7.38,1,.38-.41.68-.86,1-1.28a12.2,12.2,0,0,0,2-4.21A4.3,4.3,0,0,0,54.91,37.77Zm-17.14,0a21.09,21.09,0,0,1-2.52,2.7,10.34,10.34,0,0,0,4.9,2.26c.09-.37-.06-.83.13-1.14s.51-.29.78-.23a.23.23,0,0,0,.16-.36c-.39-.08-.21-.51-.35-.76,0-.13.24-.11.19-.28-.27-.22.14-.47-.1-.7.1-.07.17-.22.3-.22-.85.45-1.78-.09-2.54-.43C38.37,38.4,37.85,38.2,37.77,37.77Zm7.9,2.38c0,.1-.19.3,0,.36.33-.34,1-.32,1-.81C46.24,39.63,46,39.89,45.67,40.15Zm1.54,1c-.42,0-.64.32-1,.58s-.57-.41-.89-.26c0,.07.08.1.14.13a.3.3,0,0,1,0,.39c-.46.42-.68-.2-1.12-.16V42c0,.1,0,.24-.16.19-.27-.45-.83-.29-1.1-.68-.18-.09-.34,0-.47.14s-.53,0-.42.32c-.34.13-.38.49-.62.71-.42-.07-.61.41-1,.39,0,.09,0,.22.12.24a1.48,1.48,0,0,0,.79.09c.41-.65,1.09-.11,1.66-.35.36.07.11.45.37.58.56-.17,1,.48,1.43.07,0-.64.69-.58,1.09-.75.61-.36,1.3-.85,1.23-1.67Zm-13.13.38a19.21,19.21,0,0,1-2.71,2.77c.42,0,.66.49,1,.7a17,17,0,0,0,6.95,3.1l-.65-.3c-.49-.56-1.18-1.21-1.21-2,.49-.16.43-.7.6-1.07A2.63,2.63,0,0,1,39.49,44c-1.37.57-2.57-.45-3.71-1C35.2,42.55,34.43,42.2,34.08,41.55ZM53,45.34l-.1-.26a2.18,2.18,0,0,1-.61.78c0,.22-.07.54.19.69.54.18,1.25.53,1.37,1.17-.21.6-1.36,1.15-.65,1.8.23.33-.33.45-.23.72l.19-.26a19.34,19.34,0,0,0,2.42-2h.1c-.17-.06-.37.1-.56,0-.38-.17-.45-.51-.45-.91Zm-21.88.52-.05-.1.05.17Zm.44.58a.57.57,0,0,1-.33-.42Zm.09.11c.08.33.52.53.4.94a1.17,1.17,0,0,1-1.09.37c-.78-.12-1.35.46-2.08.54s-.9-.61-1.51-.54a21.41,21.41,0,0,0,13.17,5.65l.38.25-.17-.46V49.71l-.32.14A15.8,15.8,0,0,1,31.63,46.55ZM56.77,49.1l-.07-.33a7.26,7.26,0,0,1-1.86,1.8c-.88.88-2.32,1.07-2.77,2.35-.48.44-.64,1.12-1.31,1.36-.24.65-.94.61-1.33,1.09-1.15,1-1.88-.65-2.92-.86l-2.08.37a6.57,6.57,0,0,1-2.12,0,30.43,30.43,0,0,1,0,4.27l.26-.16a26.47,26.47,0,0,0,17.07-7.19Zm-30.2,0,0,.16L23.73,52a27.49,27.49,0,0,0,14.5,6.78,24.45,24.45,0,0,1,2.71.33l-.21-.33V55.14l.14-.21-.42.11A21.43,21.43,0,0,1,26.57,49.06ZM42.11,50l.2.3a26.91,26.91,0,0,1,0,3.36,20.28,20.28,0,0,1,3.27-.46,1.17,1.17,0,0,1-.6-.36c-.64,0-.94-.7-1.14-1.21s.14-.66.29-1c-.27-.56-1.11-.15-1.6-.35C42.39,50.2,42.3,50,42.11,50Z"/><path class="cls-1" d="M67.13,10.9a12.06,12.06,0,0,1,3.48,6.49l.33.76a28.65,28.65,0,0,1-7.38-7.84L61.3,8C63.29,8.87,65.43,9.37,67.13,10.9Z"/><path class="cls-1" d="M16.54,14.45A44.49,44.49,0,0,1,12,18.6c.82-1.69.84-3.7,2-5.26,1.65-2.87,4.69-3.87,7.41-4.93A33.67,33.67,0,0,0,16.54,14.45Z"/><path class="cls-1" d="M74.2,17.45c.64,2.86-.29,5.65.3,8.53l0,0c-1.55-3.06-4.85-4.5-7.13-7A9.73,9.73,0,0,1,65.13,14c1.3,3.14,4.81,3.83,6.83,6.47a8.7,8.7,0,0,1,1.33,2.15l.07-.07C72.2,20,71.81,17.25,71,14.61a6.13,6.13,0,0,0-2.28-3C71.36,12.16,73.66,14.92,74.2,17.45Z"/><path class="cls-1" d="M14.07,12.11C11.37,14,11.55,17.28,10.69,20c-.27,1-.74,2-1,3l.07.06A9.46,9.46,0,0,1,12,19.83c1.92-1.76,4.75-2.87,5.69-5.48,0,3.63-3.08,6.49-6,8.53a12.26,12.26,0,0,0-3,3.59c-.07-.91.13-1.83.07-2.81-.32-3.17-.55-6.79,1.7-9.15A6.69,6.69,0,0,1,14.07,12.11Z"/><path class="cls-1" d="M75.9,18.08a12.75,12.75,0,0,1,1.19,12.2,21.21,21.21,0,0,0-1.38,5c-.12-.3-.15-.71-.26-1C74.5,30.61,71,28,69.6,24.54a18.32,18.32,0,0,1-1-3.52c1.53,2.81,5.28,4.27,6.3,7.37A13.68,13.68,0,0,1,75.51,31s.11,0,.11-.09a35.39,35.39,0,0,1,.12-9.7,8,8,0,0,0-1.15-4.7C75.21,16.87,75.48,17.55,75.9,18.08Z"/><path class="cls-1" d="M8.31,17.06C6.25,20.2,8,24.16,7.86,27.74L7.59,31.4s0,.13.14.09A12.74,12.74,0,0,0,8,30.23c.49-2.95,3.05-5.05,5.29-7.09a5.52,5.52,0,0,0,1.14-1.7,14.9,14.9,0,0,1-1.25,4.31c-1.74,3.4-5,6.19-5.55,10.08C7.31,32.11,4.76,29.32,5,25.36a12.57,12.57,0,0,1,3.13-8.23S8.25,17.05,8.31,17.06Z"/><path class="cls-1" d="M78.16,39.26c-1.43,2-3.16,3.92-4.48,6a11.55,11.55,0,0,0-.3-5.2A45.48,45.48,0,0,1,71,29.67l0-1.4c.83,3.74,4.51,6.31,4.28,10.5a9,9,0,0,1-.43,2.78l.07.07.17-.19a40.22,40.22,0,0,1,1.66-6.14c1.21-2.76,2.7-5.55,2.09-8.88C80.72,30.34,80.16,35.59,78.16,39.26Z"/><path class="cls-1" d="M7.27,38a35.46,35.46,0,0,0,1,4.15c.06,0,.1,0,.14-.07-1.4-3.92.61-7.55,2.64-10.61a10.52,10.52,0,0,0,1-2.71,22.67,22.67,0,0,1-.49,5.64c-.49,2.34-1.23,4.56-1.86,6.83a10.53,10.53,0,0,0-.1,4.51l-.2-.17C8,42.8,5,40.66,4.16,37.67a16.66,16.66,0,0,1-.7-7.74,14.23,14.23,0,0,1,.84-3C3.47,31.21,6.33,34.27,7.27,38Z"/><path class="cls-1" d="M72.54,45.7a9.72,9.72,0,0,1-1.66,4.94H71a62.38,62.38,0,0,1,3.85-5.17c2.37-2.29,4.78-4.63,5.09-7.8.81,5.29-2.16,9.93-6.55,12.92-1.81,1.19-3.65,2.29-5.39,3.64v-.17c2.66-4.43,1.36-10.51,3-15.38L71.66,37C71.32,40.08,72.64,42.65,72.54,45.7Z"/><path class="cls-1" d="M14.12,51.71c.29,1,.87,1.9,1.25,2.87C11.32,51.82,5.8,49.19,4,44.13a12.63,12.63,0,0,1-.68-5.9c.33,4.5,5.17,6.88,7.41,10.61a12.41,12.41,0,0,0,1.71,2.24c-.11-.47-.56-.88-.73-1.37a9.77,9.77,0,0,1-.88-5.32c.22-2.3,1.18-4.43.82-6.86C13.62,41.79,13,47.1,14.12,51.71Z"/><path class="cls-1" d="M66.5,55.07a13.33,13.33,0,0,1-2.78,3.33c.36,0,.67-.32,1-.53,2.93-2.91,6.74-3.72,9.89-6.09a9.45,9.45,0,0,0,3-3.76c-.59,4.83-5.4,9.36-9.93,10.8-2.34.63-4.84.83-7.11,1.61,3.85-3.31,3.63-8.42,6.2-12.31.82-1.1,1.5-2.26,2.45-3.31C67.62,48,68.3,52,66.5,55.07Z"/><path class="cls-1" d="M17.92,51c1.36,3.35,1.88,7.13,5,9.66-3.4-1.12-7.39-.8-10.38-2.9-3.28-2-6.21-5.43-6.82-9.18C8,53.68,13.66,54.1,17.46,57.22a9.43,9.43,0,0,0,2.21,1.51l0,0A13.35,13.35,0,0,1,17.22,56c-2.21-3.09-1.44-7.41-3.1-10.73A24.86,24.86,0,0,1,17.92,51Z"/><path class="cls-1" d="M58.27,61a22.21,22.21,0,0,1-2.73,1,29,29,0,0,0,3.55-.54c4.49-.7,9.63,0,12.77-3.8a12.07,12.07,0,0,1-6.76,5.83c-4.59,1.73-9.2-.39-13.59-1.1l-.85-.11v0a12.23,12.23,0,0,0,5.81-2.61c2.47-2.37,4.66-4.8,7.39-6.66C61.83,55.57,61.62,59.27,58.27,61Z"/><path class="cls-1" d="M26.8,59.71a12.72,12.72,0,0,0,6,2.68c-.53.19-1.22.14-1.79.29-4,1-8.37,2.57-12.57,1.14a12.21,12.21,0,0,1-6.93-5.72c3.62,4.13,9.54,2.75,14.37,3.83a7.18,7.18,0,0,0,2,.26c-.57-.37-1.37-.33-2-.66-3.78-1.33-4.34-5.43-6.39-8.19A57.93,57.93,0,0,1,26.8,59.71Z"/><path class="cls-1" d="M56.35,65.29a10.48,10.48,0,0,0,9.27-1,11,11,0,0,1-4.9,3.43c-4.08,1.52-8.34-.07-11.53-2.49-1.29-.82-2.43-2-4.1-1.89a5.5,5.5,0,0,0-1.7.16,31.59,31.59,0,0,1,8.61,6,12.57,12.57,0,0,1-1.57,1.42A30.41,30.41,0,0,0,41.94,64a5.49,5.49,0,0,0-1.75.75,26.2,26.2,0,0,0-7,6.24l-1.64-1.34a30,30,0,0,1,8.66-6.17c-3.11-1-5.13,1.62-7.49,2.94a10.95,10.95,0,0,1-14.81-1.79,10.66,10.66,0,0,0,9.47.81c4-1.72,8.12-3.91,12.92-2.87.75,0,1.48.76,2.19.13A15.33,15.33,0,0,1,53.18,64Z"/><path class="cls-1" d="M88,44.74h8.25c7.42,0,12.2,5.11,12.2,12.6v.33c0,7.48-4.78,12.63-12.2,12.63H88Zm5.29,4.78v16h2.92c4,0,6.76-2.81,6.76-7.89v-.18c0-5.08-2.74-7.93-6.76-7.93Z"/><path class="cls-1" d="M111.22,44.74h16.47v4.78H116.48V55h9.86v4.78h-9.86v5.7h11.36V70.3H111.22Z"/><path class="cls-1" d="M128.71,44.74h5.74l5.4,17.6,5.41-17.6h5.59l-8.62,25.71h-4.89Z"/><path class="cls-1" d="M152.67,44.74h16.48v4.78H157.93V55h9.87v4.78h-9.87v5.7h11.36V70.3H152.67Z"/><path class="cls-1" d="M172.1,44.74h5.3V65.45h10.34V70.3H172.1Z"/><path class="cls-1" d="M187.7,57.78v-.44c0-7.67,4.82-13,11.58-13s11.54,5.33,11.54,13v.44c0,7.64-4.82,13-11.58,13S187.7,65.41,187.7,57.78Zm17.64-.11v-.26c0-5-2.55-8.22-6.1-8.22s-6.1,3.14-6.1,8.18v.26c0,5,2.6,8.22,6.14,8.22S205.34,62.71,205.34,57.67Z"/><path class="cls-1" d="M213.67,44.74h8.51c5.73,0,9.35,3.32,9.35,8.76v.08c0,5.88-4.2,8.83-9.57,8.94h-3V70.3h-5.29Zm8.25,13a3.91,3.91,0,0,0,4.28-4.09v0c0-2.67-1.54-4.13-4.35-4.13H219v8.26Z"/><path class="cls-1" d="M233.65,44.74h5.55l5.7,10.37,5.62-10.37h5.59V70.3h-5.19V54l-6,10.55h-.11l-6-10.48V70.3h-5.15Z"/><path class="cls-1" d="M259.87,44.74h16.47v4.78H265.13V55H275v4.78h-9.86v5.7h11.36V70.3H259.87Z"/><path class="cls-1" d="M279.3,44.74h4.86L294,59.64V44.74h5.18V70.3H294.6L284.48,54.85V70.3H279.3Z"/><path class="cls-1" d="M307.79,49.63h-6.43V44.74h18.12v4.89h-6.43V70.3h-5.26Z"/><path class="cls-1" d="M85.85,32.05l3.45-4.28c1.88,1.64,4.16,3.16,7,3.16,2.24,0,3.6-1.12,3.6-2.76v0c0-1.41-.8-2.29-4.81-3.81-5-1.92-8-3.8-8-8.61v-.08c0-4.89,3.77-8.21,9.18-8.21a13.34,13.34,0,0,1,9,3.44L102,15.27a9.81,9.81,0,0,0-6-2.61c-2,0-3.25,1-3.25,2.45v0c0,1.6,1,2.36,5.33,4.16,4.89,1.93,7.53,4,7.53,8.38v.08c0,5.2-4,8.41-9.41,8.41A15,15,0,0,1,85.85,32.05Z"/><path class="cls-1" d="M108.08,24.92V7.78h5.81V25c0,4,1.88,5.93,4.89,5.93s4.88-1.92,4.88-5.81V7.78h5.77v17c0,7.73-4.24,11.46-10.73,11.46S108.08,32.49,108.08,24.92Z"/><path class="cls-1" d="M131.15,32.05l3.45-4.28c1.88,1.64,4.16,3.16,7,3.16,2.24,0,3.6-1.12,3.6-2.76v0c0-1.41-.8-2.29-4.8-3.81-5-1.92-8.06-3.8-8.06-8.61v-.08c0-4.89,3.77-8.21,9.18-8.21a13.34,13.34,0,0,1,9,3.44l-3.24,4.41a9.86,9.86,0,0,0-6-2.61c-2,0-3.25,1-3.25,2.45v0c0,1.6,1,2.36,5.33,4.16,4.89,1.93,7.53,4,7.53,8.38v.08c0,5.2-4,8.41-9.41,8.41A15,15,0,0,1,131.15,32.05Z"/><path class="cls-1" d="M158.51,13.14h-7V7.78h19.87v5.36h-7.05V35.82h-5.77Z"/><path class="cls-1" d="M178.82,7.62h5.53l10.05,28.2h-6l-2.08-6.09h-9.65l-2,6.09h-5.85Zm5.73,17-3.05-9.13-3.08,9.13Z"/><path class="cls-1" d="M196.6,7.78h5.81v28H196.6Z"/><path class="cls-1" d="M206.74,7.78h5.32L222.8,24.12V7.78h5.69v28h-5l-11.1-16.95v17h-5.68Z"/><path class="cls-1" d="M240.54,7.62h5.53l10.06,28.2h-6L248,29.73h-9.65l-2,6.09h-5.85Zm5.73,17-3-9.13-3.09,9.13Z"/><path class="cls-1" d="M258.13,7.78h10.41c3.13,0,5.73.84,7.33,2.44A6.5,6.5,0,0,1,277.76,15v.12A6.58,6.58,0,0,1,274,21.24c3,1.16,5,3,5,6.69v.2c0,5-4,7.69-10.14,7.69H258.13ZM272,16c0-2-1.45-3.13-3.93-3.13h-4.33v6.33h4.05c2.56,0,4.21-1,4.21-3.16Zm-3.17,8.09h-5.09v6.57H269c2.61,0,4.25-1.12,4.25-3.29v0C273.23,25.36,271.75,24.12,268.86,24.12Z"/><path class="cls-1" d="M281.68,7.78h5.81V30.49h11.33v5.33H281.68Z"/><path class="cls-1" d="M301.23,7.78h18.06V13H307v6.05h10.82v5.25H307v6.25h12.46v5.25H301.23Z"/><path class="cls-1" d="M359.84,38.05h28.33c-.49,22.78-13.06,34.21-30,34.21-18.21,0-29.88-15.35-29.88-31.84S340,8.58,358.21,8.58c20.17,0,25.72,12.57,28,19.11l-12.82.81c-2.2-5.39-6.61-9-15.18-9-9.63,0-17.15,7.84-17.15,20.9,0,11,6.94,20.9,18,20.9,9.87,0,14.45-7,15.51-12.82h-14.7Z"/><path class="cls-1" d="M509.22,9.89h12.21V59.72H545v11.4H509.22Z"/><path class="cls-1" d="M579.23,26c0-4.23-4.07-6.84-9-6.84-6.11,0-9.77,2.69-9.77,6.76,0,4.24,4.07,6.27,7.08,7.25l11.24,3.58c8.14,2.61,13.92,7.33,13.92,16.77,0,7.5-5.37,18.73-22.31,18.73-21.25,0-23.21-13.76-23.21-19.22l12.22-.24c0,6.51,5.13,9,11.07,9,4.15,0,10-2,10-6.76,0-3.26-1.39-5-7.41-7.17l-13.36-4.8c-6.75-2.44-11.48-8.38-11.48-15.31,0-7.81,5.38-19,21.25-19,18.9,0,21.91,12.54,21.91,17Z"/><path class="cls-2" d="M407.69,32.89a18,18,0,0,1,2.71-3.48l-8.88-9.74A30.61,30.61,0,0,0,395.88,27Z"/><path class="cls-3" d="M429.46,26a17.1,17.1,0,0,1,3.73,2.34l8.9-9.73a30.16,30.16,0,0,0-7.89-4.92Z"/><path class="cls-4" d="M449.86,28.94l-11.8,5.89A17.08,17.08,0,0,1,439.24,39l13.13-1.24a30.14,30.14,0,0,0-2.51-8.82"/><path class="cls-5" d="M437.21,33.12,449,27.24a30.25,30.25,0,0,0-5.51-7.33l-8.91,9.73a16.8,16.8,0,0,1,2.62,3.48"/><path class="cls-6" d="M405.35,41.51c0-.27,0-.53,0-.8l-13.13-1.17c-.05.65-.07,1.31-.07,2a30.28,30.28,0,0,0,.89,7.3l12.69-3.64a17,17,0,0,1-.4-3.66"/><path class="cls-7" d="M435.56,52.3a17.35,17.35,0,0,1-3.21,3l6.94,11.22a30.56,30.56,0,0,0,6.79-6.3Z"/><path class="cls-8" d="M439.42,41.51a16.66,16.66,0,0,1-.39,3.62l12.68,3.65a30.09,30.09,0,0,0,.89-7.27q0-.93-.06-1.86l-13.13,1.24c0,.21,0,.41,0,.62"/><path class="cls-9" d="M409.43,52.55l-10.5,8a30.22,30.22,0,0,0,6.85,6.21l6.94-11.21a17.26,17.26,0,0,1-3.29-3"/><path class="cls-10" d="M405.56,38.82a17.24,17.24,0,0,1,1.26-4.23L395,28.71a29.9,29.9,0,0,0-2.6,8.93Z"/><path class="cls-11" d="M437.67,67.56l-6.92-11.21a17.21,17.21,0,0,1-4,1.64l2.44,13a30,30,0,0,0,8.52-3.4"/><path class="cls-12" d="M438.53,47a16.65,16.65,0,0,1-1.85,3.79l10.53,8a30,30,0,0,0,4-8.1Z"/><path class="cls-13" d="M424.84,58.37a18,18,0,0,1-2.45.18,18.49,18.49,0,0,1-2-.12L418,71.4a30.8,30.8,0,0,0,4.43.32,30.35,30.35,0,0,0,4.89-.39Z"/><path class="cls-14" d="M423.47,24.51a16.78,16.78,0,0,1,4.22.81L432.43,13a29.91,29.91,0,0,0-9-1.7Z"/><path class="cls-15" d="M418.52,58.1a16.85,16.85,0,0,1-4.18-1.58l-6.93,11.22a29.91,29.91,0,0,0,8.67,3.32Z"/><path class="cls-16" d="M417.27,25.26a16.93,16.93,0,0,1,4.3-.77V11.3A30.23,30.23,0,0,0,412.5,13Z"/><path class="cls-17" d="M408.27,51a16.87,16.87,0,0,1-2-4l-12.67,3.64A30.25,30.25,0,0,0,397.77,59Z"/><path class="cls-18" d="M411.83,28.15a17,17,0,0,1,3.65-2.22l-4.76-12.29a30,30,0,0,0-7.78,4.76Z"/><path class="cls-1" d="M489.19,58.15h-22.7l-4,13H449.08L471.69,9h13L507,71.11H493.4ZM478,24h-.16L470,48.08h15.93Z"/></svg>